G04 #@! TF.GenerationSoftware,KiCad,Pcbnew,9.0.7+1*
G04 #@! TF.CreationDate,2026-06-05T13:03:02+00:00*
G04 #@! TF.ProjectId,hw-module-xesc,68772d6d-6f64-4756-9c65-2d786573632e,rev?*
G04 #@! TF.SameCoordinates,Original*
G04 #@! TF.FileFunction,Legend,Top*
G04 #@! TF.FilePolarity,Positive*
%FSLAX46Y46*%
G04 Gerber Fmt 4.6, Leading zero omitted, Abs format (unit mm)*
G04 Created by KiCad (PCBNEW 9.0.7+1) date 2026-06-05 13:03:02*
%MOMM*%
%LPD*%
G01*
G04 APERTURE LIST*
%ADD10C,0.100000*%
%ADD11C,0.300000*%
%ADD12C,0.150000*%
%ADD13C,0.120000*%
%ADD14C,0.000000*%
%ADD15O,1.950000X1.700000*%
%ADD16R,3.800000X3.800000*%
%ADD17C,3.800000*%
%ADD18C,0.900000*%
%ADD19C,8.600000*%
%ADD20R,2.000000X2.000000*%
%ADD21C,2.000000*%
%ADD22R,2.600000X2.600000*%
%ADD23C,2.600000*%
%ADD24O,3.000000X1.700000*%
%ADD25O,1.700000X3.000000*%
%ADD26R,4.200000X1.400000*%
%ADD27R,1.700000X1.700000*%
%ADD28O,1.700000X1.700000*%
G04 APERTURE END LIST*
D10*
X76327693Y-95670038D02*
X76232455Y-95622419D01*
X76232455Y-95622419D02*
X76089598Y-95622419D01*
X76089598Y-95622419D02*
X75946741Y-95670038D01*
X75946741Y-95670038D02*
X75851503Y-95765276D01*
X75851503Y-95765276D02*
X75803884Y-95860514D01*
X75803884Y-95860514D02*
X75756265Y-96050990D01*
X75756265Y-96050990D02*
X75756265Y-96193847D01*
X75756265Y-96193847D02*
X75803884Y-96384323D01*
X75803884Y-96384323D02*
X75851503Y-96479561D01*
X75851503Y-96479561D02*
X75946741Y-96574800D01*
X75946741Y-96574800D02*
X76089598Y-96622419D01*
X76089598Y-96622419D02*
X76184836Y-96622419D01*
X76184836Y-96622419D02*
X76327693Y-96574800D01*
X76327693Y-96574800D02*
X76375312Y-96527180D01*
X76375312Y-96527180D02*
X76375312Y-96193847D01*
X76375312Y-96193847D02*
X76184836Y-96193847D01*
X76803884Y-96622419D02*
X76803884Y-95622419D01*
X76803884Y-95622419D02*
X77375312Y-96622419D01*
X77375312Y-96622419D02*
X77375312Y-95622419D01*
X77851503Y-96622419D02*
X77851503Y-95622419D01*
X77851503Y-95622419D02*
X78089598Y-95622419D01*
X78089598Y-95622419D02*
X78232455Y-95670038D01*
X78232455Y-95670038D02*
X78327693Y-95765276D01*
X78327693Y-95765276D02*
X78375312Y-95860514D01*
X78375312Y-95860514D02*
X78422931Y-96050990D01*
X78422931Y-96050990D02*
X78422931Y-96193847D01*
X78422931Y-96193847D02*
X78375312Y-96384323D01*
X78375312Y-96384323D02*
X78327693Y-96479561D01*
X78327693Y-96479561D02*
X78232455Y-96574800D01*
X78232455Y-96574800D02*
X78089598Y-96622419D01*
X78089598Y-96622419D02*
X77851503Y-96622419D01*
X75756265Y-99324800D02*
X75899122Y-99372419D01*
X75899122Y-99372419D02*
X76137217Y-99372419D01*
X76137217Y-99372419D02*
X76232455Y-99324800D01*
X76232455Y-99324800D02*
X76280074Y-99277180D01*
X76280074Y-99277180D02*
X76327693Y-99181942D01*
X76327693Y-99181942D02*
X76327693Y-99086704D01*
X76327693Y-99086704D02*
X76280074Y-98991466D01*
X76280074Y-98991466D02*
X76232455Y-98943847D01*
X76232455Y-98943847D02*
X76137217Y-98896228D01*
X76137217Y-98896228D02*
X75946741Y-98848609D01*
X75946741Y-98848609D02*
X75851503Y-98800990D01*
X75851503Y-98800990D02*
X75803884Y-98753371D01*
X75803884Y-98753371D02*
X75756265Y-98658133D01*
X75756265Y-98658133D02*
X75756265Y-98562895D01*
X75756265Y-98562895D02*
X75803884Y-98467657D01*
X75803884Y-98467657D02*
X75851503Y-98420038D01*
X75851503Y-98420038D02*
X75946741Y-98372419D01*
X75946741Y-98372419D02*
X76184836Y-98372419D01*
X76184836Y-98372419D02*
X76327693Y-98420038D01*
X76756265Y-99372419D02*
X76756265Y-98372419D01*
X76756265Y-98848609D02*
X77327693Y-98848609D01*
X77327693Y-99372419D02*
X77327693Y-98372419D01*
X77803884Y-98372419D02*
X77803884Y-99181942D01*
X77803884Y-99181942D02*
X77851503Y-99277180D01*
X77851503Y-99277180D02*
X77899122Y-99324800D01*
X77899122Y-99324800D02*
X77994360Y-99372419D01*
X77994360Y-99372419D02*
X78184836Y-99372419D01*
X78184836Y-99372419D02*
X78280074Y-99324800D01*
X78280074Y-99324800D02*
X78327693Y-99277180D01*
X78327693Y-99277180D02*
X78375312Y-99181942D01*
X78375312Y-99181942D02*
X78375312Y-98372419D01*
X78708646Y-98372419D02*
X79280074Y-98372419D01*
X78994360Y-99372419D02*
X78994360Y-98372419D01*
X76375312Y-101872419D02*
X76041979Y-101396228D01*
X75803884Y-101872419D02*
X75803884Y-100872419D01*
X75803884Y-100872419D02*
X76184836Y-100872419D01*
X76184836Y-100872419D02*
X76280074Y-100920038D01*
X76280074Y-100920038D02*
X76327693Y-100967657D01*
X76327693Y-100967657D02*
X76375312Y-101062895D01*
X76375312Y-101062895D02*
X76375312Y-101205752D01*
X76375312Y-101205752D02*
X76327693Y-101300990D01*
X76327693Y-101300990D02*
X76280074Y-101348609D01*
X76280074Y-101348609D02*
X76184836Y-101396228D01*
X76184836Y-101396228D02*
X75803884Y-101396228D01*
X76708646Y-100872419D02*
X77375312Y-101872419D01*
X77375312Y-100872419D02*
X76708646Y-101872419D01*
X75661027Y-103372419D02*
X76232455Y-103372419D01*
X75946741Y-104372419D02*
X75946741Y-103372419D01*
X76470551Y-103372419D02*
X77137217Y-104372419D01*
X77137217Y-103372419D02*
X76470551Y-104372419D01*
X76280074Y-105872419D02*
X75803884Y-105872419D01*
X75803884Y-105872419D02*
X75756265Y-106348609D01*
X75756265Y-106348609D02*
X75803884Y-106300990D01*
X75803884Y-106300990D02*
X75899122Y-106253371D01*
X75899122Y-106253371D02*
X76137217Y-106253371D01*
X76137217Y-106253371D02*
X76232455Y-106300990D01*
X76232455Y-106300990D02*
X76280074Y-106348609D01*
X76280074Y-106348609D02*
X76327693Y-106443847D01*
X76327693Y-106443847D02*
X76327693Y-106681942D01*
X76327693Y-106681942D02*
X76280074Y-106777180D01*
X76280074Y-106777180D02*
X76232455Y-106824800D01*
X76232455Y-106824800D02*
X76137217Y-106872419D01*
X76137217Y-106872419D02*
X75899122Y-106872419D01*
X75899122Y-106872419D02*
X75803884Y-106824800D01*
X75803884Y-106824800D02*
X75756265Y-106777180D01*
X76613408Y-105872419D02*
X76946741Y-106872419D01*
X76946741Y-106872419D02*
X77280074Y-105872419D01*
D11*
X45711653Y-109200828D02*
X46640225Y-109200828D01*
X46640225Y-109200828D02*
X46140225Y-109772257D01*
X46140225Y-109772257D02*
X46354510Y-109772257D01*
X46354510Y-109772257D02*
X46497368Y-109843685D01*
X46497368Y-109843685D02*
X46568796Y-109915114D01*
X46568796Y-109915114D02*
X46640225Y-110057971D01*
X46640225Y-110057971D02*
X46640225Y-110415114D01*
X46640225Y-110415114D02*
X46568796Y-110557971D01*
X46568796Y-110557971D02*
X46497368Y-110629400D01*
X46497368Y-110629400D02*
X46354510Y-110700828D01*
X46354510Y-110700828D02*
X45925939Y-110700828D01*
X45925939Y-110700828D02*
X45783082Y-110629400D01*
X45783082Y-110629400D02*
X45711653Y-110557971D01*
X47925939Y-109700828D02*
X47925939Y-110700828D01*
X47568796Y-109129400D02*
X47211653Y-110200828D01*
X47211653Y-110200828D02*
X48140224Y-110200828D01*
X48497367Y-109200828D02*
X48997367Y-110700828D01*
X48997367Y-110700828D02*
X49497367Y-109200828D01*
X51140223Y-110700828D02*
X51140223Y-109200828D01*
X51140223Y-109200828D02*
X51640223Y-110272257D01*
X51640223Y-110272257D02*
X52140223Y-109200828D01*
X52140223Y-109200828D02*
X52140223Y-110700828D01*
X52783081Y-110272257D02*
X53497367Y-110272257D01*
X52640224Y-110700828D02*
X53140224Y-109200828D01*
X53140224Y-109200828D02*
X53640224Y-110700828D01*
X53997366Y-109200828D02*
X54997366Y-110700828D01*
X54997366Y-109200828D02*
X53997366Y-110700828D01*
D12*
X43328571Y-105864700D02*
X44471429Y-105864700D01*
X56328571Y-105864700D02*
X57471429Y-105864700D01*
X56900000Y-106436128D02*
X56900000Y-105293271D01*
D13*
X61667500Y-72806141D02*
X61667500Y-72498859D01*
X62427500Y-72806141D02*
X62427500Y-72498859D01*
X54840000Y-48000000D02*
X54840000Y-52300000D01*
X54840000Y-48000000D02*
X60650000Y-48000000D01*
X54840000Y-52300000D02*
X60650000Y-52300000D01*
X68461252Y-60740000D02*
X67038748Y-60740000D01*
X68461252Y-62560000D02*
X67038748Y-62560000D01*
X69137500Y-79562500D02*
X69137500Y-75802500D01*
X69137500Y-79562500D02*
X71157500Y-79562500D01*
X71157500Y-79562500D02*
X71157500Y-75802500D01*
X69412500Y-82063752D02*
X69412500Y-81541248D01*
X70882500Y-82063752D02*
X70882500Y-81541248D01*
X68040000Y-110500000D02*
X68040000Y-113184999D01*
X68040000Y-113184999D02*
X69960000Y-113184999D01*
X69960000Y-113184999D02*
X69960000Y-110500000D01*
X65990000Y-90100000D02*
X65990000Y-93400000D01*
X65990000Y-90100000D02*
X71500000Y-90100000D01*
X65990000Y-93400000D02*
X71500000Y-93400000D01*
X56538748Y-63240000D02*
X57961252Y-63240000D01*
X56538748Y-65060000D02*
X57961252Y-65060000D01*
X67840000Y-55861252D02*
X67840000Y-54438748D01*
X69660000Y-55861252D02*
X69660000Y-54438748D01*
X56538748Y-65740000D02*
X57961252Y-65740000D01*
X56538748Y-67560000D02*
X57961252Y-67560000D01*
X57689999Y-92600000D02*
X57689999Y-96900000D01*
X57689999Y-92600000D02*
X63499999Y-92600000D01*
X57689999Y-96900000D02*
X63499999Y-96900000D01*
X76227064Y-34365000D02*
X75772936Y-34365000D01*
X76227064Y-35835000D02*
X75772936Y-35835000D01*
X62590000Y-48000000D02*
X62590000Y-52300000D01*
X62590000Y-48000000D02*
X68400000Y-48000000D01*
X62590000Y-52300000D02*
X68400000Y-52300000D01*
X56538748Y-60740000D02*
X57961252Y-60740000D01*
X56538748Y-62560000D02*
X57961252Y-62560000D01*
X68750000Y-108100000D02*
X68750000Y-109350000D01*
X68750000Y-109350000D02*
X70000000Y-109350000D01*
X69040000Y-93940000D02*
X69040000Y-109060000D01*
X69040000Y-109060000D02*
X75010000Y-109060000D01*
X69050000Y-93950000D02*
X69050000Y-95750000D01*
X69050000Y-95750000D02*
X69800000Y-95750000D01*
X69050000Y-97250000D02*
X69050000Y-105750000D01*
X69050000Y-105750000D02*
X69800000Y-105750000D01*
X69050000Y-107250000D02*
X69050000Y-109050000D01*
X69050000Y-109050000D02*
X69800000Y-109050000D01*
X69800000Y-93950000D02*
X69050000Y-93950000D01*
X69800000Y-95750000D02*
X69800000Y-93950000D01*
X69800000Y-97250000D02*
X69050000Y-97250000D01*
X69800000Y-105750000D02*
X69800000Y-97250000D01*
X69800000Y-107250000D02*
X69050000Y-107250000D01*
X69800000Y-109050000D02*
X69800000Y-107250000D01*
X71300000Y-93950000D02*
X71300000Y-94700000D01*
X71300000Y-94700000D02*
X74250000Y-94700000D01*
X71300000Y-108300000D02*
X74250000Y-108300000D01*
X71300000Y-109050000D02*
X71300000Y-108300000D01*
X74250000Y-94700000D02*
X74250000Y-101500000D01*
X74250000Y-108300000D02*
X74250000Y-101500000D01*
X75010000Y-93940000D02*
X69040000Y-93940000D01*
X75010000Y-109060000D02*
X75010000Y-93940000D01*
X64410242Y-71930000D02*
X64884758Y-71930000D01*
X64410242Y-72975000D02*
X64884758Y-72975000D01*
X45190000Y-104340000D02*
X45190000Y-107160000D01*
X45190000Y-104340000D02*
X46890000Y-103040000D01*
X45190000Y-107160000D02*
X46890000Y-108460000D01*
X46890000Y-103040000D02*
X55610000Y-103040000D01*
X46890000Y-108460000D02*
X55610000Y-108460000D01*
X55610000Y-103040000D02*
X55610000Y-108460000D01*
X60587500Y-76741248D02*
X60587500Y-78163752D01*
X62407500Y-76741248D02*
X62407500Y-78163752D01*
X58840000Y-52750000D02*
X58840000Y-57050000D01*
X58840000Y-52750000D02*
X64650000Y-52750000D01*
X58840000Y-57050000D02*
X64650000Y-57050000D01*
X56538748Y-58240000D02*
X57961252Y-58240000D01*
X56538748Y-60060000D02*
X57961252Y-60060000D01*
X68461252Y-65740000D02*
X67038748Y-65740000D01*
X68461252Y-67560000D02*
X67038748Y-67560000D01*
D14*
G36*
X56402857Y-98845714D02*
G01*
X56897143Y-98845714D01*
X56897143Y-99157143D01*
X56402857Y-99157143D01*
X56402857Y-99691429D01*
X56097143Y-99691429D01*
X56097143Y-99157143D01*
X55602857Y-99157143D01*
X55602857Y-98845714D01*
X56097143Y-98845714D01*
X56097143Y-98308571D01*
X56402857Y-98308571D01*
X56402857Y-98845714D01*
G37*
D13*
X56402677Y-100375000D02*
X57402677Y-100375000D01*
X56902677Y-99875000D02*
X56902677Y-100875000D01*
X61882323Y-98170001D02*
X61882323Y-108329999D01*
X61922323Y-98170000D02*
X61922323Y-108330000D01*
X61962323Y-98170000D02*
X61962323Y-108330000D01*
X62002323Y-98171000D02*
X62002323Y-108329000D01*
X62042323Y-98172000D02*
X62042323Y-108328000D01*
X62082323Y-98173000D02*
X62082323Y-108327000D01*
X62122323Y-98175001D02*
X62122323Y-108324999D01*
X62162323Y-98177000D02*
X62162323Y-108323000D01*
X62202324Y-98180000D02*
X62202324Y-108320000D01*
X62242323Y-98182000D02*
X62242323Y-108318000D01*
X62282323Y-98185000D02*
X62282323Y-108315000D01*
X62322322Y-98188000D02*
X62322322Y-108312000D01*
X62362323Y-98192000D02*
X62362323Y-108308000D01*
X62402323Y-98196000D02*
X62402323Y-108304000D01*
X62442323Y-98200000D02*
X62442323Y-108300000D01*
X62482323Y-98205000D02*
X62482323Y-108295000D01*
X62522323Y-98210000D02*
X62522323Y-108290000D01*
X62562323Y-98215000D02*
X62562323Y-108285000D01*
X62603323Y-98220000D02*
X62603323Y-108280000D01*
X62643323Y-98226000D02*
X62643323Y-108274000D01*
X62683323Y-98232000D02*
X62683323Y-108268000D01*
X62723323Y-98239000D02*
X62723323Y-108261000D01*
X62763323Y-98246000D02*
X62763323Y-108254000D01*
X62803323Y-98253000D02*
X62803323Y-108247000D01*
X62843323Y-98260000D02*
X62843323Y-108240000D01*
X62883323Y-98268000D02*
X62883323Y-108232000D01*
X62923323Y-98276000D02*
X62923323Y-108224000D01*
X62963323Y-98285000D02*
X62963323Y-108215000D01*
X63003323Y-98294000D02*
X63003323Y-108206000D01*
X63043323Y-98303000D02*
X63043323Y-108197000D01*
X63083323Y-98312000D02*
X63083323Y-108188000D01*
X63123323Y-98322000D02*
X63123323Y-108178000D01*
X63163323Y-98332000D02*
X63163323Y-102009000D01*
X63163323Y-104491000D02*
X63163323Y-108168000D01*
X63203323Y-98343000D02*
X63203323Y-102008999D01*
X63203323Y-104491001D02*
X63203323Y-108157000D01*
X63243323Y-98353000D02*
X63243323Y-102009000D01*
X63243323Y-104491000D02*
X63243323Y-108147000D01*
X63283323Y-98365000D02*
X63283323Y-102009000D01*
X63283323Y-104491000D02*
X63283323Y-108135000D01*
X63323323Y-98376000D02*
X63323323Y-102009000D01*
X63323323Y-104491000D02*
X63323323Y-108124000D01*
X63363323Y-98388000D02*
X63363324Y-102009000D01*
X63363324Y-104491000D02*
X63363323Y-108112000D01*
X63403322Y-98400000D02*
X63403323Y-102009000D01*
X63403323Y-104491000D02*
X63403322Y-108100000D01*
X63443323Y-98413000D02*
X63443323Y-102009000D01*
X63443323Y-104491000D02*
X63443323Y-108087000D01*
X63483322Y-104491000D02*
X63483323Y-108074000D01*
X63483323Y-98426000D02*
X63483322Y-102009000D01*
X63523323Y-98439000D02*
X63523323Y-102009000D01*
X63523323Y-104491000D02*
X63523323Y-108061000D01*
X63563323Y-98453000D02*
X63563323Y-102009000D01*
X63563323Y-104491000D02*
X63563323Y-108047000D01*
X63603323Y-98467000D02*
X63603323Y-102009000D01*
X63603323Y-104491000D02*
X63603323Y-108033000D01*
X63643323Y-98482000D02*
X63643323Y-102008999D01*
X63643323Y-104491001D02*
X63643323Y-108018000D01*
X63683323Y-98496000D02*
X63683323Y-102009000D01*
X63683323Y-104491000D02*
X63683323Y-108004000D01*
X63723323Y-98512001D02*
X63723323Y-102009000D01*
X63723323Y-104491000D02*
X63723323Y-107987999D01*
X63763323Y-98527000D02*
X63763323Y-102009000D01*
X63763323Y-104491000D02*
X63763323Y-107973000D01*
X63803323Y-98542999D02*
X63803324Y-102009000D01*
X63803324Y-104491000D02*
X63803323Y-107957001D01*
X63843323Y-98560000D02*
X63843323Y-102009000D01*
X63843323Y-104491000D02*
X63843323Y-107940000D01*
X63883323Y-104491000D02*
X63883324Y-107924000D01*
X63883324Y-98576000D02*
X63883323Y-102009000D01*
X63923322Y-104491000D02*
X63923323Y-107907000D01*
X63923323Y-98593000D02*
X63923322Y-102009000D01*
X63963323Y-98611000D02*
X63963323Y-102009000D01*
X63963323Y-104491000D02*
X63963323Y-107889000D01*
X64003323Y-98629000D02*
X64003323Y-102009000D01*
X64003323Y-104491000D02*
X64003323Y-107871000D01*
X64043323Y-98647000D02*
X64043323Y-102009000D01*
X64043323Y-104491000D02*
X64043323Y-107853000D01*
X64083322Y-98666000D02*
X64083322Y-102009000D01*
X64083322Y-104491000D02*
X64083322Y-107834000D01*
X64123323Y-98686000D02*
X64123323Y-102009000D01*
X64123323Y-104491000D02*
X64123323Y-107814000D01*
X64163323Y-98705000D02*
X64163323Y-102009000D01*
X64163323Y-104491000D02*
X64163323Y-107795000D01*
X64203323Y-98725000D02*
X64203323Y-102009000D01*
X64203323Y-104491000D02*
X64203323Y-107775000D01*
X64243323Y-98746000D02*
X64243324Y-102009000D01*
X64243324Y-104491000D02*
X64243323Y-107754000D01*
X64283323Y-98767000D02*
X64283323Y-102009000D01*
X64283323Y-104491000D02*
X64283323Y-107733000D01*
X64323323Y-98788000D02*
X64323323Y-102009000D01*
X64323323Y-104491000D02*
X64323323Y-107712000D01*
X64363322Y-104491000D02*
X64363323Y-107690000D01*
X64363323Y-98810000D02*
X64363322Y-102009000D01*
X64403323Y-98833000D02*
X64403323Y-102009000D01*
X64403323Y-104491000D02*
X64403323Y-107667000D01*
X64443323Y-98855000D02*
X64443323Y-102009000D01*
X64443323Y-104491000D02*
X64443323Y-107645000D01*
X64483323Y-98879000D02*
X64483323Y-102009000D01*
X64483323Y-104491000D02*
X64483323Y-107621000D01*
X64523322Y-104491000D02*
X64523323Y-107597000D01*
X64523323Y-98903000D02*
X64523322Y-102009000D01*
X64563323Y-98927000D02*
X64563323Y-102009000D01*
X64563323Y-104491000D02*
X64563323Y-107573000D01*
X64603323Y-98952001D02*
X64603323Y-102009000D01*
X64603323Y-104491000D02*
X64603323Y-107547999D01*
X64643323Y-98977000D02*
X64643323Y-102009000D01*
X64643323Y-104491000D02*
X64643323Y-107523000D01*
X64683324Y-99003000D02*
X64683324Y-102009000D01*
X64683324Y-104491000D02*
X64683324Y-107497000D01*
X64723323Y-99029000D02*
X64723323Y-102009000D01*
X64723323Y-104491000D02*
X64723323Y-107471000D01*
X64763323Y-99056000D02*
X64763323Y-102009000D01*
X64763323Y-104491000D02*
X64763323Y-107444000D01*
X64803322Y-104491000D02*
X64803323Y-107416000D01*
X64803323Y-99084000D02*
X64803322Y-102009000D01*
X64843323Y-99112000D02*
X64843324Y-102009000D01*
X64843324Y-104491000D02*
X64843323Y-107388000D01*
X64883323Y-99140001D02*
X64883323Y-102009000D01*
X64883323Y-104491000D02*
X64883323Y-107359999D01*
X64923323Y-99170000D02*
X64923323Y-102009000D01*
X64923323Y-104491000D02*
X64923323Y-107330000D01*
X64963322Y-99200000D02*
X64963322Y-102009000D01*
X64963322Y-104491000D02*
X64963322Y-107300000D01*
X65003323Y-99230000D02*
X65003323Y-102009000D01*
X65003323Y-104491000D02*
X65003323Y-107270000D01*
X65043323Y-99261001D02*
X65043323Y-102009000D01*
X65043323Y-104491000D02*
X65043323Y-107238999D01*
X65083323Y-99293000D02*
X65083323Y-102009000D01*
X65083323Y-104491000D02*
X65083323Y-107207000D01*
X65123323Y-99325000D02*
X65123324Y-102009000D01*
X65123324Y-104491000D02*
X65123323Y-107175000D01*
X65163323Y-99358000D02*
X65163323Y-102009000D01*
X65163323Y-104491000D02*
X65163323Y-107142000D01*
X65203323Y-104491000D02*
X65203324Y-107108000D01*
X65203324Y-99392000D02*
X65203323Y-102009000D01*
X65243323Y-99426000D02*
X65243323Y-102009000D01*
X65243323Y-104491000D02*
X65243323Y-107074000D01*
X65283324Y-99461000D02*
X65283324Y-102009000D01*
X65283324Y-104491000D02*
X65283324Y-107039000D01*
X65323323Y-99497000D02*
X65323323Y-102009000D01*
X65323323Y-104491000D02*
X65323323Y-107003000D01*
X65363323Y-99534000D02*
X65363323Y-102009000D01*
X65363323Y-104491000D02*
X65363323Y-106966000D01*
X65403322Y-104491000D02*
X65403323Y-106929000D01*
X65403323Y-99571000D02*
X65403322Y-102009000D01*
X65443323Y-99610000D02*
X65443323Y-102009000D01*
X65443323Y-104491000D02*
X65443323Y-106890000D01*
X65483323Y-99649000D02*
X65483323Y-102009000D01*
X65483323Y-104491000D02*
X65483323Y-106851000D01*
X65523323Y-99689000D02*
X65523323Y-102009000D01*
X65523323Y-104491000D02*
X65523323Y-106811000D01*
X65563323Y-99730000D02*
X65563323Y-102008999D01*
X65563323Y-104491001D02*
X65563323Y-106770000D01*
X65603323Y-99772000D02*
X65603323Y-102009000D01*
X65603323Y-104491000D02*
X65603323Y-106728000D01*
X65643323Y-99814001D02*
X65643323Y-106685999D01*
X65683323Y-99858000D02*
X65683323Y-106642000D01*
X65723323Y-99903001D02*
X65723323Y-106596999D01*
X65763323Y-99949000D02*
X65763323Y-106551000D01*
X65803323Y-99996000D02*
X65803323Y-106504000D01*
X65843323Y-100044000D02*
X65843323Y-106456000D01*
X65883323Y-100094000D02*
X65883323Y-106406000D01*
X65923323Y-100144000D02*
X65923323Y-106356000D01*
X65963323Y-100196000D02*
X65963323Y-106304000D01*
X66003323Y-100250000D02*
X66003323Y-106250000D01*
X66043323Y-100305000D02*
X66043323Y-106195000D01*
X66083323Y-100361000D02*
X66083323Y-106139000D01*
X66123323Y-100420000D02*
X66123323Y-106080000D01*
X66163323Y-100480000D02*
X66163323Y-106020000D01*
X66203323Y-100541000D02*
X66203323Y-105959000D01*
X66243323Y-100605000D02*
X66243323Y-105895000D01*
X66283323Y-100671001D02*
X66283323Y-105828999D01*
X66323323Y-100740000D02*
X66323323Y-105760000D01*
X66363323Y-100811000D02*
X66363323Y-105689000D01*
X66403323Y-100885000D02*
X66403323Y-105615000D01*
X66443323Y-100961001D02*
X66443323Y-105538999D01*
X66483323Y-101041000D02*
X66483323Y-105459000D01*
X66523323Y-101125001D02*
X66523323Y-105374999D01*
X66563323Y-101213000D02*
X66563323Y-105287000D01*
X66603323Y-101305999D02*
X66603323Y-105194001D01*
X66643323Y-101404000D02*
X66643323Y-105096000D01*
X66683324Y-101508000D02*
X66683324Y-104992000D01*
X66723323Y-101620000D02*
X66723323Y-104880000D01*
X66763323Y-101740000D02*
X66763323Y-104760000D01*
X66803323Y-101871999D02*
X66803323Y-104628001D01*
X66843323Y-102020000D02*
X66843323Y-104480000D01*
X66883323Y-102188001D02*
X66883323Y-104311999D01*
X66923323Y-102388000D02*
X66923323Y-104112000D01*
X66963323Y-102651001D02*
X66963323Y-103848999D01*
X67002323Y-103250000D02*
G75*
G02*
X56762323Y-103250000I-5120000J0D01*
G01*
X56762323Y-103250000D02*
G75*
G02*
X67002323Y-103250000I5120000J0D01*
G01*
X68265000Y-115022936D02*
X68265000Y-115477064D01*
X69735000Y-115022936D02*
X69735000Y-115477064D01*
X67660242Y-71930000D02*
X68134758Y-71930000D01*
X67660242Y-72975000D02*
X68134758Y-72975000D01*
X68461252Y-58240000D02*
X67038748Y-58240000D01*
X68461252Y-60060000D02*
X67038748Y-60060000D01*
X60912500Y-82063752D02*
X60912500Y-81541248D01*
X62382500Y-82063752D02*
X62382500Y-81541248D01*
D14*
G36*
X56352857Y-94598571D02*
G01*
X56047143Y-94598571D01*
X56047143Y-93401429D01*
X56352857Y-93401429D01*
X56352857Y-94598571D01*
G37*
D13*
X56402677Y-111625000D02*
X57402677Y-111625000D01*
X56902677Y-111125000D02*
X56902677Y-112125000D01*
X61882323Y-109420001D02*
X61882323Y-119579999D01*
X61922323Y-109420000D02*
X61922323Y-119580000D01*
X61962323Y-109420000D02*
X61962323Y-119580000D01*
X62002323Y-109421000D02*
X62002323Y-119579000D01*
X62042323Y-109422000D02*
X62042323Y-119578000D01*
X62082323Y-109423000D02*
X62082323Y-119577000D01*
X62122323Y-109425001D02*
X62122323Y-119574999D01*
X62162323Y-109427000D02*
X62162323Y-119573000D01*
X62202324Y-109430000D02*
X62202324Y-119570000D01*
X62242323Y-109432000D02*
X62242323Y-119568000D01*
X62282323Y-109435000D02*
X62282323Y-119565000D01*
X62322322Y-109438000D02*
X62322322Y-119562000D01*
X62362323Y-109442000D02*
X62362323Y-119558000D01*
X62402323Y-109446000D02*
X62402323Y-119554000D01*
X62442323Y-109450000D02*
X62442323Y-119550000D01*
X62482323Y-109455000D02*
X62482323Y-119545000D01*
X62522323Y-109460000D02*
X62522323Y-119540000D01*
X62562323Y-109465000D02*
X62562323Y-119535000D01*
X62603323Y-109470000D02*
X62603323Y-119530000D01*
X62643323Y-109476000D02*
X62643323Y-119524000D01*
X62683323Y-109482000D02*
X62683323Y-119518000D01*
X62723323Y-109489000D02*
X62723323Y-119511000D01*
X62763323Y-109496000D02*
X62763323Y-119504000D01*
X62803323Y-109503000D02*
X62803323Y-119497000D01*
X62843323Y-109510000D02*
X62843323Y-119490000D01*
X62883323Y-109518000D02*
X62883323Y-119482000D01*
X62923323Y-109526000D02*
X62923323Y-119474000D01*
X62963323Y-109535000D02*
X62963323Y-119465000D01*
X63003323Y-109544000D02*
X63003323Y-119456000D01*
X63043323Y-109553000D02*
X63043323Y-119447000D01*
X63083323Y-109562000D02*
X63083323Y-119438000D01*
X63123323Y-109572000D02*
X63123323Y-119428000D01*
X63163323Y-109582000D02*
X63163323Y-113259000D01*
X63163323Y-115741000D02*
X63163323Y-119418000D01*
X63203323Y-109593000D02*
X63203323Y-113258999D01*
X63203323Y-115741001D02*
X63203323Y-119407000D01*
X63243323Y-109603000D02*
X63243323Y-113259000D01*
X63243323Y-115741000D02*
X63243323Y-119397000D01*
X63283323Y-109615000D02*
X63283323Y-113259000D01*
X63283323Y-115741000D02*
X63283323Y-119385000D01*
X63323323Y-109626000D02*
X63323323Y-113259000D01*
X63323323Y-115741000D02*
X63323323Y-119374000D01*
X63363323Y-109638000D02*
X63363324Y-113259000D01*
X63363324Y-115741000D02*
X63363323Y-119362000D01*
X63403322Y-109650000D02*
X63403323Y-113259000D01*
X63403323Y-115741000D02*
X63403322Y-119350000D01*
X63443323Y-109663000D02*
X63443323Y-113259000D01*
X63443323Y-115741000D02*
X63443323Y-119337000D01*
X63483322Y-115741000D02*
X63483323Y-119324000D01*
X63483323Y-109676000D02*
X63483322Y-113259000D01*
X63523323Y-109689000D02*
X63523323Y-113259000D01*
X63523323Y-115741000D02*
X63523323Y-119311000D01*
X63563323Y-109703000D02*
X63563323Y-113259000D01*
X63563323Y-115741000D02*
X63563323Y-119297000D01*
X63603323Y-109717000D02*
X63603323Y-113259000D01*
X63603323Y-115741000D02*
X63603323Y-119283000D01*
X63643323Y-109732000D02*
X63643323Y-113258999D01*
X63643323Y-115741001D02*
X63643323Y-119268000D01*
X63683323Y-109746000D02*
X63683323Y-113259000D01*
X63683323Y-115741000D02*
X63683323Y-119254000D01*
X63723323Y-109762001D02*
X63723323Y-113259000D01*
X63723323Y-115741000D02*
X63723323Y-119237999D01*
X63763323Y-109777000D02*
X63763323Y-113259000D01*
X63763323Y-115741000D02*
X63763323Y-119223000D01*
X63803323Y-109792999D02*
X63803324Y-113259000D01*
X63803324Y-115741000D02*
X63803323Y-119207001D01*
X63843323Y-109810000D02*
X63843323Y-113259000D01*
X63843323Y-115741000D02*
X63843323Y-119190000D01*
X63883323Y-115741000D02*
X63883324Y-119174000D01*
X63883324Y-109826000D02*
X63883323Y-113259000D01*
X63923322Y-115741000D02*
X63923323Y-119157000D01*
X63923323Y-109843000D02*
X63923322Y-113259000D01*
X63963323Y-109861000D02*
X63963323Y-113259000D01*
X63963323Y-115741000D02*
X63963323Y-119139000D01*
X64003323Y-109879000D02*
X64003323Y-113259000D01*
X64003323Y-115741000D02*
X64003323Y-119121000D01*
X64043323Y-109897000D02*
X64043323Y-113259000D01*
X64043323Y-115741000D02*
X64043323Y-119103000D01*
X64083322Y-109916000D02*
X64083322Y-113259000D01*
X64083322Y-115741000D02*
X64083322Y-119084000D01*
X64123323Y-109936000D02*
X64123323Y-113259000D01*
X64123323Y-115741000D02*
X64123323Y-119064000D01*
X64163323Y-109955000D02*
X64163323Y-113259000D01*
X64163323Y-115741000D02*
X64163323Y-119045000D01*
X64203323Y-109975000D02*
X64203323Y-113259000D01*
X64203323Y-115741000D02*
X64203323Y-119025000D01*
X64243323Y-109996000D02*
X64243324Y-113259000D01*
X64243324Y-115741000D02*
X64243323Y-119004000D01*
X64283323Y-110017000D02*
X64283323Y-113259000D01*
X64283323Y-115741000D02*
X64283323Y-118983000D01*
X64323323Y-110038000D02*
X64323323Y-113259000D01*
X64323323Y-115741000D02*
X64323323Y-118962000D01*
X64363322Y-115741000D02*
X64363323Y-118940000D01*
X64363323Y-110060000D02*
X64363322Y-113259000D01*
X64403323Y-110083000D02*
X64403323Y-113259000D01*
X64403323Y-115741000D02*
X64403323Y-118917000D01*
X64443323Y-110105000D02*
X64443323Y-113259000D01*
X64443323Y-115741000D02*
X64443323Y-118895000D01*
X64483323Y-110129000D02*
X64483323Y-113259000D01*
X64483323Y-115741000D02*
X64483323Y-118871000D01*
X64523322Y-115741000D02*
X64523323Y-118847000D01*
X64523323Y-110153000D02*
X64523322Y-113259000D01*
X64563323Y-110177000D02*
X64563323Y-113259000D01*
X64563323Y-115741000D02*
X64563323Y-118823000D01*
X64603323Y-110202001D02*
X64603323Y-113259000D01*
X64603323Y-115741000D02*
X64603323Y-118797999D01*
X64643323Y-110227000D02*
X64643323Y-113259000D01*
X64643323Y-115741000D02*
X64643323Y-118773000D01*
X64683324Y-110253000D02*
X64683324Y-113259000D01*
X64683324Y-115741000D02*
X64683324Y-118747000D01*
X64723323Y-110279000D02*
X64723323Y-113259000D01*
X64723323Y-115741000D02*
X64723323Y-118721000D01*
X64763323Y-110306000D02*
X64763323Y-113259000D01*
X64763323Y-115741000D02*
X64763323Y-118694000D01*
X64803322Y-115741000D02*
X64803323Y-118666000D01*
X64803323Y-110334000D02*
X64803322Y-113259000D01*
X64843323Y-110362000D02*
X64843324Y-113259000D01*
X64843324Y-115741000D02*
X64843323Y-118638000D01*
X64883323Y-110390001D02*
X64883323Y-113259000D01*
X64883323Y-115741000D02*
X64883323Y-118609999D01*
X64923323Y-110420000D02*
X64923323Y-113259000D01*
X64923323Y-115741000D02*
X64923323Y-118580000D01*
X64963322Y-110450000D02*
X64963322Y-113259000D01*
X64963322Y-115741000D02*
X64963322Y-118550000D01*
X65003323Y-110480000D02*
X65003323Y-113259000D01*
X65003323Y-115741000D02*
X65003323Y-118520000D01*
X65043323Y-110511001D02*
X65043323Y-113259000D01*
X65043323Y-115741000D02*
X65043323Y-118488999D01*
X65083323Y-110543000D02*
X65083323Y-113259000D01*
X65083323Y-115741000D02*
X65083323Y-118457000D01*
X65123323Y-110575000D02*
X65123324Y-113259000D01*
X65123324Y-115741000D02*
X65123323Y-118425000D01*
X65163323Y-110608000D02*
X65163323Y-113259000D01*
X65163323Y-115741000D02*
X65163323Y-118392000D01*
X65203323Y-115741000D02*
X65203324Y-118358000D01*
X65203324Y-110642000D02*
X65203323Y-113259000D01*
X65243323Y-110676000D02*
X65243323Y-113259000D01*
X65243323Y-115741000D02*
X65243323Y-118324000D01*
X65283324Y-110711000D02*
X65283324Y-113259000D01*
X65283324Y-115741000D02*
X65283324Y-118289000D01*
X65323323Y-110747000D02*
X65323323Y-113259000D01*
X65323323Y-115741000D02*
X65323323Y-118253000D01*
X65363323Y-110784000D02*
X65363323Y-113259000D01*
X65363323Y-115741000D02*
X65363323Y-118216000D01*
X65403322Y-115741000D02*
X65403323Y-118179000D01*
X65403323Y-110821000D02*
X65403322Y-113259000D01*
X65443323Y-110860000D02*
X65443323Y-113259000D01*
X65443323Y-115741000D02*
X65443323Y-118140000D01*
X65483323Y-110899000D02*
X65483323Y-113259000D01*
X65483323Y-115741000D02*
X65483323Y-118101000D01*
X65523323Y-110939000D02*
X65523323Y-113259000D01*
X65523323Y-115741000D02*
X65523323Y-118061000D01*
X65563323Y-110980000D02*
X65563323Y-113258999D01*
X65563323Y-115741001D02*
X65563323Y-118020000D01*
X65603323Y-111022000D02*
X65603323Y-113259000D01*
X65603323Y-115741000D02*
X65603323Y-117978000D01*
X65643323Y-111064001D02*
X65643323Y-117935999D01*
X65683323Y-111108000D02*
X65683323Y-117892000D01*
X65723323Y-111153001D02*
X65723323Y-117846999D01*
X65763323Y-111199000D02*
X65763323Y-117801000D01*
X65803323Y-111246000D02*
X65803323Y-117754000D01*
X65843323Y-111294000D02*
X65843323Y-117706000D01*
X65883323Y-111344000D02*
X65883323Y-117656000D01*
X65923323Y-111394000D02*
X65923323Y-117606000D01*
X65963323Y-111446000D02*
X65963323Y-117554000D01*
X66003323Y-111500000D02*
X66003323Y-117500000D01*
X66043323Y-111555000D02*
X66043323Y-117445000D01*
X66083323Y-111611000D02*
X66083323Y-117389000D01*
X66123323Y-111670000D02*
X66123323Y-117330000D01*
X66163323Y-111730000D02*
X66163323Y-117270000D01*
X66203323Y-111791000D02*
X66203323Y-117209000D01*
X66243323Y-111855000D02*
X66243323Y-117145000D01*
X66283323Y-111921001D02*
X66283323Y-117078999D01*
X66323323Y-111990000D02*
X66323323Y-117010000D01*
X66363323Y-112061000D02*
X66363323Y-116939000D01*
X66403323Y-112135000D02*
X66403323Y-116865000D01*
X66443323Y-112211001D02*
X66443323Y-116788999D01*
X66483323Y-112291000D02*
X66483323Y-116709000D01*
X66523323Y-112375001D02*
X66523323Y-116624999D01*
X66563323Y-112463000D02*
X66563323Y-116537000D01*
X66603323Y-112555999D02*
X66603323Y-116444001D01*
X66643323Y-112654000D02*
X66643323Y-116346000D01*
X66683324Y-112758000D02*
X66683324Y-116242000D01*
X66723323Y-112870000D02*
X66723323Y-116130000D01*
X66763323Y-112990000D02*
X66763323Y-116010000D01*
X66803323Y-113121999D02*
X66803323Y-115878001D01*
X66843323Y-113270000D02*
X66843323Y-115730000D01*
X66883323Y-113438001D02*
X66883323Y-115561999D01*
X66923323Y-113638000D02*
X66923323Y-115362000D01*
X66963323Y-113901001D02*
X66963323Y-115098999D01*
X67002323Y-114500000D02*
G75*
G02*
X56762323Y-114500000I-5120000J0D01*
G01*
X56762323Y-114500000D02*
G75*
G02*
X67002323Y-114500000I5120000J0D01*
G01*
X78290000Y-89840580D02*
X78290000Y-89559420D01*
X79310000Y-89840580D02*
X79310000Y-89559420D01*
X65147500Y-73792500D02*
X64347500Y-73792500D01*
X65147500Y-73792500D02*
X65947500Y-73792500D01*
X65147500Y-76912500D02*
X64347500Y-76912500D01*
X65147500Y-76912500D02*
X65947500Y-76912500D01*
X66687500Y-77192500D02*
X66207500Y-77192500D01*
X66447500Y-76862500D01*
X66687500Y-77192500D01*
G36*
X66687500Y-77192500D02*
G01*
X66207500Y-77192500D01*
X66447500Y-76862500D01*
X66687500Y-77192500D01*
G37*
X44795000Y-91115000D02*
X44795000Y-91615000D01*
X45035000Y-91355000D02*
X45035000Y-101635000D01*
X45535000Y-91115000D02*
X44795000Y-91115000D01*
X45595000Y-91355000D02*
X45595000Y-101635000D01*
X47095000Y-91355000D02*
X47095000Y-101635000D01*
X48456000Y-98001000D02*
X48421000Y-97966000D01*
X48672000Y-97808000D02*
X48626000Y-97761000D01*
X50764000Y-100310000D02*
X50718000Y-100263000D01*
X50970000Y-100105000D02*
X50934000Y-100070000D01*
X51996000Y-91355000D02*
X51996000Y-101635000D01*
X54956000Y-91355000D02*
X45035000Y-91355000D01*
X54956000Y-91355000D02*
X54956000Y-101635000D01*
X54956000Y-101635000D02*
X45035000Y-101635000D01*
X48014747Y-93983805D02*
G75*
G02*
X48160000Y-93271000I1680254J28806D01*
G01*
X48160244Y-94638318D02*
G75*
G02*
X48015000Y-93955000I1534756J683318D01*
G01*
X49011958Y-92419573D02*
G75*
G02*
X50379000Y-92420000I683041J-1535420D01*
G01*
X50378042Y-95490427D02*
G75*
G02*
X49011000Y-95490000I-683042J1535427D01*
G01*
X51230427Y-93271958D02*
G75*
G02*
X51230000Y-94639000I-1535420J-683041D01*
G01*
X51375000Y-99035000D02*
G75*
G02*
X48015000Y-99035000I-1680000J0D01*
G01*
X48015000Y-99035000D02*
G75*
G02*
X51375000Y-99035000I1680000J0D01*
G01*
D10*
X47500000Y-89900000D02*
X77500000Y-89900000D01*
X77500000Y-39900000D01*
X47500000Y-39900000D01*
X47500000Y-89900000D01*
D13*
X68461252Y-63240000D02*
X67038748Y-63240000D01*
X68461252Y-65060000D02*
X67038748Y-65060000D01*
X63087500Y-77942500D02*
X63087500Y-83462500D01*
X63087500Y-77942500D02*
X63487500Y-77942500D01*
X63087500Y-83462500D02*
X63487500Y-83462500D01*
X68607500Y-77942500D02*
X68207500Y-77942500D01*
X68607500Y-77942500D02*
X68607500Y-83462500D01*
X68607500Y-83462500D02*
X68207500Y-83462500D01*
X70412742Y-84277500D02*
X70887258Y-84277500D01*
X70412742Y-85322500D02*
X70887258Y-85322500D01*
X60490000Y-72757836D02*
X60490000Y-72542164D01*
X61210000Y-72757836D02*
X61210000Y-72542164D01*
X55090000Y-55861252D02*
X55090000Y-54438748D01*
X56910000Y-55861252D02*
X56910000Y-54438748D01*
X74315000Y-31940000D02*
X74315000Y-33860000D01*
X74315000Y-33860000D02*
X77000000Y-33860000D01*
X77000000Y-31940000D02*
X74315000Y-31940000D01*
X67837500Y-76760336D02*
X67837500Y-76544664D01*
X68557500Y-76760336D02*
X68557500Y-76544664D01*
X46970000Y-31395000D02*
X48300000Y-31395000D01*
X46970000Y-32725000D02*
X46970000Y-31395000D01*
X46970000Y-33995000D02*
X46970000Y-39135000D01*
X46970000Y-33995000D02*
X49570000Y-33995000D01*
X46970000Y-39135000D02*
X52170000Y-39135000D01*
X49570000Y-31395000D02*
X52170000Y-31395000D01*
X49570000Y-33995000D02*
X49570000Y-31395000D01*
X52170000Y-31395000D02*
X52170000Y-39135000D01*
X54740000Y-38261000D02*
X54740000Y-28340000D01*
X56065000Y-34069000D02*
X56112000Y-34023000D01*
X56270000Y-34275000D02*
X56305000Y-34239000D01*
X58374000Y-31761000D02*
X58409000Y-31726000D01*
X58567000Y-31977000D02*
X58614000Y-31931000D01*
X61145000Y-34069000D02*
X61192000Y-34023000D01*
X61350000Y-34275000D02*
X61385000Y-34239000D01*
X63454000Y-31761000D02*
X63489000Y-31726000D01*
X63647000Y-31977000D02*
X63694000Y-31931000D01*
X70100000Y-28340000D02*
X54740000Y-28340000D01*
X70100000Y-28900000D02*
X54740000Y-28900000D01*
X70100000Y-30400000D02*
X54740000Y-30400000D01*
X70100000Y-35301000D02*
X54740000Y-35301000D01*
X70100000Y-38261000D02*
X54740000Y-38261000D01*
X70100000Y-38261000D02*
X70100000Y-28340000D01*
X70340000Y-28100000D02*
X69840000Y-28100000D01*
X70340000Y-28840000D02*
X70340000Y-28100000D01*
X65964573Y-33683042D02*
G75*
G02*
X65965000Y-32316000I1535427J683042D01*
G01*
X66816682Y-31465244D02*
G75*
G02*
X67500000Y-31320000I683318J-1534756D01*
G01*
X67471195Y-31319747D02*
G75*
G02*
X68184000Y-31465000I28806J-1680254D01*
G01*
X68183042Y-34535427D02*
G75*
G02*
X66816000Y-34535000I-683041J1535420D01*
G01*
X69035427Y-32316958D02*
G75*
G02*
X69035000Y-33684000I-1535420J-683041D01*
G01*
X59020000Y-33000000D02*
G75*
G02*
X55660000Y-33000000I-1680000J0D01*
G01*
X55660000Y-33000000D02*
G75*
G02*
X59020000Y-33000000I1680000J0D01*
G01*
X64100000Y-33000000D02*
G75*
G02*
X60740000Y-33000000I-1680000J0D01*
G01*
X60740000Y-33000000D02*
G75*
G02*
X64100000Y-33000000I1680000J0D01*
G01*
%LPC*%
D10*
X55750000Y-19250000D02*
X59250000Y-19250000D01*
X59250000Y-26750000D01*
X55750000Y-26750000D01*
X55750000Y-19250000D01*
G36*
X55750000Y-19250000D02*
G01*
X59250000Y-19250000D01*
X59250000Y-26750000D01*
X55750000Y-26750000D01*
X55750000Y-19250000D01*
G37*
X60750000Y-19250000D02*
X64250000Y-19250000D01*
X64250000Y-26750000D01*
X60750000Y-26750000D01*
X60750000Y-19250000D01*
G36*
X60750000Y-19250000D02*
G01*
X64250000Y-19250000D01*
X64250000Y-26750000D01*
X60750000Y-26750000D01*
X60750000Y-19250000D01*
G37*
X65750000Y-19250000D02*
X69250000Y-19250000D01*
X69250000Y-26750000D01*
X65750000Y-26750000D01*
X65750000Y-19250000D01*
G36*
X65750000Y-19250000D02*
G01*
X69250000Y-19250000D01*
X69250000Y-26750000D01*
X65750000Y-26750000D01*
X65750000Y-19250000D01*
G37*
G36*
G01*
X62232500Y-73432500D02*
X61862500Y-73432500D01*
G75*
G02*
X61727500Y-73297500I0J135000D01*
G01*
X61727500Y-73027500D01*
G75*
G02*
X61862500Y-72892500I135000J0D01*
G01*
X62232500Y-72892500D01*
G75*
G02*
X62367500Y-73027500I0J-135000D01*
G01*
X62367500Y-73297500D01*
G75*
G02*
X62232500Y-73432500I-135000J0D01*
G01*
G37*
G36*
G01*
X62232500Y-72412500D02*
X61862500Y-72412500D01*
G75*
G02*
X61727500Y-72277500I0J135000D01*
G01*
X61727500Y-72007500D01*
G75*
G02*
X61862500Y-71872500I135000J0D01*
G01*
X62232500Y-71872500D01*
G75*
G02*
X62367500Y-72007500I0J-135000D01*
G01*
X62367500Y-72277500D01*
G75*
G02*
X62232500Y-72412500I-135000J0D01*
G01*
G37*
G36*
G01*
X55100000Y-51050000D02*
X55100000Y-49250000D01*
G75*
G02*
X55350000Y-49000000I250000J0D01*
G01*
X57350000Y-49000000D01*
G75*
G02*
X57600000Y-49250000I0J-250000D01*
G01*
X57600000Y-51050000D01*
G75*
G02*
X57350000Y-51300000I-250000J0D01*
G01*
X55350000Y-51300000D01*
G75*
G02*
X55100000Y-51050000I0J250000D01*
G01*
G37*
G36*
G01*
X59400000Y-51050000D02*
X59400000Y-49250000D01*
G75*
G02*
X59650000Y-49000000I250000J0D01*
G01*
X61650000Y-49000000D01*
G75*
G02*
X61900000Y-49250000I0J-250000D01*
G01*
X61900000Y-51050000D01*
G75*
G02*
X61650000Y-51300000I-250000J0D01*
G01*
X59650000Y-51300000D01*
G75*
G02*
X59400000Y-51050000I0J250000D01*
G01*
G37*
G36*
G01*
X69800000Y-61000000D02*
X69800000Y-62300000D01*
G75*
G02*
X69550000Y-62550000I-250000J0D01*
G01*
X68900000Y-62550000D01*
G75*
G02*
X68650000Y-62300000I0J250000D01*
G01*
X68650000Y-61000000D01*
G75*
G02*
X68900000Y-60750000I250000J0D01*
G01*
X69550000Y-60750000D01*
G75*
G02*
X69800000Y-61000000I0J-250000D01*
G01*
G37*
G36*
G01*
X66850000Y-61000000D02*
X66850000Y-62300000D01*
G75*
G02*
X66600000Y-62550000I-250000J0D01*
G01*
X65950000Y-62550000D01*
G75*
G02*
X65700000Y-62300000I0J250000D01*
G01*
X65700000Y-61000000D01*
G75*
G02*
X65950000Y-60750000I250000J0D01*
G01*
X66600000Y-60750000D01*
G75*
G02*
X66850000Y-61000000I0J-250000D01*
G01*
G37*
G36*
G01*
X70597500Y-79302500D02*
X69697500Y-79302500D01*
G75*
G02*
X69447500Y-79052500I0J250000D01*
G01*
X69447500Y-78252500D01*
G75*
G02*
X69697500Y-78002500I250000J0D01*
G01*
X70597500Y-78002500D01*
G75*
G02*
X70847500Y-78252500I0J-250000D01*
G01*
X70847500Y-79052500D01*
G75*
G02*
X70597500Y-79302500I-250000J0D01*
G01*
G37*
G36*
G01*
X70597500Y-76402500D02*
X69697500Y-76402500D01*
G75*
G02*
X69447500Y-76152500I0J250000D01*
G01*
X69447500Y-75352500D01*
G75*
G02*
X69697500Y-75102500I250000J0D01*
G01*
X70597500Y-75102500D01*
G75*
G02*
X70847500Y-75352500I0J-250000D01*
G01*
X70847500Y-76152500D01*
G75*
G02*
X70597500Y-76402500I-250000J0D01*
G01*
G37*
G36*
G01*
X70622500Y-83252500D02*
X69672500Y-83252500D01*
G75*
G02*
X69422500Y-83002500I0J250000D01*
G01*
X69422500Y-82502500D01*
G75*
G02*
X69672500Y-82252500I250000J0D01*
G01*
X70622500Y-82252500D01*
G75*
G02*
X70872500Y-82502500I0J-250000D01*
G01*
X70872500Y-83002500D01*
G75*
G02*
X70622500Y-83252500I-250000J0D01*
G01*
G37*
G36*
G01*
X70622500Y-81352500D02*
X69672500Y-81352500D01*
G75*
G02*
X69422500Y-81102500I0J250000D01*
G01*
X69422500Y-80602500D01*
G75*
G02*
X69672500Y-80352500I250000J0D01*
G01*
X70622500Y-80352500D01*
G75*
G02*
X70872500Y-80602500I0J-250000D01*
G01*
X70872500Y-81102500D01*
G75*
G02*
X70622500Y-81352500I-250000J0D01*
G01*
G37*
G36*
G01*
X69456250Y-112925001D02*
X68543750Y-112925001D01*
G75*
G02*
X68300000Y-112681251I0J243750D01*
G01*
X68300000Y-112193751D01*
G75*
G02*
X68543750Y-111950001I243750J0D01*
G01*
X69456250Y-111950001D01*
G75*
G02*
X69700000Y-112193751I0J-243750D01*
G01*
X69700000Y-112681251D01*
G75*
G02*
X69456250Y-112925001I-243750J0D01*
G01*
G37*
G36*
G01*
X69456250Y-111049999D02*
X68543750Y-111049999D01*
G75*
G02*
X68300000Y-110806249I0J243750D01*
G01*
X68300000Y-110318749D01*
G75*
G02*
X68543750Y-110074999I243750J0D01*
G01*
X69456250Y-110074999D01*
G75*
G02*
X69700000Y-110318749I0J-243750D01*
G01*
X69700000Y-110806249D01*
G75*
G02*
X69456250Y-111049999I-243750J0D01*
G01*
G37*
G36*
G01*
X66249999Y-92400000D02*
X66249999Y-91100000D01*
G75*
G02*
X66499999Y-90850000I250000J0D01*
G01*
X68499999Y-90850000D01*
G75*
G02*
X68749999Y-91100000I0J-250000D01*
G01*
X68749999Y-92400000D01*
G75*
G02*
X68499999Y-92650000I-250000J0D01*
G01*
X66499999Y-92650000D01*
G75*
G02*
X66249999Y-92400000I0J250000D01*
G01*
G37*
G36*
G01*
X70250001Y-92400000D02*
X70250001Y-91100000D01*
G75*
G02*
X70500001Y-90850000I250000J0D01*
G01*
X72500001Y-90850000D01*
G75*
G02*
X72750001Y-91100000I0J-250000D01*
G01*
X72750001Y-92400000D01*
G75*
G02*
X72500001Y-92650000I-250000J0D01*
G01*
X70500001Y-92650000D01*
G75*
G02*
X70250001Y-92400000I0J250000D01*
G01*
G37*
G36*
G01*
X55200000Y-64800000D02*
X55200000Y-63500000D01*
G75*
G02*
X55450000Y-63250000I250000J0D01*
G01*
X56100000Y-63250000D01*
G75*
G02*
X56350000Y-63500000I0J-250000D01*
G01*
X56350000Y-64800000D01*
G75*
G02*
X56100000Y-65050000I-250000J0D01*
G01*
X55450000Y-65050000D01*
G75*
G02*
X55200000Y-64800000I0J250000D01*
G01*
G37*
G36*
G01*
X58150000Y-64800000D02*
X58150000Y-63500000D01*
G75*
G02*
X58400000Y-63250000I250000J0D01*
G01*
X59050000Y-63250000D01*
G75*
G02*
X59300000Y-63500000I0J-250000D01*
G01*
X59300000Y-64800000D01*
G75*
G02*
X59050000Y-65050000I-250000J0D01*
G01*
X58400000Y-65050000D01*
G75*
G02*
X58150000Y-64800000I0J250000D01*
G01*
G37*
G36*
G01*
X69400000Y-57200001D02*
X68100000Y-57200001D01*
G75*
G02*
X67850000Y-56950001I0J250000D01*
G01*
X67850000Y-56300001D01*
G75*
G02*
X68100000Y-56050001I250000J0D01*
G01*
X69400000Y-56050001D01*
G75*
G02*
X69650000Y-56300001I0J-250000D01*
G01*
X69650000Y-56950001D01*
G75*
G02*
X69400000Y-57200001I-250000J0D01*
G01*
G37*
G36*
G01*
X69400000Y-54249999D02*
X68100000Y-54249999D01*
G75*
G02*
X67850000Y-53999999I0J250000D01*
G01*
X67850000Y-53349999D01*
G75*
G02*
X68100000Y-53099999I250000J0D01*
G01*
X69400000Y-53099999D01*
G75*
G02*
X69650000Y-53349999I0J-250000D01*
G01*
X69650000Y-53999999D01*
G75*
G02*
X69400000Y-54249999I-250000J0D01*
G01*
G37*
G36*
G01*
X55200000Y-67300000D02*
X55200000Y-66000000D01*
G75*
G02*
X55450000Y-65750000I250000J0D01*
G01*
X56100000Y-65750000D01*
G75*
G02*
X56350000Y-66000000I0J-250000D01*
G01*
X56350000Y-67300000D01*
G75*
G02*
X56100000Y-67550000I-250000J0D01*
G01*
X55450000Y-67550000D01*
G75*
G02*
X55200000Y-67300000I0J250000D01*
G01*
G37*
G36*
G01*
X58150000Y-67300000D02*
X58150000Y-66000000D01*
G75*
G02*
X58400000Y-65750000I250000J0D01*
G01*
X59050000Y-65750000D01*
G75*
G02*
X59300000Y-66000000I0J-250000D01*
G01*
X59300000Y-67300000D01*
G75*
G02*
X59050000Y-67550000I-250000J0D01*
G01*
X58400000Y-67550000D01*
G75*
G02*
X58150000Y-67300000I0J250000D01*
G01*
G37*
G36*
G01*
X57949998Y-95650000D02*
X57949998Y-93850000D01*
G75*
G02*
X58199998Y-93600000I250000J0D01*
G01*
X60199998Y-93600000D01*
G75*
G02*
X60449998Y-93850000I0J-250000D01*
G01*
X60449998Y-95650000D01*
G75*
G02*
X60199998Y-95900000I-250000J0D01*
G01*
X58199998Y-95900000D01*
G75*
G02*
X57949998Y-95650000I0J250000D01*
G01*
G37*
G36*
G01*
X62250000Y-95650000D02*
X62250000Y-93850000D01*
G75*
G02*
X62500000Y-93600000I250000J0D01*
G01*
X64500000Y-93600000D01*
G75*
G02*
X64750000Y-93850000I0J-250000D01*
G01*
X64750000Y-95650000D01*
G75*
G02*
X64500000Y-95900000I-250000J0D01*
G01*
X62500000Y-95900000D01*
G75*
G02*
X62250000Y-95650000I0J250000D01*
G01*
G37*
G36*
G01*
X77425000Y-34650000D02*
X77425000Y-35550000D01*
G75*
G02*
X77175000Y-35800000I-250000J0D01*
G01*
X76650000Y-35800000D01*
G75*
G02*
X76400000Y-35550000I0J250000D01*
G01*
X76400000Y-34650000D01*
G75*
G02*
X76650000Y-34400000I250000J0D01*
G01*
X77175000Y-34400000D01*
G75*
G02*
X77425000Y-34650000I0J-250000D01*
G01*
G37*
G36*
G01*
X75600000Y-34650000D02*
X75600000Y-35550000D01*
G75*
G02*
X75350000Y-35800000I-250000J0D01*
G01*
X74825000Y-35800000D01*
G75*
G02*
X74575000Y-35550000I0J250000D01*
G01*
X74575000Y-34650000D01*
G75*
G02*
X74825000Y-34400000I250000J0D01*
G01*
X75350000Y-34400000D01*
G75*
G02*
X75600000Y-34650000I0J-250000D01*
G01*
G37*
G36*
G01*
X62850000Y-51050000D02*
X62850000Y-49250000D01*
G75*
G02*
X63100000Y-49000000I250000J0D01*
G01*
X65100000Y-49000000D01*
G75*
G02*
X65350000Y-49250000I0J-250000D01*
G01*
X65350000Y-51050000D01*
G75*
G02*
X65100000Y-51300000I-250000J0D01*
G01*
X63100000Y-51300000D01*
G75*
G02*
X62850000Y-51050000I0J250000D01*
G01*
G37*
G36*
G01*
X67150000Y-51050000D02*
X67150000Y-49250000D01*
G75*
G02*
X67400000Y-49000000I250000J0D01*
G01*
X69400000Y-49000000D01*
G75*
G02*
X69650000Y-49250000I0J-250000D01*
G01*
X69650000Y-51050000D01*
G75*
G02*
X69400000Y-51300000I-250000J0D01*
G01*
X67400000Y-51300000D01*
G75*
G02*
X67150000Y-51050000I0J250000D01*
G01*
G37*
G36*
G01*
X55200000Y-62300000D02*
X55200000Y-61000000D01*
G75*
G02*
X55450000Y-60750000I250000J0D01*
G01*
X56100000Y-60750000D01*
G75*
G02*
X56350000Y-61000000I0J-250000D01*
G01*
X56350000Y-62300000D01*
G75*
G02*
X56100000Y-62550000I-250000J0D01*
G01*
X55450000Y-62550000D01*
G75*
G02*
X55200000Y-62300000I0J250000D01*
G01*
G37*
G36*
G01*
X58150000Y-62300000D02*
X58150000Y-61000000D01*
G75*
G02*
X58400000Y-60750000I250000J0D01*
G01*
X59050000Y-60750000D01*
G75*
G02*
X59300000Y-61000000I0J-250000D01*
G01*
X59300000Y-62300000D01*
G75*
G02*
X59050000Y-62550000I-250000J0D01*
G01*
X58400000Y-62550000D01*
G75*
G02*
X58150000Y-62300000I0J250000D01*
G01*
G37*
G36*
G01*
X72225000Y-107350000D02*
X70775000Y-107350000D01*
G75*
G02*
X70525000Y-107100000I0J250000D01*
G01*
X70525000Y-105900000D01*
G75*
G02*
X70775000Y-105650000I250000J0D01*
G01*
X72225000Y-105650000D01*
G75*
G02*
X72475000Y-105900000I0J-250000D01*
G01*
X72475000Y-107100000D01*
G75*
G02*
X72225000Y-107350000I-250000J0D01*
G01*
G37*
D15*
X71500000Y-104000000D03*
X71500000Y-101500000D03*
X71500000Y-99000000D03*
X71500000Y-96500000D03*
G36*
G01*
X63422500Y-72727500D02*
X63422500Y-72177500D01*
G75*
G02*
X63622500Y-71977500I200000J0D01*
G01*
X64022500Y-71977500D01*
G75*
G02*
X64222500Y-72177500I0J-200000D01*
G01*
X64222500Y-72727500D01*
G75*
G02*
X64022500Y-72927500I-200000J0D01*
G01*
X63622500Y-72927500D01*
G75*
G02*
X63422500Y-72727500I0J200000D01*
G01*
G37*
G36*
G01*
X65072500Y-72727500D02*
X65072500Y-72177500D01*
G75*
G02*
X65272500Y-71977500I200000J0D01*
G01*
X65672500Y-71977500D01*
G75*
G02*
X65872500Y-72177500I0J-200000D01*
G01*
X65872500Y-72727500D01*
G75*
G02*
X65672500Y-72927500I-200000J0D01*
G01*
X65272500Y-72927500D01*
G75*
G02*
X65072500Y-72727500I0J200000D01*
G01*
G37*
D16*
X47900000Y-105750000D03*
D17*
X52900000Y-105750000D03*
G36*
G01*
X60847500Y-75402500D02*
X62147500Y-75402500D01*
G75*
G02*
X62397500Y-75652500I0J-250000D01*
G01*
X62397500Y-76302500D01*
G75*
G02*
X62147500Y-76552500I-250000J0D01*
G01*
X60847500Y-76552500D01*
G75*
G02*
X60597500Y-76302500I0J250000D01*
G01*
X60597500Y-75652500D01*
G75*
G02*
X60847500Y-75402500I250000J0D01*
G01*
G37*
G36*
G01*
X60847500Y-78352500D02*
X62147500Y-78352500D01*
G75*
G02*
X62397500Y-78602500I0J-250000D01*
G01*
X62397500Y-79252500D01*
G75*
G02*
X62147500Y-79502500I-250000J0D01*
G01*
X60847500Y-79502500D01*
G75*
G02*
X60597500Y-79252500I0J250000D01*
G01*
X60597500Y-78602500D01*
G75*
G02*
X60847500Y-78352500I250000J0D01*
G01*
G37*
G36*
G01*
X59100000Y-55800000D02*
X59100000Y-54000000D01*
G75*
G02*
X59350000Y-53750000I250000J0D01*
G01*
X61350000Y-53750000D01*
G75*
G02*
X61600000Y-54000000I0J-250000D01*
G01*
X61600000Y-55800000D01*
G75*
G02*
X61350000Y-56050000I-250000J0D01*
G01*
X59350000Y-56050000D01*
G75*
G02*
X59100000Y-55800000I0J250000D01*
G01*
G37*
G36*
G01*
X63400000Y-55800000D02*
X63400000Y-54000000D01*
G75*
G02*
X63650000Y-53750000I250000J0D01*
G01*
X65650000Y-53750000D01*
G75*
G02*
X65900000Y-54000000I0J-250000D01*
G01*
X65900000Y-55800000D01*
G75*
G02*
X65650000Y-56050000I-250000J0D01*
G01*
X63650000Y-56050000D01*
G75*
G02*
X63400000Y-55800000I0J250000D01*
G01*
G37*
G36*
G01*
X55199999Y-59800000D02*
X55199999Y-58500000D01*
G75*
G02*
X55449999Y-58250000I250000J0D01*
G01*
X56099999Y-58250000D01*
G75*
G02*
X56349999Y-58500000I0J-250000D01*
G01*
X56349999Y-59800000D01*
G75*
G02*
X56099999Y-60050000I-250000J0D01*
G01*
X55449999Y-60050000D01*
G75*
G02*
X55199999Y-59800000I0J250000D01*
G01*
G37*
G36*
G01*
X58150001Y-59800000D02*
X58150001Y-58500000D01*
G75*
G02*
X58400001Y-58250000I250000J0D01*
G01*
X59050001Y-58250000D01*
G75*
G02*
X59300001Y-58500000I0J-250000D01*
G01*
X59300001Y-59800000D01*
G75*
G02*
X59050001Y-60050000I-250000J0D01*
G01*
X58400001Y-60050000D01*
G75*
G02*
X58150001Y-59800000I0J250000D01*
G01*
G37*
G36*
G01*
X69800000Y-66000000D02*
X69800000Y-67300000D01*
G75*
G02*
X69550000Y-67550000I-250000J0D01*
G01*
X68900000Y-67550000D01*
G75*
G02*
X68650000Y-67300000I0J250000D01*
G01*
X68650000Y-66000000D01*
G75*
G02*
X68900000Y-65750000I250000J0D01*
G01*
X69550000Y-65750000D01*
G75*
G02*
X69800000Y-66000000I0J-250000D01*
G01*
G37*
G36*
G01*
X66850000Y-66000000D02*
X66850000Y-67300000D01*
G75*
G02*
X66600000Y-67550000I-250000J0D01*
G01*
X65950000Y-67550000D01*
G75*
G02*
X65700000Y-67300000I0J250000D01*
G01*
X65700000Y-66000000D01*
G75*
G02*
X65950000Y-65750000I250000J0D01*
G01*
X66600000Y-65750000D01*
G75*
G02*
X66850000Y-66000000I0J-250000D01*
G01*
G37*
D18*
X46775000Y-25000000D03*
X47719581Y-22719581D03*
X47719581Y-27280419D03*
X50000000Y-21775000D03*
D19*
X50000000Y-25000000D03*
D18*
X50000000Y-28225000D03*
X52280419Y-22719581D03*
X52280419Y-27280419D03*
X53225000Y-25000000D03*
D20*
X59382323Y-103250000D03*
D21*
X64382323Y-103250000D03*
G36*
G01*
X68550000Y-113825000D02*
X69450000Y-113825000D01*
G75*
G02*
X69700000Y-114075000I0J-250000D01*
G01*
X69700000Y-114600000D01*
G75*
G02*
X69450000Y-114850000I-250000J0D01*
G01*
X68550000Y-114850000D01*
G75*
G02*
X68300000Y-114600000I0J250000D01*
G01*
X68300000Y-114075000D01*
G75*
G02*
X68550000Y-113825000I250000J0D01*
G01*
G37*
G36*
G01*
X68550000Y-115650000D02*
X69450000Y-115650000D01*
G75*
G02*
X69700000Y-115900000I0J-250000D01*
G01*
X69700000Y-116425000D01*
G75*
G02*
X69450000Y-116675000I-250000J0D01*
G01*
X68550000Y-116675000D01*
G75*
G02*
X68300000Y-116425000I0J250000D01*
G01*
X68300000Y-115900000D01*
G75*
G02*
X68550000Y-115650000I250000J0D01*
G01*
G37*
G36*
G01*
X66672500Y-72727500D02*
X66672500Y-72177500D01*
G75*
G02*
X66872500Y-71977500I200000J0D01*
G01*
X67272500Y-71977500D01*
G75*
G02*
X67472500Y-72177500I0J-200000D01*
G01*
X67472500Y-72727500D01*
G75*
G02*
X67272500Y-72927500I-200000J0D01*
G01*
X66872500Y-72927500D01*
G75*
G02*
X66672500Y-72727500I0J200000D01*
G01*
G37*
G36*
G01*
X68322500Y-72727500D02*
X68322500Y-72177500D01*
G75*
G02*
X68522500Y-71977500I200000J0D01*
G01*
X68922500Y-71977500D01*
G75*
G02*
X69122500Y-72177500I0J-200000D01*
G01*
X69122500Y-72727500D01*
G75*
G02*
X68922500Y-72927500I-200000J0D01*
G01*
X68522500Y-72927500D01*
G75*
G02*
X68322500Y-72727500I0J200000D01*
G01*
G37*
G36*
G01*
X69800000Y-58500000D02*
X69800000Y-59800000D01*
G75*
G02*
X69550000Y-60050000I-250000J0D01*
G01*
X68900000Y-60050000D01*
G75*
G02*
X68650000Y-59800000I0J250000D01*
G01*
X68650000Y-58500000D01*
G75*
G02*
X68900000Y-58250000I250000J0D01*
G01*
X69550000Y-58250000D01*
G75*
G02*
X69800000Y-58500000I0J-250000D01*
G01*
G37*
G36*
G01*
X66850000Y-58500000D02*
X66850000Y-59800000D01*
G75*
G02*
X66600000Y-60050000I-250000J0D01*
G01*
X65950000Y-60050000D01*
G75*
G02*
X65700000Y-59800000I0J250000D01*
G01*
X65700000Y-58500000D01*
G75*
G02*
X65950000Y-58250000I250000J0D01*
G01*
X66600000Y-58250000D01*
G75*
G02*
X66850000Y-58500000I0J-250000D01*
G01*
G37*
G36*
G01*
X62122500Y-83252500D02*
X61172500Y-83252500D01*
G75*
G02*
X60922500Y-83002500I0J250000D01*
G01*
X60922500Y-82502500D01*
G75*
G02*
X61172500Y-82252500I250000J0D01*
G01*
X62122500Y-82252500D01*
G75*
G02*
X62372500Y-82502500I0J-250000D01*
G01*
X62372500Y-83002500D01*
G75*
G02*
X62122500Y-83252500I-250000J0D01*
G01*
G37*
G36*
G01*
X62122500Y-81352500D02*
X61172500Y-81352500D01*
G75*
G02*
X60922500Y-81102500I0J250000D01*
G01*
X60922500Y-80602500D01*
G75*
G02*
X61172500Y-80352500I250000J0D01*
G01*
X62122500Y-80352500D01*
G75*
G02*
X62372500Y-80602500I0J-250000D01*
G01*
X62372500Y-81102500D01*
G75*
G02*
X62122500Y-81352500I-250000J0D01*
G01*
G37*
D20*
X59382323Y-114500000D03*
D21*
X64382323Y-114500000D03*
G36*
G01*
X79050000Y-90925000D02*
X78550000Y-90925000D01*
G75*
G02*
X78325000Y-90700000I0J225000D01*
G01*
X78325000Y-90250000D01*
G75*
G02*
X78550000Y-90025000I225000J0D01*
G01*
X79050000Y-90025000D01*
G75*
G02*
X79275000Y-90250000I0J-225000D01*
G01*
X79275000Y-90700000D01*
G75*
G02*
X79050000Y-90925000I-225000J0D01*
G01*
G37*
G36*
G01*
X79050000Y-89375000D02*
X78550000Y-89375000D01*
G75*
G02*
X78325000Y-89150000I0J225000D01*
G01*
X78325000Y-88700000D01*
G75*
G02*
X78550000Y-88475000I225000J0D01*
G01*
X79050000Y-88475000D01*
G75*
G02*
X79275000Y-88700000I0J-225000D01*
G01*
X79275000Y-89150000D01*
G75*
G02*
X79050000Y-89375000I-225000J0D01*
G01*
G37*
G36*
G01*
X66947500Y-76152500D02*
X66947500Y-76452500D01*
G75*
G02*
X66797500Y-76602500I-150000J0D01*
G01*
X65772500Y-76602500D01*
G75*
G02*
X65622500Y-76452500I0J150000D01*
G01*
X65622500Y-76152500D01*
G75*
G02*
X65772500Y-76002500I150000J0D01*
G01*
X66797500Y-76002500D01*
G75*
G02*
X66947500Y-76152500I0J-150000D01*
G01*
G37*
G36*
G01*
X66947500Y-75202500D02*
X66947500Y-75502500D01*
G75*
G02*
X66797500Y-75652500I-150000J0D01*
G01*
X65772500Y-75652500D01*
G75*
G02*
X65622500Y-75502500I0J150000D01*
G01*
X65622500Y-75202500D01*
G75*
G02*
X65772500Y-75052500I150000J0D01*
G01*
X66797500Y-75052500D01*
G75*
G02*
X66947500Y-75202500I0J-150000D01*
G01*
G37*
G36*
G01*
X66947500Y-74252500D02*
X66947500Y-74552500D01*
G75*
G02*
X66797500Y-74702500I-150000J0D01*
G01*
X65772500Y-74702500D01*
G75*
G02*
X65622500Y-74552500I0J150000D01*
G01*
X65622500Y-74252500D01*
G75*
G02*
X65772500Y-74102500I150000J0D01*
G01*
X66797500Y-74102500D01*
G75*
G02*
X66947500Y-74252500I0J-150000D01*
G01*
G37*
G36*
G01*
X64672500Y-74252500D02*
X64672500Y-74552500D01*
G75*
G02*
X64522500Y-74702500I-150000J0D01*
G01*
X63497500Y-74702500D01*
G75*
G02*
X63347500Y-74552500I0J150000D01*
G01*
X63347500Y-74252500D01*
G75*
G02*
X63497500Y-74102500I150000J0D01*
G01*
X64522500Y-74102500D01*
G75*
G02*
X64672500Y-74252500I0J-150000D01*
G01*
G37*
G36*
G01*
X64672500Y-75202500D02*
X64672500Y-75502500D01*
G75*
G02*
X64522500Y-75652500I-150000J0D01*
G01*
X63497500Y-75652500D01*
G75*
G02*
X63347500Y-75502500I0J150000D01*
G01*
X63347500Y-75202500D01*
G75*
G02*
X63497500Y-75052500I150000J0D01*
G01*
X64522500Y-75052500D01*
G75*
G02*
X64672500Y-75202500I0J-150000D01*
G01*
G37*
G36*
G01*
X64672500Y-76152500D02*
X64672500Y-76452500D01*
G75*
G02*
X64522500Y-76602500I-150000J0D01*
G01*
X63497500Y-76602500D01*
G75*
G02*
X63347500Y-76452500I0J150000D01*
G01*
X63347500Y-76152500D01*
G75*
G02*
X63497500Y-76002500I150000J0D01*
G01*
X64522500Y-76002500D01*
G75*
G02*
X64672500Y-76152500I0J-150000D01*
G01*
G37*
D22*
X49695000Y-93955000D03*
D23*
X49695000Y-99035000D03*
D24*
X49310000Y-85175000D03*
X49310000Y-82635000D03*
X49310000Y-77555000D03*
X49310000Y-75015000D03*
X49310000Y-72475000D03*
X49310000Y-80095000D03*
X49310000Y-49615000D03*
X75710000Y-49615000D03*
X49310000Y-47075000D03*
X75710000Y-47075000D03*
X49310000Y-69935000D03*
X75710000Y-87715000D03*
X75710000Y-85175000D03*
X75710000Y-82635000D03*
X75710000Y-80095000D03*
X49310000Y-87715000D03*
X75710000Y-77555000D03*
X49310000Y-67395000D03*
X49310000Y-44535000D03*
X75710000Y-44535000D03*
X49310000Y-41995000D03*
X75710000Y-41995000D03*
D25*
X68860000Y-45035000D03*
X71400000Y-45035000D03*
X68860000Y-41495000D03*
X71400000Y-41495000D03*
X61240000Y-45035000D03*
X63780000Y-45035000D03*
X61240000Y-41495000D03*
X63780000Y-41495000D03*
D24*
X49310000Y-54695000D03*
X75710000Y-54695000D03*
X49310000Y-52155000D03*
X75710000Y-52155000D03*
D25*
X53620000Y-45035000D03*
X56160000Y-45035000D03*
X53620000Y-41495000D03*
X56160000Y-41495000D03*
G36*
G01*
X69800000Y-63500000D02*
X69800000Y-64800000D01*
G75*
G02*
X69550000Y-65050000I-250000J0D01*
G01*
X68900000Y-65050000D01*
G75*
G02*
X68650000Y-64800000I0J250000D01*
G01*
X68650000Y-63500000D01*
G75*
G02*
X68900000Y-63250000I250000J0D01*
G01*
X69550000Y-63250000D01*
G75*
G02*
X69800000Y-63500000I0J-250000D01*
G01*
G37*
G36*
G01*
X66850000Y-63500000D02*
X66850000Y-64800000D01*
G75*
G02*
X66600000Y-65050000I-250000J0D01*
G01*
X65950000Y-65050000D01*
G75*
G02*
X65700000Y-64800000I0J250000D01*
G01*
X65700000Y-63500000D01*
G75*
G02*
X65950000Y-63250000I250000J0D01*
G01*
X66600000Y-63250000D01*
G75*
G02*
X66850000Y-63500000I0J-250000D01*
G01*
G37*
D18*
X46775000Y-115500000D03*
X47719581Y-113219581D03*
X47719581Y-117780419D03*
X50000000Y-112275000D03*
D19*
X50000000Y-115500000D03*
D18*
X50000000Y-118725000D03*
X52280419Y-113219581D03*
X52280419Y-117780419D03*
X53225000Y-115500000D03*
D26*
X65847500Y-78852500D03*
X65847500Y-82552500D03*
D18*
X71775000Y-115500000D03*
X72719581Y-113219581D03*
X72719581Y-117780419D03*
X75000000Y-112275000D03*
D19*
X75000000Y-115500000D03*
D18*
X75000000Y-118725000D03*
X77280419Y-113219581D03*
X77280419Y-117780419D03*
X78225000Y-115500000D03*
G36*
G01*
X69425000Y-85075000D02*
X69425000Y-84525000D01*
G75*
G02*
X69625000Y-84325000I200000J0D01*
G01*
X70025000Y-84325000D01*
G75*
G02*
X70225000Y-84525000I0J-200000D01*
G01*
X70225000Y-85075000D01*
G75*
G02*
X70025000Y-85275000I-200000J0D01*
G01*
X69625000Y-85275000D01*
G75*
G02*
X69425000Y-85075000I0J200000D01*
G01*
G37*
G36*
G01*
X71075000Y-85075000D02*
X71075000Y-84525000D01*
G75*
G02*
X71275000Y-84325000I200000J0D01*
G01*
X71675000Y-84325000D01*
G75*
G02*
X71875000Y-84525000I0J-200000D01*
G01*
X71875000Y-85075000D01*
G75*
G02*
X71675000Y-85275000I-200000J0D01*
G01*
X71275000Y-85275000D01*
G75*
G02*
X71075000Y-85075000I0J200000D01*
G01*
G37*
X71775000Y-25000000D03*
X72719581Y-22719581D03*
X72719581Y-27280419D03*
X75000000Y-21775000D03*
D19*
X75000000Y-25000000D03*
D18*
X75000000Y-28225000D03*
X77280419Y-22719581D03*
X77280419Y-27280419D03*
X78225000Y-25000000D03*
G36*
G01*
X61020000Y-73410000D02*
X60680000Y-73410000D01*
G75*
G02*
X60540000Y-73270000I0J140000D01*
G01*
X60540000Y-72990000D01*
G75*
G02*
X60680000Y-72850000I140000J0D01*
G01*
X61020000Y-72850000D01*
G75*
G02*
X61160000Y-72990000I0J-140000D01*
G01*
X61160000Y-73270000D01*
G75*
G02*
X61020000Y-73410000I-140000J0D01*
G01*
G37*
G36*
G01*
X61020000Y-72450000D02*
X60680000Y-72450000D01*
G75*
G02*
X60540000Y-72310000I0J140000D01*
G01*
X60540000Y-72030000D01*
G75*
G02*
X60680000Y-71890000I140000J0D01*
G01*
X61020000Y-71890000D01*
G75*
G02*
X61160000Y-72030000I0J-140000D01*
G01*
X61160000Y-72310000D01*
G75*
G02*
X61020000Y-72450000I-140000J0D01*
G01*
G37*
G36*
G01*
X56650000Y-57200000D02*
X55350000Y-57200000D01*
G75*
G02*
X55100000Y-56950000I0J250000D01*
G01*
X55100000Y-56300000D01*
G75*
G02*
X55350000Y-56050000I250000J0D01*
G01*
X56650000Y-56050000D01*
G75*
G02*
X56900000Y-56300000I0J-250000D01*
G01*
X56900000Y-56950000D01*
G75*
G02*
X56650000Y-57200000I-250000J0D01*
G01*
G37*
G36*
G01*
X56650000Y-54250000D02*
X55350000Y-54250000D01*
G75*
G02*
X55100000Y-54000000I0J250000D01*
G01*
X55100000Y-53350000D01*
G75*
G02*
X55350000Y-53100000I250000J0D01*
G01*
X56650000Y-53100000D01*
G75*
G02*
X56900000Y-53350000I0J-250000D01*
G01*
X56900000Y-54000000D01*
G75*
G02*
X56650000Y-54250000I-250000J0D01*
G01*
G37*
G36*
G01*
X74575000Y-33356250D02*
X74575000Y-32443750D01*
G75*
G02*
X74818750Y-32200000I243750J0D01*
G01*
X75306250Y-32200000D01*
G75*
G02*
X75550000Y-32443750I0J-243750D01*
G01*
X75550000Y-33356250D01*
G75*
G02*
X75306250Y-33600000I-243750J0D01*
G01*
X74818750Y-33600000D01*
G75*
G02*
X74575000Y-33356250I0J243750D01*
G01*
G37*
G36*
G01*
X76450000Y-33356250D02*
X76450000Y-32443750D01*
G75*
G02*
X76693750Y-32200000I243750J0D01*
G01*
X77181250Y-32200000D01*
G75*
G02*
X77425000Y-32443750I0J-243750D01*
G01*
X77425000Y-33356250D01*
G75*
G02*
X77181250Y-33600000I-243750J0D01*
G01*
X76693750Y-33600000D01*
G75*
G02*
X76450000Y-33356250I0J243750D01*
G01*
G37*
G36*
G01*
X68367500Y-77412500D02*
X68027500Y-77412500D01*
G75*
G02*
X67887500Y-77272500I0J140000D01*
G01*
X67887500Y-76992500D01*
G75*
G02*
X68027500Y-76852500I140000J0D01*
G01*
X68367500Y-76852500D01*
G75*
G02*
X68507500Y-76992500I0J-140000D01*
G01*
X68507500Y-77272500D01*
G75*
G02*
X68367500Y-77412500I-140000J0D01*
G01*
G37*
G36*
G01*
X68367500Y-76452500D02*
X68027500Y-76452500D01*
G75*
G02*
X67887500Y-76312500I0J140000D01*
G01*
X67887500Y-76032500D01*
G75*
G02*
X68027500Y-75892500I140000J0D01*
G01*
X68367500Y-75892500D01*
G75*
G02*
X68507500Y-76032500I0J-140000D01*
G01*
X68507500Y-76312500D01*
G75*
G02*
X68367500Y-76452500I-140000J0D01*
G01*
G37*
D27*
X48300000Y-32725000D03*
D28*
X50840000Y-32725000D03*
X48300000Y-35265000D03*
X50840000Y-35265000D03*
X48300000Y-37805000D03*
X50840000Y-37805000D03*
D22*
X67500000Y-33000000D03*
D23*
X62420000Y-33000000D03*
X57340000Y-33000000D03*
%LPD*%
M02*
