G04 #@! TF.GenerationSoftware,KiCad,Pcbnew,9.0.7+1*
G04 #@! TF.CreationDate,2026-07-20T18:29:34+00:00*
G04 #@! TF.ProjectId,hw-module-xesc,68772d6d-6f64-4756-9c65-2d786573632e,rev?*
G04 #@! TF.SameCoordinates,Original*
G04 #@! TF.FileFunction,Paste,Top*
G04 #@! TF.FilePolarity,Positive*
%FSLAX46Y46*%
G04 Gerber Fmt 4.6, Leading zero omitted, Abs format (unit mm)*
G04 Created by KiCad (PCBNEW 9.0.7+1) date 2026-07-20 18:29:34*
%MOMM*%
%LPD*%
G01*
G04 APERTURE LIST*
%ADD10R,4.200000X1.400000*%
G04 APERTURE END LIST*
G36*
G01*
X62232500Y-73432500D02*
X61862500Y-73432500D01*
G75*
G02*
X61727500Y-73297500I0J135000D01*
G01*
X61727500Y-73027500D01*
G75*
G02*
X61862500Y-72892500I135000J0D01*
G01*
X62232500Y-72892500D01*
G75*
G02*
X62367500Y-73027500I0J-135000D01*
G01*
X62367500Y-73297500D01*
G75*
G02*
X62232500Y-73432500I-135000J0D01*
G01*
G37*
G36*
G01*
X62232500Y-72412500D02*
X61862500Y-72412500D01*
G75*
G02*
X61727500Y-72277500I0J135000D01*
G01*
X61727500Y-72007500D01*
G75*
G02*
X61862500Y-71872500I135000J0D01*
G01*
X62232500Y-71872500D01*
G75*
G02*
X62367500Y-72007500I0J-135000D01*
G01*
X62367500Y-72277500D01*
G75*
G02*
X62232500Y-72412500I-135000J0D01*
G01*
G37*
G36*
G01*
X55100000Y-51050000D02*
X55100000Y-49250000D01*
G75*
G02*
X55350000Y-49000000I250000J0D01*
G01*
X57350000Y-49000000D01*
G75*
G02*
X57600000Y-49250000I0J-250000D01*
G01*
X57600000Y-51050000D01*
G75*
G02*
X57350000Y-51300000I-250000J0D01*
G01*
X55350000Y-51300000D01*
G75*
G02*
X55100000Y-51050000I0J250000D01*
G01*
G37*
G36*
G01*
X59400000Y-51050000D02*
X59400000Y-49250000D01*
G75*
G02*
X59650000Y-49000000I250000J0D01*
G01*
X61650000Y-49000000D01*
G75*
G02*
X61900000Y-49250000I0J-250000D01*
G01*
X61900000Y-51050000D01*
G75*
G02*
X61650000Y-51300000I-250000J0D01*
G01*
X59650000Y-51300000D01*
G75*
G02*
X59400000Y-51050000I0J250000D01*
G01*
G37*
G36*
G01*
X69800000Y-61000000D02*
X69800000Y-62300000D01*
G75*
G02*
X69550000Y-62550000I-250000J0D01*
G01*
X68900000Y-62550000D01*
G75*
G02*
X68650000Y-62300000I0J250000D01*
G01*
X68650000Y-61000000D01*
G75*
G02*
X68900000Y-60750000I250000J0D01*
G01*
X69550000Y-60750000D01*
G75*
G02*
X69800000Y-61000000I0J-250000D01*
G01*
G37*
G36*
G01*
X66850000Y-61000000D02*
X66850000Y-62300000D01*
G75*
G02*
X66600000Y-62550000I-250000J0D01*
G01*
X65950000Y-62550000D01*
G75*
G02*
X65700000Y-62300000I0J250000D01*
G01*
X65700000Y-61000000D01*
G75*
G02*
X65950000Y-60750000I250000J0D01*
G01*
X66600000Y-60750000D01*
G75*
G02*
X66850000Y-61000000I0J-250000D01*
G01*
G37*
G36*
G01*
X70597500Y-79302500D02*
X69697500Y-79302500D01*
G75*
G02*
X69447500Y-79052500I0J250000D01*
G01*
X69447500Y-78252500D01*
G75*
G02*
X69697500Y-78002500I250000J0D01*
G01*
X70597500Y-78002500D01*
G75*
G02*
X70847500Y-78252500I0J-250000D01*
G01*
X70847500Y-79052500D01*
G75*
G02*
X70597500Y-79302500I-250000J0D01*
G01*
G37*
G36*
G01*
X70597500Y-76402500D02*
X69697500Y-76402500D01*
G75*
G02*
X69447500Y-76152500I0J250000D01*
G01*
X69447500Y-75352500D01*
G75*
G02*
X69697500Y-75102500I250000J0D01*
G01*
X70597500Y-75102500D01*
G75*
G02*
X70847500Y-75352500I0J-250000D01*
G01*
X70847500Y-76152500D01*
G75*
G02*
X70597500Y-76402500I-250000J0D01*
G01*
G37*
G36*
G01*
X70622500Y-83252500D02*
X69672500Y-83252500D01*
G75*
G02*
X69422500Y-83002500I0J250000D01*
G01*
X69422500Y-82502500D01*
G75*
G02*
X69672500Y-82252500I250000J0D01*
G01*
X70622500Y-82252500D01*
G75*
G02*
X70872500Y-82502500I0J-250000D01*
G01*
X70872500Y-83002500D01*
G75*
G02*
X70622500Y-83252500I-250000J0D01*
G01*
G37*
G36*
G01*
X70622500Y-81352500D02*
X69672500Y-81352500D01*
G75*
G02*
X69422500Y-81102500I0J250000D01*
G01*
X69422500Y-80602500D01*
G75*
G02*
X69672500Y-80352500I250000J0D01*
G01*
X70622500Y-80352500D01*
G75*
G02*
X70872500Y-80602500I0J-250000D01*
G01*
X70872500Y-81102500D01*
G75*
G02*
X70622500Y-81352500I-250000J0D01*
G01*
G37*
G36*
G01*
X69456250Y-112925001D02*
X68543750Y-112925001D01*
G75*
G02*
X68300000Y-112681251I0J243750D01*
G01*
X68300000Y-112193751D01*
G75*
G02*
X68543750Y-111950001I243750J0D01*
G01*
X69456250Y-111950001D01*
G75*
G02*
X69700000Y-112193751I0J-243750D01*
G01*
X69700000Y-112681251D01*
G75*
G02*
X69456250Y-112925001I-243750J0D01*
G01*
G37*
G36*
G01*
X69456250Y-111049999D02*
X68543750Y-111049999D01*
G75*
G02*
X68300000Y-110806249I0J243750D01*
G01*
X68300000Y-110318749D01*
G75*
G02*
X68543750Y-110074999I243750J0D01*
G01*
X69456250Y-110074999D01*
G75*
G02*
X69700000Y-110318749I0J-243750D01*
G01*
X69700000Y-110806249D01*
G75*
G02*
X69456250Y-111049999I-243750J0D01*
G01*
G37*
G36*
G01*
X66249999Y-92400000D02*
X66249999Y-91100000D01*
G75*
G02*
X66499999Y-90850000I250000J0D01*
G01*
X68499999Y-90850000D01*
G75*
G02*
X68749999Y-91100000I0J-250000D01*
G01*
X68749999Y-92400000D01*
G75*
G02*
X68499999Y-92650000I-250000J0D01*
G01*
X66499999Y-92650000D01*
G75*
G02*
X66249999Y-92400000I0J250000D01*
G01*
G37*
G36*
G01*
X70250001Y-92400000D02*
X70250001Y-91100000D01*
G75*
G02*
X70500001Y-90850000I250000J0D01*
G01*
X72500001Y-90850000D01*
G75*
G02*
X72750001Y-91100000I0J-250000D01*
G01*
X72750001Y-92400000D01*
G75*
G02*
X72500001Y-92650000I-250000J0D01*
G01*
X70500001Y-92650000D01*
G75*
G02*
X70250001Y-92400000I0J250000D01*
G01*
G37*
G36*
G01*
X55200000Y-64800000D02*
X55200000Y-63500000D01*
G75*
G02*
X55450000Y-63250000I250000J0D01*
G01*
X56100000Y-63250000D01*
G75*
G02*
X56350000Y-63500000I0J-250000D01*
G01*
X56350000Y-64800000D01*
G75*
G02*
X56100000Y-65050000I-250000J0D01*
G01*
X55450000Y-65050000D01*
G75*
G02*
X55200000Y-64800000I0J250000D01*
G01*
G37*
G36*
G01*
X58150000Y-64800000D02*
X58150000Y-63500000D01*
G75*
G02*
X58400000Y-63250000I250000J0D01*
G01*
X59050000Y-63250000D01*
G75*
G02*
X59300000Y-63500000I0J-250000D01*
G01*
X59300000Y-64800000D01*
G75*
G02*
X59050000Y-65050000I-250000J0D01*
G01*
X58400000Y-65050000D01*
G75*
G02*
X58150000Y-64800000I0J250000D01*
G01*
G37*
G36*
G01*
X69400000Y-57200001D02*
X68100000Y-57200001D01*
G75*
G02*
X67850000Y-56950001I0J250000D01*
G01*
X67850000Y-56300001D01*
G75*
G02*
X68100000Y-56050001I250000J0D01*
G01*
X69400000Y-56050001D01*
G75*
G02*
X69650000Y-56300001I0J-250000D01*
G01*
X69650000Y-56950001D01*
G75*
G02*
X69400000Y-57200001I-250000J0D01*
G01*
G37*
G36*
G01*
X69400000Y-54249999D02*
X68100000Y-54249999D01*
G75*
G02*
X67850000Y-53999999I0J250000D01*
G01*
X67850000Y-53349999D01*
G75*
G02*
X68100000Y-53099999I250000J0D01*
G01*
X69400000Y-53099999D01*
G75*
G02*
X69650000Y-53349999I0J-250000D01*
G01*
X69650000Y-53999999D01*
G75*
G02*
X69400000Y-54249999I-250000J0D01*
G01*
G37*
G36*
G01*
X55200000Y-67300000D02*
X55200000Y-66000000D01*
G75*
G02*
X55450000Y-65750000I250000J0D01*
G01*
X56100000Y-65750000D01*
G75*
G02*
X56350000Y-66000000I0J-250000D01*
G01*
X56350000Y-67300000D01*
G75*
G02*
X56100000Y-67550000I-250000J0D01*
G01*
X55450000Y-67550000D01*
G75*
G02*
X55200000Y-67300000I0J250000D01*
G01*
G37*
G36*
G01*
X58150000Y-67300000D02*
X58150000Y-66000000D01*
G75*
G02*
X58400000Y-65750000I250000J0D01*
G01*
X59050000Y-65750000D01*
G75*
G02*
X59300000Y-66000000I0J-250000D01*
G01*
X59300000Y-67300000D01*
G75*
G02*
X59050000Y-67550000I-250000J0D01*
G01*
X58400000Y-67550000D01*
G75*
G02*
X58150000Y-67300000I0J250000D01*
G01*
G37*
G36*
G01*
X57949998Y-95650000D02*
X57949998Y-93850000D01*
G75*
G02*
X58199998Y-93600000I250000J0D01*
G01*
X60199998Y-93600000D01*
G75*
G02*
X60449998Y-93850000I0J-250000D01*
G01*
X60449998Y-95650000D01*
G75*
G02*
X60199998Y-95900000I-250000J0D01*
G01*
X58199998Y-95900000D01*
G75*
G02*
X57949998Y-95650000I0J250000D01*
G01*
G37*
G36*
G01*
X62250000Y-95650000D02*
X62250000Y-93850000D01*
G75*
G02*
X62500000Y-93600000I250000J0D01*
G01*
X64500000Y-93600000D01*
G75*
G02*
X64750000Y-93850000I0J-250000D01*
G01*
X64750000Y-95650000D01*
G75*
G02*
X64500000Y-95900000I-250000J0D01*
G01*
X62500000Y-95900000D01*
G75*
G02*
X62250000Y-95650000I0J250000D01*
G01*
G37*
G36*
G01*
X77425000Y-34650000D02*
X77425000Y-35550000D01*
G75*
G02*
X77175000Y-35800000I-250000J0D01*
G01*
X76650000Y-35800000D01*
G75*
G02*
X76400000Y-35550000I0J250000D01*
G01*
X76400000Y-34650000D01*
G75*
G02*
X76650000Y-34400000I250000J0D01*
G01*
X77175000Y-34400000D01*
G75*
G02*
X77425000Y-34650000I0J-250000D01*
G01*
G37*
G36*
G01*
X75600000Y-34650000D02*
X75600000Y-35550000D01*
G75*
G02*
X75350000Y-35800000I-250000J0D01*
G01*
X74825000Y-35800000D01*
G75*
G02*
X74575000Y-35550000I0J250000D01*
G01*
X74575000Y-34650000D01*
G75*
G02*
X74825000Y-34400000I250000J0D01*
G01*
X75350000Y-34400000D01*
G75*
G02*
X75600000Y-34650000I0J-250000D01*
G01*
G37*
G36*
G01*
X62850000Y-51050000D02*
X62850000Y-49250000D01*
G75*
G02*
X63100000Y-49000000I250000J0D01*
G01*
X65100000Y-49000000D01*
G75*
G02*
X65350000Y-49250000I0J-250000D01*
G01*
X65350000Y-51050000D01*
G75*
G02*
X65100000Y-51300000I-250000J0D01*
G01*
X63100000Y-51300000D01*
G75*
G02*
X62850000Y-51050000I0J250000D01*
G01*
G37*
G36*
G01*
X67150000Y-51050000D02*
X67150000Y-49250000D01*
G75*
G02*
X67400000Y-49000000I250000J0D01*
G01*
X69400000Y-49000000D01*
G75*
G02*
X69650000Y-49250000I0J-250000D01*
G01*
X69650000Y-51050000D01*
G75*
G02*
X69400000Y-51300000I-250000J0D01*
G01*
X67400000Y-51300000D01*
G75*
G02*
X67150000Y-51050000I0J250000D01*
G01*
G37*
G36*
G01*
X55200000Y-62300000D02*
X55200000Y-61000000D01*
G75*
G02*
X55450000Y-60750000I250000J0D01*
G01*
X56100000Y-60750000D01*
G75*
G02*
X56350000Y-61000000I0J-250000D01*
G01*
X56350000Y-62300000D01*
G75*
G02*
X56100000Y-62550000I-250000J0D01*
G01*
X55450000Y-62550000D01*
G75*
G02*
X55200000Y-62300000I0J250000D01*
G01*
G37*
G36*
G01*
X58150000Y-62300000D02*
X58150000Y-61000000D01*
G75*
G02*
X58400000Y-60750000I250000J0D01*
G01*
X59050000Y-60750000D01*
G75*
G02*
X59300000Y-61000000I0J-250000D01*
G01*
X59300000Y-62300000D01*
G75*
G02*
X59050000Y-62550000I-250000J0D01*
G01*
X58400000Y-62550000D01*
G75*
G02*
X58150000Y-62300000I0J250000D01*
G01*
G37*
G36*
G01*
X63422500Y-72727500D02*
X63422500Y-72177500D01*
G75*
G02*
X63622500Y-71977500I200000J0D01*
G01*
X64022500Y-71977500D01*
G75*
G02*
X64222500Y-72177500I0J-200000D01*
G01*
X64222500Y-72727500D01*
G75*
G02*
X64022500Y-72927500I-200000J0D01*
G01*
X63622500Y-72927500D01*
G75*
G02*
X63422500Y-72727500I0J200000D01*
G01*
G37*
G36*
G01*
X65072500Y-72727500D02*
X65072500Y-72177500D01*
G75*
G02*
X65272500Y-71977500I200000J0D01*
G01*
X65672500Y-71977500D01*
G75*
G02*
X65872500Y-72177500I0J-200000D01*
G01*
X65872500Y-72727500D01*
G75*
G02*
X65672500Y-72927500I-200000J0D01*
G01*
X65272500Y-72927500D01*
G75*
G02*
X65072500Y-72727500I0J200000D01*
G01*
G37*
G36*
G01*
X60847500Y-75402500D02*
X62147500Y-75402500D01*
G75*
G02*
X62397500Y-75652500I0J-250000D01*
G01*
X62397500Y-76302500D01*
G75*
G02*
X62147500Y-76552500I-250000J0D01*
G01*
X60847500Y-76552500D01*
G75*
G02*
X60597500Y-76302500I0J250000D01*
G01*
X60597500Y-75652500D01*
G75*
G02*
X60847500Y-75402500I250000J0D01*
G01*
G37*
G36*
G01*
X60847500Y-78352500D02*
X62147500Y-78352500D01*
G75*
G02*
X62397500Y-78602500I0J-250000D01*
G01*
X62397500Y-79252500D01*
G75*
G02*
X62147500Y-79502500I-250000J0D01*
G01*
X60847500Y-79502500D01*
G75*
G02*
X60597500Y-79252500I0J250000D01*
G01*
X60597500Y-78602500D01*
G75*
G02*
X60847500Y-78352500I250000J0D01*
G01*
G37*
G36*
G01*
X59100000Y-55800000D02*
X59100000Y-54000000D01*
G75*
G02*
X59350000Y-53750000I250000J0D01*
G01*
X61350000Y-53750000D01*
G75*
G02*
X61600000Y-54000000I0J-250000D01*
G01*
X61600000Y-55800000D01*
G75*
G02*
X61350000Y-56050000I-250000J0D01*
G01*
X59350000Y-56050000D01*
G75*
G02*
X59100000Y-55800000I0J250000D01*
G01*
G37*
G36*
G01*
X63400000Y-55800000D02*
X63400000Y-54000000D01*
G75*
G02*
X63650000Y-53750000I250000J0D01*
G01*
X65650000Y-53750000D01*
G75*
G02*
X65900000Y-54000000I0J-250000D01*
G01*
X65900000Y-55800000D01*
G75*
G02*
X65650000Y-56050000I-250000J0D01*
G01*
X63650000Y-56050000D01*
G75*
G02*
X63400000Y-55800000I0J250000D01*
G01*
G37*
G36*
G01*
X55199999Y-59800000D02*
X55199999Y-58500000D01*
G75*
G02*
X55449999Y-58250000I250000J0D01*
G01*
X56099999Y-58250000D01*
G75*
G02*
X56349999Y-58500000I0J-250000D01*
G01*
X56349999Y-59800000D01*
G75*
G02*
X56099999Y-60050000I-250000J0D01*
G01*
X55449999Y-60050000D01*
G75*
G02*
X55199999Y-59800000I0J250000D01*
G01*
G37*
G36*
G01*
X58150001Y-59800000D02*
X58150001Y-58500000D01*
G75*
G02*
X58400001Y-58250000I250000J0D01*
G01*
X59050001Y-58250000D01*
G75*
G02*
X59300001Y-58500000I0J-250000D01*
G01*
X59300001Y-59800000D01*
G75*
G02*
X59050001Y-60050000I-250000J0D01*
G01*
X58400001Y-60050000D01*
G75*
G02*
X58150001Y-59800000I0J250000D01*
G01*
G37*
G36*
G01*
X69800000Y-66000000D02*
X69800000Y-67300000D01*
G75*
G02*
X69550000Y-67550000I-250000J0D01*
G01*
X68900000Y-67550000D01*
G75*
G02*
X68650000Y-67300000I0J250000D01*
G01*
X68650000Y-66000000D01*
G75*
G02*
X68900000Y-65750000I250000J0D01*
G01*
X69550000Y-65750000D01*
G75*
G02*
X69800000Y-66000000I0J-250000D01*
G01*
G37*
G36*
G01*
X66850000Y-66000000D02*
X66850000Y-67300000D01*
G75*
G02*
X66600000Y-67550000I-250000J0D01*
G01*
X65950000Y-67550000D01*
G75*
G02*
X65700000Y-67300000I0J250000D01*
G01*
X65700000Y-66000000D01*
G75*
G02*
X65950000Y-65750000I250000J0D01*
G01*
X66600000Y-65750000D01*
G75*
G02*
X66850000Y-66000000I0J-250000D01*
G01*
G37*
G36*
G01*
X68550000Y-113825000D02*
X69450000Y-113825000D01*
G75*
G02*
X69700000Y-114075000I0J-250000D01*
G01*
X69700000Y-114600000D01*
G75*
G02*
X69450000Y-114850000I-250000J0D01*
G01*
X68550000Y-114850000D01*
G75*
G02*
X68300000Y-114600000I0J250000D01*
G01*
X68300000Y-114075000D01*
G75*
G02*
X68550000Y-113825000I250000J0D01*
G01*
G37*
G36*
G01*
X68550000Y-115650000D02*
X69450000Y-115650000D01*
G75*
G02*
X69700000Y-115900000I0J-250000D01*
G01*
X69700000Y-116425000D01*
G75*
G02*
X69450000Y-116675000I-250000J0D01*
G01*
X68550000Y-116675000D01*
G75*
G02*
X68300000Y-116425000I0J250000D01*
G01*
X68300000Y-115900000D01*
G75*
G02*
X68550000Y-115650000I250000J0D01*
G01*
G37*
G36*
G01*
X66672500Y-72727500D02*
X66672500Y-72177500D01*
G75*
G02*
X66872500Y-71977500I200000J0D01*
G01*
X67272500Y-71977500D01*
G75*
G02*
X67472500Y-72177500I0J-200000D01*
G01*
X67472500Y-72727500D01*
G75*
G02*
X67272500Y-72927500I-200000J0D01*
G01*
X66872500Y-72927500D01*
G75*
G02*
X66672500Y-72727500I0J200000D01*
G01*
G37*
G36*
G01*
X68322500Y-72727500D02*
X68322500Y-72177500D01*
G75*
G02*
X68522500Y-71977500I200000J0D01*
G01*
X68922500Y-71977500D01*
G75*
G02*
X69122500Y-72177500I0J-200000D01*
G01*
X69122500Y-72727500D01*
G75*
G02*
X68922500Y-72927500I-200000J0D01*
G01*
X68522500Y-72927500D01*
G75*
G02*
X68322500Y-72727500I0J200000D01*
G01*
G37*
G36*
G01*
X69800000Y-58500000D02*
X69800000Y-59800000D01*
G75*
G02*
X69550000Y-60050000I-250000J0D01*
G01*
X68900000Y-60050000D01*
G75*
G02*
X68650000Y-59800000I0J250000D01*
G01*
X68650000Y-58500000D01*
G75*
G02*
X68900000Y-58250000I250000J0D01*
G01*
X69550000Y-58250000D01*
G75*
G02*
X69800000Y-58500000I0J-250000D01*
G01*
G37*
G36*
G01*
X66850000Y-58500000D02*
X66850000Y-59800000D01*
G75*
G02*
X66600000Y-60050000I-250000J0D01*
G01*
X65950000Y-60050000D01*
G75*
G02*
X65700000Y-59800000I0J250000D01*
G01*
X65700000Y-58500000D01*
G75*
G02*
X65950000Y-58250000I250000J0D01*
G01*
X66600000Y-58250000D01*
G75*
G02*
X66850000Y-58500000I0J-250000D01*
G01*
G37*
G36*
G01*
X62122500Y-83252500D02*
X61172500Y-83252500D01*
G75*
G02*
X60922500Y-83002500I0J250000D01*
G01*
X60922500Y-82502500D01*
G75*
G02*
X61172500Y-82252500I250000J0D01*
G01*
X62122500Y-82252500D01*
G75*
G02*
X62372500Y-82502500I0J-250000D01*
G01*
X62372500Y-83002500D01*
G75*
G02*
X62122500Y-83252500I-250000J0D01*
G01*
G37*
G36*
G01*
X62122500Y-81352500D02*
X61172500Y-81352500D01*
G75*
G02*
X60922500Y-81102500I0J250000D01*
G01*
X60922500Y-80602500D01*
G75*
G02*
X61172500Y-80352500I250000J0D01*
G01*
X62122500Y-80352500D01*
G75*
G02*
X62372500Y-80602500I0J-250000D01*
G01*
X62372500Y-81102500D01*
G75*
G02*
X62122500Y-81352500I-250000J0D01*
G01*
G37*
G36*
G01*
X79050000Y-90925000D02*
X78550000Y-90925000D01*
G75*
G02*
X78325000Y-90700000I0J225000D01*
G01*
X78325000Y-90250000D01*
G75*
G02*
X78550000Y-90025000I225000J0D01*
G01*
X79050000Y-90025000D01*
G75*
G02*
X79275000Y-90250000I0J-225000D01*
G01*
X79275000Y-90700000D01*
G75*
G02*
X79050000Y-90925000I-225000J0D01*
G01*
G37*
G36*
G01*
X79050000Y-89375000D02*
X78550000Y-89375000D01*
G75*
G02*
X78325000Y-89150000I0J225000D01*
G01*
X78325000Y-88700000D01*
G75*
G02*
X78550000Y-88475000I225000J0D01*
G01*
X79050000Y-88475000D01*
G75*
G02*
X79275000Y-88700000I0J-225000D01*
G01*
X79275000Y-89150000D01*
G75*
G02*
X79050000Y-89375000I-225000J0D01*
G01*
G37*
G36*
G01*
X66947500Y-76152500D02*
X66947500Y-76452500D01*
G75*
G02*
X66797500Y-76602500I-150000J0D01*
G01*
X65772500Y-76602500D01*
G75*
G02*
X65622500Y-76452500I0J150000D01*
G01*
X65622500Y-76152500D01*
G75*
G02*
X65772500Y-76002500I150000J0D01*
G01*
X66797500Y-76002500D01*
G75*
G02*
X66947500Y-76152500I0J-150000D01*
G01*
G37*
G36*
G01*
X66947500Y-75202500D02*
X66947500Y-75502500D01*
G75*
G02*
X66797500Y-75652500I-150000J0D01*
G01*
X65772500Y-75652500D01*
G75*
G02*
X65622500Y-75502500I0J150000D01*
G01*
X65622500Y-75202500D01*
G75*
G02*
X65772500Y-75052500I150000J0D01*
G01*
X66797500Y-75052500D01*
G75*
G02*
X66947500Y-75202500I0J-150000D01*
G01*
G37*
G36*
G01*
X66947500Y-74252500D02*
X66947500Y-74552500D01*
G75*
G02*
X66797500Y-74702500I-150000J0D01*
G01*
X65772500Y-74702500D01*
G75*
G02*
X65622500Y-74552500I0J150000D01*
G01*
X65622500Y-74252500D01*
G75*
G02*
X65772500Y-74102500I150000J0D01*
G01*
X66797500Y-74102500D01*
G75*
G02*
X66947500Y-74252500I0J-150000D01*
G01*
G37*
G36*
G01*
X64672500Y-74252500D02*
X64672500Y-74552500D01*
G75*
G02*
X64522500Y-74702500I-150000J0D01*
G01*
X63497500Y-74702500D01*
G75*
G02*
X63347500Y-74552500I0J150000D01*
G01*
X63347500Y-74252500D01*
G75*
G02*
X63497500Y-74102500I150000J0D01*
G01*
X64522500Y-74102500D01*
G75*
G02*
X64672500Y-74252500I0J-150000D01*
G01*
G37*
G36*
G01*
X64672500Y-75202500D02*
X64672500Y-75502500D01*
G75*
G02*
X64522500Y-75652500I-150000J0D01*
G01*
X63497500Y-75652500D01*
G75*
G02*
X63347500Y-75502500I0J150000D01*
G01*
X63347500Y-75202500D01*
G75*
G02*
X63497500Y-75052500I150000J0D01*
G01*
X64522500Y-75052500D01*
G75*
G02*
X64672500Y-75202500I0J-150000D01*
G01*
G37*
G36*
G01*
X64672500Y-76152500D02*
X64672500Y-76452500D01*
G75*
G02*
X64522500Y-76602500I-150000J0D01*
G01*
X63497500Y-76602500D01*
G75*
G02*
X63347500Y-76452500I0J150000D01*
G01*
X63347500Y-76152500D01*
G75*
G02*
X63497500Y-76002500I150000J0D01*
G01*
X64522500Y-76002500D01*
G75*
G02*
X64672500Y-76152500I0J-150000D01*
G01*
G37*
G36*
G01*
X69800000Y-63500000D02*
X69800000Y-64800000D01*
G75*
G02*
X69550000Y-65050000I-250000J0D01*
G01*
X68900000Y-65050000D01*
G75*
G02*
X68650000Y-64800000I0J250000D01*
G01*
X68650000Y-63500000D01*
G75*
G02*
X68900000Y-63250000I250000J0D01*
G01*
X69550000Y-63250000D01*
G75*
G02*
X69800000Y-63500000I0J-250000D01*
G01*
G37*
G36*
G01*
X66850000Y-63500000D02*
X66850000Y-64800000D01*
G75*
G02*
X66600000Y-65050000I-250000J0D01*
G01*
X65950000Y-65050000D01*
G75*
G02*
X65700000Y-64800000I0J250000D01*
G01*
X65700000Y-63500000D01*
G75*
G02*
X65950000Y-63250000I250000J0D01*
G01*
X66600000Y-63250000D01*
G75*
G02*
X66850000Y-63500000I0J-250000D01*
G01*
G37*
D10*
X65847500Y-78852500D03*
X65847500Y-82552500D03*
G36*
G01*
X69425000Y-85075000D02*
X69425000Y-84525000D01*
G75*
G02*
X69625000Y-84325000I200000J0D01*
G01*
X70025000Y-84325000D01*
G75*
G02*
X70225000Y-84525000I0J-200000D01*
G01*
X70225000Y-85075000D01*
G75*
G02*
X70025000Y-85275000I-200000J0D01*
G01*
X69625000Y-85275000D01*
G75*
G02*
X69425000Y-85075000I0J200000D01*
G01*
G37*
G36*
G01*
X71075000Y-85075000D02*
X71075000Y-84525000D01*
G75*
G02*
X71275000Y-84325000I200000J0D01*
G01*
X71675000Y-84325000D01*
G75*
G02*
X71875000Y-84525000I0J-200000D01*
G01*
X71875000Y-85075000D01*
G75*
G02*
X71675000Y-85275000I-200000J0D01*
G01*
X71275000Y-85275000D01*
G75*
G02*
X71075000Y-85075000I0J200000D01*
G01*
G37*
G36*
G01*
X61020000Y-73410000D02*
X60680000Y-73410000D01*
G75*
G02*
X60540000Y-73270000I0J140000D01*
G01*
X60540000Y-72990000D01*
G75*
G02*
X60680000Y-72850000I140000J0D01*
G01*
X61020000Y-72850000D01*
G75*
G02*
X61160000Y-72990000I0J-140000D01*
G01*
X61160000Y-73270000D01*
G75*
G02*
X61020000Y-73410000I-140000J0D01*
G01*
G37*
G36*
G01*
X61020000Y-72450000D02*
X60680000Y-72450000D01*
G75*
G02*
X60540000Y-72310000I0J140000D01*
G01*
X60540000Y-72030000D01*
G75*
G02*
X60680000Y-71890000I140000J0D01*
G01*
X61020000Y-71890000D01*
G75*
G02*
X61160000Y-72030000I0J-140000D01*
G01*
X61160000Y-72310000D01*
G75*
G02*
X61020000Y-72450000I-140000J0D01*
G01*
G37*
G36*
G01*
X56650000Y-57200000D02*
X55350000Y-57200000D01*
G75*
G02*
X55100000Y-56950000I0J250000D01*
G01*
X55100000Y-56300000D01*
G75*
G02*
X55350000Y-56050000I250000J0D01*
G01*
X56650000Y-56050000D01*
G75*
G02*
X56900000Y-56300000I0J-250000D01*
G01*
X56900000Y-56950000D01*
G75*
G02*
X56650000Y-57200000I-250000J0D01*
G01*
G37*
G36*
G01*
X56650000Y-54250000D02*
X55350000Y-54250000D01*
G75*
G02*
X55100000Y-54000000I0J250000D01*
G01*
X55100000Y-53350000D01*
G75*
G02*
X55350000Y-53100000I250000J0D01*
G01*
X56650000Y-53100000D01*
G75*
G02*
X56900000Y-53350000I0J-250000D01*
G01*
X56900000Y-54000000D01*
G75*
G02*
X56650000Y-54250000I-250000J0D01*
G01*
G37*
G36*
G01*
X74575000Y-33356250D02*
X74575000Y-32443750D01*
G75*
G02*
X74818750Y-32200000I243750J0D01*
G01*
X75306250Y-32200000D01*
G75*
G02*
X75550000Y-32443750I0J-243750D01*
G01*
X75550000Y-33356250D01*
G75*
G02*
X75306250Y-33600000I-243750J0D01*
G01*
X74818750Y-33600000D01*
G75*
G02*
X74575000Y-33356250I0J243750D01*
G01*
G37*
G36*
G01*
X76450000Y-33356250D02*
X76450000Y-32443750D01*
G75*
G02*
X76693750Y-32200000I243750J0D01*
G01*
X77181250Y-32200000D01*
G75*
G02*
X77425000Y-32443750I0J-243750D01*
G01*
X77425000Y-33356250D01*
G75*
G02*
X77181250Y-33600000I-243750J0D01*
G01*
X76693750Y-33600000D01*
G75*
G02*
X76450000Y-33356250I0J243750D01*
G01*
G37*
G36*
G01*
X68367500Y-77412500D02*
X68027500Y-77412500D01*
G75*
G02*
X67887500Y-77272500I0J140000D01*
G01*
X67887500Y-76992500D01*
G75*
G02*
X68027500Y-76852500I140000J0D01*
G01*
X68367500Y-76852500D01*
G75*
G02*
X68507500Y-76992500I0J-140000D01*
G01*
X68507500Y-77272500D01*
G75*
G02*
X68367500Y-77412500I-140000J0D01*
G01*
G37*
G36*
G01*
X68367500Y-76452500D02*
X68027500Y-76452500D01*
G75*
G02*
X67887500Y-76312500I0J140000D01*
G01*
X67887500Y-76032500D01*
G75*
G02*
X68027500Y-75892500I140000J0D01*
G01*
X68367500Y-75892500D01*
G75*
G02*
X68507500Y-76032500I0J-140000D01*
G01*
X68507500Y-76312500D01*
G75*
G02*
X68367500Y-76452500I-140000J0D01*
G01*
G37*
M02*
