%TF.GenerationSoftware,KiCad,Pcbnew,9.0.7+1*%
%TF.CreationDate,2026-07-20T18:29:34+00:00*%
%TF.ProjectId,hw-module-xesc,68772d6d-6f64-4756-9c65-2d786573632e,rev?*%
%TF.SameCoordinates,Original*%
%TF.FileFunction,Drillmap*%
%TF.FilePolarity,Positive*%
%FSLAX45Y45*%
G04 Gerber Fmt 4.5, Leading zero omitted, Abs format (unit mm)*
G04 Created by KiCad (PCBNEW 9.0.7+1) date 2026-07-20 18:29:34*
%MOMM*%
%LPD*%
G01*
G04 APERTURE LIST*
%ADD10C,0.050000*%
%ADD11C,0.200000*%
%ADD12C,0.100000*%
%ADD13C,0.130000*%
%ADD14C,0.270000*%
%ADD15C,0.430000*%
G04 APERTURE END LIST*
D10*
X4500000Y-2500000D02*
G75*
G02*
X5000000Y-2000000I500000J0D01*
G01*
X4500000Y-11550000D02*
X4500000Y-2500000D01*
X5000000Y-12050000D02*
G75*
G02*
X4500000Y-11550000I0J500000D01*
G01*
X5000000Y-12050000D02*
X5580000Y-12050000D01*
X5425000Y-2000000D02*
X5000000Y-2000000D01*
X5425000Y-2000000D02*
G75*
G02*
X5475000Y-2050000I0J-50000D01*
G01*
X5475000Y-2625000D02*
X5475000Y-2050000D01*
X5574883Y-2624830D02*
G75*
G02*
X5474883Y-2624830I-50000J0D01*
G01*
X5575000Y-2050000D02*
G75*
G02*
X5625000Y-2000000I50000J0D01*
G01*
X5575000Y-2624830D02*
X5575000Y-2050000D01*
X5875000Y-2000000D02*
X5625000Y-2000000D01*
X5875000Y-2000000D02*
G75*
G02*
X5925000Y-2050000I0J-50000D01*
G01*
X5925000Y-2525000D02*
X5925000Y-2050000D01*
X5975000Y-2575000D02*
G75*
G02*
X5925000Y-2525000I0J50000D01*
G01*
X6025000Y-2575000D02*
X5975000Y-2575000D01*
X6075000Y-2050000D02*
G75*
G02*
X6125000Y-2000000I50000J0D01*
G01*
X6075000Y-2525000D02*
G75*
G02*
X6025000Y-2575000I-50000J0D01*
G01*
X6075000Y-2525000D02*
X6075000Y-2050000D01*
X6375000Y-2000000D02*
X6125000Y-2000000D01*
X6375000Y-2000000D02*
G75*
G02*
X6425000Y-2050000I0J-50000D01*
G01*
X6425000Y-2525000D02*
X6425000Y-2050000D01*
X6475000Y-2575000D02*
G75*
G02*
X6425000Y-2525000I0J50000D01*
G01*
X6525000Y-2575000D02*
X6475000Y-2575000D01*
X6575000Y-2050000D02*
G75*
G02*
X6625000Y-2000000I50000J0D01*
G01*
X6575000Y-2525000D02*
G75*
G02*
X6525000Y-2575000I-50000J0D01*
G01*
X6575000Y-2525000D02*
X6575000Y-2050000D01*
X6875000Y-2000000D02*
X6625000Y-2000000D01*
X6875000Y-2000000D02*
G75*
G02*
X6925000Y-2050000I0J-50000D01*
G01*
X6924719Y-2625000D02*
X6925000Y-2050000D01*
X7024719Y-2624890D02*
G75*
G02*
X6924721Y-2624890I-49999J0D01*
G01*
X7024719Y-2624890D02*
X7025000Y-2050000D01*
X7025000Y-2050000D02*
G75*
G02*
X7075000Y-2000000I50000J0D01*
G01*
X7075000Y-2000000D02*
X7500000Y-2000000D01*
X7500000Y-2000000D02*
G75*
G02*
X8000000Y-2500000I0J-500000D01*
G01*
X7500000Y-12050000D02*
X5580000Y-12050000D01*
X8000000Y-2500000D02*
X8000000Y-10840000D01*
X8000000Y-11550000D02*
G75*
G02*
X7500000Y-12050000I-500000J0D01*
G01*
X8000000Y-11550000D02*
X8000000Y-10840000D01*
D11*
D12*
X4850000Y-3925000D02*
X4880000Y-3955000D01*
X4880000Y-3925000D02*
X4850000Y-3955000D01*
X5405000Y-5890000D02*
X5435000Y-5920000D01*
X5435000Y-5890000D02*
X5405000Y-5920000D01*
X5405000Y-6160000D02*
X5435000Y-6190000D01*
X5435000Y-6160000D02*
X5405000Y-6190000D01*
X5405000Y-6405000D02*
X5435000Y-6435000D01*
X5435000Y-6405000D02*
X5405000Y-6435000D01*
X5405000Y-6650000D02*
X5435000Y-6680000D01*
X5435000Y-6650000D02*
X5405000Y-6680000D01*
X5425000Y-5325000D02*
X5455000Y-5355000D01*
X5455000Y-5325000D02*
X5425000Y-5355000D01*
X5635000Y-2035000D02*
X5665000Y-2065000D01*
X5665000Y-2035000D02*
X5635000Y-2065000D01*
X5635000Y-2135000D02*
X5665000Y-2165000D01*
X5665000Y-2135000D02*
X5635000Y-2165000D01*
X5635000Y-2235000D02*
X5665000Y-2265000D01*
X5665000Y-2235000D02*
X5635000Y-2265000D01*
X5635000Y-2335000D02*
X5665000Y-2365000D01*
X5665000Y-2335000D02*
X5635000Y-2365000D01*
X5635000Y-2435000D02*
X5665000Y-2465000D01*
X5665000Y-2435000D02*
X5635000Y-2465000D01*
X5735000Y-2035000D02*
X5765000Y-2065000D01*
X5765000Y-2035000D02*
X5735000Y-2065000D01*
X5735000Y-2135000D02*
X5765000Y-2165000D01*
X5765000Y-2135000D02*
X5735000Y-2165000D01*
X5735000Y-2235000D02*
X5765000Y-2265000D01*
X5765000Y-2235000D02*
X5735000Y-2265000D01*
X5735000Y-2335000D02*
X5765000Y-2365000D01*
X5765000Y-2335000D02*
X5735000Y-2365000D01*
X5735000Y-2435000D02*
X5765000Y-2465000D01*
X5765000Y-2435000D02*
X5735000Y-2465000D01*
X5745000Y-5325000D02*
X5775000Y-5355000D01*
X5775000Y-5325000D02*
X5745000Y-5355000D01*
X5835000Y-2035000D02*
X5865000Y-2065000D01*
X5865000Y-2035000D02*
X5835000Y-2065000D01*
X5835000Y-2135000D02*
X5865000Y-2165000D01*
X5865000Y-2135000D02*
X5835000Y-2165000D01*
X5835000Y-2235000D02*
X5865000Y-2265000D01*
X5865000Y-2235000D02*
X5835000Y-2265000D01*
X5835000Y-2335000D02*
X5865000Y-2365000D01*
X5865000Y-2335000D02*
X5835000Y-2365000D01*
X5835000Y-2435000D02*
X5865000Y-2465000D01*
X5865000Y-2435000D02*
X5835000Y-2465000D01*
X5955000Y-7835000D02*
X5985000Y-7865000D01*
X5985000Y-7835000D02*
X5955000Y-7865000D01*
X5980000Y-5900000D02*
X6010000Y-5930000D01*
X6010000Y-5900000D02*
X5980000Y-5930000D01*
X5980001Y-6149999D02*
X6010001Y-6179999D01*
X6010001Y-6149999D02*
X5980001Y-6179999D01*
X5980001Y-6649999D02*
X6010001Y-6679999D01*
X6010001Y-6649999D02*
X5980001Y-6679999D01*
X5985000Y-6405000D02*
X6015000Y-6435000D01*
X6015000Y-6405000D02*
X5985000Y-6435000D01*
X6005000Y-8115000D02*
X6035000Y-8145000D01*
X6035000Y-8115000D02*
X6005000Y-8145000D01*
X6045000Y-6545000D02*
X6075000Y-6575000D01*
X6075000Y-6545000D02*
X6045000Y-6575000D01*
X6065000Y-6025000D02*
X6095000Y-6055000D01*
X6095000Y-6025000D02*
X6065000Y-6055000D01*
X6065000Y-6285000D02*
X6095000Y-6315000D01*
X6095000Y-6285000D02*
X6065000Y-6315000D01*
X6075000Y-7115000D02*
X6105000Y-7145000D01*
X6105000Y-7115000D02*
X6075000Y-7145000D01*
X6085000Y-5785000D02*
X6115000Y-5815000D01*
X6115000Y-5785000D02*
X6085000Y-5815000D01*
X6085000Y-6845000D02*
X6115000Y-6875000D01*
X6115000Y-6845000D02*
X6085000Y-6875000D01*
X6135000Y-2035000D02*
X6165000Y-2065000D01*
X6165000Y-2035000D02*
X6135000Y-2065000D01*
X6135000Y-2135000D02*
X6165000Y-2165000D01*
X6165000Y-2135000D02*
X6135000Y-2165000D01*
X6135000Y-2235000D02*
X6165000Y-2265000D01*
X6165000Y-2235000D02*
X6135000Y-2265000D01*
X6135000Y-2335000D02*
X6165000Y-2365000D01*
X6165000Y-2335000D02*
X6135000Y-2365000D01*
X6135000Y-2435000D02*
X6165000Y-2465000D01*
X6165000Y-2435000D02*
X6135000Y-2465000D01*
X6205000Y-6965000D02*
X6235000Y-6995000D01*
X6235000Y-6965000D02*
X6205000Y-6995000D01*
X6235000Y-2035000D02*
X6265000Y-2065000D01*
X6265000Y-2035000D02*
X6235000Y-2065000D01*
X6235000Y-2135000D02*
X6265000Y-2165000D01*
X6265000Y-2135000D02*
X6235000Y-2165000D01*
X6235000Y-2235000D02*
X6265000Y-2265000D01*
X6265000Y-2235000D02*
X6235000Y-2265000D01*
X6235000Y-2335000D02*
X6265000Y-2365000D01*
X6265000Y-2335000D02*
X6235000Y-2365000D01*
X6235000Y-2435000D02*
X6265000Y-2465000D01*
X6265000Y-2435000D02*
X6235000Y-2465000D01*
X6250000Y-9065000D02*
X6280000Y-9095000D01*
X6280000Y-9065000D02*
X6250000Y-9095000D01*
X6250000Y-9165000D02*
X6280000Y-9195000D01*
X6280000Y-9165000D02*
X6250000Y-9195000D01*
X6250000Y-9260000D02*
X6280000Y-9290000D01*
X6280000Y-9260000D02*
X6250000Y-9290000D01*
X6250000Y-9695000D02*
X6280000Y-9725000D01*
X6280000Y-9695000D02*
X6250000Y-9725000D01*
X6325000Y-5785000D02*
X6355000Y-5815000D01*
X6355000Y-5785000D02*
X6325000Y-5815000D01*
X6325000Y-6025000D02*
X6355000Y-6055000D01*
X6355000Y-6025000D02*
X6325000Y-6055000D01*
X6325000Y-6285000D02*
X6355000Y-6315000D01*
X6355000Y-6285000D02*
X6325000Y-6315000D01*
X6325000Y-6545000D02*
X6355000Y-6575000D01*
X6355000Y-6545000D02*
X6325000Y-6575000D01*
X6335000Y-2035000D02*
X6365000Y-2065000D01*
X6365000Y-2035000D02*
X6335000Y-2065000D01*
X6335000Y-2135000D02*
X6365000Y-2165000D01*
X6365000Y-2135000D02*
X6335000Y-2165000D01*
X6335000Y-2235000D02*
X6365000Y-2265000D01*
X6365000Y-2235000D02*
X6335000Y-2265000D01*
X6335000Y-2335000D02*
X6365000Y-2365000D01*
X6365000Y-2335000D02*
X6335000Y-2365000D01*
X6335000Y-2435000D02*
X6365000Y-2465000D01*
X6365000Y-2435000D02*
X6335000Y-2465000D01*
X6505000Y-5905000D02*
X6535000Y-5935000D01*
X6535000Y-5905000D02*
X6505000Y-5935000D01*
X6505000Y-6165000D02*
X6535000Y-6195000D01*
X6535000Y-6165000D02*
X6505000Y-6195000D01*
X6505000Y-6405000D02*
X6535000Y-6435000D01*
X6535000Y-6405000D02*
X6505000Y-6435000D01*
X6505000Y-6645000D02*
X6535000Y-6675000D01*
X6535000Y-6645000D02*
X6505000Y-6675000D01*
X6505000Y-8465000D02*
X6535000Y-8495000D01*
X6535000Y-8465000D02*
X6505000Y-8495000D01*
X6592499Y-7077499D02*
X6622499Y-7107499D01*
X6622499Y-7077499D02*
X6592499Y-7107499D01*
X6605000Y-6865000D02*
X6635000Y-6895000D01*
X6635000Y-6865000D02*
X6605000Y-6895000D01*
X6635000Y-2035000D02*
X6665000Y-2065000D01*
X6665000Y-2035000D02*
X6635000Y-2065000D01*
X6635000Y-2135000D02*
X6665000Y-2165000D01*
X6665000Y-2135000D02*
X6635000Y-2165000D01*
X6635000Y-2235000D02*
X6665000Y-2265000D01*
X6665000Y-2235000D02*
X6635000Y-2265000D01*
X6635000Y-2335000D02*
X6665000Y-2365000D01*
X6665000Y-2335000D02*
X6635000Y-2365000D01*
X6635000Y-2435000D02*
X6665000Y-2465000D01*
X6665000Y-2435000D02*
X6635000Y-2465000D01*
X6705000Y-5325000D02*
X6735000Y-5355000D01*
X6735000Y-5325000D02*
X6705000Y-5355000D01*
X6735000Y-2035000D02*
X6765000Y-2065000D01*
X6765000Y-2035000D02*
X6735000Y-2065000D01*
X6735000Y-2135000D02*
X6765000Y-2165000D01*
X6765000Y-2135000D02*
X6735000Y-2165000D01*
X6735000Y-2235000D02*
X6765000Y-2265000D01*
X6765000Y-2235000D02*
X6735000Y-2265000D01*
X6735000Y-2335000D02*
X6765000Y-2365000D01*
X6765000Y-2335000D02*
X6735000Y-2365000D01*
X6735000Y-2435000D02*
X6765000Y-2465000D01*
X6765000Y-2435000D02*
X6735000Y-2465000D01*
X6785000Y-6945000D02*
X6815000Y-6975000D01*
X6815000Y-6945000D02*
X6785000Y-6975000D01*
X6805000Y-7480000D02*
X6835000Y-7510000D01*
X6835000Y-7480000D02*
X6805000Y-7510000D01*
X6835000Y-2035000D02*
X6865000Y-2065000D01*
X6865000Y-2035000D02*
X6835000Y-2065000D01*
X6835000Y-2135000D02*
X6865000Y-2165000D01*
X6865000Y-2135000D02*
X6835000Y-2165000D01*
X6835000Y-2235000D02*
X6865000Y-2265000D01*
X6865000Y-2235000D02*
X6835000Y-2265000D01*
X6835000Y-2335000D02*
X6865000Y-2365000D01*
X6865000Y-2335000D02*
X6835000Y-2365000D01*
X6835000Y-2435000D02*
X6865000Y-2465000D01*
X6865000Y-2435000D02*
X6835000Y-2465000D01*
X6835000Y-9460000D02*
X6865000Y-9490000D01*
X6865000Y-9460000D02*
X6835000Y-9490000D01*
X6975000Y-7225000D02*
X7005000Y-7255000D01*
X7005000Y-7225000D02*
X6975000Y-7255000D01*
X7045000Y-5325000D02*
X7075000Y-5355000D01*
X7075000Y-5325000D02*
X7045000Y-5355000D01*
X7064942Y-5893876D02*
X7094942Y-5923876D01*
X7094942Y-5893876D02*
X7064942Y-5923876D01*
X7064942Y-6163876D02*
X7094942Y-6193876D01*
X7094942Y-6163876D02*
X7064942Y-6193876D01*
X7064942Y-6408876D02*
X7094942Y-6438876D01*
X7094942Y-6408876D02*
X7064942Y-6438876D01*
X7064942Y-6653876D02*
X7094942Y-6683876D01*
X7094942Y-6653876D02*
X7064942Y-6683876D01*
X7125000Y-8785000D02*
X7155000Y-8815000D01*
X7155000Y-8785000D02*
X7125000Y-8815000D01*
X7145000Y-8065000D02*
X7175000Y-8095000D01*
X7175000Y-8065000D02*
X7145000Y-8095000D01*
X7155000Y-7555000D02*
X7185000Y-7585000D01*
X7185000Y-7555000D02*
X7155000Y-7585000D01*
X7385000Y-10235000D02*
X7415000Y-10265000D01*
X7415000Y-10235000D02*
X7385000Y-10265000D01*
X7660000Y-9810000D02*
X7690000Y-9840000D01*
X7690000Y-9810000D02*
X7660000Y-9840000D01*
X7760000Y-9556500D02*
X7790000Y-9586500D01*
X7790000Y-9556500D02*
X7760000Y-9586500D01*
X7865000Y-8765000D02*
X7895000Y-8795000D01*
X7895000Y-8765000D02*
X7865000Y-8795000D01*
X4707500Y-2500000D02*
G75*
G02*
X4647500Y-2500000I-30000J0D01*
G01*
X4647500Y-2500000D02*
G75*
G02*
X4707500Y-2500000I30000J0D01*
G01*
X4707500Y-11550000D02*
G75*
G02*
X4647500Y-11550000I-30000J0D01*
G01*
X4647500Y-11550000D02*
G75*
G02*
X4707500Y-11550000I30000J0D01*
G01*
X4801958Y-2271958D02*
G75*
G02*
X4741958Y-2271958I-30000J0D01*
G01*
X4741958Y-2271958D02*
G75*
G02*
X4801958Y-2271958I30000J0D01*
G01*
X4801958Y-2728042D02*
G75*
G02*
X4741958Y-2728042I-30000J0D01*
G01*
X4741958Y-2728042D02*
G75*
G02*
X4801958Y-2728042I30000J0D01*
G01*
X4801958Y-11321958D02*
G75*
G02*
X4741958Y-11321958I-30000J0D01*
G01*
X4741958Y-11321958D02*
G75*
G02*
X4801958Y-11321958I30000J0D01*
G01*
X4801958Y-11778042D02*
G75*
G02*
X4741958Y-11778042I-30000J0D01*
G01*
X4741958Y-11778042D02*
G75*
G02*
X4801958Y-11778042I30000J0D01*
G01*
X5030000Y-2177500D02*
G75*
G02*
X4970000Y-2177500I-30000J0D01*
G01*
X4970000Y-2177500D02*
G75*
G02*
X5030000Y-2177500I30000J0D01*
G01*
X5030000Y-2822500D02*
G75*
G02*
X4970000Y-2822500I-30000J0D01*
G01*
X4970000Y-2822500D02*
G75*
G02*
X5030000Y-2822500I30000J0D01*
G01*
X5030000Y-11227500D02*
G75*
G02*
X4970000Y-11227500I-30000J0D01*
G01*
X4970000Y-11227500D02*
G75*
G02*
X5030000Y-11227500I30000J0D01*
G01*
X5030000Y-11872500D02*
G75*
G02*
X4970000Y-11872500I-30000J0D01*
G01*
X4970000Y-11872500D02*
G75*
G02*
X5030000Y-11872500I30000J0D01*
G01*
X5258042Y-2271958D02*
G75*
G02*
X5198042Y-2271958I-30000J0D01*
G01*
X5198042Y-2271958D02*
G75*
G02*
X5258042Y-2271958I30000J0D01*
G01*
X5258042Y-2728042D02*
G75*
G02*
X5198042Y-2728042I-30000J0D01*
G01*
X5198042Y-2728042D02*
G75*
G02*
X5258042Y-2728042I30000J0D01*
G01*
X5258042Y-11321958D02*
G75*
G02*
X5198042Y-11321958I-30000J0D01*
G01*
X5198042Y-11321958D02*
G75*
G02*
X5258042Y-11321958I30000J0D01*
G01*
X5258042Y-11778042D02*
G75*
G02*
X5198042Y-11778042I-30000J0D01*
G01*
X5198042Y-11778042D02*
G75*
G02*
X5258042Y-11778042I30000J0D01*
G01*
X5352500Y-2500000D02*
G75*
G02*
X5292500Y-2500000I-30000J0D01*
G01*
X5292500Y-2500000D02*
G75*
G02*
X5352500Y-2500000I30000J0D01*
G01*
X5352500Y-11550000D02*
G75*
G02*
X5292500Y-11550000I-30000J0D01*
G01*
X5292500Y-11550000D02*
G75*
G02*
X5352500Y-11550000I30000J0D01*
G01*
X7207500Y-2500000D02*
G75*
G02*
X7147500Y-2500000I-30000J0D01*
G01*
X7147500Y-2500000D02*
G75*
G02*
X7207500Y-2500000I30000J0D01*
G01*
X7207500Y-11550000D02*
G75*
G02*
X7147500Y-11550000I-30000J0D01*
G01*
X7147500Y-11550000D02*
G75*
G02*
X7207500Y-11550000I30000J0D01*
G01*
X7301958Y-2271958D02*
G75*
G02*
X7241958Y-2271958I-30000J0D01*
G01*
X7241958Y-2271958D02*
G75*
G02*
X7301958Y-2271958I30000J0D01*
G01*
X7301958Y-2728042D02*
G75*
G02*
X7241958Y-2728042I-30000J0D01*
G01*
X7241958Y-2728042D02*
G75*
G02*
X7301958Y-2728042I30000J0D01*
G01*
X7301958Y-11321958D02*
G75*
G02*
X7241958Y-11321958I-30000J0D01*
G01*
X7241958Y-11321958D02*
G75*
G02*
X7301958Y-11321958I30000J0D01*
G01*
X7301958Y-11778042D02*
G75*
G02*
X7241958Y-11778042I-30000J0D01*
G01*
X7241958Y-11778042D02*
G75*
G02*
X7301958Y-11778042I30000J0D01*
G01*
X7530000Y-2177500D02*
G75*
G02*
X7470000Y-2177500I-30000J0D01*
G01*
X7470000Y-2177500D02*
G75*
G02*
X7530000Y-2177500I30000J0D01*
G01*
X7530000Y-2822500D02*
G75*
G02*
X7470000Y-2822500I-30000J0D01*
G01*
X7470000Y-2822500D02*
G75*
G02*
X7530000Y-2822500I30000J0D01*
G01*
X7530000Y-11227500D02*
G75*
G02*
X7470000Y-11227500I-30000J0D01*
G01*
X7470000Y-11227500D02*
G75*
G02*
X7530000Y-11227500I30000J0D01*
G01*
X7530000Y-11872500D02*
G75*
G02*
X7470000Y-11872500I-30000J0D01*
G01*
X7470000Y-11872500D02*
G75*
G02*
X7530000Y-11872500I30000J0D01*
G01*
X7758042Y-2271958D02*
G75*
G02*
X7698042Y-2271958I-30000J0D01*
G01*
X7698042Y-2271958D02*
G75*
G02*
X7758042Y-2271958I30000J0D01*
G01*
X7758042Y-2728042D02*
G75*
G02*
X7698042Y-2728042I-30000J0D01*
G01*
X7698042Y-2728042D02*
G75*
G02*
X7758042Y-2728042I30000J0D01*
G01*
X7758042Y-11321958D02*
G75*
G02*
X7698042Y-11321958I-30000J0D01*
G01*
X7698042Y-11321958D02*
G75*
G02*
X7758042Y-11321958I30000J0D01*
G01*
X7758042Y-11778042D02*
G75*
G02*
X7698042Y-11778042I-30000J0D01*
G01*
X7698042Y-11778042D02*
G75*
G02*
X7758042Y-11778042I30000J0D01*
G01*
X7852500Y-2500000D02*
G75*
G02*
X7792500Y-2500000I-30000J0D01*
G01*
X7792500Y-2500000D02*
G75*
G02*
X7852500Y-2500000I30000J0D01*
G01*
X7852500Y-11550000D02*
G75*
G02*
X7792500Y-11550000I-30000J0D01*
G01*
X7792500Y-11550000D02*
G75*
G02*
X7852500Y-11550000I30000J0D01*
G01*
X7150000Y-9602500D02*
X7150000Y-9697500D01*
X7102500Y-9650000D02*
X7197500Y-9650000D01*
X7150000Y-9852500D02*
X7150000Y-9947500D01*
X7102500Y-9900000D02*
X7197500Y-9900000D01*
X7150000Y-10102500D02*
X7150000Y-10197500D01*
X7102500Y-10150000D02*
X7197500Y-10150000D01*
X7150000Y-10352500D02*
X7150000Y-10447500D01*
X7102500Y-10400000D02*
X7197500Y-10400000D01*
X7150000Y-10602500D02*
X7150000Y-10697500D01*
X7102500Y-10650000D02*
X7197500Y-10650000D01*
X4865356Y-3307856D02*
X4865356Y-3237144D01*
X4794644Y-3237144D01*
X4794644Y-3307856D01*
X4865356Y-3307856D01*
X4865356Y-3561856D02*
X4865356Y-3491144D01*
X4794644Y-3491144D01*
X4794644Y-3561856D01*
X4865356Y-3561856D01*
X4865356Y-3815856D02*
X4865356Y-3745144D01*
X4794644Y-3745144D01*
X4794644Y-3815856D01*
X4865356Y-3815856D01*
X5016356Y-4234856D02*
X5016356Y-4164144D01*
X4945644Y-4164144D01*
X4945644Y-4234856D01*
X5016356Y-4234856D01*
X5016356Y-4488856D02*
X5016356Y-4418144D01*
X4945644Y-4418144D01*
X4945644Y-4488856D01*
X5016356Y-4488856D01*
X5016356Y-4742856D02*
X5016356Y-4672144D01*
X4945644Y-4672144D01*
X4945644Y-4742856D01*
X5016356Y-4742856D01*
X5016356Y-4996856D02*
X5016356Y-4926144D01*
X4945644Y-4926144D01*
X4945644Y-4996856D01*
X5016356Y-4996856D01*
X5016356Y-5250856D02*
X5016356Y-5180144D01*
X4945644Y-5180144D01*
X4945644Y-5250856D01*
X5016356Y-5250856D01*
X5016356Y-5504856D02*
X5016356Y-5434144D01*
X4945644Y-5434144D01*
X4945644Y-5504856D01*
X5016356Y-5504856D01*
X5016356Y-6774856D02*
X5016356Y-6704144D01*
X4945644Y-6704144D01*
X4945644Y-6774856D01*
X5016356Y-6774856D01*
X5016356Y-7028856D02*
X5016356Y-6958144D01*
X4945644Y-6958144D01*
X4945644Y-7028856D01*
X5016356Y-7028856D01*
X5016356Y-7282856D02*
X5016356Y-7212144D01*
X4945644Y-7212144D01*
X4945644Y-7282856D01*
X5016356Y-7282856D01*
X5016356Y-7536856D02*
X5016356Y-7466144D01*
X4945644Y-7466144D01*
X4945644Y-7536856D01*
X5016356Y-7536856D01*
X5016356Y-7790856D02*
X5016356Y-7720144D01*
X4945644Y-7720144D01*
X4945644Y-7790856D01*
X5016356Y-7790856D01*
X5016356Y-8044856D02*
X5016356Y-7974144D01*
X4945644Y-7974144D01*
X4945644Y-8044856D01*
X5016356Y-8044856D01*
X5016356Y-8298856D02*
X5016356Y-8228144D01*
X4945644Y-8228144D01*
X4945644Y-8298856D01*
X5016356Y-8298856D01*
X5016356Y-8552856D02*
X5016356Y-8482144D01*
X4945644Y-8482144D01*
X4945644Y-8552856D01*
X5016356Y-8552856D01*
X5016356Y-8806856D02*
X5016356Y-8736144D01*
X4945644Y-8736144D01*
X4945644Y-8806856D01*
X5016356Y-8806856D01*
X5119356Y-3307856D02*
X5119356Y-3237144D01*
X5048644Y-3237144D01*
X5048644Y-3307856D01*
X5119356Y-3307856D01*
X5119356Y-3561856D02*
X5119356Y-3491144D01*
X5048644Y-3491144D01*
X5048644Y-3561856D01*
X5119356Y-3561856D01*
X5119356Y-3815856D02*
X5119356Y-3745144D01*
X5048644Y-3745144D01*
X5048644Y-3815856D01*
X5119356Y-3815856D01*
X5397356Y-4234856D02*
X5397356Y-4164144D01*
X5326644Y-4164144D01*
X5326644Y-4234856D01*
X5397356Y-4234856D01*
X5397356Y-4488856D02*
X5397356Y-4418144D01*
X5326644Y-4418144D01*
X5326644Y-4488856D01*
X5397356Y-4488856D01*
X5651356Y-4234856D02*
X5651356Y-4164144D01*
X5580644Y-4164144D01*
X5580644Y-4234856D01*
X5651356Y-4234856D01*
X5651356Y-4488856D02*
X5651356Y-4418144D01*
X5580644Y-4418144D01*
X5580644Y-4488856D01*
X5651356Y-4488856D01*
X5973588Y-10360356D02*
X5973588Y-10289644D01*
X5902877Y-10289644D01*
X5902877Y-10360356D01*
X5973588Y-10360356D01*
X5973588Y-11485356D02*
X5973588Y-11414644D01*
X5902877Y-11414644D01*
X5902877Y-11485356D01*
X5973588Y-11485356D01*
X6159356Y-4234856D02*
X6159356Y-4164144D01*
X6088644Y-4164144D01*
X6088644Y-4234856D01*
X6159356Y-4234856D01*
X6159356Y-4488856D02*
X6159356Y-4418144D01*
X6088644Y-4418144D01*
X6088644Y-4488856D01*
X6159356Y-4488856D01*
X6413356Y-4234856D02*
X6413356Y-4164144D01*
X6342644Y-4164144D01*
X6342644Y-4234856D01*
X6413356Y-4234856D01*
X6413356Y-4488856D02*
X6413356Y-4418144D01*
X6342644Y-4418144D01*
X6342644Y-4488856D01*
X6413356Y-4488856D01*
X6473588Y-10360356D02*
X6473588Y-10289644D01*
X6402877Y-10289644D01*
X6402877Y-10360356D01*
X6473588Y-10360356D01*
X6473588Y-11485356D02*
X6473588Y-11414644D01*
X6402877Y-11414644D01*
X6402877Y-11485356D01*
X6473588Y-11485356D01*
X6921356Y-4234856D02*
X6921356Y-4164144D01*
X6850644Y-4164144D01*
X6850644Y-4234856D01*
X6921356Y-4234856D01*
X6921356Y-4488856D02*
X6921356Y-4418144D01*
X6850644Y-4418144D01*
X6850644Y-4488856D01*
X6921356Y-4488856D01*
X7175356Y-4234856D02*
X7175356Y-4164144D01*
X7104644Y-4164144D01*
X7104644Y-4234856D01*
X7175356Y-4234856D01*
X7175356Y-4488856D02*
X7175356Y-4418144D01*
X7104644Y-4418144D01*
X7104644Y-4488856D01*
X7175356Y-4488856D01*
X7556356Y-4234856D02*
X7556356Y-4164144D01*
X7485644Y-4164144D01*
X7485644Y-4234856D01*
X7556356Y-4234856D01*
X7556356Y-4488856D02*
X7556356Y-4418144D01*
X7485644Y-4418144D01*
X7485644Y-4488856D01*
X7556356Y-4488856D01*
X7556356Y-4742856D02*
X7556356Y-4672144D01*
X7485644Y-4672144D01*
X7485644Y-4742856D01*
X7556356Y-4742856D01*
X7556356Y-4996856D02*
X7556356Y-4926144D01*
X7485644Y-4926144D01*
X7485644Y-4996856D01*
X7556356Y-4996856D01*
X7556356Y-5250856D02*
X7556356Y-5180144D01*
X7485644Y-5180144D01*
X7485644Y-5250856D01*
X7556356Y-5250856D01*
X7556356Y-5504856D02*
X7556356Y-5434144D01*
X7485644Y-5434144D01*
X7485644Y-5504856D01*
X7556356Y-5504856D01*
X7556356Y-7790856D02*
X7556356Y-7720144D01*
X7485644Y-7720144D01*
X7485644Y-7790856D01*
X7556356Y-7790856D01*
X7556356Y-8044856D02*
X7556356Y-7974144D01*
X7485644Y-7974144D01*
X7485644Y-8044856D01*
X7556356Y-8044856D01*
X7556356Y-8298856D02*
X7556356Y-8228144D01*
X7485644Y-8228144D01*
X7485644Y-8298856D01*
X7556356Y-8298856D01*
X7556356Y-8552856D02*
X7556356Y-8482144D01*
X7485644Y-8482144D01*
X7485644Y-8552856D01*
X7556356Y-8552856D01*
X7556356Y-8806856D02*
X7556356Y-8736144D01*
X7485644Y-8736144D01*
X7485644Y-8806856D01*
X7556356Y-8806856D01*
D13*
X4969500Y-9460500D02*
X5034500Y-9395500D01*
X4969500Y-9330500D01*
X4904500Y-9395500D01*
X4969500Y-9460500D01*
X4969500Y-9968500D02*
X5034500Y-9903500D01*
X4969500Y-9838500D01*
X4904500Y-9903500D01*
X4969500Y-9968500D01*
X5734000Y-3365000D02*
X5799000Y-3300000D01*
X5734000Y-3235000D01*
X5669000Y-3300000D01*
X5734000Y-3365000D01*
X6242000Y-3365000D02*
X6307000Y-3300000D01*
X6242000Y-3235000D01*
X6177000Y-3300000D01*
X6242000Y-3365000D01*
X6750000Y-3365000D02*
X6815000Y-3300000D01*
X6750000Y-3235000D01*
X6685000Y-3300000D01*
X6750000Y-3365000D01*
D14*
X4655000Y-10440000D02*
X4925000Y-10710000D01*
X4925000Y-10440000D02*
X4655000Y-10710000D01*
X4925000Y-10575000D02*
G75*
G02*
X4655000Y-10575000I-135000J0D01*
G01*
X4655000Y-10575000D02*
G75*
G02*
X4925000Y-10575000I135000J0D01*
G01*
X5155000Y-10440000D02*
X5425000Y-10710000D01*
X5425000Y-10440000D02*
X5155000Y-10710000D01*
X5425000Y-10575000D02*
G75*
G02*
X5155000Y-10575000I-135000J0D01*
G01*
X5155000Y-10575000D02*
G75*
G02*
X5425000Y-10575000I135000J0D01*
G01*
D15*
X4785000Y-2285000D02*
X5215000Y-2715000D01*
X5215000Y-2285000D02*
X4785000Y-2715000D01*
X5000000Y-2285000D02*
X5000000Y-2715000D01*
X4785000Y-2500000D02*
X5215000Y-2500000D01*
X4785000Y-11335000D02*
X5215000Y-11765000D01*
X5215000Y-11335000D02*
X4785000Y-11765000D01*
X5000000Y-11335000D02*
X5000000Y-11765000D01*
X4785000Y-11550000D02*
X5215000Y-11550000D01*
X7285000Y-2285000D02*
X7715000Y-2715000D01*
X7715000Y-2285000D02*
X7285000Y-2715000D01*
X7500000Y-2285000D02*
X7500000Y-2715000D01*
X7285000Y-2500000D02*
X7715000Y-2500000D01*
X7285000Y-11335000D02*
X7715000Y-11765000D01*
X7715000Y-11335000D02*
X7285000Y-11765000D01*
X7500000Y-11335000D02*
X7500000Y-11765000D01*
X7285000Y-11550000D02*
X7715000Y-11550000D01*
D11*
X4758277Y-12363984D02*
X4758277Y-12163984D01*
X4758277Y-12163984D02*
X4805896Y-12163984D01*
X4805896Y-12163984D02*
X4834467Y-12173508D01*
X4834467Y-12173508D02*
X4853515Y-12192555D01*
X4853515Y-12192555D02*
X4863039Y-12211603D01*
X4863039Y-12211603D02*
X4872563Y-12249698D01*
X4872563Y-12249698D02*
X4872563Y-12278269D01*
X4872563Y-12278269D02*
X4863039Y-12316365D01*
X4863039Y-12316365D02*
X4853515Y-12335412D01*
X4853515Y-12335412D02*
X4834467Y-12354460D01*
X4834467Y-12354460D02*
X4805896Y-12363984D01*
X4805896Y-12363984D02*
X4758277Y-12363984D01*
X4958277Y-12363984D02*
X4958277Y-12230650D01*
X4958277Y-12268746D02*
X4967801Y-12249698D01*
X4967801Y-12249698D02*
X4977324Y-12240174D01*
X4977324Y-12240174D02*
X4996372Y-12230650D01*
X4996372Y-12230650D02*
X5015420Y-12230650D01*
X5082086Y-12363984D02*
X5082086Y-12230650D01*
X5082086Y-12163984D02*
X5072563Y-12173508D01*
X5072563Y-12173508D02*
X5082086Y-12183031D01*
X5082086Y-12183031D02*
X5091610Y-12173508D01*
X5091610Y-12173508D02*
X5082086Y-12163984D01*
X5082086Y-12163984D02*
X5082086Y-12183031D01*
X5205896Y-12363984D02*
X5186848Y-12354460D01*
X5186848Y-12354460D02*
X5177324Y-12335412D01*
X5177324Y-12335412D02*
X5177324Y-12163984D01*
X5310658Y-12363984D02*
X5291610Y-12354460D01*
X5291610Y-12354460D02*
X5282086Y-12335412D01*
X5282086Y-12335412D02*
X5282086Y-12163984D01*
X5539229Y-12363984D02*
X5539229Y-12163984D01*
X5539229Y-12163984D02*
X5605896Y-12306841D01*
X5605896Y-12306841D02*
X5672562Y-12163984D01*
X5672562Y-12163984D02*
X5672562Y-12363984D01*
X5853515Y-12363984D02*
X5853515Y-12259222D01*
X5853515Y-12259222D02*
X5843991Y-12240174D01*
X5843991Y-12240174D02*
X5824943Y-12230650D01*
X5824943Y-12230650D02*
X5786848Y-12230650D01*
X5786848Y-12230650D02*
X5767801Y-12240174D01*
X5853515Y-12354460D02*
X5834467Y-12363984D01*
X5834467Y-12363984D02*
X5786848Y-12363984D01*
X5786848Y-12363984D02*
X5767801Y-12354460D01*
X5767801Y-12354460D02*
X5758277Y-12335412D01*
X5758277Y-12335412D02*
X5758277Y-12316365D01*
X5758277Y-12316365D02*
X5767801Y-12297317D01*
X5767801Y-12297317D02*
X5786848Y-12287793D01*
X5786848Y-12287793D02*
X5834467Y-12287793D01*
X5834467Y-12287793D02*
X5853515Y-12278269D01*
X5948753Y-12230650D02*
X5948753Y-12430650D01*
X5948753Y-12240174D02*
X5967801Y-12230650D01*
X5967801Y-12230650D02*
X6005896Y-12230650D01*
X6005896Y-12230650D02*
X6024943Y-12240174D01*
X6024943Y-12240174D02*
X6034467Y-12249698D01*
X6034467Y-12249698D02*
X6043991Y-12268746D01*
X6043991Y-12268746D02*
X6043991Y-12325888D01*
X6043991Y-12325888D02*
X6034467Y-12344936D01*
X6034467Y-12344936D02*
X6024943Y-12354460D01*
X6024943Y-12354460D02*
X6005896Y-12363984D01*
X6005896Y-12363984D02*
X5967801Y-12363984D01*
X5967801Y-12363984D02*
X5948753Y-12354460D01*
X6129705Y-12344936D02*
X6139229Y-12354460D01*
X6139229Y-12354460D02*
X6129705Y-12363984D01*
X6129705Y-12363984D02*
X6120182Y-12354460D01*
X6120182Y-12354460D02*
X6129705Y-12344936D01*
X6129705Y-12344936D02*
X6129705Y-12363984D01*
X6129705Y-12240174D02*
X6139229Y-12249698D01*
X6139229Y-12249698D02*
X6129705Y-12259222D01*
X6129705Y-12259222D02*
X6120182Y-12249698D01*
X6120182Y-12249698D02*
X6129705Y-12240174D01*
X6129705Y-12240174D02*
X6129705Y-12259222D01*
D12*
X4467500Y-12677500D02*
X4497500Y-12707500D01*
X4497500Y-12677500D02*
X4467500Y-12707500D01*
D11*
X4796372Y-12583984D02*
X4815420Y-12583984D01*
X4815420Y-12583984D02*
X4834467Y-12593508D01*
X4834467Y-12593508D02*
X4843991Y-12603031D01*
X4843991Y-12603031D02*
X4853515Y-12622079D01*
X4853515Y-12622079D02*
X4863039Y-12660174D01*
X4863039Y-12660174D02*
X4863039Y-12707793D01*
X4863039Y-12707793D02*
X4853515Y-12745888D01*
X4853515Y-12745888D02*
X4843991Y-12764936D01*
X4843991Y-12764936D02*
X4834467Y-12774460D01*
X4834467Y-12774460D02*
X4815420Y-12783984D01*
X4815420Y-12783984D02*
X4796372Y-12783984D01*
X4796372Y-12783984D02*
X4777324Y-12774460D01*
X4777324Y-12774460D02*
X4767801Y-12764936D01*
X4767801Y-12764936D02*
X4758277Y-12745888D01*
X4758277Y-12745888D02*
X4748753Y-12707793D01*
X4748753Y-12707793D02*
X4748753Y-12660174D01*
X4748753Y-12660174D02*
X4758277Y-12622079D01*
X4758277Y-12622079D02*
X4767801Y-12603031D01*
X4767801Y-12603031D02*
X4777324Y-12593508D01*
X4777324Y-12593508D02*
X4796372Y-12583984D01*
X4948753Y-12764936D02*
X4958277Y-12774460D01*
X4958277Y-12774460D02*
X4948753Y-12783984D01*
X4948753Y-12783984D02*
X4939229Y-12774460D01*
X4939229Y-12774460D02*
X4948753Y-12764936D01*
X4948753Y-12764936D02*
X4948753Y-12783984D01*
X5024944Y-12583984D02*
X5148753Y-12583984D01*
X5148753Y-12583984D02*
X5082086Y-12660174D01*
X5082086Y-12660174D02*
X5110658Y-12660174D01*
X5110658Y-12660174D02*
X5129705Y-12669698D01*
X5129705Y-12669698D02*
X5139229Y-12679222D01*
X5139229Y-12679222D02*
X5148753Y-12698269D01*
X5148753Y-12698269D02*
X5148753Y-12745888D01*
X5148753Y-12745888D02*
X5139229Y-12764936D01*
X5139229Y-12764936D02*
X5129705Y-12774460D01*
X5129705Y-12774460D02*
X5110658Y-12783984D01*
X5110658Y-12783984D02*
X5053515Y-12783984D01*
X5053515Y-12783984D02*
X5034467Y-12774460D01*
X5034467Y-12774460D02*
X5024944Y-12764936D01*
X5272563Y-12583984D02*
X5291610Y-12583984D01*
X5291610Y-12583984D02*
X5310658Y-12593508D01*
X5310658Y-12593508D02*
X5320182Y-12603031D01*
X5320182Y-12603031D02*
X5329705Y-12622079D01*
X5329705Y-12622079D02*
X5339229Y-12660174D01*
X5339229Y-12660174D02*
X5339229Y-12707793D01*
X5339229Y-12707793D02*
X5329705Y-12745888D01*
X5329705Y-12745888D02*
X5320182Y-12764936D01*
X5320182Y-12764936D02*
X5310658Y-12774460D01*
X5310658Y-12774460D02*
X5291610Y-12783984D01*
X5291610Y-12783984D02*
X5272563Y-12783984D01*
X5272563Y-12783984D02*
X5253515Y-12774460D01*
X5253515Y-12774460D02*
X5243991Y-12764936D01*
X5243991Y-12764936D02*
X5234467Y-12745888D01*
X5234467Y-12745888D02*
X5224944Y-12707793D01*
X5224944Y-12707793D02*
X5224944Y-12660174D01*
X5224944Y-12660174D02*
X5234467Y-12622079D01*
X5234467Y-12622079D02*
X5243991Y-12603031D01*
X5243991Y-12603031D02*
X5253515Y-12593508D01*
X5253515Y-12593508D02*
X5272563Y-12583984D01*
X5463039Y-12583984D02*
X5482086Y-12583984D01*
X5482086Y-12583984D02*
X5501134Y-12593508D01*
X5501134Y-12593508D02*
X5510658Y-12603031D01*
X5510658Y-12603031D02*
X5520182Y-12622079D01*
X5520182Y-12622079D02*
X5529705Y-12660174D01*
X5529705Y-12660174D02*
X5529705Y-12707793D01*
X5529705Y-12707793D02*
X5520182Y-12745888D01*
X5520182Y-12745888D02*
X5510658Y-12764936D01*
X5510658Y-12764936D02*
X5501134Y-12774460D01*
X5501134Y-12774460D02*
X5482086Y-12783984D01*
X5482086Y-12783984D02*
X5463039Y-12783984D01*
X5463039Y-12783984D02*
X5443991Y-12774460D01*
X5443991Y-12774460D02*
X5434467Y-12764936D01*
X5434467Y-12764936D02*
X5424944Y-12745888D01*
X5424944Y-12745888D02*
X5415420Y-12707793D01*
X5415420Y-12707793D02*
X5415420Y-12660174D01*
X5415420Y-12660174D02*
X5424944Y-12622079D01*
X5424944Y-12622079D02*
X5434467Y-12603031D01*
X5434467Y-12603031D02*
X5443991Y-12593508D01*
X5443991Y-12593508D02*
X5463039Y-12583984D01*
X5615420Y-12783984D02*
X5615420Y-12650650D01*
X5615420Y-12669698D02*
X5624943Y-12660174D01*
X5624943Y-12660174D02*
X5643991Y-12650650D01*
X5643991Y-12650650D02*
X5672563Y-12650650D01*
X5672563Y-12650650D02*
X5691610Y-12660174D01*
X5691610Y-12660174D02*
X5701134Y-12679222D01*
X5701134Y-12679222D02*
X5701134Y-12783984D01*
X5701134Y-12679222D02*
X5710658Y-12660174D01*
X5710658Y-12660174D02*
X5729705Y-12650650D01*
X5729705Y-12650650D02*
X5758277Y-12650650D01*
X5758277Y-12650650D02*
X5777324Y-12660174D01*
X5777324Y-12660174D02*
X5786848Y-12679222D01*
X5786848Y-12679222D02*
X5786848Y-12783984D01*
X5882086Y-12783984D02*
X5882086Y-12650650D01*
X5882086Y-12669698D02*
X5891610Y-12660174D01*
X5891610Y-12660174D02*
X5910658Y-12650650D01*
X5910658Y-12650650D02*
X5939229Y-12650650D01*
X5939229Y-12650650D02*
X5958277Y-12660174D01*
X5958277Y-12660174D02*
X5967801Y-12679222D01*
X5967801Y-12679222D02*
X5967801Y-12783984D01*
X5967801Y-12679222D02*
X5977324Y-12660174D01*
X5977324Y-12660174D02*
X5996372Y-12650650D01*
X5996372Y-12650650D02*
X6024943Y-12650650D01*
X6024943Y-12650650D02*
X6043991Y-12660174D01*
X6043991Y-12660174D02*
X6053515Y-12679222D01*
X6053515Y-12679222D02*
X6053515Y-12783984D01*
X6443991Y-12574460D02*
X6272563Y-12831603D01*
X6701134Y-12583984D02*
X6720182Y-12583984D01*
X6720182Y-12583984D02*
X6739229Y-12593508D01*
X6739229Y-12593508D02*
X6748753Y-12603031D01*
X6748753Y-12603031D02*
X6758277Y-12622079D01*
X6758277Y-12622079D02*
X6767801Y-12660174D01*
X6767801Y-12660174D02*
X6767801Y-12707793D01*
X6767801Y-12707793D02*
X6758277Y-12745888D01*
X6758277Y-12745888D02*
X6748753Y-12764936D01*
X6748753Y-12764936D02*
X6739229Y-12774460D01*
X6739229Y-12774460D02*
X6720182Y-12783984D01*
X6720182Y-12783984D02*
X6701134Y-12783984D01*
X6701134Y-12783984D02*
X6682086Y-12774460D01*
X6682086Y-12774460D02*
X6672563Y-12764936D01*
X6672563Y-12764936D02*
X6663039Y-12745888D01*
X6663039Y-12745888D02*
X6653515Y-12707793D01*
X6653515Y-12707793D02*
X6653515Y-12660174D01*
X6653515Y-12660174D02*
X6663039Y-12622079D01*
X6663039Y-12622079D02*
X6672563Y-12603031D01*
X6672563Y-12603031D02*
X6682086Y-12593508D01*
X6682086Y-12593508D02*
X6701134Y-12583984D01*
X6853515Y-12764936D02*
X6863039Y-12774460D01*
X6863039Y-12774460D02*
X6853515Y-12783984D01*
X6853515Y-12783984D02*
X6843991Y-12774460D01*
X6843991Y-12774460D02*
X6853515Y-12764936D01*
X6853515Y-12764936D02*
X6853515Y-12783984D01*
X6986848Y-12583984D02*
X7005896Y-12583984D01*
X7005896Y-12583984D02*
X7024944Y-12593508D01*
X7024944Y-12593508D02*
X7034467Y-12603031D01*
X7034467Y-12603031D02*
X7043991Y-12622079D01*
X7043991Y-12622079D02*
X7053515Y-12660174D01*
X7053515Y-12660174D02*
X7053515Y-12707793D01*
X7053515Y-12707793D02*
X7043991Y-12745888D01*
X7043991Y-12745888D02*
X7034467Y-12764936D01*
X7034467Y-12764936D02*
X7024944Y-12774460D01*
X7024944Y-12774460D02*
X7005896Y-12783984D01*
X7005896Y-12783984D02*
X6986848Y-12783984D01*
X6986848Y-12783984D02*
X6967801Y-12774460D01*
X6967801Y-12774460D02*
X6958277Y-12764936D01*
X6958277Y-12764936D02*
X6948753Y-12745888D01*
X6948753Y-12745888D02*
X6939229Y-12707793D01*
X6939229Y-12707793D02*
X6939229Y-12660174D01*
X6939229Y-12660174D02*
X6948753Y-12622079D01*
X6948753Y-12622079D02*
X6958277Y-12603031D01*
X6958277Y-12603031D02*
X6967801Y-12593508D01*
X6967801Y-12593508D02*
X6986848Y-12583984D01*
X7243991Y-12783984D02*
X7129706Y-12783984D01*
X7186848Y-12783984D02*
X7186848Y-12583984D01*
X7186848Y-12583984D02*
X7167801Y-12612555D01*
X7167801Y-12612555D02*
X7148753Y-12631603D01*
X7148753Y-12631603D02*
X7129706Y-12641127D01*
X7434467Y-12783984D02*
X7320182Y-12783984D01*
X7377325Y-12783984D02*
X7377325Y-12583984D01*
X7377325Y-12583984D02*
X7358277Y-12612555D01*
X7358277Y-12612555D02*
X7339229Y-12631603D01*
X7339229Y-12631603D02*
X7320182Y-12641127D01*
X7548753Y-12669698D02*
X7529706Y-12660174D01*
X7529706Y-12660174D02*
X7520182Y-12650650D01*
X7520182Y-12650650D02*
X7510658Y-12631603D01*
X7510658Y-12631603D02*
X7510658Y-12622079D01*
X7510658Y-12622079D02*
X7520182Y-12603031D01*
X7520182Y-12603031D02*
X7529706Y-12593508D01*
X7529706Y-12593508D02*
X7548753Y-12583984D01*
X7548753Y-12583984D02*
X7586848Y-12583984D01*
X7586848Y-12583984D02*
X7605896Y-12593508D01*
X7605896Y-12593508D02*
X7615420Y-12603031D01*
X7615420Y-12603031D02*
X7624944Y-12622079D01*
X7624944Y-12622079D02*
X7624944Y-12631603D01*
X7624944Y-12631603D02*
X7615420Y-12650650D01*
X7615420Y-12650650D02*
X7605896Y-12660174D01*
X7605896Y-12660174D02*
X7586848Y-12669698D01*
X7586848Y-12669698D02*
X7548753Y-12669698D01*
X7548753Y-12669698D02*
X7529706Y-12679222D01*
X7529706Y-12679222D02*
X7520182Y-12688746D01*
X7520182Y-12688746D02*
X7510658Y-12707793D01*
X7510658Y-12707793D02*
X7510658Y-12745888D01*
X7510658Y-12745888D02*
X7520182Y-12764936D01*
X7520182Y-12764936D02*
X7529706Y-12774460D01*
X7529706Y-12774460D02*
X7548753Y-12783984D01*
X7548753Y-12783984D02*
X7586848Y-12783984D01*
X7586848Y-12783984D02*
X7605896Y-12774460D01*
X7605896Y-12774460D02*
X7615420Y-12764936D01*
X7615420Y-12764936D02*
X7624944Y-12745888D01*
X7624944Y-12745888D02*
X7624944Y-12707793D01*
X7624944Y-12707793D02*
X7615420Y-12688746D01*
X7615420Y-12688746D02*
X7605896Y-12679222D01*
X7605896Y-12679222D02*
X7586848Y-12669698D01*
X7701134Y-12583984D02*
X7701134Y-12622079D01*
X7777325Y-12583984D02*
X7777325Y-12622079D01*
X8072563Y-12860174D02*
X8063039Y-12850650D01*
X8063039Y-12850650D02*
X8043991Y-12822079D01*
X8043991Y-12822079D02*
X8034468Y-12803031D01*
X8034468Y-12803031D02*
X8024944Y-12774460D01*
X8024944Y-12774460D02*
X8015420Y-12726841D01*
X8015420Y-12726841D02*
X8015420Y-12688746D01*
X8015420Y-12688746D02*
X8024944Y-12641127D01*
X8024944Y-12641127D02*
X8034468Y-12612555D01*
X8034468Y-12612555D02*
X8043991Y-12593508D01*
X8043991Y-12593508D02*
X8063039Y-12564936D01*
X8063039Y-12564936D02*
X8072563Y-12555412D01*
X8158277Y-12783984D02*
X8196372Y-12783984D01*
X8196372Y-12783984D02*
X8215420Y-12774460D01*
X8215420Y-12774460D02*
X8224944Y-12764936D01*
X8224944Y-12764936D02*
X8243991Y-12736365D01*
X8243991Y-12736365D02*
X8253515Y-12698269D01*
X8253515Y-12698269D02*
X8253515Y-12622079D01*
X8253515Y-12622079D02*
X8243991Y-12603031D01*
X8243991Y-12603031D02*
X8234468Y-12593508D01*
X8234468Y-12593508D02*
X8215420Y-12583984D01*
X8215420Y-12583984D02*
X8177325Y-12583984D01*
X8177325Y-12583984D02*
X8158277Y-12593508D01*
X8158277Y-12593508D02*
X8148753Y-12603031D01*
X8148753Y-12603031D02*
X8139229Y-12622079D01*
X8139229Y-12622079D02*
X8139229Y-12669698D01*
X8139229Y-12669698D02*
X8148753Y-12688746D01*
X8148753Y-12688746D02*
X8158277Y-12698269D01*
X8158277Y-12698269D02*
X8177325Y-12707793D01*
X8177325Y-12707793D02*
X8215420Y-12707793D01*
X8215420Y-12707793D02*
X8234468Y-12698269D01*
X8234468Y-12698269D02*
X8243991Y-12688746D01*
X8243991Y-12688746D02*
X8253515Y-12669698D01*
X8320182Y-12583984D02*
X8453515Y-12583984D01*
X8453515Y-12583984D02*
X8367801Y-12783984D01*
X8682087Y-12783984D02*
X8682087Y-12583984D01*
X8767801Y-12783984D02*
X8767801Y-12679222D01*
X8767801Y-12679222D02*
X8758277Y-12660174D01*
X8758277Y-12660174D02*
X8739230Y-12650650D01*
X8739230Y-12650650D02*
X8710658Y-12650650D01*
X8710658Y-12650650D02*
X8691611Y-12660174D01*
X8691611Y-12660174D02*
X8682087Y-12669698D01*
X8891611Y-12783984D02*
X8872563Y-12774460D01*
X8872563Y-12774460D02*
X8863039Y-12764936D01*
X8863039Y-12764936D02*
X8853515Y-12745888D01*
X8853515Y-12745888D02*
X8853515Y-12688746D01*
X8853515Y-12688746D02*
X8863039Y-12669698D01*
X8863039Y-12669698D02*
X8872563Y-12660174D01*
X8872563Y-12660174D02*
X8891611Y-12650650D01*
X8891611Y-12650650D02*
X8920182Y-12650650D01*
X8920182Y-12650650D02*
X8939230Y-12660174D01*
X8939230Y-12660174D02*
X8948753Y-12669698D01*
X8948753Y-12669698D02*
X8958277Y-12688746D01*
X8958277Y-12688746D02*
X8958277Y-12745888D01*
X8958277Y-12745888D02*
X8948753Y-12764936D01*
X8948753Y-12764936D02*
X8939230Y-12774460D01*
X8939230Y-12774460D02*
X8920182Y-12783984D01*
X8920182Y-12783984D02*
X8891611Y-12783984D01*
X9072563Y-12783984D02*
X9053515Y-12774460D01*
X9053515Y-12774460D02*
X9043992Y-12755412D01*
X9043992Y-12755412D02*
X9043992Y-12583984D01*
X9224944Y-12774460D02*
X9205896Y-12783984D01*
X9205896Y-12783984D02*
X9167801Y-12783984D01*
X9167801Y-12783984D02*
X9148753Y-12774460D01*
X9148753Y-12774460D02*
X9139230Y-12755412D01*
X9139230Y-12755412D02*
X9139230Y-12679222D01*
X9139230Y-12679222D02*
X9148753Y-12660174D01*
X9148753Y-12660174D02*
X9167801Y-12650650D01*
X9167801Y-12650650D02*
X9205896Y-12650650D01*
X9205896Y-12650650D02*
X9224944Y-12660174D01*
X9224944Y-12660174D02*
X9234468Y-12679222D01*
X9234468Y-12679222D02*
X9234468Y-12698269D01*
X9234468Y-12698269D02*
X9139230Y-12717317D01*
X9310658Y-12774460D02*
X9329706Y-12783984D01*
X9329706Y-12783984D02*
X9367801Y-12783984D01*
X9367801Y-12783984D02*
X9386849Y-12774460D01*
X9386849Y-12774460D02*
X9396373Y-12755412D01*
X9396373Y-12755412D02*
X9396373Y-12745888D01*
X9396373Y-12745888D02*
X9386849Y-12726841D01*
X9386849Y-12726841D02*
X9367801Y-12717317D01*
X9367801Y-12717317D02*
X9339230Y-12717317D01*
X9339230Y-12717317D02*
X9320182Y-12707793D01*
X9320182Y-12707793D02*
X9310658Y-12688746D01*
X9310658Y-12688746D02*
X9310658Y-12679222D01*
X9310658Y-12679222D02*
X9320182Y-12660174D01*
X9320182Y-12660174D02*
X9339230Y-12650650D01*
X9339230Y-12650650D02*
X9367801Y-12650650D01*
X9367801Y-12650650D02*
X9386849Y-12660174D01*
X9463039Y-12860174D02*
X9472563Y-12850650D01*
X9472563Y-12850650D02*
X9491611Y-12822079D01*
X9491611Y-12822079D02*
X9501134Y-12803031D01*
X9501134Y-12803031D02*
X9510658Y-12774460D01*
X9510658Y-12774460D02*
X9520182Y-12726841D01*
X9520182Y-12726841D02*
X9520182Y-12688746D01*
X9520182Y-12688746D02*
X9510658Y-12641127D01*
X9510658Y-12641127D02*
X9501134Y-12612555D01*
X9501134Y-12612555D02*
X9491611Y-12593508D01*
X9491611Y-12593508D02*
X9472563Y-12564936D01*
X9472563Y-12564936D02*
X9463039Y-12555412D01*
D12*
X4497500Y-12956500D02*
G75*
G02*
X4437500Y-12956500I-30000J0D01*
G01*
X4437500Y-12956500D02*
G75*
G02*
X4497500Y-12956500I30000J0D01*
G01*
D11*
X4796372Y-12847984D02*
X4815420Y-12847984D01*
X4815420Y-12847984D02*
X4834467Y-12857508D01*
X4834467Y-12857508D02*
X4843991Y-12867031D01*
X4843991Y-12867031D02*
X4853515Y-12886079D01*
X4853515Y-12886079D02*
X4863039Y-12924174D01*
X4863039Y-12924174D02*
X4863039Y-12971793D01*
X4863039Y-12971793D02*
X4853515Y-13009888D01*
X4853515Y-13009888D02*
X4843991Y-13028936D01*
X4843991Y-13028936D02*
X4834467Y-13038460D01*
X4834467Y-13038460D02*
X4815420Y-13047984D01*
X4815420Y-13047984D02*
X4796372Y-13047984D01*
X4796372Y-13047984D02*
X4777324Y-13038460D01*
X4777324Y-13038460D02*
X4767801Y-13028936D01*
X4767801Y-13028936D02*
X4758277Y-13009888D01*
X4758277Y-13009888D02*
X4748753Y-12971793D01*
X4748753Y-12971793D02*
X4748753Y-12924174D01*
X4748753Y-12924174D02*
X4758277Y-12886079D01*
X4758277Y-12886079D02*
X4767801Y-12867031D01*
X4767801Y-12867031D02*
X4777324Y-12857508D01*
X4777324Y-12857508D02*
X4796372Y-12847984D01*
X4948753Y-13028936D02*
X4958277Y-13038460D01*
X4958277Y-13038460D02*
X4948753Y-13047984D01*
X4948753Y-13047984D02*
X4939229Y-13038460D01*
X4939229Y-13038460D02*
X4948753Y-13028936D01*
X4948753Y-13028936D02*
X4948753Y-13047984D01*
X5129705Y-12847984D02*
X5091610Y-12847984D01*
X5091610Y-12847984D02*
X5072563Y-12857508D01*
X5072563Y-12857508D02*
X5063039Y-12867031D01*
X5063039Y-12867031D02*
X5043991Y-12895603D01*
X5043991Y-12895603D02*
X5034467Y-12933698D01*
X5034467Y-12933698D02*
X5034467Y-13009888D01*
X5034467Y-13009888D02*
X5043991Y-13028936D01*
X5043991Y-13028936D02*
X5053515Y-13038460D01*
X5053515Y-13038460D02*
X5072563Y-13047984D01*
X5072563Y-13047984D02*
X5110658Y-13047984D01*
X5110658Y-13047984D02*
X5129705Y-13038460D01*
X5129705Y-13038460D02*
X5139229Y-13028936D01*
X5139229Y-13028936D02*
X5148753Y-13009888D01*
X5148753Y-13009888D02*
X5148753Y-12962269D01*
X5148753Y-12962269D02*
X5139229Y-12943222D01*
X5139229Y-12943222D02*
X5129705Y-12933698D01*
X5129705Y-12933698D02*
X5110658Y-12924174D01*
X5110658Y-12924174D02*
X5072563Y-12924174D01*
X5072563Y-12924174D02*
X5053515Y-12933698D01*
X5053515Y-12933698D02*
X5043991Y-12943222D01*
X5043991Y-12943222D02*
X5034467Y-12962269D01*
X5272563Y-12847984D02*
X5291610Y-12847984D01*
X5291610Y-12847984D02*
X5310658Y-12857508D01*
X5310658Y-12857508D02*
X5320182Y-12867031D01*
X5320182Y-12867031D02*
X5329705Y-12886079D01*
X5329705Y-12886079D02*
X5339229Y-12924174D01*
X5339229Y-12924174D02*
X5339229Y-12971793D01*
X5339229Y-12971793D02*
X5329705Y-13009888D01*
X5329705Y-13009888D02*
X5320182Y-13028936D01*
X5320182Y-13028936D02*
X5310658Y-13038460D01*
X5310658Y-13038460D02*
X5291610Y-13047984D01*
X5291610Y-13047984D02*
X5272563Y-13047984D01*
X5272563Y-13047984D02*
X5253515Y-13038460D01*
X5253515Y-13038460D02*
X5243991Y-13028936D01*
X5243991Y-13028936D02*
X5234467Y-13009888D01*
X5234467Y-13009888D02*
X5224944Y-12971793D01*
X5224944Y-12971793D02*
X5224944Y-12924174D01*
X5224944Y-12924174D02*
X5234467Y-12886079D01*
X5234467Y-12886079D02*
X5243991Y-12867031D01*
X5243991Y-12867031D02*
X5253515Y-12857508D01*
X5253515Y-12857508D02*
X5272563Y-12847984D01*
X5463039Y-12847984D02*
X5482086Y-12847984D01*
X5482086Y-12847984D02*
X5501134Y-12857508D01*
X5501134Y-12857508D02*
X5510658Y-12867031D01*
X5510658Y-12867031D02*
X5520182Y-12886079D01*
X5520182Y-12886079D02*
X5529705Y-12924174D01*
X5529705Y-12924174D02*
X5529705Y-12971793D01*
X5529705Y-12971793D02*
X5520182Y-13009888D01*
X5520182Y-13009888D02*
X5510658Y-13028936D01*
X5510658Y-13028936D02*
X5501134Y-13038460D01*
X5501134Y-13038460D02*
X5482086Y-13047984D01*
X5482086Y-13047984D02*
X5463039Y-13047984D01*
X5463039Y-13047984D02*
X5443991Y-13038460D01*
X5443991Y-13038460D02*
X5434467Y-13028936D01*
X5434467Y-13028936D02*
X5424944Y-13009888D01*
X5424944Y-13009888D02*
X5415420Y-12971793D01*
X5415420Y-12971793D02*
X5415420Y-12924174D01*
X5415420Y-12924174D02*
X5424944Y-12886079D01*
X5424944Y-12886079D02*
X5434467Y-12867031D01*
X5434467Y-12867031D02*
X5443991Y-12857508D01*
X5443991Y-12857508D02*
X5463039Y-12847984D01*
X5615420Y-13047984D02*
X5615420Y-12914650D01*
X5615420Y-12933698D02*
X5624943Y-12924174D01*
X5624943Y-12924174D02*
X5643991Y-12914650D01*
X5643991Y-12914650D02*
X5672563Y-12914650D01*
X5672563Y-12914650D02*
X5691610Y-12924174D01*
X5691610Y-12924174D02*
X5701134Y-12943222D01*
X5701134Y-12943222D02*
X5701134Y-13047984D01*
X5701134Y-12943222D02*
X5710658Y-12924174D01*
X5710658Y-12924174D02*
X5729705Y-12914650D01*
X5729705Y-12914650D02*
X5758277Y-12914650D01*
X5758277Y-12914650D02*
X5777324Y-12924174D01*
X5777324Y-12924174D02*
X5786848Y-12943222D01*
X5786848Y-12943222D02*
X5786848Y-13047984D01*
X5882086Y-13047984D02*
X5882086Y-12914650D01*
X5882086Y-12933698D02*
X5891610Y-12924174D01*
X5891610Y-12924174D02*
X5910658Y-12914650D01*
X5910658Y-12914650D02*
X5939229Y-12914650D01*
X5939229Y-12914650D02*
X5958277Y-12924174D01*
X5958277Y-12924174D02*
X5967801Y-12943222D01*
X5967801Y-12943222D02*
X5967801Y-13047984D01*
X5967801Y-12943222D02*
X5977324Y-12924174D01*
X5977324Y-12924174D02*
X5996372Y-12914650D01*
X5996372Y-12914650D02*
X6024943Y-12914650D01*
X6024943Y-12914650D02*
X6043991Y-12924174D01*
X6043991Y-12924174D02*
X6053515Y-12943222D01*
X6053515Y-12943222D02*
X6053515Y-13047984D01*
X6443991Y-12838460D02*
X6272563Y-13095603D01*
X6701134Y-12847984D02*
X6720182Y-12847984D01*
X6720182Y-12847984D02*
X6739229Y-12857508D01*
X6739229Y-12857508D02*
X6748753Y-12867031D01*
X6748753Y-12867031D02*
X6758277Y-12886079D01*
X6758277Y-12886079D02*
X6767801Y-12924174D01*
X6767801Y-12924174D02*
X6767801Y-12971793D01*
X6767801Y-12971793D02*
X6758277Y-13009888D01*
X6758277Y-13009888D02*
X6748753Y-13028936D01*
X6748753Y-13028936D02*
X6739229Y-13038460D01*
X6739229Y-13038460D02*
X6720182Y-13047984D01*
X6720182Y-13047984D02*
X6701134Y-13047984D01*
X6701134Y-13047984D02*
X6682086Y-13038460D01*
X6682086Y-13038460D02*
X6672563Y-13028936D01*
X6672563Y-13028936D02*
X6663039Y-13009888D01*
X6663039Y-13009888D02*
X6653515Y-12971793D01*
X6653515Y-12971793D02*
X6653515Y-12924174D01*
X6653515Y-12924174D02*
X6663039Y-12886079D01*
X6663039Y-12886079D02*
X6672563Y-12867031D01*
X6672563Y-12867031D02*
X6682086Y-12857508D01*
X6682086Y-12857508D02*
X6701134Y-12847984D01*
X6853515Y-13028936D02*
X6863039Y-13038460D01*
X6863039Y-13038460D02*
X6853515Y-13047984D01*
X6853515Y-13047984D02*
X6843991Y-13038460D01*
X6843991Y-13038460D02*
X6853515Y-13028936D01*
X6853515Y-13028936D02*
X6853515Y-13047984D01*
X6986848Y-12847984D02*
X7005896Y-12847984D01*
X7005896Y-12847984D02*
X7024944Y-12857508D01*
X7024944Y-12857508D02*
X7034467Y-12867031D01*
X7034467Y-12867031D02*
X7043991Y-12886079D01*
X7043991Y-12886079D02*
X7053515Y-12924174D01*
X7053515Y-12924174D02*
X7053515Y-12971793D01*
X7053515Y-12971793D02*
X7043991Y-13009888D01*
X7043991Y-13009888D02*
X7034467Y-13028936D01*
X7034467Y-13028936D02*
X7024944Y-13038460D01*
X7024944Y-13038460D02*
X7005896Y-13047984D01*
X7005896Y-13047984D02*
X6986848Y-13047984D01*
X6986848Y-13047984D02*
X6967801Y-13038460D01*
X6967801Y-13038460D02*
X6958277Y-13028936D01*
X6958277Y-13028936D02*
X6948753Y-13009888D01*
X6948753Y-13009888D02*
X6939229Y-12971793D01*
X6939229Y-12971793D02*
X6939229Y-12924174D01*
X6939229Y-12924174D02*
X6948753Y-12886079D01*
X6948753Y-12886079D02*
X6958277Y-12867031D01*
X6958277Y-12867031D02*
X6967801Y-12857508D01*
X6967801Y-12857508D02*
X6986848Y-12847984D01*
X7129706Y-12867031D02*
X7139229Y-12857508D01*
X7139229Y-12857508D02*
X7158277Y-12847984D01*
X7158277Y-12847984D02*
X7205896Y-12847984D01*
X7205896Y-12847984D02*
X7224944Y-12857508D01*
X7224944Y-12857508D02*
X7234467Y-12867031D01*
X7234467Y-12867031D02*
X7243991Y-12886079D01*
X7243991Y-12886079D02*
X7243991Y-12905127D01*
X7243991Y-12905127D02*
X7234467Y-12933698D01*
X7234467Y-12933698D02*
X7120182Y-13047984D01*
X7120182Y-13047984D02*
X7243991Y-13047984D01*
X7310658Y-12847984D02*
X7434467Y-12847984D01*
X7434467Y-12847984D02*
X7367801Y-12924174D01*
X7367801Y-12924174D02*
X7396372Y-12924174D01*
X7396372Y-12924174D02*
X7415420Y-12933698D01*
X7415420Y-12933698D02*
X7424944Y-12943222D01*
X7424944Y-12943222D02*
X7434467Y-12962269D01*
X7434467Y-12962269D02*
X7434467Y-13009888D01*
X7434467Y-13009888D02*
X7424944Y-13028936D01*
X7424944Y-13028936D02*
X7415420Y-13038460D01*
X7415420Y-13038460D02*
X7396372Y-13047984D01*
X7396372Y-13047984D02*
X7339229Y-13047984D01*
X7339229Y-13047984D02*
X7320182Y-13038460D01*
X7320182Y-13038460D02*
X7310658Y-13028936D01*
X7605896Y-12847984D02*
X7567801Y-12847984D01*
X7567801Y-12847984D02*
X7548753Y-12857508D01*
X7548753Y-12857508D02*
X7539229Y-12867031D01*
X7539229Y-12867031D02*
X7520182Y-12895603D01*
X7520182Y-12895603D02*
X7510658Y-12933698D01*
X7510658Y-12933698D02*
X7510658Y-13009888D01*
X7510658Y-13009888D02*
X7520182Y-13028936D01*
X7520182Y-13028936D02*
X7529706Y-13038460D01*
X7529706Y-13038460D02*
X7548753Y-13047984D01*
X7548753Y-13047984D02*
X7586848Y-13047984D01*
X7586848Y-13047984D02*
X7605896Y-13038460D01*
X7605896Y-13038460D02*
X7615420Y-13028936D01*
X7615420Y-13028936D02*
X7624944Y-13009888D01*
X7624944Y-13009888D02*
X7624944Y-12962269D01*
X7624944Y-12962269D02*
X7615420Y-12943222D01*
X7615420Y-12943222D02*
X7605896Y-12933698D01*
X7605896Y-12933698D02*
X7586848Y-12924174D01*
X7586848Y-12924174D02*
X7548753Y-12924174D01*
X7548753Y-12924174D02*
X7529706Y-12933698D01*
X7529706Y-12933698D02*
X7520182Y-12943222D01*
X7520182Y-12943222D02*
X7510658Y-12962269D01*
X7701134Y-12847984D02*
X7701134Y-12886079D01*
X7777325Y-12847984D02*
X7777325Y-12886079D01*
X8072563Y-13124174D02*
X8063039Y-13114650D01*
X8063039Y-13114650D02*
X8043991Y-13086079D01*
X8043991Y-13086079D02*
X8034468Y-13067031D01*
X8034468Y-13067031D02*
X8024944Y-13038460D01*
X8024944Y-13038460D02*
X8015420Y-12990841D01*
X8015420Y-12990841D02*
X8015420Y-12952746D01*
X8015420Y-12952746D02*
X8024944Y-12905127D01*
X8024944Y-12905127D02*
X8034468Y-12876555D01*
X8034468Y-12876555D02*
X8043991Y-12857508D01*
X8043991Y-12857508D02*
X8063039Y-12828936D01*
X8063039Y-12828936D02*
X8072563Y-12819412D01*
X8129706Y-12847984D02*
X8253515Y-12847984D01*
X8253515Y-12847984D02*
X8186848Y-12924174D01*
X8186848Y-12924174D02*
X8215420Y-12924174D01*
X8215420Y-12924174D02*
X8234468Y-12933698D01*
X8234468Y-12933698D02*
X8243991Y-12943222D01*
X8243991Y-12943222D02*
X8253515Y-12962269D01*
X8253515Y-12962269D02*
X8253515Y-13009888D01*
X8253515Y-13009888D02*
X8243991Y-13028936D01*
X8243991Y-13028936D02*
X8234468Y-13038460D01*
X8234468Y-13038460D02*
X8215420Y-13047984D01*
X8215420Y-13047984D02*
X8158277Y-13047984D01*
X8158277Y-13047984D02*
X8139229Y-13038460D01*
X8139229Y-13038460D02*
X8129706Y-13028936D01*
X8329706Y-12867031D02*
X8339229Y-12857508D01*
X8339229Y-12857508D02*
X8358277Y-12847984D01*
X8358277Y-12847984D02*
X8405896Y-12847984D01*
X8405896Y-12847984D02*
X8424944Y-12857508D01*
X8424944Y-12857508D02*
X8434468Y-12867031D01*
X8434468Y-12867031D02*
X8443991Y-12886079D01*
X8443991Y-12886079D02*
X8443991Y-12905127D01*
X8443991Y-12905127D02*
X8434468Y-12933698D01*
X8434468Y-12933698D02*
X8320182Y-13047984D01*
X8320182Y-13047984D02*
X8443991Y-13047984D01*
X8682087Y-13047984D02*
X8682087Y-12847984D01*
X8767801Y-13047984D02*
X8767801Y-12943222D01*
X8767801Y-12943222D02*
X8758277Y-12924174D01*
X8758277Y-12924174D02*
X8739230Y-12914650D01*
X8739230Y-12914650D02*
X8710658Y-12914650D01*
X8710658Y-12914650D02*
X8691611Y-12924174D01*
X8691611Y-12924174D02*
X8682087Y-12933698D01*
X8891611Y-13047984D02*
X8872563Y-13038460D01*
X8872563Y-13038460D02*
X8863039Y-13028936D01*
X8863039Y-13028936D02*
X8853515Y-13009888D01*
X8853515Y-13009888D02*
X8853515Y-12952746D01*
X8853515Y-12952746D02*
X8863039Y-12933698D01*
X8863039Y-12933698D02*
X8872563Y-12924174D01*
X8872563Y-12924174D02*
X8891611Y-12914650D01*
X8891611Y-12914650D02*
X8920182Y-12914650D01*
X8920182Y-12914650D02*
X8939230Y-12924174D01*
X8939230Y-12924174D02*
X8948753Y-12933698D01*
X8948753Y-12933698D02*
X8958277Y-12952746D01*
X8958277Y-12952746D02*
X8958277Y-13009888D01*
X8958277Y-13009888D02*
X8948753Y-13028936D01*
X8948753Y-13028936D02*
X8939230Y-13038460D01*
X8939230Y-13038460D02*
X8920182Y-13047984D01*
X8920182Y-13047984D02*
X8891611Y-13047984D01*
X9072563Y-13047984D02*
X9053515Y-13038460D01*
X9053515Y-13038460D02*
X9043992Y-13019412D01*
X9043992Y-13019412D02*
X9043992Y-12847984D01*
X9224944Y-13038460D02*
X9205896Y-13047984D01*
X9205896Y-13047984D02*
X9167801Y-13047984D01*
X9167801Y-13047984D02*
X9148753Y-13038460D01*
X9148753Y-13038460D02*
X9139230Y-13019412D01*
X9139230Y-13019412D02*
X9139230Y-12943222D01*
X9139230Y-12943222D02*
X9148753Y-12924174D01*
X9148753Y-12924174D02*
X9167801Y-12914650D01*
X9167801Y-12914650D02*
X9205896Y-12914650D01*
X9205896Y-12914650D02*
X9224944Y-12924174D01*
X9224944Y-12924174D02*
X9234468Y-12943222D01*
X9234468Y-12943222D02*
X9234468Y-12962269D01*
X9234468Y-12962269D02*
X9139230Y-12981317D01*
X9310658Y-13038460D02*
X9329706Y-13047984D01*
X9329706Y-13047984D02*
X9367801Y-13047984D01*
X9367801Y-13047984D02*
X9386849Y-13038460D01*
X9386849Y-13038460D02*
X9396373Y-13019412D01*
X9396373Y-13019412D02*
X9396373Y-13009888D01*
X9396373Y-13009888D02*
X9386849Y-12990841D01*
X9386849Y-12990841D02*
X9367801Y-12981317D01*
X9367801Y-12981317D02*
X9339230Y-12981317D01*
X9339230Y-12981317D02*
X9320182Y-12971793D01*
X9320182Y-12971793D02*
X9310658Y-12952746D01*
X9310658Y-12952746D02*
X9310658Y-12943222D01*
X9310658Y-12943222D02*
X9320182Y-12924174D01*
X9320182Y-12924174D02*
X9339230Y-12914650D01*
X9339230Y-12914650D02*
X9367801Y-12914650D01*
X9367801Y-12914650D02*
X9386849Y-12924174D01*
X9463039Y-13124174D02*
X9472563Y-13114650D01*
X9472563Y-13114650D02*
X9491611Y-13086079D01*
X9491611Y-13086079D02*
X9501134Y-13067031D01*
X9501134Y-13067031D02*
X9510658Y-13038460D01*
X9510658Y-13038460D02*
X9520182Y-12990841D01*
X9520182Y-12990841D02*
X9520182Y-12952746D01*
X9520182Y-12952746D02*
X9510658Y-12905127D01*
X9510658Y-12905127D02*
X9501134Y-12876555D01*
X9501134Y-12876555D02*
X9491611Y-12857508D01*
X9491611Y-12857508D02*
X9472563Y-12828936D01*
X9472563Y-12828936D02*
X9463039Y-12819412D01*
D12*
X4450000Y-13173000D02*
X4450000Y-13268000D01*
X4402500Y-13220500D02*
X4497500Y-13220500D01*
D11*
X4796372Y-13111984D02*
X4815420Y-13111984D01*
X4815420Y-13111984D02*
X4834467Y-13121508D01*
X4834467Y-13121508D02*
X4843991Y-13131031D01*
X4843991Y-13131031D02*
X4853515Y-13150079D01*
X4853515Y-13150079D02*
X4863039Y-13188174D01*
X4863039Y-13188174D02*
X4863039Y-13235793D01*
X4863039Y-13235793D02*
X4853515Y-13273888D01*
X4853515Y-13273888D02*
X4843991Y-13292936D01*
X4843991Y-13292936D02*
X4834467Y-13302460D01*
X4834467Y-13302460D02*
X4815420Y-13311984D01*
X4815420Y-13311984D02*
X4796372Y-13311984D01*
X4796372Y-13311984D02*
X4777324Y-13302460D01*
X4777324Y-13302460D02*
X4767801Y-13292936D01*
X4767801Y-13292936D02*
X4758277Y-13273888D01*
X4758277Y-13273888D02*
X4748753Y-13235793D01*
X4748753Y-13235793D02*
X4748753Y-13188174D01*
X4748753Y-13188174D02*
X4758277Y-13150079D01*
X4758277Y-13150079D02*
X4767801Y-13131031D01*
X4767801Y-13131031D02*
X4777324Y-13121508D01*
X4777324Y-13121508D02*
X4796372Y-13111984D01*
X4948753Y-13292936D02*
X4958277Y-13302460D01*
X4958277Y-13302460D02*
X4948753Y-13311984D01*
X4948753Y-13311984D02*
X4939229Y-13302460D01*
X4939229Y-13302460D02*
X4948753Y-13292936D01*
X4948753Y-13292936D02*
X4948753Y-13311984D01*
X5053515Y-13311984D02*
X5091610Y-13311984D01*
X5091610Y-13311984D02*
X5110658Y-13302460D01*
X5110658Y-13302460D02*
X5120182Y-13292936D01*
X5120182Y-13292936D02*
X5139229Y-13264365D01*
X5139229Y-13264365D02*
X5148753Y-13226269D01*
X5148753Y-13226269D02*
X5148753Y-13150079D01*
X5148753Y-13150079D02*
X5139229Y-13131031D01*
X5139229Y-13131031D02*
X5129705Y-13121508D01*
X5129705Y-13121508D02*
X5110658Y-13111984D01*
X5110658Y-13111984D02*
X5072563Y-13111984D01*
X5072563Y-13111984D02*
X5053515Y-13121508D01*
X5053515Y-13121508D02*
X5043991Y-13131031D01*
X5043991Y-13131031D02*
X5034467Y-13150079D01*
X5034467Y-13150079D02*
X5034467Y-13197698D01*
X5034467Y-13197698D02*
X5043991Y-13216746D01*
X5043991Y-13216746D02*
X5053515Y-13226269D01*
X5053515Y-13226269D02*
X5072563Y-13235793D01*
X5072563Y-13235793D02*
X5110658Y-13235793D01*
X5110658Y-13235793D02*
X5129705Y-13226269D01*
X5129705Y-13226269D02*
X5139229Y-13216746D01*
X5139229Y-13216746D02*
X5148753Y-13197698D01*
X5329705Y-13111984D02*
X5234467Y-13111984D01*
X5234467Y-13111984D02*
X5224944Y-13207222D01*
X5224944Y-13207222D02*
X5234467Y-13197698D01*
X5234467Y-13197698D02*
X5253515Y-13188174D01*
X5253515Y-13188174D02*
X5301134Y-13188174D01*
X5301134Y-13188174D02*
X5320182Y-13197698D01*
X5320182Y-13197698D02*
X5329705Y-13207222D01*
X5329705Y-13207222D02*
X5339229Y-13226269D01*
X5339229Y-13226269D02*
X5339229Y-13273888D01*
X5339229Y-13273888D02*
X5329705Y-13292936D01*
X5329705Y-13292936D02*
X5320182Y-13302460D01*
X5320182Y-13302460D02*
X5301134Y-13311984D01*
X5301134Y-13311984D02*
X5253515Y-13311984D01*
X5253515Y-13311984D02*
X5234467Y-13302460D01*
X5234467Y-13302460D02*
X5224944Y-13292936D01*
X5463039Y-13111984D02*
X5482086Y-13111984D01*
X5482086Y-13111984D02*
X5501134Y-13121508D01*
X5501134Y-13121508D02*
X5510658Y-13131031D01*
X5510658Y-13131031D02*
X5520182Y-13150079D01*
X5520182Y-13150079D02*
X5529705Y-13188174D01*
X5529705Y-13188174D02*
X5529705Y-13235793D01*
X5529705Y-13235793D02*
X5520182Y-13273888D01*
X5520182Y-13273888D02*
X5510658Y-13292936D01*
X5510658Y-13292936D02*
X5501134Y-13302460D01*
X5501134Y-13302460D02*
X5482086Y-13311984D01*
X5482086Y-13311984D02*
X5463039Y-13311984D01*
X5463039Y-13311984D02*
X5443991Y-13302460D01*
X5443991Y-13302460D02*
X5434467Y-13292936D01*
X5434467Y-13292936D02*
X5424944Y-13273888D01*
X5424944Y-13273888D02*
X5415420Y-13235793D01*
X5415420Y-13235793D02*
X5415420Y-13188174D01*
X5415420Y-13188174D02*
X5424944Y-13150079D01*
X5424944Y-13150079D02*
X5434467Y-13131031D01*
X5434467Y-13131031D02*
X5443991Y-13121508D01*
X5443991Y-13121508D02*
X5463039Y-13111984D01*
X5615420Y-13311984D02*
X5615420Y-13178650D01*
X5615420Y-13197698D02*
X5624943Y-13188174D01*
X5624943Y-13188174D02*
X5643991Y-13178650D01*
X5643991Y-13178650D02*
X5672563Y-13178650D01*
X5672563Y-13178650D02*
X5691610Y-13188174D01*
X5691610Y-13188174D02*
X5701134Y-13207222D01*
X5701134Y-13207222D02*
X5701134Y-13311984D01*
X5701134Y-13207222D02*
X5710658Y-13188174D01*
X5710658Y-13188174D02*
X5729705Y-13178650D01*
X5729705Y-13178650D02*
X5758277Y-13178650D01*
X5758277Y-13178650D02*
X5777324Y-13188174D01*
X5777324Y-13188174D02*
X5786848Y-13207222D01*
X5786848Y-13207222D02*
X5786848Y-13311984D01*
X5882086Y-13311984D02*
X5882086Y-13178650D01*
X5882086Y-13197698D02*
X5891610Y-13188174D01*
X5891610Y-13188174D02*
X5910658Y-13178650D01*
X5910658Y-13178650D02*
X5939229Y-13178650D01*
X5939229Y-13178650D02*
X5958277Y-13188174D01*
X5958277Y-13188174D02*
X5967801Y-13207222D01*
X5967801Y-13207222D02*
X5967801Y-13311984D01*
X5967801Y-13207222D02*
X5977324Y-13188174D01*
X5977324Y-13188174D02*
X5996372Y-13178650D01*
X5996372Y-13178650D02*
X6024943Y-13178650D01*
X6024943Y-13178650D02*
X6043991Y-13188174D01*
X6043991Y-13188174D02*
X6053515Y-13207222D01*
X6053515Y-13207222D02*
X6053515Y-13311984D01*
X6443991Y-13102460D02*
X6272563Y-13359603D01*
X6701134Y-13111984D02*
X6720182Y-13111984D01*
X6720182Y-13111984D02*
X6739229Y-13121508D01*
X6739229Y-13121508D02*
X6748753Y-13131031D01*
X6748753Y-13131031D02*
X6758277Y-13150079D01*
X6758277Y-13150079D02*
X6767801Y-13188174D01*
X6767801Y-13188174D02*
X6767801Y-13235793D01*
X6767801Y-13235793D02*
X6758277Y-13273888D01*
X6758277Y-13273888D02*
X6748753Y-13292936D01*
X6748753Y-13292936D02*
X6739229Y-13302460D01*
X6739229Y-13302460D02*
X6720182Y-13311984D01*
X6720182Y-13311984D02*
X6701134Y-13311984D01*
X6701134Y-13311984D02*
X6682086Y-13302460D01*
X6682086Y-13302460D02*
X6672563Y-13292936D01*
X6672563Y-13292936D02*
X6663039Y-13273888D01*
X6663039Y-13273888D02*
X6653515Y-13235793D01*
X6653515Y-13235793D02*
X6653515Y-13188174D01*
X6653515Y-13188174D02*
X6663039Y-13150079D01*
X6663039Y-13150079D02*
X6672563Y-13131031D01*
X6672563Y-13131031D02*
X6682086Y-13121508D01*
X6682086Y-13121508D02*
X6701134Y-13111984D01*
X6853515Y-13292936D02*
X6863039Y-13302460D01*
X6863039Y-13302460D02*
X6853515Y-13311984D01*
X6853515Y-13311984D02*
X6843991Y-13302460D01*
X6843991Y-13302460D02*
X6853515Y-13292936D01*
X6853515Y-13292936D02*
X6853515Y-13311984D01*
X6986848Y-13111984D02*
X7005896Y-13111984D01*
X7005896Y-13111984D02*
X7024944Y-13121508D01*
X7024944Y-13121508D02*
X7034467Y-13131031D01*
X7034467Y-13131031D02*
X7043991Y-13150079D01*
X7043991Y-13150079D02*
X7053515Y-13188174D01*
X7053515Y-13188174D02*
X7053515Y-13235793D01*
X7053515Y-13235793D02*
X7043991Y-13273888D01*
X7043991Y-13273888D02*
X7034467Y-13292936D01*
X7034467Y-13292936D02*
X7024944Y-13302460D01*
X7024944Y-13302460D02*
X7005896Y-13311984D01*
X7005896Y-13311984D02*
X6986848Y-13311984D01*
X6986848Y-13311984D02*
X6967801Y-13302460D01*
X6967801Y-13302460D02*
X6958277Y-13292936D01*
X6958277Y-13292936D02*
X6948753Y-13273888D01*
X6948753Y-13273888D02*
X6939229Y-13235793D01*
X6939229Y-13235793D02*
X6939229Y-13188174D01*
X6939229Y-13188174D02*
X6948753Y-13150079D01*
X6948753Y-13150079D02*
X6958277Y-13131031D01*
X6958277Y-13131031D02*
X6967801Y-13121508D01*
X6967801Y-13121508D02*
X6986848Y-13111984D01*
X7120182Y-13111984D02*
X7243991Y-13111984D01*
X7243991Y-13111984D02*
X7177325Y-13188174D01*
X7177325Y-13188174D02*
X7205896Y-13188174D01*
X7205896Y-13188174D02*
X7224944Y-13197698D01*
X7224944Y-13197698D02*
X7234467Y-13207222D01*
X7234467Y-13207222D02*
X7243991Y-13226269D01*
X7243991Y-13226269D02*
X7243991Y-13273888D01*
X7243991Y-13273888D02*
X7234467Y-13292936D01*
X7234467Y-13292936D02*
X7224944Y-13302460D01*
X7224944Y-13302460D02*
X7205896Y-13311984D01*
X7205896Y-13311984D02*
X7148753Y-13311984D01*
X7148753Y-13311984D02*
X7129706Y-13302460D01*
X7129706Y-13302460D02*
X7120182Y-13292936D01*
X7310658Y-13111984D02*
X7443991Y-13111984D01*
X7443991Y-13111984D02*
X7358277Y-13311984D01*
X7605896Y-13178650D02*
X7605896Y-13311984D01*
X7558277Y-13102460D02*
X7510658Y-13245317D01*
X7510658Y-13245317D02*
X7634467Y-13245317D01*
X7701134Y-13111984D02*
X7701134Y-13150079D01*
X7777325Y-13111984D02*
X7777325Y-13150079D01*
X8072563Y-13388174D02*
X8063039Y-13378650D01*
X8063039Y-13378650D02*
X8043991Y-13350079D01*
X8043991Y-13350079D02*
X8034468Y-13331031D01*
X8034468Y-13331031D02*
X8024944Y-13302460D01*
X8024944Y-13302460D02*
X8015420Y-13254841D01*
X8015420Y-13254841D02*
X8015420Y-13216746D01*
X8015420Y-13216746D02*
X8024944Y-13169127D01*
X8024944Y-13169127D02*
X8034468Y-13140555D01*
X8034468Y-13140555D02*
X8043991Y-13121508D01*
X8043991Y-13121508D02*
X8063039Y-13092936D01*
X8063039Y-13092936D02*
X8072563Y-13083412D01*
X8243991Y-13111984D02*
X8148753Y-13111984D01*
X8148753Y-13111984D02*
X8139229Y-13207222D01*
X8139229Y-13207222D02*
X8148753Y-13197698D01*
X8148753Y-13197698D02*
X8167801Y-13188174D01*
X8167801Y-13188174D02*
X8215420Y-13188174D01*
X8215420Y-13188174D02*
X8234468Y-13197698D01*
X8234468Y-13197698D02*
X8243991Y-13207222D01*
X8243991Y-13207222D02*
X8253515Y-13226269D01*
X8253515Y-13226269D02*
X8253515Y-13273888D01*
X8253515Y-13273888D02*
X8243991Y-13292936D01*
X8243991Y-13292936D02*
X8234468Y-13302460D01*
X8234468Y-13302460D02*
X8215420Y-13311984D01*
X8215420Y-13311984D02*
X8167801Y-13311984D01*
X8167801Y-13311984D02*
X8148753Y-13302460D01*
X8148753Y-13302460D02*
X8139229Y-13292936D01*
X8491611Y-13311984D02*
X8491611Y-13111984D01*
X8577325Y-13311984D02*
X8577325Y-13207222D01*
X8577325Y-13207222D02*
X8567801Y-13188174D01*
X8567801Y-13188174D02*
X8548753Y-13178650D01*
X8548753Y-13178650D02*
X8520182Y-13178650D01*
X8520182Y-13178650D02*
X8501134Y-13188174D01*
X8501134Y-13188174D02*
X8491611Y-13197698D01*
X8701134Y-13311984D02*
X8682087Y-13302460D01*
X8682087Y-13302460D02*
X8672563Y-13292936D01*
X8672563Y-13292936D02*
X8663039Y-13273888D01*
X8663039Y-13273888D02*
X8663039Y-13216746D01*
X8663039Y-13216746D02*
X8672563Y-13197698D01*
X8672563Y-13197698D02*
X8682087Y-13188174D01*
X8682087Y-13188174D02*
X8701134Y-13178650D01*
X8701134Y-13178650D02*
X8729706Y-13178650D01*
X8729706Y-13178650D02*
X8748753Y-13188174D01*
X8748753Y-13188174D02*
X8758277Y-13197698D01*
X8758277Y-13197698D02*
X8767801Y-13216746D01*
X8767801Y-13216746D02*
X8767801Y-13273888D01*
X8767801Y-13273888D02*
X8758277Y-13292936D01*
X8758277Y-13292936D02*
X8748753Y-13302460D01*
X8748753Y-13302460D02*
X8729706Y-13311984D01*
X8729706Y-13311984D02*
X8701134Y-13311984D01*
X8882087Y-13311984D02*
X8863039Y-13302460D01*
X8863039Y-13302460D02*
X8853515Y-13283412D01*
X8853515Y-13283412D02*
X8853515Y-13111984D01*
X9034468Y-13302460D02*
X9015420Y-13311984D01*
X9015420Y-13311984D02*
X8977325Y-13311984D01*
X8977325Y-13311984D02*
X8958277Y-13302460D01*
X8958277Y-13302460D02*
X8948753Y-13283412D01*
X8948753Y-13283412D02*
X8948753Y-13207222D01*
X8948753Y-13207222D02*
X8958277Y-13188174D01*
X8958277Y-13188174D02*
X8977325Y-13178650D01*
X8977325Y-13178650D02*
X9015420Y-13178650D01*
X9015420Y-13178650D02*
X9034468Y-13188174D01*
X9034468Y-13188174D02*
X9043992Y-13207222D01*
X9043992Y-13207222D02*
X9043992Y-13226269D01*
X9043992Y-13226269D02*
X8948753Y-13245317D01*
X9120182Y-13302460D02*
X9139230Y-13311984D01*
X9139230Y-13311984D02*
X9177325Y-13311984D01*
X9177325Y-13311984D02*
X9196373Y-13302460D01*
X9196373Y-13302460D02*
X9205896Y-13283412D01*
X9205896Y-13283412D02*
X9205896Y-13273888D01*
X9205896Y-13273888D02*
X9196373Y-13254841D01*
X9196373Y-13254841D02*
X9177325Y-13245317D01*
X9177325Y-13245317D02*
X9148753Y-13245317D01*
X9148753Y-13245317D02*
X9129706Y-13235793D01*
X9129706Y-13235793D02*
X9120182Y-13216746D01*
X9120182Y-13216746D02*
X9120182Y-13207222D01*
X9120182Y-13207222D02*
X9129706Y-13188174D01*
X9129706Y-13188174D02*
X9148753Y-13178650D01*
X9148753Y-13178650D02*
X9177325Y-13178650D01*
X9177325Y-13178650D02*
X9196373Y-13188174D01*
X9272563Y-13388174D02*
X9282087Y-13378650D01*
X9282087Y-13378650D02*
X9301134Y-13350079D01*
X9301134Y-13350079D02*
X9310658Y-13331031D01*
X9310658Y-13331031D02*
X9320182Y-13302460D01*
X9320182Y-13302460D02*
X9329706Y-13254841D01*
X9329706Y-13254841D02*
X9329706Y-13216746D01*
X9329706Y-13216746D02*
X9320182Y-13169127D01*
X9320182Y-13169127D02*
X9310658Y-13140555D01*
X9310658Y-13140555D02*
X9301134Y-13121508D01*
X9301134Y-13121508D02*
X9282087Y-13092936D01*
X9282087Y-13092936D02*
X9272563Y-13083412D01*
D12*
X4482856Y-13519856D02*
X4482856Y-13449144D01*
X4412144Y-13449144D01*
X4412144Y-13519856D01*
X4482856Y-13519856D01*
D11*
X4863039Y-13575984D02*
X4748753Y-13575984D01*
X4805896Y-13575984D02*
X4805896Y-13375984D01*
X4805896Y-13375984D02*
X4786848Y-13404555D01*
X4786848Y-13404555D02*
X4767801Y-13423603D01*
X4767801Y-13423603D02*
X4748753Y-13433127D01*
X4948753Y-13556936D02*
X4958277Y-13566460D01*
X4958277Y-13566460D02*
X4948753Y-13575984D01*
X4948753Y-13575984D02*
X4939229Y-13566460D01*
X4939229Y-13566460D02*
X4948753Y-13556936D01*
X4948753Y-13556936D02*
X4948753Y-13575984D01*
X5082086Y-13375984D02*
X5101134Y-13375984D01*
X5101134Y-13375984D02*
X5120182Y-13385508D01*
X5120182Y-13385508D02*
X5129705Y-13395031D01*
X5129705Y-13395031D02*
X5139229Y-13414079D01*
X5139229Y-13414079D02*
X5148753Y-13452174D01*
X5148753Y-13452174D02*
X5148753Y-13499793D01*
X5148753Y-13499793D02*
X5139229Y-13537888D01*
X5139229Y-13537888D02*
X5129705Y-13556936D01*
X5129705Y-13556936D02*
X5120182Y-13566460D01*
X5120182Y-13566460D02*
X5101134Y-13575984D01*
X5101134Y-13575984D02*
X5082086Y-13575984D01*
X5082086Y-13575984D02*
X5063039Y-13566460D01*
X5063039Y-13566460D02*
X5053515Y-13556936D01*
X5053515Y-13556936D02*
X5043991Y-13537888D01*
X5043991Y-13537888D02*
X5034467Y-13499793D01*
X5034467Y-13499793D02*
X5034467Y-13452174D01*
X5034467Y-13452174D02*
X5043991Y-13414079D01*
X5043991Y-13414079D02*
X5053515Y-13395031D01*
X5053515Y-13395031D02*
X5063039Y-13385508D01*
X5063039Y-13385508D02*
X5082086Y-13375984D01*
X5272563Y-13375984D02*
X5291610Y-13375984D01*
X5291610Y-13375984D02*
X5310658Y-13385508D01*
X5310658Y-13385508D02*
X5320182Y-13395031D01*
X5320182Y-13395031D02*
X5329705Y-13414079D01*
X5329705Y-13414079D02*
X5339229Y-13452174D01*
X5339229Y-13452174D02*
X5339229Y-13499793D01*
X5339229Y-13499793D02*
X5329705Y-13537888D01*
X5329705Y-13537888D02*
X5320182Y-13556936D01*
X5320182Y-13556936D02*
X5310658Y-13566460D01*
X5310658Y-13566460D02*
X5291610Y-13575984D01*
X5291610Y-13575984D02*
X5272563Y-13575984D01*
X5272563Y-13575984D02*
X5253515Y-13566460D01*
X5253515Y-13566460D02*
X5243991Y-13556936D01*
X5243991Y-13556936D02*
X5234467Y-13537888D01*
X5234467Y-13537888D02*
X5224944Y-13499793D01*
X5224944Y-13499793D02*
X5224944Y-13452174D01*
X5224944Y-13452174D02*
X5234467Y-13414079D01*
X5234467Y-13414079D02*
X5243991Y-13395031D01*
X5243991Y-13395031D02*
X5253515Y-13385508D01*
X5253515Y-13385508D02*
X5272563Y-13375984D01*
X5463039Y-13375984D02*
X5482086Y-13375984D01*
X5482086Y-13375984D02*
X5501134Y-13385508D01*
X5501134Y-13385508D02*
X5510658Y-13395031D01*
X5510658Y-13395031D02*
X5520182Y-13414079D01*
X5520182Y-13414079D02*
X5529705Y-13452174D01*
X5529705Y-13452174D02*
X5529705Y-13499793D01*
X5529705Y-13499793D02*
X5520182Y-13537888D01*
X5520182Y-13537888D02*
X5510658Y-13556936D01*
X5510658Y-13556936D02*
X5501134Y-13566460D01*
X5501134Y-13566460D02*
X5482086Y-13575984D01*
X5482086Y-13575984D02*
X5463039Y-13575984D01*
X5463039Y-13575984D02*
X5443991Y-13566460D01*
X5443991Y-13566460D02*
X5434467Y-13556936D01*
X5434467Y-13556936D02*
X5424944Y-13537888D01*
X5424944Y-13537888D02*
X5415420Y-13499793D01*
X5415420Y-13499793D02*
X5415420Y-13452174D01*
X5415420Y-13452174D02*
X5424944Y-13414079D01*
X5424944Y-13414079D02*
X5434467Y-13395031D01*
X5434467Y-13395031D02*
X5443991Y-13385508D01*
X5443991Y-13385508D02*
X5463039Y-13375984D01*
X5615420Y-13575984D02*
X5615420Y-13442650D01*
X5615420Y-13461698D02*
X5624943Y-13452174D01*
X5624943Y-13452174D02*
X5643991Y-13442650D01*
X5643991Y-13442650D02*
X5672563Y-13442650D01*
X5672563Y-13442650D02*
X5691610Y-13452174D01*
X5691610Y-13452174D02*
X5701134Y-13471222D01*
X5701134Y-13471222D02*
X5701134Y-13575984D01*
X5701134Y-13471222D02*
X5710658Y-13452174D01*
X5710658Y-13452174D02*
X5729705Y-13442650D01*
X5729705Y-13442650D02*
X5758277Y-13442650D01*
X5758277Y-13442650D02*
X5777324Y-13452174D01*
X5777324Y-13452174D02*
X5786848Y-13471222D01*
X5786848Y-13471222D02*
X5786848Y-13575984D01*
X5882086Y-13575984D02*
X5882086Y-13442650D01*
X5882086Y-13461698D02*
X5891610Y-13452174D01*
X5891610Y-13452174D02*
X5910658Y-13442650D01*
X5910658Y-13442650D02*
X5939229Y-13442650D01*
X5939229Y-13442650D02*
X5958277Y-13452174D01*
X5958277Y-13452174D02*
X5967801Y-13471222D01*
X5967801Y-13471222D02*
X5967801Y-13575984D01*
X5967801Y-13471222D02*
X5977324Y-13452174D01*
X5977324Y-13452174D02*
X5996372Y-13442650D01*
X5996372Y-13442650D02*
X6024943Y-13442650D01*
X6024943Y-13442650D02*
X6043991Y-13452174D01*
X6043991Y-13452174D02*
X6053515Y-13471222D01*
X6053515Y-13471222D02*
X6053515Y-13575984D01*
X6443991Y-13366460D02*
X6272563Y-13623603D01*
X6701134Y-13375984D02*
X6720182Y-13375984D01*
X6720182Y-13375984D02*
X6739229Y-13385508D01*
X6739229Y-13385508D02*
X6748753Y-13395031D01*
X6748753Y-13395031D02*
X6758277Y-13414079D01*
X6758277Y-13414079D02*
X6767801Y-13452174D01*
X6767801Y-13452174D02*
X6767801Y-13499793D01*
X6767801Y-13499793D02*
X6758277Y-13537888D01*
X6758277Y-13537888D02*
X6748753Y-13556936D01*
X6748753Y-13556936D02*
X6739229Y-13566460D01*
X6739229Y-13566460D02*
X6720182Y-13575984D01*
X6720182Y-13575984D02*
X6701134Y-13575984D01*
X6701134Y-13575984D02*
X6682086Y-13566460D01*
X6682086Y-13566460D02*
X6672563Y-13556936D01*
X6672563Y-13556936D02*
X6663039Y-13537888D01*
X6663039Y-13537888D02*
X6653515Y-13499793D01*
X6653515Y-13499793D02*
X6653515Y-13452174D01*
X6653515Y-13452174D02*
X6663039Y-13414079D01*
X6663039Y-13414079D02*
X6672563Y-13395031D01*
X6672563Y-13395031D02*
X6682086Y-13385508D01*
X6682086Y-13385508D02*
X6701134Y-13375984D01*
X6853515Y-13556936D02*
X6863039Y-13566460D01*
X6863039Y-13566460D02*
X6853515Y-13575984D01*
X6853515Y-13575984D02*
X6843991Y-13566460D01*
X6843991Y-13566460D02*
X6853515Y-13556936D01*
X6853515Y-13556936D02*
X6853515Y-13575984D01*
X6986848Y-13375984D02*
X7005896Y-13375984D01*
X7005896Y-13375984D02*
X7024944Y-13385508D01*
X7024944Y-13385508D02*
X7034467Y-13395031D01*
X7034467Y-13395031D02*
X7043991Y-13414079D01*
X7043991Y-13414079D02*
X7053515Y-13452174D01*
X7053515Y-13452174D02*
X7053515Y-13499793D01*
X7053515Y-13499793D02*
X7043991Y-13537888D01*
X7043991Y-13537888D02*
X7034467Y-13556936D01*
X7034467Y-13556936D02*
X7024944Y-13566460D01*
X7024944Y-13566460D02*
X7005896Y-13575984D01*
X7005896Y-13575984D02*
X6986848Y-13575984D01*
X6986848Y-13575984D02*
X6967801Y-13566460D01*
X6967801Y-13566460D02*
X6958277Y-13556936D01*
X6958277Y-13556936D02*
X6948753Y-13537888D01*
X6948753Y-13537888D02*
X6939229Y-13499793D01*
X6939229Y-13499793D02*
X6939229Y-13452174D01*
X6939229Y-13452174D02*
X6948753Y-13414079D01*
X6948753Y-13414079D02*
X6958277Y-13395031D01*
X6958277Y-13395031D02*
X6967801Y-13385508D01*
X6967801Y-13385508D02*
X6986848Y-13375984D01*
X7120182Y-13375984D02*
X7243991Y-13375984D01*
X7243991Y-13375984D02*
X7177325Y-13452174D01*
X7177325Y-13452174D02*
X7205896Y-13452174D01*
X7205896Y-13452174D02*
X7224944Y-13461698D01*
X7224944Y-13461698D02*
X7234467Y-13471222D01*
X7234467Y-13471222D02*
X7243991Y-13490269D01*
X7243991Y-13490269D02*
X7243991Y-13537888D01*
X7243991Y-13537888D02*
X7234467Y-13556936D01*
X7234467Y-13556936D02*
X7224944Y-13566460D01*
X7224944Y-13566460D02*
X7205896Y-13575984D01*
X7205896Y-13575984D02*
X7148753Y-13575984D01*
X7148753Y-13575984D02*
X7129706Y-13566460D01*
X7129706Y-13566460D02*
X7120182Y-13556936D01*
X7339229Y-13575984D02*
X7377325Y-13575984D01*
X7377325Y-13575984D02*
X7396372Y-13566460D01*
X7396372Y-13566460D02*
X7405896Y-13556936D01*
X7405896Y-13556936D02*
X7424944Y-13528365D01*
X7424944Y-13528365D02*
X7434467Y-13490269D01*
X7434467Y-13490269D02*
X7434467Y-13414079D01*
X7434467Y-13414079D02*
X7424944Y-13395031D01*
X7424944Y-13395031D02*
X7415420Y-13385508D01*
X7415420Y-13385508D02*
X7396372Y-13375984D01*
X7396372Y-13375984D02*
X7358277Y-13375984D01*
X7358277Y-13375984D02*
X7339229Y-13385508D01*
X7339229Y-13385508D02*
X7329706Y-13395031D01*
X7329706Y-13395031D02*
X7320182Y-13414079D01*
X7320182Y-13414079D02*
X7320182Y-13461698D01*
X7320182Y-13461698D02*
X7329706Y-13480746D01*
X7329706Y-13480746D02*
X7339229Y-13490269D01*
X7339229Y-13490269D02*
X7358277Y-13499793D01*
X7358277Y-13499793D02*
X7396372Y-13499793D01*
X7396372Y-13499793D02*
X7415420Y-13490269D01*
X7415420Y-13490269D02*
X7424944Y-13480746D01*
X7424944Y-13480746D02*
X7434467Y-13461698D01*
X7605896Y-13442650D02*
X7605896Y-13575984D01*
X7558277Y-13366460D02*
X7510658Y-13509317D01*
X7510658Y-13509317D02*
X7634467Y-13509317D01*
X7701134Y-13375984D02*
X7701134Y-13414079D01*
X7777325Y-13375984D02*
X7777325Y-13414079D01*
X8072563Y-13652174D02*
X8063039Y-13642650D01*
X8063039Y-13642650D02*
X8043991Y-13614079D01*
X8043991Y-13614079D02*
X8034468Y-13595031D01*
X8034468Y-13595031D02*
X8024944Y-13566460D01*
X8024944Y-13566460D02*
X8015420Y-13518841D01*
X8015420Y-13518841D02*
X8015420Y-13480746D01*
X8015420Y-13480746D02*
X8024944Y-13433127D01*
X8024944Y-13433127D02*
X8034468Y-13404555D01*
X8034468Y-13404555D02*
X8043991Y-13385508D01*
X8043991Y-13385508D02*
X8063039Y-13356936D01*
X8063039Y-13356936D02*
X8072563Y-13347412D01*
X8234468Y-13442650D02*
X8234468Y-13575984D01*
X8186848Y-13366460D02*
X8139229Y-13509317D01*
X8139229Y-13509317D02*
X8263039Y-13509317D01*
X8367801Y-13461698D02*
X8348753Y-13452174D01*
X8348753Y-13452174D02*
X8339229Y-13442650D01*
X8339229Y-13442650D02*
X8329706Y-13423603D01*
X8329706Y-13423603D02*
X8329706Y-13414079D01*
X8329706Y-13414079D02*
X8339229Y-13395031D01*
X8339229Y-13395031D02*
X8348753Y-13385508D01*
X8348753Y-13385508D02*
X8367801Y-13375984D01*
X8367801Y-13375984D02*
X8405896Y-13375984D01*
X8405896Y-13375984D02*
X8424944Y-13385508D01*
X8424944Y-13385508D02*
X8434468Y-13395031D01*
X8434468Y-13395031D02*
X8443991Y-13414079D01*
X8443991Y-13414079D02*
X8443991Y-13423603D01*
X8443991Y-13423603D02*
X8434468Y-13442650D01*
X8434468Y-13442650D02*
X8424944Y-13452174D01*
X8424944Y-13452174D02*
X8405896Y-13461698D01*
X8405896Y-13461698D02*
X8367801Y-13461698D01*
X8367801Y-13461698D02*
X8348753Y-13471222D01*
X8348753Y-13471222D02*
X8339229Y-13480746D01*
X8339229Y-13480746D02*
X8329706Y-13499793D01*
X8329706Y-13499793D02*
X8329706Y-13537888D01*
X8329706Y-13537888D02*
X8339229Y-13556936D01*
X8339229Y-13556936D02*
X8348753Y-13566460D01*
X8348753Y-13566460D02*
X8367801Y-13575984D01*
X8367801Y-13575984D02*
X8405896Y-13575984D01*
X8405896Y-13575984D02*
X8424944Y-13566460D01*
X8424944Y-13566460D02*
X8434468Y-13556936D01*
X8434468Y-13556936D02*
X8443991Y-13537888D01*
X8443991Y-13537888D02*
X8443991Y-13499793D01*
X8443991Y-13499793D02*
X8434468Y-13480746D01*
X8434468Y-13480746D02*
X8424944Y-13471222D01*
X8424944Y-13471222D02*
X8405896Y-13461698D01*
X8682087Y-13575984D02*
X8682087Y-13375984D01*
X8767801Y-13575984D02*
X8767801Y-13471222D01*
X8767801Y-13471222D02*
X8758277Y-13452174D01*
X8758277Y-13452174D02*
X8739230Y-13442650D01*
X8739230Y-13442650D02*
X8710658Y-13442650D01*
X8710658Y-13442650D02*
X8691611Y-13452174D01*
X8691611Y-13452174D02*
X8682087Y-13461698D01*
X8891611Y-13575984D02*
X8872563Y-13566460D01*
X8872563Y-13566460D02*
X8863039Y-13556936D01*
X8863039Y-13556936D02*
X8853515Y-13537888D01*
X8853515Y-13537888D02*
X8853515Y-13480746D01*
X8853515Y-13480746D02*
X8863039Y-13461698D01*
X8863039Y-13461698D02*
X8872563Y-13452174D01*
X8872563Y-13452174D02*
X8891611Y-13442650D01*
X8891611Y-13442650D02*
X8920182Y-13442650D01*
X8920182Y-13442650D02*
X8939230Y-13452174D01*
X8939230Y-13452174D02*
X8948753Y-13461698D01*
X8948753Y-13461698D02*
X8958277Y-13480746D01*
X8958277Y-13480746D02*
X8958277Y-13537888D01*
X8958277Y-13537888D02*
X8948753Y-13556936D01*
X8948753Y-13556936D02*
X8939230Y-13566460D01*
X8939230Y-13566460D02*
X8920182Y-13575984D01*
X8920182Y-13575984D02*
X8891611Y-13575984D01*
X9072563Y-13575984D02*
X9053515Y-13566460D01*
X9053515Y-13566460D02*
X9043992Y-13547412D01*
X9043992Y-13547412D02*
X9043992Y-13375984D01*
X9224944Y-13566460D02*
X9205896Y-13575984D01*
X9205896Y-13575984D02*
X9167801Y-13575984D01*
X9167801Y-13575984D02*
X9148753Y-13566460D01*
X9148753Y-13566460D02*
X9139230Y-13547412D01*
X9139230Y-13547412D02*
X9139230Y-13471222D01*
X9139230Y-13471222D02*
X9148753Y-13452174D01*
X9148753Y-13452174D02*
X9167801Y-13442650D01*
X9167801Y-13442650D02*
X9205896Y-13442650D01*
X9205896Y-13442650D02*
X9224944Y-13452174D01*
X9224944Y-13452174D02*
X9234468Y-13471222D01*
X9234468Y-13471222D02*
X9234468Y-13490269D01*
X9234468Y-13490269D02*
X9139230Y-13509317D01*
X9310658Y-13566460D02*
X9329706Y-13575984D01*
X9329706Y-13575984D02*
X9367801Y-13575984D01*
X9367801Y-13575984D02*
X9386849Y-13566460D01*
X9386849Y-13566460D02*
X9396373Y-13547412D01*
X9396373Y-13547412D02*
X9396373Y-13537888D01*
X9396373Y-13537888D02*
X9386849Y-13518841D01*
X9386849Y-13518841D02*
X9367801Y-13509317D01*
X9367801Y-13509317D02*
X9339230Y-13509317D01*
X9339230Y-13509317D02*
X9320182Y-13499793D01*
X9320182Y-13499793D02*
X9310658Y-13480746D01*
X9310658Y-13480746D02*
X9310658Y-13471222D01*
X9310658Y-13471222D02*
X9320182Y-13452174D01*
X9320182Y-13452174D02*
X9339230Y-13442650D01*
X9339230Y-13442650D02*
X9367801Y-13442650D01*
X9367801Y-13442650D02*
X9386849Y-13452174D01*
X9463039Y-13652174D02*
X9472563Y-13642650D01*
X9472563Y-13642650D02*
X9491611Y-13614079D01*
X9491611Y-13614079D02*
X9501134Y-13595031D01*
X9501134Y-13595031D02*
X9510658Y-13566460D01*
X9510658Y-13566460D02*
X9520182Y-13518841D01*
X9520182Y-13518841D02*
X9520182Y-13480746D01*
X9520182Y-13480746D02*
X9510658Y-13433127D01*
X9510658Y-13433127D02*
X9501134Y-13404555D01*
X9501134Y-13404555D02*
X9491611Y-13385508D01*
X9491611Y-13385508D02*
X9472563Y-13356936D01*
X9472563Y-13356936D02*
X9463039Y-13347412D01*
D13*
X4432500Y-13813500D02*
X4497500Y-13748500D01*
X4432500Y-13683500D01*
X4367500Y-13748500D01*
X4432500Y-13813500D01*
D11*
X4863039Y-13839984D02*
X4748753Y-13839984D01*
X4805896Y-13839984D02*
X4805896Y-13639984D01*
X4805896Y-13639984D02*
X4786848Y-13668555D01*
X4786848Y-13668555D02*
X4767801Y-13687603D01*
X4767801Y-13687603D02*
X4748753Y-13697127D01*
X4948753Y-13820936D02*
X4958277Y-13830460D01*
X4958277Y-13830460D02*
X4948753Y-13839984D01*
X4948753Y-13839984D02*
X4939229Y-13830460D01*
X4939229Y-13830460D02*
X4948753Y-13820936D01*
X4948753Y-13820936D02*
X4948753Y-13839984D01*
X5024944Y-13639984D02*
X5148753Y-13639984D01*
X5148753Y-13639984D02*
X5082086Y-13716174D01*
X5082086Y-13716174D02*
X5110658Y-13716174D01*
X5110658Y-13716174D02*
X5129705Y-13725698D01*
X5129705Y-13725698D02*
X5139229Y-13735222D01*
X5139229Y-13735222D02*
X5148753Y-13754269D01*
X5148753Y-13754269D02*
X5148753Y-13801888D01*
X5148753Y-13801888D02*
X5139229Y-13820936D01*
X5139229Y-13820936D02*
X5129705Y-13830460D01*
X5129705Y-13830460D02*
X5110658Y-13839984D01*
X5110658Y-13839984D02*
X5053515Y-13839984D01*
X5053515Y-13839984D02*
X5034467Y-13830460D01*
X5034467Y-13830460D02*
X5024944Y-13820936D01*
X5272563Y-13639984D02*
X5291610Y-13639984D01*
X5291610Y-13639984D02*
X5310658Y-13649508D01*
X5310658Y-13649508D02*
X5320182Y-13659031D01*
X5320182Y-13659031D02*
X5329705Y-13678079D01*
X5329705Y-13678079D02*
X5339229Y-13716174D01*
X5339229Y-13716174D02*
X5339229Y-13763793D01*
X5339229Y-13763793D02*
X5329705Y-13801888D01*
X5329705Y-13801888D02*
X5320182Y-13820936D01*
X5320182Y-13820936D02*
X5310658Y-13830460D01*
X5310658Y-13830460D02*
X5291610Y-13839984D01*
X5291610Y-13839984D02*
X5272563Y-13839984D01*
X5272563Y-13839984D02*
X5253515Y-13830460D01*
X5253515Y-13830460D02*
X5243991Y-13820936D01*
X5243991Y-13820936D02*
X5234467Y-13801888D01*
X5234467Y-13801888D02*
X5224944Y-13763793D01*
X5224944Y-13763793D02*
X5224944Y-13716174D01*
X5224944Y-13716174D02*
X5234467Y-13678079D01*
X5234467Y-13678079D02*
X5243991Y-13659031D01*
X5243991Y-13659031D02*
X5253515Y-13649508D01*
X5253515Y-13649508D02*
X5272563Y-13639984D01*
X5463039Y-13639984D02*
X5482086Y-13639984D01*
X5482086Y-13639984D02*
X5501134Y-13649508D01*
X5501134Y-13649508D02*
X5510658Y-13659031D01*
X5510658Y-13659031D02*
X5520182Y-13678079D01*
X5520182Y-13678079D02*
X5529705Y-13716174D01*
X5529705Y-13716174D02*
X5529705Y-13763793D01*
X5529705Y-13763793D02*
X5520182Y-13801888D01*
X5520182Y-13801888D02*
X5510658Y-13820936D01*
X5510658Y-13820936D02*
X5501134Y-13830460D01*
X5501134Y-13830460D02*
X5482086Y-13839984D01*
X5482086Y-13839984D02*
X5463039Y-13839984D01*
X5463039Y-13839984D02*
X5443991Y-13830460D01*
X5443991Y-13830460D02*
X5434467Y-13820936D01*
X5434467Y-13820936D02*
X5424944Y-13801888D01*
X5424944Y-13801888D02*
X5415420Y-13763793D01*
X5415420Y-13763793D02*
X5415420Y-13716174D01*
X5415420Y-13716174D02*
X5424944Y-13678079D01*
X5424944Y-13678079D02*
X5434467Y-13659031D01*
X5434467Y-13659031D02*
X5443991Y-13649508D01*
X5443991Y-13649508D02*
X5463039Y-13639984D01*
X5615420Y-13839984D02*
X5615420Y-13706650D01*
X5615420Y-13725698D02*
X5624943Y-13716174D01*
X5624943Y-13716174D02*
X5643991Y-13706650D01*
X5643991Y-13706650D02*
X5672563Y-13706650D01*
X5672563Y-13706650D02*
X5691610Y-13716174D01*
X5691610Y-13716174D02*
X5701134Y-13735222D01*
X5701134Y-13735222D02*
X5701134Y-13839984D01*
X5701134Y-13735222D02*
X5710658Y-13716174D01*
X5710658Y-13716174D02*
X5729705Y-13706650D01*
X5729705Y-13706650D02*
X5758277Y-13706650D01*
X5758277Y-13706650D02*
X5777324Y-13716174D01*
X5777324Y-13716174D02*
X5786848Y-13735222D01*
X5786848Y-13735222D02*
X5786848Y-13839984D01*
X5882086Y-13839984D02*
X5882086Y-13706650D01*
X5882086Y-13725698D02*
X5891610Y-13716174D01*
X5891610Y-13716174D02*
X5910658Y-13706650D01*
X5910658Y-13706650D02*
X5939229Y-13706650D01*
X5939229Y-13706650D02*
X5958277Y-13716174D01*
X5958277Y-13716174D02*
X5967801Y-13735222D01*
X5967801Y-13735222D02*
X5967801Y-13839984D01*
X5967801Y-13735222D02*
X5977324Y-13716174D01*
X5977324Y-13716174D02*
X5996372Y-13706650D01*
X5996372Y-13706650D02*
X6024943Y-13706650D01*
X6024943Y-13706650D02*
X6043991Y-13716174D01*
X6043991Y-13716174D02*
X6053515Y-13735222D01*
X6053515Y-13735222D02*
X6053515Y-13839984D01*
X6443991Y-13630460D02*
X6272563Y-13887603D01*
X6701134Y-13639984D02*
X6720182Y-13639984D01*
X6720182Y-13639984D02*
X6739229Y-13649508D01*
X6739229Y-13649508D02*
X6748753Y-13659031D01*
X6748753Y-13659031D02*
X6758277Y-13678079D01*
X6758277Y-13678079D02*
X6767801Y-13716174D01*
X6767801Y-13716174D02*
X6767801Y-13763793D01*
X6767801Y-13763793D02*
X6758277Y-13801888D01*
X6758277Y-13801888D02*
X6748753Y-13820936D01*
X6748753Y-13820936D02*
X6739229Y-13830460D01*
X6739229Y-13830460D02*
X6720182Y-13839984D01*
X6720182Y-13839984D02*
X6701134Y-13839984D01*
X6701134Y-13839984D02*
X6682086Y-13830460D01*
X6682086Y-13830460D02*
X6672563Y-13820936D01*
X6672563Y-13820936D02*
X6663039Y-13801888D01*
X6663039Y-13801888D02*
X6653515Y-13763793D01*
X6653515Y-13763793D02*
X6653515Y-13716174D01*
X6653515Y-13716174D02*
X6663039Y-13678079D01*
X6663039Y-13678079D02*
X6672563Y-13659031D01*
X6672563Y-13659031D02*
X6682086Y-13649508D01*
X6682086Y-13649508D02*
X6701134Y-13639984D01*
X6853515Y-13820936D02*
X6863039Y-13830460D01*
X6863039Y-13830460D02*
X6853515Y-13839984D01*
X6853515Y-13839984D02*
X6843991Y-13830460D01*
X6843991Y-13830460D02*
X6853515Y-13820936D01*
X6853515Y-13820936D02*
X6853515Y-13839984D01*
X6986848Y-13639984D02*
X7005896Y-13639984D01*
X7005896Y-13639984D02*
X7024944Y-13649508D01*
X7024944Y-13649508D02*
X7034467Y-13659031D01*
X7034467Y-13659031D02*
X7043991Y-13678079D01*
X7043991Y-13678079D02*
X7053515Y-13716174D01*
X7053515Y-13716174D02*
X7053515Y-13763793D01*
X7053515Y-13763793D02*
X7043991Y-13801888D01*
X7043991Y-13801888D02*
X7034467Y-13820936D01*
X7034467Y-13820936D02*
X7024944Y-13830460D01*
X7024944Y-13830460D02*
X7005896Y-13839984D01*
X7005896Y-13839984D02*
X6986848Y-13839984D01*
X6986848Y-13839984D02*
X6967801Y-13830460D01*
X6967801Y-13830460D02*
X6958277Y-13820936D01*
X6958277Y-13820936D02*
X6948753Y-13801888D01*
X6948753Y-13801888D02*
X6939229Y-13763793D01*
X6939229Y-13763793D02*
X6939229Y-13716174D01*
X6939229Y-13716174D02*
X6948753Y-13678079D01*
X6948753Y-13678079D02*
X6958277Y-13659031D01*
X6958277Y-13659031D02*
X6967801Y-13649508D01*
X6967801Y-13649508D02*
X6986848Y-13639984D01*
X7234467Y-13639984D02*
X7139229Y-13639984D01*
X7139229Y-13639984D02*
X7129706Y-13735222D01*
X7129706Y-13735222D02*
X7139229Y-13725698D01*
X7139229Y-13725698D02*
X7158277Y-13716174D01*
X7158277Y-13716174D02*
X7205896Y-13716174D01*
X7205896Y-13716174D02*
X7224944Y-13725698D01*
X7224944Y-13725698D02*
X7234467Y-13735222D01*
X7234467Y-13735222D02*
X7243991Y-13754269D01*
X7243991Y-13754269D02*
X7243991Y-13801888D01*
X7243991Y-13801888D02*
X7234467Y-13820936D01*
X7234467Y-13820936D02*
X7224944Y-13830460D01*
X7224944Y-13830460D02*
X7205896Y-13839984D01*
X7205896Y-13839984D02*
X7158277Y-13839984D01*
X7158277Y-13839984D02*
X7139229Y-13830460D01*
X7139229Y-13830460D02*
X7129706Y-13820936D01*
X7434467Y-13839984D02*
X7320182Y-13839984D01*
X7377325Y-13839984D02*
X7377325Y-13639984D01*
X7377325Y-13639984D02*
X7358277Y-13668555D01*
X7358277Y-13668555D02*
X7339229Y-13687603D01*
X7339229Y-13687603D02*
X7320182Y-13697127D01*
X7510658Y-13659031D02*
X7520182Y-13649508D01*
X7520182Y-13649508D02*
X7539229Y-13639984D01*
X7539229Y-13639984D02*
X7586848Y-13639984D01*
X7586848Y-13639984D02*
X7605896Y-13649508D01*
X7605896Y-13649508D02*
X7615420Y-13659031D01*
X7615420Y-13659031D02*
X7624944Y-13678079D01*
X7624944Y-13678079D02*
X7624944Y-13697127D01*
X7624944Y-13697127D02*
X7615420Y-13725698D01*
X7615420Y-13725698D02*
X7501134Y-13839984D01*
X7501134Y-13839984D02*
X7624944Y-13839984D01*
X7701134Y-13639984D02*
X7701134Y-13678079D01*
X7777325Y-13639984D02*
X7777325Y-13678079D01*
X8072563Y-13916174D02*
X8063039Y-13906650D01*
X8063039Y-13906650D02*
X8043991Y-13878079D01*
X8043991Y-13878079D02*
X8034468Y-13859031D01*
X8034468Y-13859031D02*
X8024944Y-13830460D01*
X8024944Y-13830460D02*
X8015420Y-13782841D01*
X8015420Y-13782841D02*
X8015420Y-13744746D01*
X8015420Y-13744746D02*
X8024944Y-13697127D01*
X8024944Y-13697127D02*
X8034468Y-13668555D01*
X8034468Y-13668555D02*
X8043991Y-13649508D01*
X8043991Y-13649508D02*
X8063039Y-13620936D01*
X8063039Y-13620936D02*
X8072563Y-13611412D01*
X8243991Y-13639984D02*
X8148753Y-13639984D01*
X8148753Y-13639984D02*
X8139229Y-13735222D01*
X8139229Y-13735222D02*
X8148753Y-13725698D01*
X8148753Y-13725698D02*
X8167801Y-13716174D01*
X8167801Y-13716174D02*
X8215420Y-13716174D01*
X8215420Y-13716174D02*
X8234468Y-13725698D01*
X8234468Y-13725698D02*
X8243991Y-13735222D01*
X8243991Y-13735222D02*
X8253515Y-13754269D01*
X8253515Y-13754269D02*
X8253515Y-13801888D01*
X8253515Y-13801888D02*
X8243991Y-13820936D01*
X8243991Y-13820936D02*
X8234468Y-13830460D01*
X8234468Y-13830460D02*
X8215420Y-13839984D01*
X8215420Y-13839984D02*
X8167801Y-13839984D01*
X8167801Y-13839984D02*
X8148753Y-13830460D01*
X8148753Y-13830460D02*
X8139229Y-13820936D01*
X8491611Y-13839984D02*
X8491611Y-13639984D01*
X8577325Y-13839984D02*
X8577325Y-13735222D01*
X8577325Y-13735222D02*
X8567801Y-13716174D01*
X8567801Y-13716174D02*
X8548753Y-13706650D01*
X8548753Y-13706650D02*
X8520182Y-13706650D01*
X8520182Y-13706650D02*
X8501134Y-13716174D01*
X8501134Y-13716174D02*
X8491611Y-13725698D01*
X8701134Y-13839984D02*
X8682087Y-13830460D01*
X8682087Y-13830460D02*
X8672563Y-13820936D01*
X8672563Y-13820936D02*
X8663039Y-13801888D01*
X8663039Y-13801888D02*
X8663039Y-13744746D01*
X8663039Y-13744746D02*
X8672563Y-13725698D01*
X8672563Y-13725698D02*
X8682087Y-13716174D01*
X8682087Y-13716174D02*
X8701134Y-13706650D01*
X8701134Y-13706650D02*
X8729706Y-13706650D01*
X8729706Y-13706650D02*
X8748753Y-13716174D01*
X8748753Y-13716174D02*
X8758277Y-13725698D01*
X8758277Y-13725698D02*
X8767801Y-13744746D01*
X8767801Y-13744746D02*
X8767801Y-13801888D01*
X8767801Y-13801888D02*
X8758277Y-13820936D01*
X8758277Y-13820936D02*
X8748753Y-13830460D01*
X8748753Y-13830460D02*
X8729706Y-13839984D01*
X8729706Y-13839984D02*
X8701134Y-13839984D01*
X8882087Y-13839984D02*
X8863039Y-13830460D01*
X8863039Y-13830460D02*
X8853515Y-13811412D01*
X8853515Y-13811412D02*
X8853515Y-13639984D01*
X9034468Y-13830460D02*
X9015420Y-13839984D01*
X9015420Y-13839984D02*
X8977325Y-13839984D01*
X8977325Y-13839984D02*
X8958277Y-13830460D01*
X8958277Y-13830460D02*
X8948753Y-13811412D01*
X8948753Y-13811412D02*
X8948753Y-13735222D01*
X8948753Y-13735222D02*
X8958277Y-13716174D01*
X8958277Y-13716174D02*
X8977325Y-13706650D01*
X8977325Y-13706650D02*
X9015420Y-13706650D01*
X9015420Y-13706650D02*
X9034468Y-13716174D01*
X9034468Y-13716174D02*
X9043992Y-13735222D01*
X9043992Y-13735222D02*
X9043992Y-13754269D01*
X9043992Y-13754269D02*
X8948753Y-13773317D01*
X9120182Y-13830460D02*
X9139230Y-13839984D01*
X9139230Y-13839984D02*
X9177325Y-13839984D01*
X9177325Y-13839984D02*
X9196373Y-13830460D01*
X9196373Y-13830460D02*
X9205896Y-13811412D01*
X9205896Y-13811412D02*
X9205896Y-13801888D01*
X9205896Y-13801888D02*
X9196373Y-13782841D01*
X9196373Y-13782841D02*
X9177325Y-13773317D01*
X9177325Y-13773317D02*
X9148753Y-13773317D01*
X9148753Y-13773317D02*
X9129706Y-13763793D01*
X9129706Y-13763793D02*
X9120182Y-13744746D01*
X9120182Y-13744746D02*
X9120182Y-13735222D01*
X9120182Y-13735222D02*
X9129706Y-13716174D01*
X9129706Y-13716174D02*
X9148753Y-13706650D01*
X9148753Y-13706650D02*
X9177325Y-13706650D01*
X9177325Y-13706650D02*
X9196373Y-13716174D01*
X9272563Y-13916174D02*
X9282087Y-13906650D01*
X9282087Y-13906650D02*
X9301134Y-13878079D01*
X9301134Y-13878079D02*
X9310658Y-13859031D01*
X9310658Y-13859031D02*
X9320182Y-13830460D01*
X9320182Y-13830460D02*
X9329706Y-13782841D01*
X9329706Y-13782841D02*
X9329706Y-13744746D01*
X9329706Y-13744746D02*
X9320182Y-13697127D01*
X9320182Y-13697127D02*
X9310658Y-13668555D01*
X9310658Y-13668555D02*
X9301134Y-13649508D01*
X9301134Y-13649508D02*
X9282087Y-13620936D01*
X9282087Y-13620936D02*
X9272563Y-13611412D01*
X4297500Y-13912500D02*
X4497500Y-14112500D01*
X4497500Y-13912500D02*
X4297500Y-14112500D01*
X4497500Y-14012500D02*
G75*
G02*
X4297500Y-14012500I-100000J0D01*
G01*
X4297500Y-14012500D02*
G75*
G02*
X4497500Y-14012500I100000J0D01*
G01*
X4748753Y-13923031D02*
X4758277Y-13913508D01*
X4758277Y-13913508D02*
X4777324Y-13903984D01*
X4777324Y-13903984D02*
X4824944Y-13903984D01*
X4824944Y-13903984D02*
X4843991Y-13913508D01*
X4843991Y-13913508D02*
X4853515Y-13923031D01*
X4853515Y-13923031D02*
X4863039Y-13942079D01*
X4863039Y-13942079D02*
X4863039Y-13961127D01*
X4863039Y-13961127D02*
X4853515Y-13989698D01*
X4853515Y-13989698D02*
X4739229Y-14103984D01*
X4739229Y-14103984D02*
X4863039Y-14103984D01*
X4948753Y-14084936D02*
X4958277Y-14094460D01*
X4958277Y-14094460D02*
X4948753Y-14103984D01*
X4948753Y-14103984D02*
X4939229Y-14094460D01*
X4939229Y-14094460D02*
X4948753Y-14084936D01*
X4948753Y-14084936D02*
X4948753Y-14103984D01*
X5024944Y-13903984D02*
X5158277Y-13903984D01*
X5158277Y-13903984D02*
X5072563Y-14103984D01*
X5272563Y-13903984D02*
X5291610Y-13903984D01*
X5291610Y-13903984D02*
X5310658Y-13913508D01*
X5310658Y-13913508D02*
X5320182Y-13923031D01*
X5320182Y-13923031D02*
X5329705Y-13942079D01*
X5329705Y-13942079D02*
X5339229Y-13980174D01*
X5339229Y-13980174D02*
X5339229Y-14027793D01*
X5339229Y-14027793D02*
X5329705Y-14065888D01*
X5329705Y-14065888D02*
X5320182Y-14084936D01*
X5320182Y-14084936D02*
X5310658Y-14094460D01*
X5310658Y-14094460D02*
X5291610Y-14103984D01*
X5291610Y-14103984D02*
X5272563Y-14103984D01*
X5272563Y-14103984D02*
X5253515Y-14094460D01*
X5253515Y-14094460D02*
X5243991Y-14084936D01*
X5243991Y-14084936D02*
X5234467Y-14065888D01*
X5234467Y-14065888D02*
X5224944Y-14027793D01*
X5224944Y-14027793D02*
X5224944Y-13980174D01*
X5224944Y-13980174D02*
X5234467Y-13942079D01*
X5234467Y-13942079D02*
X5243991Y-13923031D01*
X5243991Y-13923031D02*
X5253515Y-13913508D01*
X5253515Y-13913508D02*
X5272563Y-13903984D01*
X5463039Y-13903984D02*
X5482086Y-13903984D01*
X5482086Y-13903984D02*
X5501134Y-13913508D01*
X5501134Y-13913508D02*
X5510658Y-13923031D01*
X5510658Y-13923031D02*
X5520182Y-13942079D01*
X5520182Y-13942079D02*
X5529705Y-13980174D01*
X5529705Y-13980174D02*
X5529705Y-14027793D01*
X5529705Y-14027793D02*
X5520182Y-14065888D01*
X5520182Y-14065888D02*
X5510658Y-14084936D01*
X5510658Y-14084936D02*
X5501134Y-14094460D01*
X5501134Y-14094460D02*
X5482086Y-14103984D01*
X5482086Y-14103984D02*
X5463039Y-14103984D01*
X5463039Y-14103984D02*
X5443991Y-14094460D01*
X5443991Y-14094460D02*
X5434467Y-14084936D01*
X5434467Y-14084936D02*
X5424944Y-14065888D01*
X5424944Y-14065888D02*
X5415420Y-14027793D01*
X5415420Y-14027793D02*
X5415420Y-13980174D01*
X5415420Y-13980174D02*
X5424944Y-13942079D01*
X5424944Y-13942079D02*
X5434467Y-13923031D01*
X5434467Y-13923031D02*
X5443991Y-13913508D01*
X5443991Y-13913508D02*
X5463039Y-13903984D01*
X5615420Y-14103984D02*
X5615420Y-13970650D01*
X5615420Y-13989698D02*
X5624943Y-13980174D01*
X5624943Y-13980174D02*
X5643991Y-13970650D01*
X5643991Y-13970650D02*
X5672563Y-13970650D01*
X5672563Y-13970650D02*
X5691610Y-13980174D01*
X5691610Y-13980174D02*
X5701134Y-13999222D01*
X5701134Y-13999222D02*
X5701134Y-14103984D01*
X5701134Y-13999222D02*
X5710658Y-13980174D01*
X5710658Y-13980174D02*
X5729705Y-13970650D01*
X5729705Y-13970650D02*
X5758277Y-13970650D01*
X5758277Y-13970650D02*
X5777324Y-13980174D01*
X5777324Y-13980174D02*
X5786848Y-13999222D01*
X5786848Y-13999222D02*
X5786848Y-14103984D01*
X5882086Y-14103984D02*
X5882086Y-13970650D01*
X5882086Y-13989698D02*
X5891610Y-13980174D01*
X5891610Y-13980174D02*
X5910658Y-13970650D01*
X5910658Y-13970650D02*
X5939229Y-13970650D01*
X5939229Y-13970650D02*
X5958277Y-13980174D01*
X5958277Y-13980174D02*
X5967801Y-13999222D01*
X5967801Y-13999222D02*
X5967801Y-14103984D01*
X5967801Y-13999222D02*
X5977324Y-13980174D01*
X5977324Y-13980174D02*
X5996372Y-13970650D01*
X5996372Y-13970650D02*
X6024943Y-13970650D01*
X6024943Y-13970650D02*
X6043991Y-13980174D01*
X6043991Y-13980174D02*
X6053515Y-13999222D01*
X6053515Y-13999222D02*
X6053515Y-14103984D01*
X6443991Y-13894460D02*
X6272563Y-14151603D01*
X6701134Y-13903984D02*
X6720182Y-13903984D01*
X6720182Y-13903984D02*
X6739229Y-13913508D01*
X6739229Y-13913508D02*
X6748753Y-13923031D01*
X6748753Y-13923031D02*
X6758277Y-13942079D01*
X6758277Y-13942079D02*
X6767801Y-13980174D01*
X6767801Y-13980174D02*
X6767801Y-14027793D01*
X6767801Y-14027793D02*
X6758277Y-14065888D01*
X6758277Y-14065888D02*
X6748753Y-14084936D01*
X6748753Y-14084936D02*
X6739229Y-14094460D01*
X6739229Y-14094460D02*
X6720182Y-14103984D01*
X6720182Y-14103984D02*
X6701134Y-14103984D01*
X6701134Y-14103984D02*
X6682086Y-14094460D01*
X6682086Y-14094460D02*
X6672563Y-14084936D01*
X6672563Y-14084936D02*
X6663039Y-14065888D01*
X6663039Y-14065888D02*
X6653515Y-14027793D01*
X6653515Y-14027793D02*
X6653515Y-13980174D01*
X6653515Y-13980174D02*
X6663039Y-13942079D01*
X6663039Y-13942079D02*
X6672563Y-13923031D01*
X6672563Y-13923031D02*
X6682086Y-13913508D01*
X6682086Y-13913508D02*
X6701134Y-13903984D01*
X6853515Y-14084936D02*
X6863039Y-14094460D01*
X6863039Y-14094460D02*
X6853515Y-14103984D01*
X6853515Y-14103984D02*
X6843991Y-14094460D01*
X6843991Y-14094460D02*
X6853515Y-14084936D01*
X6853515Y-14084936D02*
X6853515Y-14103984D01*
X7053515Y-14103984D02*
X6939229Y-14103984D01*
X6996372Y-14103984D02*
X6996372Y-13903984D01*
X6996372Y-13903984D02*
X6977325Y-13932555D01*
X6977325Y-13932555D02*
X6958277Y-13951603D01*
X6958277Y-13951603D02*
X6939229Y-13961127D01*
X7177325Y-13903984D02*
X7196372Y-13903984D01*
X7196372Y-13903984D02*
X7215420Y-13913508D01*
X7215420Y-13913508D02*
X7224944Y-13923031D01*
X7224944Y-13923031D02*
X7234467Y-13942079D01*
X7234467Y-13942079D02*
X7243991Y-13980174D01*
X7243991Y-13980174D02*
X7243991Y-14027793D01*
X7243991Y-14027793D02*
X7234467Y-14065888D01*
X7234467Y-14065888D02*
X7224944Y-14084936D01*
X7224944Y-14084936D02*
X7215420Y-14094460D01*
X7215420Y-14094460D02*
X7196372Y-14103984D01*
X7196372Y-14103984D02*
X7177325Y-14103984D01*
X7177325Y-14103984D02*
X7158277Y-14094460D01*
X7158277Y-14094460D02*
X7148753Y-14084936D01*
X7148753Y-14084936D02*
X7139229Y-14065888D01*
X7139229Y-14065888D02*
X7129706Y-14027793D01*
X7129706Y-14027793D02*
X7129706Y-13980174D01*
X7129706Y-13980174D02*
X7139229Y-13942079D01*
X7139229Y-13942079D02*
X7148753Y-13923031D01*
X7148753Y-13923031D02*
X7158277Y-13913508D01*
X7158277Y-13913508D02*
X7177325Y-13903984D01*
X7415420Y-13903984D02*
X7377325Y-13903984D01*
X7377325Y-13903984D02*
X7358277Y-13913508D01*
X7358277Y-13913508D02*
X7348753Y-13923031D01*
X7348753Y-13923031D02*
X7329706Y-13951603D01*
X7329706Y-13951603D02*
X7320182Y-13989698D01*
X7320182Y-13989698D02*
X7320182Y-14065888D01*
X7320182Y-14065888D02*
X7329706Y-14084936D01*
X7329706Y-14084936D02*
X7339229Y-14094460D01*
X7339229Y-14094460D02*
X7358277Y-14103984D01*
X7358277Y-14103984D02*
X7396372Y-14103984D01*
X7396372Y-14103984D02*
X7415420Y-14094460D01*
X7415420Y-14094460D02*
X7424944Y-14084936D01*
X7424944Y-14084936D02*
X7434467Y-14065888D01*
X7434467Y-14065888D02*
X7434467Y-14018269D01*
X7434467Y-14018269D02*
X7424944Y-13999222D01*
X7424944Y-13999222D02*
X7415420Y-13989698D01*
X7415420Y-13989698D02*
X7396372Y-13980174D01*
X7396372Y-13980174D02*
X7358277Y-13980174D01*
X7358277Y-13980174D02*
X7339229Y-13989698D01*
X7339229Y-13989698D02*
X7329706Y-13999222D01*
X7329706Y-13999222D02*
X7320182Y-14018269D01*
X7501134Y-13903984D02*
X7624944Y-13903984D01*
X7624944Y-13903984D02*
X7558277Y-13980174D01*
X7558277Y-13980174D02*
X7586848Y-13980174D01*
X7586848Y-13980174D02*
X7605896Y-13989698D01*
X7605896Y-13989698D02*
X7615420Y-13999222D01*
X7615420Y-13999222D02*
X7624944Y-14018269D01*
X7624944Y-14018269D02*
X7624944Y-14065888D01*
X7624944Y-14065888D02*
X7615420Y-14084936D01*
X7615420Y-14084936D02*
X7605896Y-14094460D01*
X7605896Y-14094460D02*
X7586848Y-14103984D01*
X7586848Y-14103984D02*
X7529706Y-14103984D01*
X7529706Y-14103984D02*
X7510658Y-14094460D01*
X7510658Y-14094460D02*
X7501134Y-14084936D01*
X7701134Y-13903984D02*
X7701134Y-13942079D01*
X7777325Y-13903984D02*
X7777325Y-13942079D01*
X8072563Y-14180174D02*
X8063039Y-14170650D01*
X8063039Y-14170650D02*
X8043991Y-14142079D01*
X8043991Y-14142079D02*
X8034468Y-14123031D01*
X8034468Y-14123031D02*
X8024944Y-14094460D01*
X8024944Y-14094460D02*
X8015420Y-14046841D01*
X8015420Y-14046841D02*
X8015420Y-14008746D01*
X8015420Y-14008746D02*
X8024944Y-13961127D01*
X8024944Y-13961127D02*
X8034468Y-13932555D01*
X8034468Y-13932555D02*
X8043991Y-13913508D01*
X8043991Y-13913508D02*
X8063039Y-13884936D01*
X8063039Y-13884936D02*
X8072563Y-13875412D01*
X8139229Y-13923031D02*
X8148753Y-13913508D01*
X8148753Y-13913508D02*
X8167801Y-13903984D01*
X8167801Y-13903984D02*
X8215420Y-13903984D01*
X8215420Y-13903984D02*
X8234468Y-13913508D01*
X8234468Y-13913508D02*
X8243991Y-13923031D01*
X8243991Y-13923031D02*
X8253515Y-13942079D01*
X8253515Y-13942079D02*
X8253515Y-13961127D01*
X8253515Y-13961127D02*
X8243991Y-13989698D01*
X8243991Y-13989698D02*
X8129706Y-14103984D01*
X8129706Y-14103984D02*
X8253515Y-14103984D01*
X8491611Y-14103984D02*
X8491611Y-13903984D01*
X8577325Y-14103984D02*
X8577325Y-13999222D01*
X8577325Y-13999222D02*
X8567801Y-13980174D01*
X8567801Y-13980174D02*
X8548753Y-13970650D01*
X8548753Y-13970650D02*
X8520182Y-13970650D01*
X8520182Y-13970650D02*
X8501134Y-13980174D01*
X8501134Y-13980174D02*
X8491611Y-13989698D01*
X8701134Y-14103984D02*
X8682087Y-14094460D01*
X8682087Y-14094460D02*
X8672563Y-14084936D01*
X8672563Y-14084936D02*
X8663039Y-14065888D01*
X8663039Y-14065888D02*
X8663039Y-14008746D01*
X8663039Y-14008746D02*
X8672563Y-13989698D01*
X8672563Y-13989698D02*
X8682087Y-13980174D01*
X8682087Y-13980174D02*
X8701134Y-13970650D01*
X8701134Y-13970650D02*
X8729706Y-13970650D01*
X8729706Y-13970650D02*
X8748753Y-13980174D01*
X8748753Y-13980174D02*
X8758277Y-13989698D01*
X8758277Y-13989698D02*
X8767801Y-14008746D01*
X8767801Y-14008746D02*
X8767801Y-14065888D01*
X8767801Y-14065888D02*
X8758277Y-14084936D01*
X8758277Y-14084936D02*
X8748753Y-14094460D01*
X8748753Y-14094460D02*
X8729706Y-14103984D01*
X8729706Y-14103984D02*
X8701134Y-14103984D01*
X8882087Y-14103984D02*
X8863039Y-14094460D01*
X8863039Y-14094460D02*
X8853515Y-14075412D01*
X8853515Y-14075412D02*
X8853515Y-13903984D01*
X9034468Y-14094460D02*
X9015420Y-14103984D01*
X9015420Y-14103984D02*
X8977325Y-14103984D01*
X8977325Y-14103984D02*
X8958277Y-14094460D01*
X8958277Y-14094460D02*
X8948753Y-14075412D01*
X8948753Y-14075412D02*
X8948753Y-13999222D01*
X8948753Y-13999222D02*
X8958277Y-13980174D01*
X8958277Y-13980174D02*
X8977325Y-13970650D01*
X8977325Y-13970650D02*
X9015420Y-13970650D01*
X9015420Y-13970650D02*
X9034468Y-13980174D01*
X9034468Y-13980174D02*
X9043992Y-13999222D01*
X9043992Y-13999222D02*
X9043992Y-14018269D01*
X9043992Y-14018269D02*
X8948753Y-14037317D01*
X9120182Y-14094460D02*
X9139230Y-14103984D01*
X9139230Y-14103984D02*
X9177325Y-14103984D01*
X9177325Y-14103984D02*
X9196373Y-14094460D01*
X9196373Y-14094460D02*
X9205896Y-14075412D01*
X9205896Y-14075412D02*
X9205896Y-14065888D01*
X9205896Y-14065888D02*
X9196373Y-14046841D01*
X9196373Y-14046841D02*
X9177325Y-14037317D01*
X9177325Y-14037317D02*
X9148753Y-14037317D01*
X9148753Y-14037317D02*
X9129706Y-14027793D01*
X9129706Y-14027793D02*
X9120182Y-14008746D01*
X9120182Y-14008746D02*
X9120182Y-13999222D01*
X9120182Y-13999222D02*
X9129706Y-13980174D01*
X9129706Y-13980174D02*
X9148753Y-13970650D01*
X9148753Y-13970650D02*
X9177325Y-13970650D01*
X9177325Y-13970650D02*
X9196373Y-13980174D01*
X9272563Y-14180174D02*
X9282087Y-14170650D01*
X9282087Y-14170650D02*
X9301134Y-14142079D01*
X9301134Y-14142079D02*
X9310658Y-14123031D01*
X9310658Y-14123031D02*
X9320182Y-14094460D01*
X9320182Y-14094460D02*
X9329706Y-14046841D01*
X9329706Y-14046841D02*
X9329706Y-14008746D01*
X9329706Y-14008746D02*
X9320182Y-13961127D01*
X9320182Y-13961127D02*
X9310658Y-13932555D01*
X9310658Y-13932555D02*
X9301134Y-13913508D01*
X9301134Y-13913508D02*
X9282087Y-13884936D01*
X9282087Y-13884936D02*
X9272563Y-13875412D01*
X4297500Y-14232500D02*
X4497500Y-14432500D01*
X4497500Y-14232500D02*
X4297500Y-14432500D01*
X4397500Y-14232500D02*
X4397500Y-14432500D01*
X4297500Y-14332500D02*
X4497500Y-14332500D01*
X4843991Y-14290650D02*
X4843991Y-14423984D01*
X4796372Y-14214460D02*
X4748753Y-14357317D01*
X4748753Y-14357317D02*
X4872563Y-14357317D01*
X4948753Y-14404936D02*
X4958277Y-14414460D01*
X4958277Y-14414460D02*
X4948753Y-14423984D01*
X4948753Y-14423984D02*
X4939229Y-14414460D01*
X4939229Y-14414460D02*
X4948753Y-14404936D01*
X4948753Y-14404936D02*
X4948753Y-14423984D01*
X5024944Y-14223984D02*
X5148753Y-14223984D01*
X5148753Y-14223984D02*
X5082086Y-14300174D01*
X5082086Y-14300174D02*
X5110658Y-14300174D01*
X5110658Y-14300174D02*
X5129705Y-14309698D01*
X5129705Y-14309698D02*
X5139229Y-14319222D01*
X5139229Y-14319222D02*
X5148753Y-14338269D01*
X5148753Y-14338269D02*
X5148753Y-14385888D01*
X5148753Y-14385888D02*
X5139229Y-14404936D01*
X5139229Y-14404936D02*
X5129705Y-14414460D01*
X5129705Y-14414460D02*
X5110658Y-14423984D01*
X5110658Y-14423984D02*
X5053515Y-14423984D01*
X5053515Y-14423984D02*
X5034467Y-14414460D01*
X5034467Y-14414460D02*
X5024944Y-14404936D01*
X5272563Y-14223984D02*
X5291610Y-14223984D01*
X5291610Y-14223984D02*
X5310658Y-14233508D01*
X5310658Y-14233508D02*
X5320182Y-14243031D01*
X5320182Y-14243031D02*
X5329705Y-14262079D01*
X5329705Y-14262079D02*
X5339229Y-14300174D01*
X5339229Y-14300174D02*
X5339229Y-14347793D01*
X5339229Y-14347793D02*
X5329705Y-14385888D01*
X5329705Y-14385888D02*
X5320182Y-14404936D01*
X5320182Y-14404936D02*
X5310658Y-14414460D01*
X5310658Y-14414460D02*
X5291610Y-14423984D01*
X5291610Y-14423984D02*
X5272563Y-14423984D01*
X5272563Y-14423984D02*
X5253515Y-14414460D01*
X5253515Y-14414460D02*
X5243991Y-14404936D01*
X5243991Y-14404936D02*
X5234467Y-14385888D01*
X5234467Y-14385888D02*
X5224944Y-14347793D01*
X5224944Y-14347793D02*
X5224944Y-14300174D01*
X5224944Y-14300174D02*
X5234467Y-14262079D01*
X5234467Y-14262079D02*
X5243991Y-14243031D01*
X5243991Y-14243031D02*
X5253515Y-14233508D01*
X5253515Y-14233508D02*
X5272563Y-14223984D01*
X5463039Y-14223984D02*
X5482086Y-14223984D01*
X5482086Y-14223984D02*
X5501134Y-14233508D01*
X5501134Y-14233508D02*
X5510658Y-14243031D01*
X5510658Y-14243031D02*
X5520182Y-14262079D01*
X5520182Y-14262079D02*
X5529705Y-14300174D01*
X5529705Y-14300174D02*
X5529705Y-14347793D01*
X5529705Y-14347793D02*
X5520182Y-14385888D01*
X5520182Y-14385888D02*
X5510658Y-14404936D01*
X5510658Y-14404936D02*
X5501134Y-14414460D01*
X5501134Y-14414460D02*
X5482086Y-14423984D01*
X5482086Y-14423984D02*
X5463039Y-14423984D01*
X5463039Y-14423984D02*
X5443991Y-14414460D01*
X5443991Y-14414460D02*
X5434467Y-14404936D01*
X5434467Y-14404936D02*
X5424944Y-14385888D01*
X5424944Y-14385888D02*
X5415420Y-14347793D01*
X5415420Y-14347793D02*
X5415420Y-14300174D01*
X5415420Y-14300174D02*
X5424944Y-14262079D01*
X5424944Y-14262079D02*
X5434467Y-14243031D01*
X5434467Y-14243031D02*
X5443991Y-14233508D01*
X5443991Y-14233508D02*
X5463039Y-14223984D01*
X5615420Y-14423984D02*
X5615420Y-14290650D01*
X5615420Y-14309698D02*
X5624943Y-14300174D01*
X5624943Y-14300174D02*
X5643991Y-14290650D01*
X5643991Y-14290650D02*
X5672563Y-14290650D01*
X5672563Y-14290650D02*
X5691610Y-14300174D01*
X5691610Y-14300174D02*
X5701134Y-14319222D01*
X5701134Y-14319222D02*
X5701134Y-14423984D01*
X5701134Y-14319222D02*
X5710658Y-14300174D01*
X5710658Y-14300174D02*
X5729705Y-14290650D01*
X5729705Y-14290650D02*
X5758277Y-14290650D01*
X5758277Y-14290650D02*
X5777324Y-14300174D01*
X5777324Y-14300174D02*
X5786848Y-14319222D01*
X5786848Y-14319222D02*
X5786848Y-14423984D01*
X5882086Y-14423984D02*
X5882086Y-14290650D01*
X5882086Y-14309698D02*
X5891610Y-14300174D01*
X5891610Y-14300174D02*
X5910658Y-14290650D01*
X5910658Y-14290650D02*
X5939229Y-14290650D01*
X5939229Y-14290650D02*
X5958277Y-14300174D01*
X5958277Y-14300174D02*
X5967801Y-14319222D01*
X5967801Y-14319222D02*
X5967801Y-14423984D01*
X5967801Y-14319222D02*
X5977324Y-14300174D01*
X5977324Y-14300174D02*
X5996372Y-14290650D01*
X5996372Y-14290650D02*
X6024943Y-14290650D01*
X6024943Y-14290650D02*
X6043991Y-14300174D01*
X6043991Y-14300174D02*
X6053515Y-14319222D01*
X6053515Y-14319222D02*
X6053515Y-14423984D01*
X6443991Y-14214460D02*
X6272563Y-14471603D01*
X6701134Y-14223984D02*
X6720182Y-14223984D01*
X6720182Y-14223984D02*
X6739229Y-14233508D01*
X6739229Y-14233508D02*
X6748753Y-14243031D01*
X6748753Y-14243031D02*
X6758277Y-14262079D01*
X6758277Y-14262079D02*
X6767801Y-14300174D01*
X6767801Y-14300174D02*
X6767801Y-14347793D01*
X6767801Y-14347793D02*
X6758277Y-14385888D01*
X6758277Y-14385888D02*
X6748753Y-14404936D01*
X6748753Y-14404936D02*
X6739229Y-14414460D01*
X6739229Y-14414460D02*
X6720182Y-14423984D01*
X6720182Y-14423984D02*
X6701134Y-14423984D01*
X6701134Y-14423984D02*
X6682086Y-14414460D01*
X6682086Y-14414460D02*
X6672563Y-14404936D01*
X6672563Y-14404936D02*
X6663039Y-14385888D01*
X6663039Y-14385888D02*
X6653515Y-14347793D01*
X6653515Y-14347793D02*
X6653515Y-14300174D01*
X6653515Y-14300174D02*
X6663039Y-14262079D01*
X6663039Y-14262079D02*
X6672563Y-14243031D01*
X6672563Y-14243031D02*
X6682086Y-14233508D01*
X6682086Y-14233508D02*
X6701134Y-14223984D01*
X6853515Y-14404936D02*
X6863039Y-14414460D01*
X6863039Y-14414460D02*
X6853515Y-14423984D01*
X6853515Y-14423984D02*
X6843991Y-14414460D01*
X6843991Y-14414460D02*
X6853515Y-14404936D01*
X6853515Y-14404936D02*
X6853515Y-14423984D01*
X7053515Y-14423984D02*
X6939229Y-14423984D01*
X6996372Y-14423984D02*
X6996372Y-14223984D01*
X6996372Y-14223984D02*
X6977325Y-14252555D01*
X6977325Y-14252555D02*
X6958277Y-14271603D01*
X6958277Y-14271603D02*
X6939229Y-14281127D01*
X7224944Y-14223984D02*
X7186848Y-14223984D01*
X7186848Y-14223984D02*
X7167801Y-14233508D01*
X7167801Y-14233508D02*
X7158277Y-14243031D01*
X7158277Y-14243031D02*
X7139229Y-14271603D01*
X7139229Y-14271603D02*
X7129706Y-14309698D01*
X7129706Y-14309698D02*
X7129706Y-14385888D01*
X7129706Y-14385888D02*
X7139229Y-14404936D01*
X7139229Y-14404936D02*
X7148753Y-14414460D01*
X7148753Y-14414460D02*
X7167801Y-14423984D01*
X7167801Y-14423984D02*
X7205896Y-14423984D01*
X7205896Y-14423984D02*
X7224944Y-14414460D01*
X7224944Y-14414460D02*
X7234467Y-14404936D01*
X7234467Y-14404936D02*
X7243991Y-14385888D01*
X7243991Y-14385888D02*
X7243991Y-14338269D01*
X7243991Y-14338269D02*
X7234467Y-14319222D01*
X7234467Y-14319222D02*
X7224944Y-14309698D01*
X7224944Y-14309698D02*
X7205896Y-14300174D01*
X7205896Y-14300174D02*
X7167801Y-14300174D01*
X7167801Y-14300174D02*
X7148753Y-14309698D01*
X7148753Y-14309698D02*
X7139229Y-14319222D01*
X7139229Y-14319222D02*
X7129706Y-14338269D01*
X7339229Y-14423984D02*
X7377325Y-14423984D01*
X7377325Y-14423984D02*
X7396372Y-14414460D01*
X7396372Y-14414460D02*
X7405896Y-14404936D01*
X7405896Y-14404936D02*
X7424944Y-14376365D01*
X7424944Y-14376365D02*
X7434467Y-14338269D01*
X7434467Y-14338269D02*
X7434467Y-14262079D01*
X7434467Y-14262079D02*
X7424944Y-14243031D01*
X7424944Y-14243031D02*
X7415420Y-14233508D01*
X7415420Y-14233508D02*
X7396372Y-14223984D01*
X7396372Y-14223984D02*
X7358277Y-14223984D01*
X7358277Y-14223984D02*
X7339229Y-14233508D01*
X7339229Y-14233508D02*
X7329706Y-14243031D01*
X7329706Y-14243031D02*
X7320182Y-14262079D01*
X7320182Y-14262079D02*
X7320182Y-14309698D01*
X7320182Y-14309698D02*
X7329706Y-14328746D01*
X7329706Y-14328746D02*
X7339229Y-14338269D01*
X7339229Y-14338269D02*
X7358277Y-14347793D01*
X7358277Y-14347793D02*
X7396372Y-14347793D01*
X7396372Y-14347793D02*
X7415420Y-14338269D01*
X7415420Y-14338269D02*
X7424944Y-14328746D01*
X7424944Y-14328746D02*
X7434467Y-14309698D01*
X7501134Y-14223984D02*
X7624944Y-14223984D01*
X7624944Y-14223984D02*
X7558277Y-14300174D01*
X7558277Y-14300174D02*
X7586848Y-14300174D01*
X7586848Y-14300174D02*
X7605896Y-14309698D01*
X7605896Y-14309698D02*
X7615420Y-14319222D01*
X7615420Y-14319222D02*
X7624944Y-14338269D01*
X7624944Y-14338269D02*
X7624944Y-14385888D01*
X7624944Y-14385888D02*
X7615420Y-14404936D01*
X7615420Y-14404936D02*
X7605896Y-14414460D01*
X7605896Y-14414460D02*
X7586848Y-14423984D01*
X7586848Y-14423984D02*
X7529706Y-14423984D01*
X7529706Y-14423984D02*
X7510658Y-14414460D01*
X7510658Y-14414460D02*
X7501134Y-14404936D01*
X7701134Y-14223984D02*
X7701134Y-14262079D01*
X7777325Y-14223984D02*
X7777325Y-14262079D01*
X8072563Y-14500174D02*
X8063039Y-14490650D01*
X8063039Y-14490650D02*
X8043991Y-14462079D01*
X8043991Y-14462079D02*
X8034468Y-14443031D01*
X8034468Y-14443031D02*
X8024944Y-14414460D01*
X8024944Y-14414460D02*
X8015420Y-14366841D01*
X8015420Y-14366841D02*
X8015420Y-14328746D01*
X8015420Y-14328746D02*
X8024944Y-14281127D01*
X8024944Y-14281127D02*
X8034468Y-14252555D01*
X8034468Y-14252555D02*
X8043991Y-14233508D01*
X8043991Y-14233508D02*
X8063039Y-14204936D01*
X8063039Y-14204936D02*
X8072563Y-14195412D01*
X8234468Y-14290650D02*
X8234468Y-14423984D01*
X8186848Y-14214460D02*
X8139229Y-14357317D01*
X8139229Y-14357317D02*
X8263039Y-14357317D01*
X8491611Y-14423984D02*
X8491611Y-14223984D01*
X8577325Y-14423984D02*
X8577325Y-14319222D01*
X8577325Y-14319222D02*
X8567801Y-14300174D01*
X8567801Y-14300174D02*
X8548753Y-14290650D01*
X8548753Y-14290650D02*
X8520182Y-14290650D01*
X8520182Y-14290650D02*
X8501134Y-14300174D01*
X8501134Y-14300174D02*
X8491611Y-14309698D01*
X8701134Y-14423984D02*
X8682087Y-14414460D01*
X8682087Y-14414460D02*
X8672563Y-14404936D01*
X8672563Y-14404936D02*
X8663039Y-14385888D01*
X8663039Y-14385888D02*
X8663039Y-14328746D01*
X8663039Y-14328746D02*
X8672563Y-14309698D01*
X8672563Y-14309698D02*
X8682087Y-14300174D01*
X8682087Y-14300174D02*
X8701134Y-14290650D01*
X8701134Y-14290650D02*
X8729706Y-14290650D01*
X8729706Y-14290650D02*
X8748753Y-14300174D01*
X8748753Y-14300174D02*
X8758277Y-14309698D01*
X8758277Y-14309698D02*
X8767801Y-14328746D01*
X8767801Y-14328746D02*
X8767801Y-14385888D01*
X8767801Y-14385888D02*
X8758277Y-14404936D01*
X8758277Y-14404936D02*
X8748753Y-14414460D01*
X8748753Y-14414460D02*
X8729706Y-14423984D01*
X8729706Y-14423984D02*
X8701134Y-14423984D01*
X8882087Y-14423984D02*
X8863039Y-14414460D01*
X8863039Y-14414460D02*
X8853515Y-14395412D01*
X8853515Y-14395412D02*
X8853515Y-14223984D01*
X9034468Y-14414460D02*
X9015420Y-14423984D01*
X9015420Y-14423984D02*
X8977325Y-14423984D01*
X8977325Y-14423984D02*
X8958277Y-14414460D01*
X8958277Y-14414460D02*
X8948753Y-14395412D01*
X8948753Y-14395412D02*
X8948753Y-14319222D01*
X8948753Y-14319222D02*
X8958277Y-14300174D01*
X8958277Y-14300174D02*
X8977325Y-14290650D01*
X8977325Y-14290650D02*
X9015420Y-14290650D01*
X9015420Y-14290650D02*
X9034468Y-14300174D01*
X9034468Y-14300174D02*
X9043992Y-14319222D01*
X9043992Y-14319222D02*
X9043992Y-14338269D01*
X9043992Y-14338269D02*
X8948753Y-14357317D01*
X9120182Y-14414460D02*
X9139230Y-14423984D01*
X9139230Y-14423984D02*
X9177325Y-14423984D01*
X9177325Y-14423984D02*
X9196373Y-14414460D01*
X9196373Y-14414460D02*
X9205896Y-14395412D01*
X9205896Y-14395412D02*
X9205896Y-14385888D01*
X9205896Y-14385888D02*
X9196373Y-14366841D01*
X9196373Y-14366841D02*
X9177325Y-14357317D01*
X9177325Y-14357317D02*
X9148753Y-14357317D01*
X9148753Y-14357317D02*
X9129706Y-14347793D01*
X9129706Y-14347793D02*
X9120182Y-14328746D01*
X9120182Y-14328746D02*
X9120182Y-14319222D01*
X9120182Y-14319222D02*
X9129706Y-14300174D01*
X9129706Y-14300174D02*
X9148753Y-14290650D01*
X9148753Y-14290650D02*
X9177325Y-14290650D01*
X9177325Y-14290650D02*
X9196373Y-14300174D01*
X9272563Y-14500174D02*
X9282087Y-14490650D01*
X9282087Y-14490650D02*
X9301134Y-14462079D01*
X9301134Y-14462079D02*
X9310658Y-14443031D01*
X9310658Y-14443031D02*
X9320182Y-14414460D01*
X9320182Y-14414460D02*
X9329706Y-14366841D01*
X9329706Y-14366841D02*
X9329706Y-14328746D01*
X9329706Y-14328746D02*
X9320182Y-14281127D01*
X9320182Y-14281127D02*
X9310658Y-14252555D01*
X9310658Y-14252555D02*
X9301134Y-14233508D01*
X9301134Y-14233508D02*
X9282087Y-14204936D01*
X9282087Y-14204936D02*
X9272563Y-14195412D01*
M02*
