G04 #@! TF.GenerationSoftware,KiCad,Pcbnew,9.0.7+1*
G04 #@! TF.CreationDate,2026-06-05T09:52:22+00:00*
G04 #@! TF.ProjectId,hw-module-xesc,68772d6d-6f64-4756-9c65-2d786573632e,rev?*
G04 #@! TF.SameCoordinates,Original*
G04 #@! TF.FileFunction,Profile,NP*
%FSLAX46Y46*%
G04 Gerber Fmt 4.6, Leading zero omitted, Abs format (unit mm)*
G04 Created by KiCad (PCBNEW 9.0.7+1) date 2026-06-05 09:52:22*
%MOMM*%
%LPD*%
G01*
G04 APERTURE LIST*
G04 #@! TA.AperFunction,Profile*
%ADD10C,0.050000*%
G04 #@! TD*
G04 APERTURE END LIST*
D10*
X45000000Y-25000000D02*
G75*
G02*
X50000000Y-20000000I5000000J0D01*
G01*
X45000000Y-115500000D02*
X45000000Y-25000000D01*
X50000000Y-120500000D02*
G75*
G02*
X45000000Y-115500000I0J5000000D01*
G01*
X50000000Y-120500000D02*
X55800000Y-120500000D01*
X54750000Y-20000000D02*
X50000000Y-20000000D01*
X54750000Y-20000000D02*
G75*
G02*
X55250000Y-20500001I0J-500000D01*
G01*
X55249999Y-24000001D02*
X55250000Y-20500001D01*
X56250000Y-20500000D02*
G75*
G02*
X56750001Y-20000000I500000J0D01*
G01*
X56249999Y-24000001D02*
G75*
G02*
X55250001Y-24000001I-499999J1D01*
G01*
X56249999Y-24000001D02*
X56250000Y-20500000D01*
X59249999Y-20000000D02*
X56750001Y-20000000D01*
X59249999Y-20000000D02*
G75*
G02*
X59750000Y-20500000I1J-500000D01*
G01*
X59750000Y-24000000D02*
X59750000Y-20500000D01*
X60750001Y-20499999D02*
G75*
G02*
X61250002Y-20000001I499999J-1D01*
G01*
X60750000Y-24000000D02*
G75*
G02*
X59750000Y-24000000I-500000J0D01*
G01*
X60750000Y-24000000D02*
X60750001Y-20499999D01*
X63750000Y-19999999D02*
X61250002Y-19999999D01*
X63750000Y-19999999D02*
G75*
G02*
X64250001Y-20499999I0J-500001D01*
G01*
X64250000Y-24000000D02*
X64250000Y-20499999D01*
X65250001Y-20499999D02*
G75*
G02*
X65750002Y-20000001I499999J-1D01*
G01*
X65250000Y-24000000D02*
G75*
G02*
X64250000Y-24000000I-500000J0D01*
G01*
X65250000Y-24000000D02*
X65250001Y-20499999D01*
X68250000Y-19999999D02*
X65750002Y-19999999D01*
X68250000Y-19999999D02*
G75*
G02*
X68750001Y-20499999I0J-500001D01*
G01*
X68750001Y-23999999D02*
X68750001Y-20499999D01*
X69750000Y-20500000D02*
G75*
G02*
X70250001Y-20000000I500000J0D01*
G01*
X69750001Y-24000001D02*
G75*
G02*
X68749999Y-23999999I-500001J1D01*
G01*
X69750001Y-24000001D02*
X69750000Y-20500000D01*
X70250001Y-20000000D02*
X75000000Y-20000000D01*
X75000000Y-20000000D02*
G75*
G02*
X80000000Y-25000000I0J-5000000D01*
G01*
X75000000Y-120500000D02*
X55800000Y-120500000D01*
X80000000Y-25000000D02*
X80000000Y-108400000D01*
X80000000Y-115500000D02*
G75*
G02*
X75000000Y-120500000I-5000000J0D01*
G01*
X80000000Y-115500000D02*
X80000000Y-108400000D01*
M02*
