G04 #@! TF.GenerationSoftware,KiCad,Pcbnew,9.0.7+1*
G04 #@! TF.CreationDate,2026-07-20T18:29:34+00:00*
G04 #@! TF.ProjectId,hw-module-xesc,68772d6d-6f64-4756-9c65-2d786573632e,rev?*
G04 #@! TF.SameCoordinates,Original*
G04 #@! TF.FileFunction,Copper,L1,Top*
G04 #@! TF.FilePolarity,Positive*
%FSLAX46Y46*%
G04 Gerber Fmt 4.6, Leading zero omitted, Abs format (unit mm)*
G04 Created by KiCad (PCBNEW 9.0.7+1) date 2026-07-20 18:29:34*
%MOMM*%
%LPD*%
G01*
G04 APERTURE LIST*
G04 #@! TA.AperFunction,ComponentPad*
%ADD10O,1.950000X1.700000*%
G04 #@! TD*
G04 #@! TA.AperFunction,ComponentPad*
%ADD11R,3.800000X3.800000*%
G04 #@! TD*
G04 #@! TA.AperFunction,ComponentPad*
%ADD12C,3.800000*%
G04 #@! TD*
G04 #@! TA.AperFunction,ComponentPad*
%ADD13C,0.900000*%
G04 #@! TD*
G04 #@! TA.AperFunction,ComponentPad*
%ADD14C,8.600000*%
G04 #@! TD*
G04 #@! TA.AperFunction,ComponentPad*
%ADD15R,2.000000X2.000000*%
G04 #@! TD*
G04 #@! TA.AperFunction,ComponentPad*
%ADD16C,2.000000*%
G04 #@! TD*
G04 #@! TA.AperFunction,ComponentPad*
%ADD17R,2.600000X2.600000*%
G04 #@! TD*
G04 #@! TA.AperFunction,ComponentPad*
%ADD18C,2.600000*%
G04 #@! TD*
G04 #@! TA.AperFunction,ComponentPad*
%ADD19O,3.000000X1.700000*%
G04 #@! TD*
G04 #@! TA.AperFunction,ComponentPad*
%ADD20O,1.700000X3.000000*%
G04 #@! TD*
G04 #@! TA.AperFunction,SMDPad,CuDef*
%ADD21R,4.200000X1.400000*%
G04 #@! TD*
G04 #@! TA.AperFunction,ComponentPad*
%ADD22R,1.700000X1.700000*%
G04 #@! TD*
G04 #@! TA.AperFunction,ComponentPad*
%ADD23O,1.700000X1.700000*%
G04 #@! TD*
G04 #@! TA.AperFunction,ViaPad*
%ADD24C,0.600000*%
G04 #@! TD*
G04 #@! TA.AperFunction,Conductor*
%ADD25C,0.300000*%
G04 #@! TD*
G04 #@! TA.AperFunction,Conductor*
%ADD26C,0.500000*%
G04 #@! TD*
G04 #@! TA.AperFunction,Conductor*
%ADD27C,0.200000*%
G04 #@! TD*
G04 #@! TA.AperFunction,Conductor*
%ADD28C,1.000000*%
G04 #@! TD*
G04 APERTURE END LIST*
G04 #@! TA.AperFunction,SMDPad,CuDef*
G36*
G01*
X62232500Y-73432500D02*
X61862500Y-73432500D01*
G75*
G02*
X61727500Y-73297500I0J135000D01*
G01*
X61727500Y-73027500D01*
G75*
G02*
X61862500Y-72892500I135000J0D01*
G01*
X62232500Y-72892500D01*
G75*
G02*
X62367500Y-73027500I0J-135000D01*
G01*
X62367500Y-73297500D01*
G75*
G02*
X62232500Y-73432500I-135000J0D01*
G01*
G37*
G04 #@! TD.AperFunction*
G04 #@! TA.AperFunction,SMDPad,CuDef*
G36*
G01*
X62232500Y-72412500D02*
X61862500Y-72412500D01*
G75*
G02*
X61727500Y-72277500I0J135000D01*
G01*
X61727500Y-72007500D01*
G75*
G02*
X61862500Y-71872500I135000J0D01*
G01*
X62232500Y-71872500D01*
G75*
G02*
X62367500Y-72007500I0J-135000D01*
G01*
X62367500Y-72277500D01*
G75*
G02*
X62232500Y-72412500I-135000J0D01*
G01*
G37*
G04 #@! TD.AperFunction*
G04 #@! TA.AperFunction,SMDPad,CuDef*
G36*
G01*
X55100000Y-51050000D02*
X55100000Y-49250000D01*
G75*
G02*
X55350000Y-49000000I250000J0D01*
G01*
X57350000Y-49000000D01*
G75*
G02*
X57600000Y-49250000I0J-250000D01*
G01*
X57600000Y-51050000D01*
G75*
G02*
X57350000Y-51300000I-250000J0D01*
G01*
X55350000Y-51300000D01*
G75*
G02*
X55100000Y-51050000I0J250000D01*
G01*
G37*
G04 #@! TD.AperFunction*
G04 #@! TA.AperFunction,SMDPad,CuDef*
G36*
G01*
X59400000Y-51050000D02*
X59400000Y-49250000D01*
G75*
G02*
X59650000Y-49000000I250000J0D01*
G01*
X61650000Y-49000000D01*
G75*
G02*
X61900000Y-49250000I0J-250000D01*
G01*
X61900000Y-51050000D01*
G75*
G02*
X61650000Y-51300000I-250000J0D01*
G01*
X59650000Y-51300000D01*
G75*
G02*
X59400000Y-51050000I0J250000D01*
G01*
G37*
G04 #@! TD.AperFunction*
G04 #@! TA.AperFunction,SMDPad,CuDef*
G36*
G01*
X69800000Y-61000000D02*
X69800000Y-62300000D01*
G75*
G02*
X69550000Y-62550000I-250000J0D01*
G01*
X68900000Y-62550000D01*
G75*
G02*
X68650000Y-62300000I0J250000D01*
G01*
X68650000Y-61000000D01*
G75*
G02*
X68900000Y-60750000I250000J0D01*
G01*
X69550000Y-60750000D01*
G75*
G02*
X69800000Y-61000000I0J-250000D01*
G01*
G37*
G04 #@! TD.AperFunction*
G04 #@! TA.AperFunction,SMDPad,CuDef*
G36*
G01*
X66850000Y-61000000D02*
X66850000Y-62300000D01*
G75*
G02*
X66600000Y-62550000I-250000J0D01*
G01*
X65950000Y-62550000D01*
G75*
G02*
X65700000Y-62300000I0J250000D01*
G01*
X65700000Y-61000000D01*
G75*
G02*
X65950000Y-60750000I250000J0D01*
G01*
X66600000Y-60750000D01*
G75*
G02*
X66850000Y-61000000I0J-250000D01*
G01*
G37*
G04 #@! TD.AperFunction*
G04 #@! TA.AperFunction,SMDPad,CuDef*
G36*
G01*
X70597500Y-79302500D02*
X69697500Y-79302500D01*
G75*
G02*
X69447500Y-79052500I0J250000D01*
G01*
X69447500Y-78252500D01*
G75*
G02*
X69697500Y-78002500I250000J0D01*
G01*
X70597500Y-78002500D01*
G75*
G02*
X70847500Y-78252500I0J-250000D01*
G01*
X70847500Y-79052500D01*
G75*
G02*
X70597500Y-79302500I-250000J0D01*
G01*
G37*
G04 #@! TD.AperFunction*
G04 #@! TA.AperFunction,SMDPad,CuDef*
G36*
G01*
X70597500Y-76402500D02*
X69697500Y-76402500D01*
G75*
G02*
X69447500Y-76152500I0J250000D01*
G01*
X69447500Y-75352500D01*
G75*
G02*
X69697500Y-75102500I250000J0D01*
G01*
X70597500Y-75102500D01*
G75*
G02*
X70847500Y-75352500I0J-250000D01*
G01*
X70847500Y-76152500D01*
G75*
G02*
X70597500Y-76402500I-250000J0D01*
G01*
G37*
G04 #@! TD.AperFunction*
G04 #@! TA.AperFunction,SMDPad,CuDef*
G36*
G01*
X70622500Y-83252500D02*
X69672500Y-83252500D01*
G75*
G02*
X69422500Y-83002500I0J250000D01*
G01*
X69422500Y-82502500D01*
G75*
G02*
X69672500Y-82252500I250000J0D01*
G01*
X70622500Y-82252500D01*
G75*
G02*
X70872500Y-82502500I0J-250000D01*
G01*
X70872500Y-83002500D01*
G75*
G02*
X70622500Y-83252500I-250000J0D01*
G01*
G37*
G04 #@! TD.AperFunction*
G04 #@! TA.AperFunction,SMDPad,CuDef*
G36*
G01*
X70622500Y-81352500D02*
X69672500Y-81352500D01*
G75*
G02*
X69422500Y-81102500I0J250000D01*
G01*
X69422500Y-80602500D01*
G75*
G02*
X69672500Y-80352500I250000J0D01*
G01*
X70622500Y-80352500D01*
G75*
G02*
X70872500Y-80602500I0J-250000D01*
G01*
X70872500Y-81102500D01*
G75*
G02*
X70622500Y-81352500I-250000J0D01*
G01*
G37*
G04 #@! TD.AperFunction*
G04 #@! TA.AperFunction,SMDPad,CuDef*
G36*
G01*
X69456250Y-112925001D02*
X68543750Y-112925001D01*
G75*
G02*
X68300000Y-112681251I0J243750D01*
G01*
X68300000Y-112193751D01*
G75*
G02*
X68543750Y-111950001I243750J0D01*
G01*
X69456250Y-111950001D01*
G75*
G02*
X69700000Y-112193751I0J-243750D01*
G01*
X69700000Y-112681251D01*
G75*
G02*
X69456250Y-112925001I-243750J0D01*
G01*
G37*
G04 #@! TD.AperFunction*
G04 #@! TA.AperFunction,SMDPad,CuDef*
G36*
G01*
X69456250Y-111049999D02*
X68543750Y-111049999D01*
G75*
G02*
X68300000Y-110806249I0J243750D01*
G01*
X68300000Y-110318749D01*
G75*
G02*
X68543750Y-110074999I243750J0D01*
G01*
X69456250Y-110074999D01*
G75*
G02*
X69700000Y-110318749I0J-243750D01*
G01*
X69700000Y-110806249D01*
G75*
G02*
X69456250Y-111049999I-243750J0D01*
G01*
G37*
G04 #@! TD.AperFunction*
G04 #@! TA.AperFunction,SMDPad,CuDef*
G36*
G01*
X66249999Y-92400000D02*
X66249999Y-91100000D01*
G75*
G02*
X66499999Y-90850000I250000J0D01*
G01*
X68499999Y-90850000D01*
G75*
G02*
X68749999Y-91100000I0J-250000D01*
G01*
X68749999Y-92400000D01*
G75*
G02*
X68499999Y-92650000I-250000J0D01*
G01*
X66499999Y-92650000D01*
G75*
G02*
X66249999Y-92400000I0J250000D01*
G01*
G37*
G04 #@! TD.AperFunction*
G04 #@! TA.AperFunction,SMDPad,CuDef*
G36*
G01*
X70250001Y-92400000D02*
X70250001Y-91100000D01*
G75*
G02*
X70500001Y-90850000I250000J0D01*
G01*
X72500001Y-90850000D01*
G75*
G02*
X72750001Y-91100000I0J-250000D01*
G01*
X72750001Y-92400000D01*
G75*
G02*
X72500001Y-92650000I-250000J0D01*
G01*
X70500001Y-92650000D01*
G75*
G02*
X70250001Y-92400000I0J250000D01*
G01*
G37*
G04 #@! TD.AperFunction*
G04 #@! TA.AperFunction,SMDPad,CuDef*
G36*
G01*
X55200000Y-64800000D02*
X55200000Y-63500000D01*
G75*
G02*
X55450000Y-63250000I250000J0D01*
G01*
X56100000Y-63250000D01*
G75*
G02*
X56350000Y-63500000I0J-250000D01*
G01*
X56350000Y-64800000D01*
G75*
G02*
X56100000Y-65050000I-250000J0D01*
G01*
X55450000Y-65050000D01*
G75*
G02*
X55200000Y-64800000I0J250000D01*
G01*
G37*
G04 #@! TD.AperFunction*
G04 #@! TA.AperFunction,SMDPad,CuDef*
G36*
G01*
X58150000Y-64800000D02*
X58150000Y-63500000D01*
G75*
G02*
X58400000Y-63250000I250000J0D01*
G01*
X59050000Y-63250000D01*
G75*
G02*
X59300000Y-63500000I0J-250000D01*
G01*
X59300000Y-64800000D01*
G75*
G02*
X59050000Y-65050000I-250000J0D01*
G01*
X58400000Y-65050000D01*
G75*
G02*
X58150000Y-64800000I0J250000D01*
G01*
G37*
G04 #@! TD.AperFunction*
G04 #@! TA.AperFunction,SMDPad,CuDef*
G36*
G01*
X69400000Y-57200001D02*
X68100000Y-57200001D01*
G75*
G02*
X67850000Y-56950001I0J250000D01*
G01*
X67850000Y-56300001D01*
G75*
G02*
X68100000Y-56050001I250000J0D01*
G01*
X69400000Y-56050001D01*
G75*
G02*
X69650000Y-56300001I0J-250000D01*
G01*
X69650000Y-56950001D01*
G75*
G02*
X69400000Y-57200001I-250000J0D01*
G01*
G37*
G04 #@! TD.AperFunction*
G04 #@! TA.AperFunction,SMDPad,CuDef*
G36*
G01*
X69400000Y-54249999D02*
X68100000Y-54249999D01*
G75*
G02*
X67850000Y-53999999I0J250000D01*
G01*
X67850000Y-53349999D01*
G75*
G02*
X68100000Y-53099999I250000J0D01*
G01*
X69400000Y-53099999D01*
G75*
G02*
X69650000Y-53349999I0J-250000D01*
G01*
X69650000Y-53999999D01*
G75*
G02*
X69400000Y-54249999I-250000J0D01*
G01*
G37*
G04 #@! TD.AperFunction*
G04 #@! TA.AperFunction,SMDPad,CuDef*
G36*
G01*
X55200000Y-67300000D02*
X55200000Y-66000000D01*
G75*
G02*
X55450000Y-65750000I250000J0D01*
G01*
X56100000Y-65750000D01*
G75*
G02*
X56350000Y-66000000I0J-250000D01*
G01*
X56350000Y-67300000D01*
G75*
G02*
X56100000Y-67550000I-250000J0D01*
G01*
X55450000Y-67550000D01*
G75*
G02*
X55200000Y-67300000I0J250000D01*
G01*
G37*
G04 #@! TD.AperFunction*
G04 #@! TA.AperFunction,SMDPad,CuDef*
G36*
G01*
X58150000Y-67300000D02*
X58150000Y-66000000D01*
G75*
G02*
X58400000Y-65750000I250000J0D01*
G01*
X59050000Y-65750000D01*
G75*
G02*
X59300000Y-66000000I0J-250000D01*
G01*
X59300000Y-67300000D01*
G75*
G02*
X59050000Y-67550000I-250000J0D01*
G01*
X58400000Y-67550000D01*
G75*
G02*
X58150000Y-67300000I0J250000D01*
G01*
G37*
G04 #@! TD.AperFunction*
G04 #@! TA.AperFunction,SMDPad,CuDef*
G36*
G01*
X57949998Y-95650000D02*
X57949998Y-93850000D01*
G75*
G02*
X58199998Y-93600000I250000J0D01*
G01*
X60199998Y-93600000D01*
G75*
G02*
X60449998Y-93850000I0J-250000D01*
G01*
X60449998Y-95650000D01*
G75*
G02*
X60199998Y-95900000I-250000J0D01*
G01*
X58199998Y-95900000D01*
G75*
G02*
X57949998Y-95650000I0J250000D01*
G01*
G37*
G04 #@! TD.AperFunction*
G04 #@! TA.AperFunction,SMDPad,CuDef*
G36*
G01*
X62250000Y-95650000D02*
X62250000Y-93850000D01*
G75*
G02*
X62500000Y-93600000I250000J0D01*
G01*
X64500000Y-93600000D01*
G75*
G02*
X64750000Y-93850000I0J-250000D01*
G01*
X64750000Y-95650000D01*
G75*
G02*
X64500000Y-95900000I-250000J0D01*
G01*
X62500000Y-95900000D01*
G75*
G02*
X62250000Y-95650000I0J250000D01*
G01*
G37*
G04 #@! TD.AperFunction*
G04 #@! TA.AperFunction,SMDPad,CuDef*
G36*
G01*
X77425000Y-34650000D02*
X77425000Y-35550000D01*
G75*
G02*
X77175000Y-35800000I-250000J0D01*
G01*
X76650000Y-35800000D01*
G75*
G02*
X76400000Y-35550000I0J250000D01*
G01*
X76400000Y-34650000D01*
G75*
G02*
X76650000Y-34400000I250000J0D01*
G01*
X77175000Y-34400000D01*
G75*
G02*
X77425000Y-34650000I0J-250000D01*
G01*
G37*
G04 #@! TD.AperFunction*
G04 #@! TA.AperFunction,SMDPad,CuDef*
G36*
G01*
X75600000Y-34650000D02*
X75600000Y-35550000D01*
G75*
G02*
X75350000Y-35800000I-250000J0D01*
G01*
X74825000Y-35800000D01*
G75*
G02*
X74575000Y-35550000I0J250000D01*
G01*
X74575000Y-34650000D01*
G75*
G02*
X74825000Y-34400000I250000J0D01*
G01*
X75350000Y-34400000D01*
G75*
G02*
X75600000Y-34650000I0J-250000D01*
G01*
G37*
G04 #@! TD.AperFunction*
G04 #@! TA.AperFunction,SMDPad,CuDef*
G36*
G01*
X62850000Y-51050000D02*
X62850000Y-49250000D01*
G75*
G02*
X63100000Y-49000000I250000J0D01*
G01*
X65100000Y-49000000D01*
G75*
G02*
X65350000Y-49250000I0J-250000D01*
G01*
X65350000Y-51050000D01*
G75*
G02*
X65100000Y-51300000I-250000J0D01*
G01*
X63100000Y-51300000D01*
G75*
G02*
X62850000Y-51050000I0J250000D01*
G01*
G37*
G04 #@! TD.AperFunction*
G04 #@! TA.AperFunction,SMDPad,CuDef*
G36*
G01*
X67150000Y-51050000D02*
X67150000Y-49250000D01*
G75*
G02*
X67400000Y-49000000I250000J0D01*
G01*
X69400000Y-49000000D01*
G75*
G02*
X69650000Y-49250000I0J-250000D01*
G01*
X69650000Y-51050000D01*
G75*
G02*
X69400000Y-51300000I-250000J0D01*
G01*
X67400000Y-51300000D01*
G75*
G02*
X67150000Y-51050000I0J250000D01*
G01*
G37*
G04 #@! TD.AperFunction*
G04 #@! TA.AperFunction,SMDPad,CuDef*
G36*
G01*
X55200000Y-62300000D02*
X55200000Y-61000000D01*
G75*
G02*
X55450000Y-60750000I250000J0D01*
G01*
X56100000Y-60750000D01*
G75*
G02*
X56350000Y-61000000I0J-250000D01*
G01*
X56350000Y-62300000D01*
G75*
G02*
X56100000Y-62550000I-250000J0D01*
G01*
X55450000Y-62550000D01*
G75*
G02*
X55200000Y-62300000I0J250000D01*
G01*
G37*
G04 #@! TD.AperFunction*
G04 #@! TA.AperFunction,SMDPad,CuDef*
G36*
G01*
X58150000Y-62300000D02*
X58150000Y-61000000D01*
G75*
G02*
X58400000Y-60750000I250000J0D01*
G01*
X59050000Y-60750000D01*
G75*
G02*
X59300000Y-61000000I0J-250000D01*
G01*
X59300000Y-62300000D01*
G75*
G02*
X59050000Y-62550000I-250000J0D01*
G01*
X58400000Y-62550000D01*
G75*
G02*
X58150000Y-62300000I0J250000D01*
G01*
G37*
G04 #@! TD.AperFunction*
G04 #@! TA.AperFunction,ComponentPad*
G36*
G01*
X72225000Y-107350000D02*
X70775000Y-107350000D01*
G75*
G02*
X70525000Y-107100000I0J250000D01*
G01*
X70525000Y-105900000D01*
G75*
G02*
X70775000Y-105650000I250000J0D01*
G01*
X72225000Y-105650000D01*
G75*
G02*
X72475000Y-105900000I0J-250000D01*
G01*
X72475000Y-107100000D01*
G75*
G02*
X72225000Y-107350000I-250000J0D01*
G01*
G37*
G04 #@! TD.AperFunction*
D10*
X71500000Y-104000000D03*
X71500000Y-101500000D03*
X71500000Y-99000000D03*
X71500000Y-96500000D03*
G04 #@! TA.AperFunction,SMDPad,CuDef*
G36*
G01*
X63422500Y-72727500D02*
X63422500Y-72177500D01*
G75*
G02*
X63622500Y-71977500I200000J0D01*
G01*
X64022500Y-71977500D01*
G75*
G02*
X64222500Y-72177500I0J-200000D01*
G01*
X64222500Y-72727500D01*
G75*
G02*
X64022500Y-72927500I-200000J0D01*
G01*
X63622500Y-72927500D01*
G75*
G02*
X63422500Y-72727500I0J200000D01*
G01*
G37*
G04 #@! TD.AperFunction*
G04 #@! TA.AperFunction,SMDPad,CuDef*
G36*
G01*
X65072500Y-72727500D02*
X65072500Y-72177500D01*
G75*
G02*
X65272500Y-71977500I200000J0D01*
G01*
X65672500Y-71977500D01*
G75*
G02*
X65872500Y-72177500I0J-200000D01*
G01*
X65872500Y-72727500D01*
G75*
G02*
X65672500Y-72927500I-200000J0D01*
G01*
X65272500Y-72927500D01*
G75*
G02*
X65072500Y-72727500I0J200000D01*
G01*
G37*
G04 #@! TD.AperFunction*
D11*
X47900000Y-105750000D03*
D12*
X52900000Y-105750000D03*
G04 #@! TA.AperFunction,SMDPad,CuDef*
G36*
G01*
X60847500Y-75402500D02*
X62147500Y-75402500D01*
G75*
G02*
X62397500Y-75652500I0J-250000D01*
G01*
X62397500Y-76302500D01*
G75*
G02*
X62147500Y-76552500I-250000J0D01*
G01*
X60847500Y-76552500D01*
G75*
G02*
X60597500Y-76302500I0J250000D01*
G01*
X60597500Y-75652500D01*
G75*
G02*
X60847500Y-75402500I250000J0D01*
G01*
G37*
G04 #@! TD.AperFunction*
G04 #@! TA.AperFunction,SMDPad,CuDef*
G36*
G01*
X60847500Y-78352500D02*
X62147500Y-78352500D01*
G75*
G02*
X62397500Y-78602500I0J-250000D01*
G01*
X62397500Y-79252500D01*
G75*
G02*
X62147500Y-79502500I-250000J0D01*
G01*
X60847500Y-79502500D01*
G75*
G02*
X60597500Y-79252500I0J250000D01*
G01*
X60597500Y-78602500D01*
G75*
G02*
X60847500Y-78352500I250000J0D01*
G01*
G37*
G04 #@! TD.AperFunction*
G04 #@! TA.AperFunction,SMDPad,CuDef*
G36*
G01*
X59100000Y-55800000D02*
X59100000Y-54000000D01*
G75*
G02*
X59350000Y-53750000I250000J0D01*
G01*
X61350000Y-53750000D01*
G75*
G02*
X61600000Y-54000000I0J-250000D01*
G01*
X61600000Y-55800000D01*
G75*
G02*
X61350000Y-56050000I-250000J0D01*
G01*
X59350000Y-56050000D01*
G75*
G02*
X59100000Y-55800000I0J250000D01*
G01*
G37*
G04 #@! TD.AperFunction*
G04 #@! TA.AperFunction,SMDPad,CuDef*
G36*
G01*
X63400000Y-55800000D02*
X63400000Y-54000000D01*
G75*
G02*
X63650000Y-53750000I250000J0D01*
G01*
X65650000Y-53750000D01*
G75*
G02*
X65900000Y-54000000I0J-250000D01*
G01*
X65900000Y-55800000D01*
G75*
G02*
X65650000Y-56050000I-250000J0D01*
G01*
X63650000Y-56050000D01*
G75*
G02*
X63400000Y-55800000I0J250000D01*
G01*
G37*
G04 #@! TD.AperFunction*
G04 #@! TA.AperFunction,SMDPad,CuDef*
G36*
G01*
X55199999Y-59800000D02*
X55199999Y-58500000D01*
G75*
G02*
X55449999Y-58250000I250000J0D01*
G01*
X56099999Y-58250000D01*
G75*
G02*
X56349999Y-58500000I0J-250000D01*
G01*
X56349999Y-59800000D01*
G75*
G02*
X56099999Y-60050000I-250000J0D01*
G01*
X55449999Y-60050000D01*
G75*
G02*
X55199999Y-59800000I0J250000D01*
G01*
G37*
G04 #@! TD.AperFunction*
G04 #@! TA.AperFunction,SMDPad,CuDef*
G36*
G01*
X58150001Y-59800000D02*
X58150001Y-58500000D01*
G75*
G02*
X58400001Y-58250000I250000J0D01*
G01*
X59050001Y-58250000D01*
G75*
G02*
X59300001Y-58500000I0J-250000D01*
G01*
X59300001Y-59800000D01*
G75*
G02*
X59050001Y-60050000I-250000J0D01*
G01*
X58400001Y-60050000D01*
G75*
G02*
X58150001Y-59800000I0J250000D01*
G01*
G37*
G04 #@! TD.AperFunction*
G04 #@! TA.AperFunction,SMDPad,CuDef*
G36*
G01*
X69800000Y-66000000D02*
X69800000Y-67300000D01*
G75*
G02*
X69550000Y-67550000I-250000J0D01*
G01*
X68900000Y-67550000D01*
G75*
G02*
X68650000Y-67300000I0J250000D01*
G01*
X68650000Y-66000000D01*
G75*
G02*
X68900000Y-65750000I250000J0D01*
G01*
X69550000Y-65750000D01*
G75*
G02*
X69800000Y-66000000I0J-250000D01*
G01*
G37*
G04 #@! TD.AperFunction*
G04 #@! TA.AperFunction,SMDPad,CuDef*
G36*
G01*
X66850000Y-66000000D02*
X66850000Y-67300000D01*
G75*
G02*
X66600000Y-67550000I-250000J0D01*
G01*
X65950000Y-67550000D01*
G75*
G02*
X65700000Y-67300000I0J250000D01*
G01*
X65700000Y-66000000D01*
G75*
G02*
X65950000Y-65750000I250000J0D01*
G01*
X66600000Y-65750000D01*
G75*
G02*
X66850000Y-66000000I0J-250000D01*
G01*
G37*
G04 #@! TD.AperFunction*
D13*
X46775000Y-25000000D03*
X47719581Y-22719581D03*
X47719581Y-27280419D03*
X50000000Y-21775000D03*
D14*
X50000000Y-25000000D03*
D13*
X50000000Y-28225000D03*
X52280419Y-22719581D03*
X52280419Y-27280419D03*
X53225000Y-25000000D03*
D15*
X59382323Y-103250000D03*
D16*
X64382323Y-103250000D03*
G04 #@! TA.AperFunction,SMDPad,CuDef*
G36*
G01*
X68550000Y-113825000D02*
X69450000Y-113825000D01*
G75*
G02*
X69700000Y-114075000I0J-250000D01*
G01*
X69700000Y-114600000D01*
G75*
G02*
X69450000Y-114850000I-250000J0D01*
G01*
X68550000Y-114850000D01*
G75*
G02*
X68300000Y-114600000I0J250000D01*
G01*
X68300000Y-114075000D01*
G75*
G02*
X68550000Y-113825000I250000J0D01*
G01*
G37*
G04 #@! TD.AperFunction*
G04 #@! TA.AperFunction,SMDPad,CuDef*
G36*
G01*
X68550000Y-115650000D02*
X69450000Y-115650000D01*
G75*
G02*
X69700000Y-115900000I0J-250000D01*
G01*
X69700000Y-116425000D01*
G75*
G02*
X69450000Y-116675000I-250000J0D01*
G01*
X68550000Y-116675000D01*
G75*
G02*
X68300000Y-116425000I0J250000D01*
G01*
X68300000Y-115900000D01*
G75*
G02*
X68550000Y-115650000I250000J0D01*
G01*
G37*
G04 #@! TD.AperFunction*
G04 #@! TA.AperFunction,SMDPad,CuDef*
G36*
G01*
X66672500Y-72727500D02*
X66672500Y-72177500D01*
G75*
G02*
X66872500Y-71977500I200000J0D01*
G01*
X67272500Y-71977500D01*
G75*
G02*
X67472500Y-72177500I0J-200000D01*
G01*
X67472500Y-72727500D01*
G75*
G02*
X67272500Y-72927500I-200000J0D01*
G01*
X66872500Y-72927500D01*
G75*
G02*
X66672500Y-72727500I0J200000D01*
G01*
G37*
G04 #@! TD.AperFunction*
G04 #@! TA.AperFunction,SMDPad,CuDef*
G36*
G01*
X68322500Y-72727500D02*
X68322500Y-72177500D01*
G75*
G02*
X68522500Y-71977500I200000J0D01*
G01*
X68922500Y-71977500D01*
G75*
G02*
X69122500Y-72177500I0J-200000D01*
G01*
X69122500Y-72727500D01*
G75*
G02*
X68922500Y-72927500I-200000J0D01*
G01*
X68522500Y-72927500D01*
G75*
G02*
X68322500Y-72727500I0J200000D01*
G01*
G37*
G04 #@! TD.AperFunction*
G04 #@! TA.AperFunction,SMDPad,CuDef*
G36*
G01*
X69800000Y-58500000D02*
X69800000Y-59800000D01*
G75*
G02*
X69550000Y-60050000I-250000J0D01*
G01*
X68900000Y-60050000D01*
G75*
G02*
X68650000Y-59800000I0J250000D01*
G01*
X68650000Y-58500000D01*
G75*
G02*
X68900000Y-58250000I250000J0D01*
G01*
X69550000Y-58250000D01*
G75*
G02*
X69800000Y-58500000I0J-250000D01*
G01*
G37*
G04 #@! TD.AperFunction*
G04 #@! TA.AperFunction,SMDPad,CuDef*
G36*
G01*
X66850000Y-58500000D02*
X66850000Y-59800000D01*
G75*
G02*
X66600000Y-60050000I-250000J0D01*
G01*
X65950000Y-60050000D01*
G75*
G02*
X65700000Y-59800000I0J250000D01*
G01*
X65700000Y-58500000D01*
G75*
G02*
X65950000Y-58250000I250000J0D01*
G01*
X66600000Y-58250000D01*
G75*
G02*
X66850000Y-58500000I0J-250000D01*
G01*
G37*
G04 #@! TD.AperFunction*
G04 #@! TA.AperFunction,SMDPad,CuDef*
G36*
G01*
X62122500Y-83252500D02*
X61172500Y-83252500D01*
G75*
G02*
X60922500Y-83002500I0J250000D01*
G01*
X60922500Y-82502500D01*
G75*
G02*
X61172500Y-82252500I250000J0D01*
G01*
X62122500Y-82252500D01*
G75*
G02*
X62372500Y-82502500I0J-250000D01*
G01*
X62372500Y-83002500D01*
G75*
G02*
X62122500Y-83252500I-250000J0D01*
G01*
G37*
G04 #@! TD.AperFunction*
G04 #@! TA.AperFunction,SMDPad,CuDef*
G36*
G01*
X62122500Y-81352500D02*
X61172500Y-81352500D01*
G75*
G02*
X60922500Y-81102500I0J250000D01*
G01*
X60922500Y-80602500D01*
G75*
G02*
X61172500Y-80352500I250000J0D01*
G01*
X62122500Y-80352500D01*
G75*
G02*
X62372500Y-80602500I0J-250000D01*
G01*
X62372500Y-81102500D01*
G75*
G02*
X62122500Y-81352500I-250000J0D01*
G01*
G37*
G04 #@! TD.AperFunction*
D15*
X59382323Y-114500000D03*
D16*
X64382323Y-114500000D03*
G04 #@! TA.AperFunction,SMDPad,CuDef*
G36*
G01*
X79050000Y-90925000D02*
X78550000Y-90925000D01*
G75*
G02*
X78325000Y-90700000I0J225000D01*
G01*
X78325000Y-90250000D01*
G75*
G02*
X78550000Y-90025000I225000J0D01*
G01*
X79050000Y-90025000D01*
G75*
G02*
X79275000Y-90250000I0J-225000D01*
G01*
X79275000Y-90700000D01*
G75*
G02*
X79050000Y-90925000I-225000J0D01*
G01*
G37*
G04 #@! TD.AperFunction*
G04 #@! TA.AperFunction,SMDPad,CuDef*
G36*
G01*
X79050000Y-89375000D02*
X78550000Y-89375000D01*
G75*
G02*
X78325000Y-89150000I0J225000D01*
G01*
X78325000Y-88700000D01*
G75*
G02*
X78550000Y-88475000I225000J0D01*
G01*
X79050000Y-88475000D01*
G75*
G02*
X79275000Y-88700000I0J-225000D01*
G01*
X79275000Y-89150000D01*
G75*
G02*
X79050000Y-89375000I-225000J0D01*
G01*
G37*
G04 #@! TD.AperFunction*
G04 #@! TA.AperFunction,SMDPad,CuDef*
G36*
G01*
X66947500Y-76152500D02*
X66947500Y-76452500D01*
G75*
G02*
X66797500Y-76602500I-150000J0D01*
G01*
X65772500Y-76602500D01*
G75*
G02*
X65622500Y-76452500I0J150000D01*
G01*
X65622500Y-76152500D01*
G75*
G02*
X65772500Y-76002500I150000J0D01*
G01*
X66797500Y-76002500D01*
G75*
G02*
X66947500Y-76152500I0J-150000D01*
G01*
G37*
G04 #@! TD.AperFunction*
G04 #@! TA.AperFunction,SMDPad,CuDef*
G36*
G01*
X66947500Y-75202500D02*
X66947500Y-75502500D01*
G75*
G02*
X66797500Y-75652500I-150000J0D01*
G01*
X65772500Y-75652500D01*
G75*
G02*
X65622500Y-75502500I0J150000D01*
G01*
X65622500Y-75202500D01*
G75*
G02*
X65772500Y-75052500I150000J0D01*
G01*
X66797500Y-75052500D01*
G75*
G02*
X66947500Y-75202500I0J-150000D01*
G01*
G37*
G04 #@! TD.AperFunction*
G04 #@! TA.AperFunction,SMDPad,CuDef*
G36*
G01*
X66947500Y-74252500D02*
X66947500Y-74552500D01*
G75*
G02*
X66797500Y-74702500I-150000J0D01*
G01*
X65772500Y-74702500D01*
G75*
G02*
X65622500Y-74552500I0J150000D01*
G01*
X65622500Y-74252500D01*
G75*
G02*
X65772500Y-74102500I150000J0D01*
G01*
X66797500Y-74102500D01*
G75*
G02*
X66947500Y-74252500I0J-150000D01*
G01*
G37*
G04 #@! TD.AperFunction*
G04 #@! TA.AperFunction,SMDPad,CuDef*
G36*
G01*
X64672500Y-74252500D02*
X64672500Y-74552500D01*
G75*
G02*
X64522500Y-74702500I-150000J0D01*
G01*
X63497500Y-74702500D01*
G75*
G02*
X63347500Y-74552500I0J150000D01*
G01*
X63347500Y-74252500D01*
G75*
G02*
X63497500Y-74102500I150000J0D01*
G01*
X64522500Y-74102500D01*
G75*
G02*
X64672500Y-74252500I0J-150000D01*
G01*
G37*
G04 #@! TD.AperFunction*
G04 #@! TA.AperFunction,SMDPad,CuDef*
G36*
G01*
X64672500Y-75202500D02*
X64672500Y-75502500D01*
G75*
G02*
X64522500Y-75652500I-150000J0D01*
G01*
X63497500Y-75652500D01*
G75*
G02*
X63347500Y-75502500I0J150000D01*
G01*
X63347500Y-75202500D01*
G75*
G02*
X63497500Y-75052500I150000J0D01*
G01*
X64522500Y-75052500D01*
G75*
G02*
X64672500Y-75202500I0J-150000D01*
G01*
G37*
G04 #@! TD.AperFunction*
G04 #@! TA.AperFunction,SMDPad,CuDef*
G36*
G01*
X64672500Y-76152500D02*
X64672500Y-76452500D01*
G75*
G02*
X64522500Y-76602500I-150000J0D01*
G01*
X63497500Y-76602500D01*
G75*
G02*
X63347500Y-76452500I0J150000D01*
G01*
X63347500Y-76152500D01*
G75*
G02*
X63497500Y-76002500I150000J0D01*
G01*
X64522500Y-76002500D01*
G75*
G02*
X64672500Y-76152500I0J-150000D01*
G01*
G37*
G04 #@! TD.AperFunction*
D17*
X49695000Y-93955000D03*
D18*
X49695000Y-99035000D03*
D19*
X49310000Y-85175000D03*
X49310000Y-82635000D03*
X49310000Y-77555000D03*
X49310000Y-75015000D03*
X49310000Y-72475000D03*
X49310000Y-80095000D03*
X49310000Y-49615000D03*
X75710000Y-49615000D03*
X49310000Y-47075000D03*
X75710000Y-47075000D03*
X49310000Y-69935000D03*
X75710000Y-87715000D03*
X75710000Y-85175000D03*
X75710000Y-82635000D03*
X75710000Y-80095000D03*
X49310000Y-87715000D03*
X75710000Y-77555000D03*
X49310000Y-67395000D03*
X49310000Y-44535000D03*
X75710000Y-44535000D03*
X49310000Y-41995000D03*
X75710000Y-41995000D03*
D20*
X68860000Y-45035000D03*
X71400000Y-45035000D03*
X68860000Y-41495000D03*
X71400000Y-41495000D03*
X61240000Y-45035000D03*
X63780000Y-45035000D03*
X61240000Y-41495000D03*
X63780000Y-41495000D03*
D19*
X49310000Y-54695000D03*
X75710000Y-54695000D03*
X49310000Y-52155000D03*
X75710000Y-52155000D03*
D20*
X53620000Y-45035000D03*
X56160000Y-45035000D03*
X53620000Y-41495000D03*
X56160000Y-41495000D03*
G04 #@! TA.AperFunction,SMDPad,CuDef*
G36*
G01*
X69800000Y-63500000D02*
X69800000Y-64800000D01*
G75*
G02*
X69550000Y-65050000I-250000J0D01*
G01*
X68900000Y-65050000D01*
G75*
G02*
X68650000Y-64800000I0J250000D01*
G01*
X68650000Y-63500000D01*
G75*
G02*
X68900000Y-63250000I250000J0D01*
G01*
X69550000Y-63250000D01*
G75*
G02*
X69800000Y-63500000I0J-250000D01*
G01*
G37*
G04 #@! TD.AperFunction*
G04 #@! TA.AperFunction,SMDPad,CuDef*
G36*
G01*
X66850000Y-63500000D02*
X66850000Y-64800000D01*
G75*
G02*
X66600000Y-65050000I-250000J0D01*
G01*
X65950000Y-65050000D01*
G75*
G02*
X65700000Y-64800000I0J250000D01*
G01*
X65700000Y-63500000D01*
G75*
G02*
X65950000Y-63250000I250000J0D01*
G01*
X66600000Y-63250000D01*
G75*
G02*
X66850000Y-63500000I0J-250000D01*
G01*
G37*
G04 #@! TD.AperFunction*
D13*
X46775000Y-115500000D03*
X47719581Y-113219581D03*
X47719581Y-117780419D03*
X50000000Y-112275000D03*
D14*
X50000000Y-115500000D03*
D13*
X50000000Y-118725000D03*
X52280419Y-113219581D03*
X52280419Y-117780419D03*
X53225000Y-115500000D03*
D21*
X65847500Y-78852500D03*
X65847500Y-82552500D03*
D13*
X71775000Y-115500000D03*
X72719581Y-113219581D03*
X72719581Y-117780419D03*
X75000000Y-112275000D03*
D14*
X75000000Y-115500000D03*
D13*
X75000000Y-118725000D03*
X77280419Y-113219581D03*
X77280419Y-117780419D03*
X78225000Y-115500000D03*
G04 #@! TA.AperFunction,SMDPad,CuDef*
G36*
G01*
X69425000Y-85075000D02*
X69425000Y-84525000D01*
G75*
G02*
X69625000Y-84325000I200000J0D01*
G01*
X70025000Y-84325000D01*
G75*
G02*
X70225000Y-84525000I0J-200000D01*
G01*
X70225000Y-85075000D01*
G75*
G02*
X70025000Y-85275000I-200000J0D01*
G01*
X69625000Y-85275000D01*
G75*
G02*
X69425000Y-85075000I0J200000D01*
G01*
G37*
G04 #@! TD.AperFunction*
G04 #@! TA.AperFunction,SMDPad,CuDef*
G36*
G01*
X71075000Y-85075000D02*
X71075000Y-84525000D01*
G75*
G02*
X71275000Y-84325000I200000J0D01*
G01*
X71675000Y-84325000D01*
G75*
G02*
X71875000Y-84525000I0J-200000D01*
G01*
X71875000Y-85075000D01*
G75*
G02*
X71675000Y-85275000I-200000J0D01*
G01*
X71275000Y-85275000D01*
G75*
G02*
X71075000Y-85075000I0J200000D01*
G01*
G37*
G04 #@! TD.AperFunction*
X71775000Y-25000000D03*
X72719581Y-22719581D03*
X72719581Y-27280419D03*
X75000000Y-21775000D03*
D14*
X75000000Y-25000000D03*
D13*
X75000000Y-28225000D03*
X77280419Y-22719581D03*
X77280419Y-27280419D03*
X78225000Y-25000000D03*
G04 #@! TA.AperFunction,SMDPad,CuDef*
G36*
G01*
X61020000Y-73410000D02*
X60680000Y-73410000D01*
G75*
G02*
X60540000Y-73270000I0J140000D01*
G01*
X60540000Y-72990000D01*
G75*
G02*
X60680000Y-72850000I140000J0D01*
G01*
X61020000Y-72850000D01*
G75*
G02*
X61160000Y-72990000I0J-140000D01*
G01*
X61160000Y-73270000D01*
G75*
G02*
X61020000Y-73410000I-140000J0D01*
G01*
G37*
G04 #@! TD.AperFunction*
G04 #@! TA.AperFunction,SMDPad,CuDef*
G36*
G01*
X61020000Y-72450000D02*
X60680000Y-72450000D01*
G75*
G02*
X60540000Y-72310000I0J140000D01*
G01*
X60540000Y-72030000D01*
G75*
G02*
X60680000Y-71890000I140000J0D01*
G01*
X61020000Y-71890000D01*
G75*
G02*
X61160000Y-72030000I0J-140000D01*
G01*
X61160000Y-72310000D01*
G75*
G02*
X61020000Y-72450000I-140000J0D01*
G01*
G37*
G04 #@! TD.AperFunction*
G04 #@! TA.AperFunction,SMDPad,CuDef*
G36*
G01*
X56650000Y-57200000D02*
X55350000Y-57200000D01*
G75*
G02*
X55100000Y-56950000I0J250000D01*
G01*
X55100000Y-56300000D01*
G75*
G02*
X55350000Y-56050000I250000J0D01*
G01*
X56650000Y-56050000D01*
G75*
G02*
X56900000Y-56300000I0J-250000D01*
G01*
X56900000Y-56950000D01*
G75*
G02*
X56650000Y-57200000I-250000J0D01*
G01*
G37*
G04 #@! TD.AperFunction*
G04 #@! TA.AperFunction,SMDPad,CuDef*
G36*
G01*
X56650000Y-54250000D02*
X55350000Y-54250000D01*
G75*
G02*
X55100000Y-54000000I0J250000D01*
G01*
X55100000Y-53350000D01*
G75*
G02*
X55350000Y-53100000I250000J0D01*
G01*
X56650000Y-53100000D01*
G75*
G02*
X56900000Y-53350000I0J-250000D01*
G01*
X56900000Y-54000000D01*
G75*
G02*
X56650000Y-54250000I-250000J0D01*
G01*
G37*
G04 #@! TD.AperFunction*
G04 #@! TA.AperFunction,SMDPad,CuDef*
G36*
G01*
X74575000Y-33356250D02*
X74575000Y-32443750D01*
G75*
G02*
X74818750Y-32200000I243750J0D01*
G01*
X75306250Y-32200000D01*
G75*
G02*
X75550000Y-32443750I0J-243750D01*
G01*
X75550000Y-33356250D01*
G75*
G02*
X75306250Y-33600000I-243750J0D01*
G01*
X74818750Y-33600000D01*
G75*
G02*
X74575000Y-33356250I0J243750D01*
G01*
G37*
G04 #@! TD.AperFunction*
G04 #@! TA.AperFunction,SMDPad,CuDef*
G36*
G01*
X76450000Y-33356250D02*
X76450000Y-32443750D01*
G75*
G02*
X76693750Y-32200000I243750J0D01*
G01*
X77181250Y-32200000D01*
G75*
G02*
X77425000Y-32443750I0J-243750D01*
G01*
X77425000Y-33356250D01*
G75*
G02*
X77181250Y-33600000I-243750J0D01*
G01*
X76693750Y-33600000D01*
G75*
G02*
X76450000Y-33356250I0J243750D01*
G01*
G37*
G04 #@! TD.AperFunction*
G04 #@! TA.AperFunction,SMDPad,CuDef*
G36*
G01*
X68367500Y-77412500D02*
X68027500Y-77412500D01*
G75*
G02*
X67887500Y-77272500I0J140000D01*
G01*
X67887500Y-76992500D01*
G75*
G02*
X68027500Y-76852500I140000J0D01*
G01*
X68367500Y-76852500D01*
G75*
G02*
X68507500Y-76992500I0J-140000D01*
G01*
X68507500Y-77272500D01*
G75*
G02*
X68367500Y-77412500I-140000J0D01*
G01*
G37*
G04 #@! TD.AperFunction*
G04 #@! TA.AperFunction,SMDPad,CuDef*
G36*
G01*
X68367500Y-76452500D02*
X68027500Y-76452500D01*
G75*
G02*
X67887500Y-76312500I0J140000D01*
G01*
X67887500Y-76032500D01*
G75*
G02*
X68027500Y-75892500I140000J0D01*
G01*
X68367500Y-75892500D01*
G75*
G02*
X68507500Y-76032500I0J-140000D01*
G01*
X68507500Y-76312500D01*
G75*
G02*
X68367500Y-76452500I-140000J0D01*
G01*
G37*
G04 #@! TD.AperFunction*
D22*
X48300000Y-32725000D03*
D23*
X50840000Y-32725000D03*
X48300000Y-35265000D03*
X50840000Y-35265000D03*
X48300000Y-37805000D03*
X50840000Y-37805000D03*
D17*
X67500000Y-33000000D03*
D18*
X62420000Y-33000000D03*
X57340000Y-33000000D03*
D24*
X61000000Y-68600000D03*
X70799425Y-66688764D03*
X63400000Y-60400000D03*
X54200000Y-64200000D03*
X60600000Y-65600000D03*
X60800000Y-60400000D03*
X66200000Y-68800000D03*
X70799425Y-61788764D03*
X70799425Y-59088764D03*
X54200000Y-61750000D03*
X63400000Y-65600000D03*
X54200000Y-66650000D03*
X63400000Y-63000000D03*
X63400000Y-58000000D03*
X61000000Y-58000000D03*
X54200000Y-59050000D03*
X60800000Y-63000000D03*
X62200000Y-69800000D03*
X68000000Y-69600000D03*
X70799425Y-64238764D03*
X77750000Y-95715000D03*
X68500000Y-94750000D03*
X78800000Y-87800000D03*
X54400000Y-53400000D03*
X65200000Y-66600000D03*
X62650000Y-92750000D03*
X60900000Y-71300000D03*
X65200000Y-64200000D03*
X71600000Y-80800000D03*
X70600000Y-53400000D03*
X71700000Y-75700000D03*
X60200000Y-81300000D03*
X59950013Y-66649987D03*
X59700000Y-78500000D03*
X48650000Y-39400000D03*
X67200000Y-53400000D03*
X60000000Y-64200000D03*
X59949998Y-59149998D03*
X65200000Y-61800000D03*
X62650000Y-90800000D03*
X57600000Y-53400000D03*
X68200000Y-74950000D03*
X62650000Y-91800000D03*
X65200000Y-59200000D03*
X62650000Y-97100000D03*
X69900000Y-72400000D03*
X59950013Y-61649987D03*
X65200000Y-84800000D03*
X66074995Y-70924995D03*
X66500000Y-24500000D03*
X67500000Y-24500000D03*
X67500000Y-21500000D03*
X68500000Y-24500000D03*
X68500000Y-21500000D03*
X67500000Y-22500000D03*
X66500000Y-23500000D03*
X67500000Y-20500000D03*
X68500000Y-20500000D03*
X67500000Y-23500000D03*
X68500000Y-22500000D03*
X66500000Y-22500000D03*
X68500000Y-23500000D03*
X66500000Y-20500000D03*
X66500000Y-21500000D03*
X62500000Y-23500000D03*
X63500000Y-22500000D03*
X61500000Y-20500000D03*
X61500000Y-23500000D03*
X63500000Y-21500000D03*
X62500000Y-20500000D03*
X61500000Y-21500000D03*
X63500000Y-23500000D03*
X61500000Y-22500000D03*
X61500000Y-24500000D03*
X62500000Y-24500000D03*
X62500000Y-22500000D03*
X63500000Y-24500000D03*
X63500000Y-20500000D03*
X62500000Y-21500000D03*
X56500000Y-21500000D03*
X58500000Y-24500000D03*
X56500000Y-23500000D03*
X58500000Y-22500000D03*
X58500000Y-20500000D03*
X57500000Y-24500000D03*
X57500000Y-20500000D03*
X57500000Y-23500000D03*
X57500000Y-21500000D03*
X56500000Y-24500000D03*
X57500000Y-22500000D03*
X56500000Y-20500000D03*
X58500000Y-21500000D03*
X56500000Y-22500000D03*
X58500000Y-23500000D03*
X71400000Y-88000000D03*
X74000000Y-102500000D03*
X76750000Y-98250000D03*
D25*
X62015000Y-73130000D02*
X62047500Y-73162500D01*
X60850000Y-73130000D02*
X62015000Y-73130000D01*
D26*
X73500000Y-99000000D02*
X71500000Y-99000000D01*
D25*
X79200000Y-94265000D02*
X77750000Y-95715000D01*
X78800000Y-90475000D02*
X79200000Y-90875000D01*
X79200000Y-90875000D02*
X79200000Y-94265000D01*
D26*
X73500000Y-99000000D02*
X76785000Y-95715000D01*
X76785000Y-95715000D02*
X77750000Y-95715000D01*
D27*
X70250000Y-106500000D02*
X71500000Y-106500000D01*
X69000000Y-107750000D02*
X70250000Y-106500000D01*
X69000000Y-110562499D02*
X69000000Y-107750000D01*
D26*
X68500000Y-94750000D02*
X71500001Y-91750000D01*
X60647500Y-80852500D02*
X60200000Y-81300000D01*
X69847500Y-72452500D02*
X69900000Y-72400000D01*
D28*
X70325001Y-53674999D02*
X70600000Y-53400000D01*
X58725000Y-61650000D02*
X59950000Y-61650000D01*
X56000000Y-53675000D02*
X54675000Y-53675000D01*
D26*
X71547500Y-80852500D02*
X71600000Y-80800000D01*
D28*
X68750000Y-53674999D02*
X67474999Y-53674999D01*
X66275000Y-66650000D02*
X65250000Y-66650000D01*
X66275000Y-64150000D02*
X65250000Y-64150000D01*
D26*
X60850000Y-72170000D02*
X60850000Y-71350000D01*
D25*
X67797500Y-75352500D02*
X68200000Y-74950000D01*
D26*
X61647500Y-80852500D02*
X60647500Y-80852500D01*
D28*
X54675000Y-53675000D02*
X54400000Y-53400000D01*
X65250000Y-64150000D02*
X65200000Y-64200000D01*
X59950000Y-64150000D02*
X60000000Y-64200000D01*
X59949996Y-59150000D02*
X59949998Y-59149998D01*
X66275000Y-59150000D02*
X65250000Y-59150000D01*
X67474999Y-53674999D02*
X67200000Y-53400000D01*
X68750000Y-53674999D02*
X70325001Y-53674999D01*
D26*
X60850000Y-71350000D02*
X60900000Y-71300000D01*
X60127500Y-78927500D02*
X59700000Y-78500000D01*
X61497500Y-78927500D02*
X60127500Y-78927500D01*
D28*
X57325000Y-53675000D02*
X57600000Y-53400000D01*
X58725001Y-59150000D02*
X59949996Y-59150000D01*
X66275000Y-61650000D02*
X65350000Y-61650000D01*
X65250000Y-66650000D02*
X65200000Y-66600000D01*
D25*
X66285000Y-75352500D02*
X67797500Y-75352500D01*
D28*
X65350000Y-61650000D02*
X65200000Y-61800000D01*
D25*
X78800000Y-88925000D02*
X78800000Y-87800000D01*
D26*
X68722500Y-72452500D02*
X69847500Y-72452500D01*
D28*
X65250000Y-59150000D02*
X65200000Y-59200000D01*
D26*
X71647500Y-75752500D02*
X71700000Y-75700000D01*
D28*
X58725000Y-64150000D02*
X59950000Y-64150000D01*
X59950000Y-61650000D02*
X59950013Y-61649987D01*
D26*
X70147500Y-80852500D02*
X71547500Y-80852500D01*
X70147500Y-75752500D02*
X71647500Y-75752500D01*
D28*
X59950000Y-66650000D02*
X59950013Y-66649987D01*
X56000000Y-53675000D02*
X57325000Y-53675000D01*
X58725000Y-66650000D02*
X59950000Y-66650000D01*
X65647500Y-82752500D02*
X65847500Y-82552500D01*
X70147500Y-82752500D02*
X66047500Y-82752500D01*
X65200000Y-89450001D02*
X65200000Y-84800000D01*
X61647500Y-82752500D02*
X65647500Y-82752500D01*
D25*
X63822500Y-72452500D02*
X65350005Y-70924995D01*
X78700000Y-46400000D02*
X78025000Y-47075000D01*
X76937500Y-32900000D02*
X77900000Y-32900000D01*
D28*
X65200000Y-84800000D02*
X65200000Y-83200000D01*
D25*
X77900000Y-32900000D02*
X78700000Y-33700000D01*
X78025000Y-47075000D02*
X75210000Y-47075000D01*
X78700000Y-33700000D02*
X78700000Y-46400000D01*
D28*
X67499999Y-91750000D02*
X65200000Y-89450001D01*
X65200000Y-83200000D02*
X65847500Y-82552500D01*
D25*
X65350005Y-70924995D02*
X66074995Y-70924995D01*
D28*
X66047500Y-82752500D02*
X65847500Y-82552500D01*
X68400000Y-50150000D02*
X68400000Y-44995000D01*
X64650000Y-53350000D02*
X67850000Y-50150000D01*
X64650000Y-54900000D02*
X64650000Y-53350000D01*
X68400000Y-44995000D02*
X68860000Y-44535000D01*
X67850000Y-50150000D02*
X68400000Y-50150000D01*
X62400000Y-50150000D02*
X62400000Y-45915000D01*
X62400000Y-50150000D02*
X64100000Y-50150000D01*
X62400000Y-45915000D02*
X63780000Y-44535000D01*
X60650000Y-50150000D02*
X62400000Y-50150000D01*
X60350000Y-54900000D02*
X60350000Y-53550000D01*
X56350000Y-44725000D02*
X56160000Y-44535000D01*
X56950000Y-50150000D02*
X56350000Y-50150000D01*
X56350000Y-50150000D02*
X56350000Y-44725000D01*
X60350000Y-53550000D02*
X56950000Y-50150000D01*
D25*
X69825000Y-86425000D02*
X71400000Y-88000000D01*
D26*
X72500000Y-104000000D02*
X74000000Y-102500000D01*
X71500000Y-104000000D02*
X72500000Y-104000000D01*
D25*
X69825000Y-84800000D02*
X69825000Y-86425000D01*
D26*
X76750000Y-98250000D02*
X73500000Y-101500000D01*
X73500000Y-101500000D02*
X71500000Y-101500000D01*
D25*
X46200000Y-76000000D02*
X47755000Y-77555000D01*
X47135000Y-35265000D02*
X46200000Y-36200000D01*
X46200000Y-36200000D02*
X46200000Y-76000000D01*
X48300000Y-35265000D02*
X47135000Y-35265000D01*
X47755000Y-77555000D02*
X49810000Y-77555000D01*
X66285000Y-74402500D02*
X66285000Y-72515000D01*
X65472500Y-72452500D02*
X67072500Y-72452500D01*
X66300000Y-72500000D02*
X66285000Y-72515000D01*
X68067500Y-76302500D02*
X68197500Y-76172500D01*
X66285000Y-76302500D02*
X68067500Y-76302500D01*
D27*
X62797500Y-72402500D02*
X62797500Y-73752500D01*
X62047500Y-72142500D02*
X62537500Y-72142500D01*
X63447500Y-74402500D02*
X64010000Y-74402500D01*
X62537500Y-72142500D02*
X62797500Y-72402500D01*
X62797500Y-73752500D02*
X63447500Y-74402500D01*
D25*
X75210000Y-85175000D02*
X74835000Y-84800000D01*
X74835000Y-84800000D02*
X71475000Y-84800000D01*
X75062500Y-33250000D02*
X76912500Y-35100000D01*
X75062500Y-32900000D02*
X75062500Y-33250000D01*
D27*
X69000000Y-114337500D02*
X69000000Y-112437501D01*
G04 #@! TA.AperFunction,Conductor*
G36*
X52942209Y-50820143D02*
G01*
X52988382Y-50872582D01*
X53000000Y-50924987D01*
X53000000Y-55200000D01*
X57876000Y-55200000D01*
X57943039Y-55219685D01*
X57988794Y-55272489D01*
X58000000Y-55324000D01*
X58000000Y-57600000D01*
X67000000Y-57600000D01*
X67000000Y-55124000D01*
X67019685Y-55056961D01*
X67072489Y-55011206D01*
X67124000Y-55000000D01*
X71600000Y-55000000D01*
X71600000Y-51124000D01*
X71619685Y-51056961D01*
X71672489Y-51011206D01*
X71724000Y-51000000D01*
X78126000Y-51000000D01*
X78193039Y-51019685D01*
X78238794Y-51072489D01*
X78250000Y-51124000D01*
X78250000Y-70476000D01*
X78230315Y-70543039D01*
X78177511Y-70588794D01*
X78126000Y-70600000D01*
X66509176Y-70600000D01*
X66442137Y-70580315D01*
X66421495Y-70563681D01*
X66382311Y-70524497D01*
X66382309Y-70524495D01*
X66325245Y-70491549D01*
X66268182Y-70458603D01*
X66171128Y-70432598D01*
X66140887Y-70424495D01*
X66009103Y-70424495D01*
X65881807Y-70458603D01*
X65767681Y-70524495D01*
X65767678Y-70524497D01*
X65754000Y-70538176D01*
X65692677Y-70571661D01*
X65666319Y-70574495D01*
X65303861Y-70574495D01*
X65224443Y-70595775D01*
X65192350Y-70600000D01*
X60199999Y-70600000D01*
X59800000Y-70999999D01*
X59800000Y-71000000D01*
X59800000Y-73000000D01*
X61948638Y-73000000D01*
X61978078Y-73008644D01*
X62008065Y-73015168D01*
X62013080Y-73018922D01*
X62015677Y-73019685D01*
X62036319Y-73036319D01*
X62163681Y-73163681D01*
X62197166Y-73225004D01*
X62200000Y-73251362D01*
X62200000Y-74000000D01*
X62457142Y-74342856D01*
X62799999Y-74800000D01*
X62800000Y-74800000D01*
X63197956Y-74800000D01*
X63264995Y-74819685D01*
X63285637Y-74836319D01*
X63291014Y-74841696D01*
X63291015Y-74841696D01*
X63291017Y-74841698D01*
X63396107Y-74893073D01*
X63397288Y-74893245D01*
X63464239Y-74903000D01*
X63464240Y-74903000D01*
X64555759Y-74903000D01*
X64555760Y-74903000D01*
X64622710Y-74893245D01*
X64627348Y-74893903D01*
X64631741Y-74892265D01*
X64661612Y-74898763D01*
X64691885Y-74903057D01*
X64696705Y-74906397D01*
X64700014Y-74907117D01*
X64728268Y-74928268D01*
X64763681Y-74963681D01*
X64797166Y-75025004D01*
X64800000Y-75051362D01*
X64800000Y-75548638D01*
X64780315Y-75615677D01*
X64763681Y-75636319D01*
X64741819Y-75658181D01*
X64680496Y-75691666D01*
X64654138Y-75694500D01*
X63173992Y-75694500D01*
X63130313Y-75699197D01*
X63078825Y-75710397D01*
X63068627Y-75712890D01*
X63068624Y-75712891D01*
X62987916Y-75755899D01*
X62987913Y-75755901D01*
X62935104Y-75801660D01*
X62917160Y-75819242D01*
X62917156Y-75819247D01*
X62872508Y-75899065D01*
X62869608Y-75908943D01*
X62838315Y-75961683D01*
X62800000Y-75999997D01*
X62800000Y-76548638D01*
X62780315Y-76615677D01*
X62763681Y-76636319D01*
X62436319Y-76963681D01*
X62374996Y-76997166D01*
X62348638Y-77000000D01*
X59599999Y-77000000D01*
X59200000Y-77399999D01*
X59200000Y-78432241D01*
X59199500Y-78434108D01*
X59199500Y-78565892D01*
X59200000Y-78567758D01*
X59200000Y-84200000D01*
X61763681Y-86763681D01*
X61797166Y-86825004D01*
X61800000Y-86851362D01*
X61800000Y-115876000D01*
X61780315Y-115943039D01*
X61727511Y-115988794D01*
X61676000Y-116000000D01*
X59500000Y-116000000D01*
X56750000Y-116000000D01*
X55724000Y-116000000D01*
X55656961Y-115980315D01*
X55611206Y-115927511D01*
X55600000Y-115876000D01*
X55600000Y-107800000D01*
X50124484Y-107800000D01*
X50057445Y-107780315D01*
X50011690Y-107727511D01*
X50003119Y-107675840D01*
X50000500Y-107675840D01*
X50000500Y-103830249D01*
X50000499Y-103830247D01*
X49988868Y-103771770D01*
X49988867Y-103771769D01*
X49944552Y-103705447D01*
X49878230Y-103661132D01*
X49878229Y-103661131D01*
X49819752Y-103649500D01*
X49819748Y-103649500D01*
X45980252Y-103649500D01*
X45980247Y-103649500D01*
X45921770Y-103661131D01*
X45921769Y-103661132D01*
X45855446Y-103705448D01*
X45827101Y-103747870D01*
X45773489Y-103792674D01*
X45704164Y-103801381D01*
X45641137Y-103771226D01*
X45604418Y-103711782D01*
X45600000Y-103678978D01*
X45600000Y-92635247D01*
X48194500Y-92635247D01*
X48194500Y-95274752D01*
X48206131Y-95333229D01*
X48206132Y-95333230D01*
X48250447Y-95399552D01*
X48316769Y-95443867D01*
X48316770Y-95443868D01*
X48375247Y-95455499D01*
X48375250Y-95455500D01*
X48375252Y-95455500D01*
X51014750Y-95455500D01*
X51014751Y-95455499D01*
X51029568Y-95452552D01*
X51073229Y-95443868D01*
X51073229Y-95443867D01*
X51073231Y-95443867D01*
X51139552Y-95399552D01*
X51183867Y-95333231D01*
X51183867Y-95333229D01*
X51183868Y-95333229D01*
X51195499Y-95274752D01*
X51195500Y-95274750D01*
X51195500Y-92635249D01*
X51195499Y-92635247D01*
X51183868Y-92576770D01*
X51183867Y-92576769D01*
X51139552Y-92510447D01*
X51073230Y-92466132D01*
X51073229Y-92466131D01*
X51014752Y-92454500D01*
X51014748Y-92454500D01*
X48375252Y-92454500D01*
X48375247Y-92454500D01*
X48316770Y-92466131D01*
X48316769Y-92466132D01*
X48250447Y-92510447D01*
X48206132Y-92576769D01*
X48206131Y-92576770D01*
X48194500Y-92635247D01*
X45600000Y-92635247D01*
X45600000Y-89724000D01*
X45619685Y-89656961D01*
X45672489Y-89611206D01*
X45724000Y-89600000D01*
X52000000Y-89600000D01*
X52000000Y-65945730D01*
X57949500Y-65945730D01*
X57949500Y-67354269D01*
X57952353Y-67384699D01*
X57952353Y-67384701D01*
X57992162Y-67498465D01*
X57997207Y-67512882D01*
X58077850Y-67622150D01*
X58187118Y-67702793D01*
X58229845Y-67717744D01*
X58315299Y-67747646D01*
X58345730Y-67750500D01*
X58345734Y-67750500D01*
X59104270Y-67750500D01*
X59134699Y-67747646D01*
X59134701Y-67747646D01*
X59198790Y-67725219D01*
X59262882Y-67702793D01*
X59372150Y-67622150D01*
X59452793Y-67512882D01*
X59470827Y-67461341D01*
X59480555Y-67433544D01*
X59521277Y-67376769D01*
X59586230Y-67351022D01*
X59597596Y-67350500D01*
X60018996Y-67350500D01*
X60110040Y-67332389D01*
X60154328Y-67323580D01*
X60231692Y-67291535D01*
X60281807Y-67270777D01*
X60281808Y-67270776D01*
X60281811Y-67270775D01*
X60396543Y-67194114D01*
X60494126Y-67096530D01*
X60494130Y-67096523D01*
X60494132Y-67096522D01*
X60532194Y-67039556D01*
X60570787Y-66981799D01*
X60623593Y-66854316D01*
X60650512Y-66718981D01*
X60650512Y-66668996D01*
X64499499Y-66668996D01*
X64526418Y-66804322D01*
X64526421Y-66804332D01*
X64579222Y-66931807D01*
X64655887Y-67046545D01*
X64803454Y-67194112D01*
X64918192Y-67270777D01*
X65045667Y-67323578D01*
X65045672Y-67323580D01*
X65045676Y-67323580D01*
X65045677Y-67323581D01*
X65181003Y-67350500D01*
X65181006Y-67350500D01*
X65181007Y-67350500D01*
X65402404Y-67350500D01*
X65469443Y-67370185D01*
X65515198Y-67422989D01*
X65519445Y-67433544D01*
X65542162Y-67498465D01*
X65547207Y-67512882D01*
X65627850Y-67622150D01*
X65737118Y-67702793D01*
X65779845Y-67717744D01*
X65865299Y-67747646D01*
X65895730Y-67750500D01*
X65895734Y-67750500D01*
X66654270Y-67750500D01*
X66684699Y-67747646D01*
X66684701Y-67747646D01*
X66748790Y-67725219D01*
X66812882Y-67702793D01*
X66922150Y-67622150D01*
X67002793Y-67512882D01*
X67025219Y-67448790D01*
X67047646Y-67384701D01*
X67047646Y-67384699D01*
X67050500Y-67354269D01*
X67050500Y-65945730D01*
X67047646Y-65915300D01*
X67047646Y-65915298D01*
X67002793Y-65787119D01*
X67002792Y-65787117D01*
X66922150Y-65677850D01*
X66812882Y-65597207D01*
X66812880Y-65597206D01*
X66684700Y-65552353D01*
X66654270Y-65549500D01*
X66654266Y-65549500D01*
X65895734Y-65549500D01*
X65895730Y-65549500D01*
X65865300Y-65552353D01*
X65865298Y-65552353D01*
X65737119Y-65597206D01*
X65737117Y-65597207D01*
X65627850Y-65677850D01*
X65547207Y-65787117D01*
X65527916Y-65842248D01*
X65487194Y-65899023D01*
X65422241Y-65924770D01*
X65386684Y-65922909D01*
X65268998Y-65899500D01*
X65268994Y-65899500D01*
X65131006Y-65899500D01*
X65131004Y-65899500D01*
X64995677Y-65926418D01*
X64995667Y-65926421D01*
X64868192Y-65979222D01*
X64753454Y-66055887D01*
X64655887Y-66153454D01*
X64579222Y-66268192D01*
X64526421Y-66395667D01*
X64526418Y-66395677D01*
X64499500Y-66531003D01*
X64499500Y-66531006D01*
X64499500Y-66668994D01*
X64499500Y-66668996D01*
X64499499Y-66668996D01*
X60650512Y-66668996D01*
X60650512Y-66580993D01*
X60644169Y-66549103D01*
X60644169Y-66549101D01*
X60623594Y-66445666D01*
X60623593Y-66445659D01*
X60570787Y-66318176D01*
X60570785Y-66318173D01*
X60570783Y-66318169D01*
X60494126Y-66203443D01*
X60396556Y-66105873D01*
X60281830Y-66029216D01*
X60281820Y-66029211D01*
X60154341Y-65976407D01*
X60154333Y-65976405D01*
X60019011Y-65949488D01*
X60019007Y-65949488D01*
X59881019Y-65949488D01*
X59875017Y-65949488D01*
X59874774Y-65949500D01*
X59597596Y-65949500D01*
X59530557Y-65929815D01*
X59484802Y-65877011D01*
X59480555Y-65866456D01*
X59452793Y-65787119D01*
X59452793Y-65787118D01*
X59372150Y-65677850D01*
X59262882Y-65597207D01*
X59262880Y-65597206D01*
X59134700Y-65552353D01*
X59104270Y-65549500D01*
X59104266Y-65549500D01*
X58345734Y-65549500D01*
X58345730Y-65549500D01*
X58315300Y-65552353D01*
X58315298Y-65552353D01*
X58187119Y-65597206D01*
X58187117Y-65597207D01*
X58077850Y-65677850D01*
X57997207Y-65787117D01*
X57997206Y-65787119D01*
X57952353Y-65915298D01*
X57952353Y-65915300D01*
X57949500Y-65945730D01*
X52000000Y-65945730D01*
X52000000Y-65000000D01*
X47220207Y-65000000D01*
X47153168Y-64980315D01*
X47113878Y-64939797D01*
X47080820Y-64884701D01*
X46937927Y-64646545D01*
X46717671Y-64279451D01*
X46700000Y-64215654D01*
X46700000Y-63445730D01*
X57949500Y-63445730D01*
X57949500Y-64854269D01*
X57952353Y-64884699D01*
X57952353Y-64884701D01*
X57985811Y-64980315D01*
X57997207Y-65012882D01*
X58077850Y-65122150D01*
X58187118Y-65202793D01*
X58229845Y-65217744D01*
X58315299Y-65247646D01*
X58345730Y-65250500D01*
X58345734Y-65250500D01*
X59104270Y-65250500D01*
X59134699Y-65247646D01*
X59134701Y-65247646D01*
X59198790Y-65225219D01*
X59262882Y-65202793D01*
X59372150Y-65122150D01*
X59452793Y-65012882D01*
X59472084Y-64957752D01*
X59480555Y-64933544D01*
X59494174Y-64914555D01*
X59503883Y-64893297D01*
X59514158Y-64886693D01*
X59521277Y-64876769D01*
X59543000Y-64868157D01*
X59562661Y-64855523D01*
X59581827Y-64852767D01*
X59586230Y-64851022D01*
X59597596Y-64850500D01*
X59715287Y-64850500D01*
X59762739Y-64859938D01*
X59795672Y-64873580D01*
X59795676Y-64873580D01*
X59795677Y-64873581D01*
X59931003Y-64900500D01*
X59931006Y-64900500D01*
X60068996Y-64900500D01*
X60186683Y-64877090D01*
X60204329Y-64873580D01*
X60331811Y-64820775D01*
X60446543Y-64744114D01*
X60544114Y-64646543D01*
X60620775Y-64531811D01*
X60673580Y-64404329D01*
X60700500Y-64268996D01*
X64499499Y-64268996D01*
X64526418Y-64404322D01*
X64526421Y-64404332D01*
X64579222Y-64531807D01*
X64655887Y-64646545D01*
X64753454Y-64744112D01*
X64868192Y-64820777D01*
X64995667Y-64873578D01*
X64995672Y-64873580D01*
X64995676Y-64873580D01*
X64995677Y-64873581D01*
X65131003Y-64900500D01*
X65131006Y-64900500D01*
X65268996Y-64900500D01*
X65386683Y-64877090D01*
X65456275Y-64883317D01*
X65511452Y-64926180D01*
X65527916Y-64957752D01*
X65547207Y-65012882D01*
X65627850Y-65122150D01*
X65737118Y-65202793D01*
X65779845Y-65217744D01*
X65865299Y-65247646D01*
X65895730Y-65250500D01*
X65895734Y-65250500D01*
X66654270Y-65250500D01*
X66684699Y-65247646D01*
X66684701Y-65247646D01*
X66748790Y-65225219D01*
X66812882Y-65202793D01*
X66922150Y-65122150D01*
X67002793Y-65012882D01*
X67025219Y-64948790D01*
X67047646Y-64884701D01*
X67047646Y-64884699D01*
X67050500Y-64854269D01*
X67050500Y-63445730D01*
X67047646Y-63415300D01*
X67047646Y-63415298D01*
X67002793Y-63287119D01*
X67002792Y-63287117D01*
X66922150Y-63177850D01*
X66812882Y-63097207D01*
X66812880Y-63097206D01*
X66684700Y-63052353D01*
X66654270Y-63049500D01*
X66654266Y-63049500D01*
X65895734Y-63049500D01*
X65895730Y-63049500D01*
X65865300Y-63052353D01*
X65865298Y-63052353D01*
X65737119Y-63097206D01*
X65737117Y-63097207D01*
X65627850Y-63177850D01*
X65547207Y-63287117D01*
X65519445Y-63366456D01*
X65478723Y-63423231D01*
X65413770Y-63448978D01*
X65402404Y-63449500D01*
X65181004Y-63449500D01*
X65045677Y-63476418D01*
X65045667Y-63476421D01*
X64918192Y-63529222D01*
X64803454Y-63605887D01*
X64655887Y-63753454D01*
X64579222Y-63868192D01*
X64526421Y-63995667D01*
X64526418Y-63995677D01*
X64499500Y-64131003D01*
X64499500Y-64131006D01*
X64499500Y-64268994D01*
X64499500Y-64268996D01*
X64499499Y-64268996D01*
X60700500Y-64268996D01*
X60700500Y-64268994D01*
X60700500Y-64131006D01*
X60700500Y-64131003D01*
X60673581Y-63995677D01*
X60673580Y-63995676D01*
X60673580Y-63995672D01*
X60673578Y-63995667D01*
X60620777Y-63868192D01*
X60544112Y-63753454D01*
X60396545Y-63605887D01*
X60281807Y-63529222D01*
X60154332Y-63476421D01*
X60154322Y-63476418D01*
X60018996Y-63449500D01*
X60018994Y-63449500D01*
X60018993Y-63449500D01*
X59597596Y-63449500D01*
X59530557Y-63429815D01*
X59484802Y-63377011D01*
X59480555Y-63366456D01*
X59452793Y-63287119D01*
X59452793Y-63287118D01*
X59372150Y-63177850D01*
X59262882Y-63097207D01*
X59262880Y-63097206D01*
X59134700Y-63052353D01*
X59104270Y-63049500D01*
X59104266Y-63049500D01*
X58345734Y-63049500D01*
X58345730Y-63049500D01*
X58315300Y-63052353D01*
X58315298Y-63052353D01*
X58187119Y-63097206D01*
X58187117Y-63097207D01*
X58077850Y-63177850D01*
X57997207Y-63287117D01*
X57997206Y-63287119D01*
X57952353Y-63415298D01*
X57952353Y-63415300D01*
X57949500Y-63445730D01*
X46700000Y-63445730D01*
X46700000Y-60945730D01*
X57949500Y-60945730D01*
X57949500Y-62354269D01*
X57952353Y-62384699D01*
X57952353Y-62384701D01*
X57992874Y-62500500D01*
X57997207Y-62512882D01*
X58077850Y-62622150D01*
X58187118Y-62702793D01*
X58229845Y-62717744D01*
X58315299Y-62747646D01*
X58345730Y-62750500D01*
X58345734Y-62750500D01*
X59104270Y-62750500D01*
X59134699Y-62747646D01*
X59134701Y-62747646D01*
X59198790Y-62725219D01*
X59262882Y-62702793D01*
X59372150Y-62622150D01*
X59452793Y-62512882D01*
X59470827Y-62461341D01*
X59480555Y-62433544D01*
X59521277Y-62376769D01*
X59586230Y-62351022D01*
X59597596Y-62350500D01*
X60018996Y-62350500D01*
X60110040Y-62332389D01*
X60154328Y-62323580D01*
X60218069Y-62297177D01*
X60281807Y-62270777D01*
X60281808Y-62270776D01*
X60281811Y-62270775D01*
X60396543Y-62194114D01*
X60494126Y-62096530D01*
X60494130Y-62096523D01*
X60494132Y-62096522D01*
X60532194Y-62039556D01*
X60570787Y-61981799D01*
X60617512Y-61868996D01*
X64499499Y-61868996D01*
X64526418Y-62004322D01*
X64526421Y-62004332D01*
X64579222Y-62131807D01*
X64655887Y-62246545D01*
X64753454Y-62344112D01*
X64868192Y-62420777D01*
X64995667Y-62473578D01*
X64995672Y-62473580D01*
X64995676Y-62473580D01*
X64995677Y-62473581D01*
X65131003Y-62500500D01*
X65131006Y-62500500D01*
X65268996Y-62500500D01*
X65404046Y-62473636D01*
X65404328Y-62473580D01*
X65404335Y-62473576D01*
X65410155Y-62471812D01*
X65410708Y-62473636D01*
X65471368Y-62467104D01*
X65533852Y-62498369D01*
X65549142Y-62515504D01*
X65627850Y-62622150D01*
X65737118Y-62702793D01*
X65779845Y-62717744D01*
X65865299Y-62747646D01*
X65895730Y-62750500D01*
X65895734Y-62750500D01*
X66654270Y-62750500D01*
X66684699Y-62747646D01*
X66684701Y-62747646D01*
X66748790Y-62725219D01*
X66812882Y-62702793D01*
X66922150Y-62622150D01*
X67002793Y-62512882D01*
X67025219Y-62448790D01*
X67047646Y-62384701D01*
X67047646Y-62384699D01*
X67050500Y-62354269D01*
X67050500Y-60945730D01*
X67047646Y-60915300D01*
X67047646Y-60915298D01*
X67002793Y-60787119D01*
X67002792Y-60787117D01*
X66922150Y-60677850D01*
X66812882Y-60597207D01*
X66812880Y-60597206D01*
X66684700Y-60552353D01*
X66654270Y-60549500D01*
X66654266Y-60549500D01*
X65895734Y-60549500D01*
X65895730Y-60549500D01*
X65865300Y-60552353D01*
X65865298Y-60552353D01*
X65737119Y-60597206D01*
X65737117Y-60597207D01*
X65627850Y-60677850D01*
X65547207Y-60787117D01*
X65519445Y-60866456D01*
X65478723Y-60923231D01*
X65413770Y-60948978D01*
X65402404Y-60949500D01*
X65281004Y-60949500D01*
X65145677Y-60976418D01*
X65145667Y-60976421D01*
X65018192Y-61029222D01*
X64903454Y-61105887D01*
X64655887Y-61353454D01*
X64579222Y-61468192D01*
X64526421Y-61595667D01*
X64526418Y-61595677D01*
X64499500Y-61731003D01*
X64499500Y-61731006D01*
X64499500Y-61868994D01*
X64499500Y-61868996D01*
X64499499Y-61868996D01*
X60617512Y-61868996D01*
X60623593Y-61854316D01*
X60650512Y-61718981D01*
X60650512Y-61580993D01*
X60623593Y-61445659D01*
X60570787Y-61318176D01*
X60570785Y-61318173D01*
X60570783Y-61318169D01*
X60494126Y-61203443D01*
X60396556Y-61105873D01*
X60281830Y-61029216D01*
X60281820Y-61029211D01*
X60154341Y-60976407D01*
X60154333Y-60976405D01*
X60019011Y-60949488D01*
X60019007Y-60949488D01*
X59881019Y-60949488D01*
X59875017Y-60949488D01*
X59874774Y-60949500D01*
X59597596Y-60949500D01*
X59530557Y-60929815D01*
X59484802Y-60877011D01*
X59480555Y-60866456D01*
X59452793Y-60787119D01*
X59452793Y-60787118D01*
X59372150Y-60677850D01*
X59262882Y-60597207D01*
X59262880Y-60597206D01*
X59134700Y-60552353D01*
X59104270Y-60549500D01*
X59104266Y-60549500D01*
X58345734Y-60549500D01*
X58345730Y-60549500D01*
X58315300Y-60552353D01*
X58315298Y-60552353D01*
X58187119Y-60597206D01*
X58187117Y-60597207D01*
X58077850Y-60677850D01*
X57997207Y-60787117D01*
X57997206Y-60787119D01*
X57952353Y-60915298D01*
X57952353Y-60915300D01*
X57949500Y-60945730D01*
X46700000Y-60945730D01*
X46700000Y-58445730D01*
X57949501Y-58445730D01*
X57949501Y-59854269D01*
X57952354Y-59884699D01*
X57952354Y-59884701D01*
X57997207Y-60012880D01*
X57997208Y-60012882D01*
X58077851Y-60122150D01*
X58187119Y-60202793D01*
X58229846Y-60217744D01*
X58315300Y-60247646D01*
X58345731Y-60250500D01*
X58345735Y-60250500D01*
X59104271Y-60250500D01*
X59134700Y-60247646D01*
X59134702Y-60247646D01*
X59198791Y-60225219D01*
X59262883Y-60202793D01*
X59372151Y-60122150D01*
X59452794Y-60012882D01*
X59472085Y-59957752D01*
X59480556Y-59933544D01*
X59521278Y-59876769D01*
X59586231Y-59851022D01*
X59597597Y-59850500D01*
X60018992Y-59850500D01*
X60110036Y-59832389D01*
X60154324Y-59823580D01*
X60218065Y-59797177D01*
X60281803Y-59770777D01*
X60281804Y-59770776D01*
X60281807Y-59770775D01*
X60396539Y-59694114D01*
X60494112Y-59596541D01*
X60570773Y-59481809D01*
X60623578Y-59354326D01*
X60632387Y-59310038D01*
X60640551Y-59268996D01*
X64499499Y-59268996D01*
X64526418Y-59404322D01*
X64526421Y-59404332D01*
X64579222Y-59531807D01*
X64655887Y-59646545D01*
X64753454Y-59744112D01*
X64868192Y-59820777D01*
X64995667Y-59873578D01*
X64995672Y-59873580D01*
X64995676Y-59873580D01*
X64995677Y-59873581D01*
X65131003Y-59900500D01*
X65131006Y-59900500D01*
X65268996Y-59900500D01*
X65386683Y-59877090D01*
X65456275Y-59883317D01*
X65511452Y-59926180D01*
X65527916Y-59957752D01*
X65547207Y-60012882D01*
X65627850Y-60122150D01*
X65737118Y-60202793D01*
X65779845Y-60217744D01*
X65865299Y-60247646D01*
X65895730Y-60250500D01*
X65895734Y-60250500D01*
X66654270Y-60250500D01*
X66684699Y-60247646D01*
X66684701Y-60247646D01*
X66748790Y-60225219D01*
X66812882Y-60202793D01*
X66922150Y-60122150D01*
X67002793Y-60012882D01*
X67025219Y-59948790D01*
X67047646Y-59884701D01*
X67047646Y-59884699D01*
X67050500Y-59854269D01*
X67050500Y-58445730D01*
X67047646Y-58415300D01*
X67047646Y-58415298D01*
X67002793Y-58287119D01*
X67002792Y-58287117D01*
X66922150Y-58177850D01*
X66812882Y-58097207D01*
X66812880Y-58097206D01*
X66684700Y-58052353D01*
X66654270Y-58049500D01*
X66654266Y-58049500D01*
X65895734Y-58049500D01*
X65895730Y-58049500D01*
X65865300Y-58052353D01*
X65865298Y-58052353D01*
X65737119Y-58097206D01*
X65737117Y-58097207D01*
X65627850Y-58177850D01*
X65547207Y-58287117D01*
X65519445Y-58366456D01*
X65478723Y-58423231D01*
X65413770Y-58448978D01*
X65402404Y-58449500D01*
X65181004Y-58449500D01*
X65045677Y-58476418D01*
X65045667Y-58476421D01*
X64918192Y-58529222D01*
X64803454Y-58605887D01*
X64655887Y-58753454D01*
X64579222Y-58868192D01*
X64526421Y-58995667D01*
X64526418Y-58995677D01*
X64499500Y-59131003D01*
X64499500Y-59131006D01*
X64499500Y-59268994D01*
X64499500Y-59268996D01*
X64499499Y-59268996D01*
X60640551Y-59268996D01*
X60650498Y-59218994D01*
X60650498Y-59081001D01*
X60623579Y-58945674D01*
X60623578Y-58945673D01*
X60623578Y-58945669D01*
X60570773Y-58818187D01*
X60494112Y-58703455D01*
X60494110Y-58703452D01*
X60396543Y-58605885D01*
X60339175Y-58567553D01*
X60281809Y-58529223D01*
X60154327Y-58476418D01*
X60154321Y-58476416D01*
X60018994Y-58449498D01*
X60018992Y-58449498D01*
X59881004Y-58449498D01*
X59874900Y-58449498D01*
X59874860Y-58449500D01*
X59597597Y-58449500D01*
X59530558Y-58429815D01*
X59484803Y-58377011D01*
X59480556Y-58366456D01*
X59452794Y-58287119D01*
X59452794Y-58287118D01*
X59372151Y-58177850D01*
X59262883Y-58097207D01*
X59262881Y-58097206D01*
X59134701Y-58052353D01*
X59104271Y-58049500D01*
X59104267Y-58049500D01*
X58345735Y-58049500D01*
X58345731Y-58049500D01*
X58315301Y-58052353D01*
X58315299Y-58052353D01*
X58187120Y-58097206D01*
X58187118Y-58097207D01*
X58077851Y-58177850D01*
X57997208Y-58287117D01*
X57997207Y-58287119D01*
X57952354Y-58415298D01*
X57952354Y-58415300D01*
X57949501Y-58445730D01*
X46700000Y-58445730D01*
X46700000Y-50973019D01*
X46719685Y-50905980D01*
X46772489Y-50860225D01*
X46823012Y-50849023D01*
X52875019Y-50800991D01*
X52942209Y-50820143D01*
G37*
G04 #@! TD.AperFunction*
G04 #@! TA.AperFunction,Conductor*
G36*
X64793039Y-75919685D02*
G01*
X64838794Y-75972489D01*
X64850000Y-76024000D01*
X64850000Y-76800000D01*
X65150000Y-77100000D01*
X67450000Y-77100000D01*
X67663681Y-76886319D01*
X67725004Y-76852834D01*
X67751362Y-76850000D01*
X68548638Y-76850000D01*
X68615677Y-76869685D01*
X68636319Y-76886319D01*
X69300000Y-77550000D01*
X70976000Y-77550000D01*
X71043039Y-77569685D01*
X71088794Y-77622489D01*
X71100000Y-77674000D01*
X71100000Y-79476000D01*
X71080315Y-79543039D01*
X71027511Y-79588794D01*
X70976000Y-79600000D01*
X63174000Y-79600000D01*
X63106961Y-79580315D01*
X63061206Y-79527511D01*
X63050000Y-79476000D01*
X63050000Y-76024000D01*
X63069685Y-75956961D01*
X63122489Y-75911206D01*
X63174000Y-75900000D01*
X64726000Y-75900000D01*
X64793039Y-75919685D01*
G37*
G04 #@! TD.AperFunction*
G04 #@! TA.AperFunction,Conductor*
G36*
X63758059Y-20151560D02*
G01*
X63824273Y-20160277D01*
X63855538Y-20168654D01*
X63909666Y-20191075D01*
X63937698Y-20207258D01*
X63984184Y-20242928D01*
X64007072Y-20265816D01*
X64042737Y-20312296D01*
X64058922Y-20340329D01*
X64081345Y-20394462D01*
X64089723Y-20425729D01*
X64098439Y-20491931D01*
X64099500Y-20508117D01*
X64099500Y-25323298D01*
X64132117Y-25466206D01*
X64195717Y-25598273D01*
X64195719Y-25598276D01*
X64195720Y-25598277D01*
X64287116Y-25712884D01*
X64401723Y-25804280D01*
X64401726Y-25804282D01*
X64509909Y-25856380D01*
X64561769Y-25903202D01*
X64580107Y-25967691D01*
X64599999Y-31999997D01*
X64599999Y-31999998D01*
X64600000Y-32000000D01*
X66192687Y-36429660D01*
X66200000Y-36471615D01*
X66200000Y-46426000D01*
X66180315Y-46493039D01*
X66127511Y-46538794D01*
X66076000Y-46550000D01*
X58824000Y-46550000D01*
X58756961Y-46530315D01*
X58711206Y-46477511D01*
X58700000Y-46426000D01*
X58700000Y-36621564D01*
X58707282Y-36579698D01*
X60349999Y-32000004D01*
X60350000Y-31999998D01*
X60354610Y-25992144D01*
X60374346Y-25925120D01*
X60427185Y-25879405D01*
X60451019Y-25871347D01*
X60466205Y-25867882D01*
X60598276Y-25804280D01*
X60712883Y-25712884D01*
X60804279Y-25598277D01*
X60867881Y-25466206D01*
X60900500Y-25323294D01*
X60900500Y-25250000D01*
X60900500Y-25215649D01*
X60900500Y-25215648D01*
X60900500Y-20508108D01*
X60901559Y-20491957D01*
X60910279Y-20425722D01*
X60918656Y-20394462D01*
X60941080Y-20340325D01*
X60957260Y-20312302D01*
X60992934Y-20265810D01*
X61015813Y-20242931D01*
X61062306Y-20207256D01*
X61090332Y-20191076D01*
X61144465Y-20168654D01*
X61175726Y-20160277D01*
X61241943Y-20151560D01*
X61258128Y-20150499D01*
X61284353Y-20150499D01*
X63715649Y-20150499D01*
X63741874Y-20150499D01*
X63758059Y-20151560D01*
G37*
G04 #@! TD.AperFunction*
G04 #@! TA.AperFunction,Conductor*
G36*
X68758059Y-20151560D02*
G01*
X68824273Y-20160277D01*
X68855539Y-20168655D01*
X68909666Y-20191075D01*
X68937698Y-20207258D01*
X68984184Y-20242928D01*
X69007072Y-20265816D01*
X69042737Y-20312296D01*
X69058922Y-20340329D01*
X69081345Y-20394462D01*
X69089723Y-20425729D01*
X69089852Y-20426706D01*
X69095569Y-20470136D01*
X69098436Y-20491908D01*
X69099497Y-20508155D01*
X69096830Y-25957462D01*
X69096704Y-26214515D01*
X69096688Y-26214551D01*
X69096688Y-26248845D01*
X69096688Y-26248962D01*
X69096667Y-26291989D01*
X69096688Y-26292201D01*
X69096688Y-26322202D01*
X69129305Y-26465108D01*
X69192905Y-26597175D01*
X69192907Y-26597178D01*
X69192908Y-26597179D01*
X69284304Y-26711786D01*
X69398911Y-26803182D01*
X69530981Y-26866785D01*
X69640124Y-26891696D01*
X69673889Y-26899403D01*
X69673894Y-26899404D01*
X69791564Y-26899404D01*
X69858603Y-26919089D01*
X69900782Y-26964690D01*
X72485220Y-31772504D01*
X72500000Y-31831215D01*
X72500000Y-46523898D01*
X72480315Y-46590937D01*
X72427511Y-46636692D01*
X72373916Y-46647880D01*
X66671916Y-46552049D01*
X66605217Y-46531241D01*
X66560356Y-46477676D01*
X66550000Y-46428067D01*
X66550000Y-36400001D01*
X64907579Y-31920670D01*
X64900000Y-31877982D01*
X64900000Y-26024501D01*
X64919685Y-25957462D01*
X64972489Y-25911707D01*
X65024000Y-25900501D01*
X65323291Y-25900501D01*
X65323292Y-25900501D01*
X65323294Y-25900500D01*
X65323297Y-25900500D01*
X65466205Y-25867883D01*
X65598272Y-25804283D01*
X65598272Y-25804282D01*
X65598276Y-25804281D01*
X65712883Y-25712885D01*
X65804279Y-25598278D01*
X65867881Y-25466207D01*
X65900500Y-25323295D01*
X65900500Y-25250001D01*
X65900500Y-25215650D01*
X65900500Y-25215649D01*
X65900500Y-20508108D01*
X65901559Y-20491957D01*
X65910279Y-20425722D01*
X65918656Y-20394462D01*
X65941080Y-20340325D01*
X65957260Y-20312302D01*
X65992934Y-20265810D01*
X66015813Y-20242931D01*
X66062306Y-20207256D01*
X66090332Y-20191076D01*
X66144465Y-20168654D01*
X66175726Y-20160277D01*
X66241943Y-20151560D01*
X66258128Y-20150499D01*
X66284353Y-20150499D01*
X68715649Y-20150499D01*
X68741874Y-20150499D01*
X68758059Y-20151560D01*
G37*
G04 #@! TD.AperFunction*
G04 #@! TA.AperFunction,Conductor*
G36*
X54258059Y-20151561D02*
G01*
X54324273Y-20160278D01*
X54355539Y-20168656D01*
X54409666Y-20191076D01*
X54437698Y-20207259D01*
X54484184Y-20242929D01*
X54507070Y-20265815D01*
X54520865Y-20283793D01*
X54542739Y-20312300D01*
X54558923Y-20340333D01*
X54581343Y-20394460D01*
X54589721Y-20425725D01*
X54598439Y-20491939D01*
X54599500Y-20508126D01*
X54599500Y-26194848D01*
X54598329Y-26205244D01*
X54598329Y-26321596D01*
X54630948Y-26464506D01*
X54694547Y-26596571D01*
X54694551Y-26596577D01*
X54733602Y-26645544D01*
X54785946Y-26711181D01*
X54822675Y-26740471D01*
X54823335Y-26740998D01*
X54863475Y-26798186D01*
X54866324Y-26867998D01*
X54855241Y-26896655D01*
X52277850Y-31691360D01*
X52277845Y-31691370D01*
X52259572Y-31738494D01*
X52244791Y-31797205D01*
X52238575Y-31847363D01*
X52238574Y-31847380D01*
X52238574Y-46540060D01*
X52243643Y-46585422D01*
X52255736Y-46638848D01*
X52258777Y-46650644D01*
X52258778Y-46650646D01*
X52258779Y-46650648D01*
X52303139Y-46730625D01*
X52349775Y-46782652D01*
X52367666Y-46800308D01*
X52448223Y-46843607D01*
X52483597Y-46853351D01*
X52515572Y-46862159D01*
X52515576Y-46862159D01*
X52515584Y-46862162D01*
X52515589Y-46862162D01*
X52515591Y-46862163D01*
X52520402Y-46862772D01*
X52573611Y-46869512D01*
X55523416Y-46819935D01*
X55590777Y-46838490D01*
X55637413Y-46890517D01*
X55649500Y-46943917D01*
X55649500Y-48675500D01*
X55629815Y-48742539D01*
X55577011Y-48788294D01*
X55525500Y-48799500D01*
X55295730Y-48799500D01*
X55265300Y-48802353D01*
X55265298Y-48802353D01*
X55137119Y-48847206D01*
X55137117Y-48847207D01*
X55027850Y-48927850D01*
X54947207Y-49037117D01*
X54947206Y-49037119D01*
X54902353Y-49165298D01*
X54902353Y-49165300D01*
X54899500Y-49195730D01*
X54899500Y-51104269D01*
X54902353Y-51134699D01*
X54902353Y-51134701D01*
X54939419Y-51240626D01*
X54947207Y-51262882D01*
X55027850Y-51372150D01*
X55137118Y-51452793D01*
X55179845Y-51467744D01*
X55265299Y-51497646D01*
X55295730Y-51500500D01*
X55295734Y-51500500D01*
X57258481Y-51500500D01*
X57325520Y-51520185D01*
X57346162Y-51536819D01*
X59197166Y-53387823D01*
X59230651Y-53449146D01*
X59225667Y-53518838D01*
X59183795Y-53574771D01*
X59150443Y-53592544D01*
X59137120Y-53597206D01*
X59137117Y-53597207D01*
X59027850Y-53677850D01*
X58947207Y-53787117D01*
X58947206Y-53787119D01*
X58902353Y-53915298D01*
X58902353Y-53915300D01*
X58899500Y-53945730D01*
X58899500Y-55854269D01*
X58902353Y-55884699D01*
X58902353Y-55884701D01*
X58947206Y-56012880D01*
X58947207Y-56012882D01*
X59027850Y-56122150D01*
X59137118Y-56202793D01*
X59179845Y-56217744D01*
X59265299Y-56247646D01*
X59295730Y-56250500D01*
X59295734Y-56250500D01*
X61404270Y-56250500D01*
X61434699Y-56247646D01*
X61434701Y-56247646D01*
X61498790Y-56225219D01*
X61562882Y-56202793D01*
X61672150Y-56122150D01*
X61752793Y-56012882D01*
X61775219Y-55948790D01*
X61797646Y-55884701D01*
X61797646Y-55884699D01*
X61800500Y-55854269D01*
X61800500Y-53945730D01*
X61797646Y-53915300D01*
X61797646Y-53915298D01*
X61752793Y-53787119D01*
X61752792Y-53787117D01*
X61672150Y-53677850D01*
X61562882Y-53597207D01*
X61562880Y-53597206D01*
X61434700Y-53552353D01*
X61404270Y-53549500D01*
X61404266Y-53549500D01*
X61165888Y-53549500D01*
X61098849Y-53529815D01*
X61053094Y-53477011D01*
X61044271Y-53449691D01*
X61037647Y-53416394D01*
X61023580Y-53345672D01*
X60996794Y-53281004D01*
X60970777Y-53218192D01*
X60894112Y-53103454D01*
X60894111Y-53103453D01*
X59502724Y-51712067D01*
X59469239Y-51650744D01*
X59474223Y-51581052D01*
X59516095Y-51525119D01*
X59581559Y-51500702D01*
X59592835Y-51500563D01*
X59592835Y-51500500D01*
X61704270Y-51500500D01*
X61734699Y-51497646D01*
X61734701Y-51497646D01*
X61798790Y-51475219D01*
X61862882Y-51452793D01*
X61972150Y-51372150D01*
X62052793Y-51262882D01*
X62075750Y-51197275D01*
X62097646Y-51134701D01*
X62097646Y-51134699D01*
X62100500Y-51104269D01*
X62100500Y-50974500D01*
X62120185Y-50907461D01*
X62172989Y-50861706D01*
X62224500Y-50850500D01*
X62331007Y-50850500D01*
X62525500Y-50850500D01*
X62592539Y-50870185D01*
X62638294Y-50922989D01*
X62649500Y-50974500D01*
X62649500Y-51104269D01*
X62652353Y-51134699D01*
X62652353Y-51134701D01*
X62689419Y-51240626D01*
X62697207Y-51262882D01*
X62777850Y-51372150D01*
X62887118Y-51452793D01*
X62929845Y-51467744D01*
X63015299Y-51497646D01*
X63045730Y-51500500D01*
X63045734Y-51500500D01*
X65154270Y-51500500D01*
X65167791Y-51499231D01*
X65184699Y-51497646D01*
X65184707Y-51497643D01*
X65189848Y-51496521D01*
X65259544Y-51501442D01*
X65315516Y-51543262D01*
X65339992Y-51608705D01*
X65325202Y-51676991D01*
X65303997Y-51705344D01*
X64105887Y-52903454D01*
X64060771Y-52970977D01*
X64044998Y-52994583D01*
X64029225Y-53018188D01*
X64029221Y-53018195D01*
X63976421Y-53145667D01*
X63976418Y-53145677D01*
X63949500Y-53281004D01*
X63949500Y-53425500D01*
X63929815Y-53492539D01*
X63877011Y-53538294D01*
X63825500Y-53549500D01*
X63595730Y-53549500D01*
X63565300Y-53552353D01*
X63565298Y-53552353D01*
X63437119Y-53597206D01*
X63437117Y-53597207D01*
X63327850Y-53677850D01*
X63247207Y-53787117D01*
X63247206Y-53787119D01*
X63202353Y-53915298D01*
X63202353Y-53915300D01*
X63199500Y-53945730D01*
X63199500Y-55854269D01*
X63202353Y-55884699D01*
X63202353Y-55884701D01*
X63247206Y-56012880D01*
X63247207Y-56012882D01*
X63327850Y-56122150D01*
X63437118Y-56202793D01*
X63479845Y-56217744D01*
X63565299Y-56247646D01*
X63595730Y-56250500D01*
X63595734Y-56250500D01*
X65704270Y-56250500D01*
X65734699Y-56247646D01*
X65734701Y-56247646D01*
X65798790Y-56225219D01*
X65862882Y-56202793D01*
X65972150Y-56122150D01*
X66052793Y-56012882D01*
X66075219Y-55948790D01*
X66097646Y-55884701D01*
X66097646Y-55884699D01*
X66100500Y-55854269D01*
X66100500Y-53945730D01*
X66097646Y-53915300D01*
X66097646Y-53915298D01*
X66052793Y-53787119D01*
X66052792Y-53787117D01*
X65972150Y-53677850D01*
X65862882Y-53597207D01*
X65862880Y-53597206D01*
X65734701Y-53552353D01*
X65726325Y-53551568D01*
X65661417Y-53525707D01*
X65620795Y-53468860D01*
X65617355Y-53399075D01*
X65650225Y-53340431D01*
X67453837Y-51536818D01*
X67515160Y-51503334D01*
X67541518Y-51500500D01*
X69454270Y-51500500D01*
X69484699Y-51497646D01*
X69484701Y-51497646D01*
X69548790Y-51475219D01*
X69612882Y-51452793D01*
X69722150Y-51372150D01*
X69802793Y-51262882D01*
X69825750Y-51197275D01*
X69847646Y-51134701D01*
X69847646Y-51134699D01*
X69850500Y-51104269D01*
X69850500Y-49195730D01*
X69847646Y-49165300D01*
X69847646Y-49165298D01*
X69802793Y-49037119D01*
X69802792Y-49037117D01*
X69722150Y-48927850D01*
X69612882Y-48847207D01*
X69612880Y-48847206D01*
X69484700Y-48802353D01*
X69454270Y-48799500D01*
X69454266Y-48799500D01*
X69224500Y-48799500D01*
X69157461Y-48779815D01*
X69111706Y-48727011D01*
X69100500Y-48675500D01*
X69100500Y-46971530D01*
X74009500Y-46971530D01*
X74009500Y-47178469D01*
X74049868Y-47381412D01*
X74049870Y-47381420D01*
X74129058Y-47572596D01*
X74244024Y-47744657D01*
X74390342Y-47890975D01*
X74390345Y-47890977D01*
X74562402Y-48005941D01*
X74753580Y-48085130D01*
X74956530Y-48125499D01*
X74956534Y-48125500D01*
X74956535Y-48125500D01*
X76463466Y-48125500D01*
X76463467Y-48125499D01*
X76666420Y-48085130D01*
X76857598Y-48005941D01*
X77029655Y-47890977D01*
X77175977Y-47744655D01*
X77290941Y-47572598D01*
X77320164Y-47502048D01*
X77364005Y-47447644D01*
X77430299Y-47425579D01*
X77434725Y-47425500D01*
X78071142Y-47425500D01*
X78071144Y-47425500D01*
X78160288Y-47401614D01*
X78240212Y-47355470D01*
X78980470Y-46615212D01*
X79026614Y-46535288D01*
X79030799Y-46519669D01*
X79050500Y-46446144D01*
X79050500Y-33653856D01*
X79026614Y-33564712D01*
X78980470Y-33484788D01*
X78115212Y-32619530D01*
X78115211Y-32619529D01*
X78115208Y-32619527D01*
X78035290Y-32573387D01*
X78035289Y-32573386D01*
X78035288Y-32573386D01*
X77946144Y-32549500D01*
X77946143Y-32549500D01*
X77749500Y-32549500D01*
X77682461Y-32529815D01*
X77636706Y-32477011D01*
X77625500Y-32425500D01*
X77625500Y-32390231D01*
X77622686Y-32360230D01*
X77622686Y-32360226D01*
X77622684Y-32360222D01*
X77622684Y-32360218D01*
X77578455Y-32233821D01*
X77578454Y-32233819D01*
X77498930Y-32126069D01*
X77391180Y-32046545D01*
X77391178Y-32046544D01*
X77264781Y-32002315D01*
X77264769Y-32002313D01*
X77234768Y-31999500D01*
X77234764Y-31999500D01*
X76640236Y-31999500D01*
X76640232Y-31999500D01*
X76610230Y-32002313D01*
X76610218Y-32002315D01*
X76483821Y-32046544D01*
X76483819Y-32046545D01*
X76376069Y-32126069D01*
X76296545Y-32233819D01*
X76296544Y-32233821D01*
X76252315Y-32360218D01*
X76252313Y-32360230D01*
X76249500Y-32390231D01*
X76249500Y-33409768D01*
X76252313Y-33439769D01*
X76252315Y-33439781D01*
X76296544Y-33566178D01*
X76296545Y-33566180D01*
X76376069Y-33673930D01*
X76483819Y-33753454D01*
X76483821Y-33753455D01*
X76610218Y-33797684D01*
X76610222Y-33797684D01*
X76610226Y-33797686D01*
X76625231Y-33799093D01*
X76640232Y-33800500D01*
X76640236Y-33800500D01*
X77234768Y-33800500D01*
X77248101Y-33799249D01*
X77264774Y-33797686D01*
X77264778Y-33797684D01*
X77264781Y-33797684D01*
X77361423Y-33763867D01*
X77391179Y-33753455D01*
X77498930Y-33673930D01*
X77578455Y-33566179D01*
X77622686Y-33439774D01*
X77625500Y-33409764D01*
X77625615Y-33408541D01*
X77651472Y-33343632D01*
X77708316Y-33303006D01*
X77778101Y-33299563D01*
X77836754Y-33332436D01*
X78313181Y-33808863D01*
X78346666Y-33870186D01*
X78349500Y-33896544D01*
X78349500Y-46203456D01*
X78329815Y-46270495D01*
X78313181Y-46291137D01*
X77916137Y-46688181D01*
X77854814Y-46721666D01*
X77828456Y-46724500D01*
X77434725Y-46724500D01*
X77367686Y-46704815D01*
X77321931Y-46652011D01*
X77320164Y-46647952D01*
X77290943Y-46577405D01*
X77175975Y-46405342D01*
X77029657Y-46259024D01*
X76943626Y-46201541D01*
X76857598Y-46144059D01*
X76666420Y-46064870D01*
X76666412Y-46064868D01*
X76463469Y-46024500D01*
X76463465Y-46024500D01*
X74956535Y-46024500D01*
X74956530Y-46024500D01*
X74753587Y-46064868D01*
X74753579Y-46064870D01*
X74562403Y-46144058D01*
X74390342Y-46259024D01*
X74244024Y-46405342D01*
X74129058Y-46577403D01*
X74049870Y-46768579D01*
X74049868Y-46768587D01*
X74009500Y-46971530D01*
X69100500Y-46971530D01*
X69100500Y-46924495D01*
X69120185Y-46857456D01*
X69172989Y-46811701D01*
X69226583Y-46800513D01*
X72370463Y-46853351D01*
X72415909Y-46849044D01*
X72428427Y-46846430D01*
X72439781Y-46844061D01*
X72439786Y-46844060D01*
X72450678Y-46841785D01*
X72469504Y-46837856D01*
X72481373Y-46835008D01*
X72562085Y-46791998D01*
X72614889Y-46746243D01*
X72614900Y-46746232D01*
X72614901Y-46746232D01*
X72624211Y-46737109D01*
X72632843Y-46728652D01*
X72677490Y-46648835D01*
X72697175Y-46581796D01*
X72705500Y-46523898D01*
X72705500Y-32390231D01*
X74374500Y-32390231D01*
X74374500Y-33409768D01*
X74377313Y-33439769D01*
X74377315Y-33439781D01*
X74421544Y-33566178D01*
X74421545Y-33566180D01*
X74501069Y-33673930D01*
X74608819Y-33753454D01*
X74608821Y-33753455D01*
X74735218Y-33797684D01*
X74735222Y-33797684D01*
X74735226Y-33797686D01*
X74750231Y-33799093D01*
X74765232Y-33800500D01*
X74765236Y-33800500D01*
X75065956Y-33800500D01*
X75132995Y-33820185D01*
X75153637Y-33836819D01*
X76163181Y-34846363D01*
X76196666Y-34907686D01*
X76199500Y-34934044D01*
X76199500Y-35604269D01*
X76202353Y-35634699D01*
X76202353Y-35634701D01*
X76247206Y-35762880D01*
X76247207Y-35762882D01*
X76327850Y-35872150D01*
X76437118Y-35952793D01*
X76479845Y-35967744D01*
X76565299Y-35997646D01*
X76595730Y-36000500D01*
X76595734Y-36000500D01*
X77229270Y-36000500D01*
X77259699Y-35997646D01*
X77259701Y-35997646D01*
X77323790Y-35975219D01*
X77387882Y-35952793D01*
X77497150Y-35872150D01*
X77577793Y-35762882D01*
X77602079Y-35693477D01*
X77622646Y-35634701D01*
X77622646Y-35634699D01*
X77625500Y-35604269D01*
X77625500Y-34595730D01*
X77622646Y-34565300D01*
X77622646Y-34565298D01*
X77577793Y-34437119D01*
X77577792Y-34437117D01*
X77497150Y-34327850D01*
X77387882Y-34247207D01*
X77387880Y-34247206D01*
X77259700Y-34202353D01*
X77229270Y-34199500D01*
X77229266Y-34199500D01*
X76595734Y-34199500D01*
X76595729Y-34199500D01*
X76573268Y-34201606D01*
X76504684Y-34188266D01*
X76474011Y-34165829D01*
X75786819Y-33478637D01*
X75753334Y-33417314D01*
X75750500Y-33390956D01*
X75750500Y-32390231D01*
X75747686Y-32360230D01*
X75747686Y-32360226D01*
X75747684Y-32360222D01*
X75747684Y-32360218D01*
X75703455Y-32233821D01*
X75703454Y-32233819D01*
X75623930Y-32126069D01*
X75516180Y-32046545D01*
X75516178Y-32046544D01*
X75389781Y-32002315D01*
X75389769Y-32002313D01*
X75359768Y-31999500D01*
X75359764Y-31999500D01*
X74765236Y-31999500D01*
X74765232Y-31999500D01*
X74735230Y-32002313D01*
X74735218Y-32002315D01*
X74608821Y-32046544D01*
X74608819Y-32046545D01*
X74501069Y-32126069D01*
X74421545Y-32233819D01*
X74421544Y-32233821D01*
X74377315Y-32360218D01*
X74377313Y-32360230D01*
X74374500Y-32390231D01*
X72705500Y-32390231D01*
X72705500Y-31831215D01*
X72699282Y-31781047D01*
X72699282Y-31781044D01*
X72684504Y-31722344D01*
X72684502Y-31722336D01*
X72666226Y-31675204D01*
X70110727Y-26921225D01*
X70096324Y-26852856D01*
X70121170Y-26787554D01*
X70142635Y-26765567D01*
X70210072Y-26711788D01*
X70301468Y-26597181D01*
X70365071Y-26465111D01*
X70397690Y-26322198D01*
X70397690Y-26248904D01*
X70397690Y-26246200D01*
X70400479Y-20541215D01*
X70400483Y-20534382D01*
X70400500Y-20534350D01*
X70400500Y-20508049D01*
X70400506Y-20508027D01*
X70401561Y-20491940D01*
X70404432Y-20470136D01*
X70410278Y-20425724D01*
X70418655Y-20394463D01*
X70441077Y-20340330D01*
X70457257Y-20312304D01*
X70492932Y-20265811D01*
X70515811Y-20242932D01*
X70562304Y-20207257D01*
X70590330Y-20191077D01*
X70644463Y-20168655D01*
X70675724Y-20160278D01*
X70741942Y-20151561D01*
X70758127Y-20150500D01*
X70784351Y-20150500D01*
X74965649Y-20150500D01*
X74997294Y-20150500D01*
X75002702Y-20150617D01*
X75417276Y-20168718D01*
X75428011Y-20169658D01*
X75836740Y-20223468D01*
X75847382Y-20225344D01*
X76249865Y-20314572D01*
X76260302Y-20317369D01*
X76653473Y-20441336D01*
X76663616Y-20445027D01*
X77044494Y-20602792D01*
X77054285Y-20607358D01*
X77419942Y-20797707D01*
X77429310Y-20803115D01*
X77776996Y-21024615D01*
X77785857Y-21030820D01*
X78112906Y-21281773D01*
X78121193Y-21288727D01*
X78425122Y-21567228D01*
X78432771Y-21574877D01*
X78711272Y-21878806D01*
X78718226Y-21887093D01*
X78969179Y-22214142D01*
X78975384Y-22223003D01*
X79196884Y-22570689D01*
X79202292Y-22580057D01*
X79392638Y-22945707D01*
X79397210Y-22955511D01*
X79554966Y-23336368D01*
X79558666Y-23346534D01*
X79682628Y-23739692D01*
X79685428Y-23750141D01*
X79774654Y-24152614D01*
X79776532Y-24163267D01*
X79830339Y-24571968D01*
X79831282Y-24582744D01*
X79849382Y-24997297D01*
X79849500Y-25002706D01*
X79849500Y-115497293D01*
X79849382Y-115502702D01*
X79831282Y-115917255D01*
X79830339Y-115928031D01*
X79776532Y-116336732D01*
X79774654Y-116347385D01*
X79685428Y-116749858D01*
X79682628Y-116760307D01*
X79558666Y-117153465D01*
X79554966Y-117163631D01*
X79397210Y-117544488D01*
X79392638Y-117554292D01*
X79202292Y-117919942D01*
X79196884Y-117929310D01*
X78975384Y-118276996D01*
X78969179Y-118285857D01*
X78718226Y-118612906D01*
X78711272Y-118621193D01*
X78432771Y-118925122D01*
X78425122Y-118932771D01*
X78121193Y-119211272D01*
X78112906Y-119218226D01*
X77785857Y-119469179D01*
X77776996Y-119475384D01*
X77429310Y-119696884D01*
X77419942Y-119702292D01*
X77054292Y-119892638D01*
X77044488Y-119897210D01*
X76663631Y-120054966D01*
X76653465Y-120058666D01*
X76260307Y-120182628D01*
X76249858Y-120185428D01*
X75847385Y-120274654D01*
X75836732Y-120276532D01*
X75428031Y-120330339D01*
X75417255Y-120331282D01*
X75002703Y-120349382D01*
X74997294Y-120349500D01*
X50002706Y-120349500D01*
X49997297Y-120349382D01*
X49582744Y-120331282D01*
X49571968Y-120330339D01*
X49163267Y-120276532D01*
X49152614Y-120274654D01*
X48750141Y-120185428D01*
X48739692Y-120182628D01*
X48346534Y-120058666D01*
X48336368Y-120054966D01*
X47955511Y-119897210D01*
X47945707Y-119892638D01*
X47580057Y-119702292D01*
X47570689Y-119696884D01*
X47223003Y-119475384D01*
X47214142Y-119469179D01*
X46887093Y-119218226D01*
X46878806Y-119211272D01*
X46574877Y-118932771D01*
X46567228Y-118925122D01*
X46288727Y-118621193D01*
X46281773Y-118612906D01*
X46030820Y-118285857D01*
X46024615Y-118276996D01*
X45803115Y-117929310D01*
X45797707Y-117919942D01*
X45607361Y-117554292D01*
X45602789Y-117544488D01*
X45445027Y-117163616D01*
X45441333Y-117153465D01*
X45317371Y-116760307D01*
X45314571Y-116749858D01*
X45225345Y-116347385D01*
X45223467Y-116336732D01*
X45206190Y-116205499D01*
X45169658Y-115928011D01*
X45168718Y-115917276D01*
X45150618Y-115502702D01*
X45150500Y-115497293D01*
X45150500Y-103730762D01*
X45170185Y-103663723D01*
X45222989Y-103617968D01*
X45292147Y-103608024D01*
X45355703Y-103637049D01*
X45393477Y-103695827D01*
X45397389Y-103714204D01*
X45397621Y-103715925D01*
X45400757Y-103739214D01*
X45400758Y-103739216D01*
X45429582Y-103819775D01*
X45429585Y-103819780D01*
X45466290Y-103879202D01*
X45466301Y-103879220D01*
X45480795Y-103899758D01*
X45480798Y-103899762D01*
X45488100Y-103905555D01*
X45552445Y-103956601D01*
X45615472Y-103986756D01*
X45615476Y-103986757D01*
X45615481Y-103986760D01*
X45638769Y-103996198D01*
X45729767Y-104005279D01*
X45729769Y-104005278D01*
X45729773Y-104005279D01*
X45789460Y-103997782D01*
X45799091Y-103996573D01*
X45799091Y-103996572D01*
X45799098Y-103996572D01*
X45823801Y-103991920D01*
X45905268Y-103950359D01*
X45958880Y-103905555D01*
X45964084Y-103899762D01*
X45967341Y-103896136D01*
X46026785Y-103859418D01*
X46059588Y-103855000D01*
X49671000Y-103855000D01*
X49738039Y-103874685D01*
X49783794Y-103927489D01*
X49795000Y-103979000D01*
X49795000Y-107675844D01*
X49800151Y-107721567D01*
X49803048Y-107731620D01*
X49801973Y-107731929D01*
X49806479Y-107746186D01*
X49808957Y-107761125D01*
X49808958Y-107761132D01*
X49813374Y-107781373D01*
X49856383Y-107862083D01*
X49856385Y-107862086D01*
X49902144Y-107914895D01*
X49919726Y-107932839D01*
X49919730Y-107932843D01*
X49919731Y-107932844D01*
X49919733Y-107932845D01*
X49999543Y-107977488D01*
X49999547Y-107977490D01*
X50066586Y-107997175D01*
X50124484Y-108005500D01*
X55270500Y-108005500D01*
X55337539Y-108025185D01*
X55383294Y-108077989D01*
X55394500Y-108129500D01*
X55394500Y-115876007D01*
X55399197Y-115919686D01*
X55410397Y-115971174D01*
X55412890Y-115981372D01*
X55412891Y-115981375D01*
X55455899Y-116062083D01*
X55455901Y-116062086D01*
X55501660Y-116114895D01*
X55519242Y-116132839D01*
X55519246Y-116132843D01*
X55519247Y-116132844D01*
X55519249Y-116132845D01*
X55599059Y-116177488D01*
X55599063Y-116177490D01*
X55666102Y-116197175D01*
X55724000Y-116205500D01*
X55724004Y-116205500D01*
X61675991Y-116205500D01*
X61676000Y-116205500D01*
X61719684Y-116200803D01*
X61748875Y-116194452D01*
X61771174Y-116189602D01*
X61771190Y-116189598D01*
X61771195Y-116189597D01*
X61781373Y-116187110D01*
X61862085Y-116144100D01*
X61914889Y-116098345D01*
X61932843Y-116080754D01*
X61977490Y-116000937D01*
X61997175Y-115933898D01*
X62005500Y-115876000D01*
X62005500Y-114401617D01*
X63132323Y-114401617D01*
X63132323Y-114598382D01*
X63163101Y-114792705D01*
X63223904Y-114979835D01*
X63313228Y-115155145D01*
X63338642Y-115190125D01*
X63338643Y-115190125D01*
X63899360Y-114629408D01*
X63916398Y-114692993D01*
X63982224Y-114807007D01*
X64075316Y-114900099D01*
X64189330Y-114965925D01*
X64252913Y-114982962D01*
X63692196Y-115543677D01*
X63692196Y-115543678D01*
X63727181Y-115569096D01*
X63902487Y-115658418D01*
X64089617Y-115719221D01*
X64283941Y-115750000D01*
X64480705Y-115750000D01*
X64675028Y-115719221D01*
X64862158Y-115658418D01*
X65037466Y-115569095D01*
X65072448Y-115543678D01*
X65072449Y-115543678D01*
X64511733Y-114982962D01*
X64575316Y-114965925D01*
X64689330Y-114900099D01*
X64782422Y-114807007D01*
X64848248Y-114692993D01*
X64865285Y-114629410D01*
X65426001Y-115190126D01*
X65426001Y-115190125D01*
X65451418Y-115155143D01*
X65540741Y-114979835D01*
X65601544Y-114792705D01*
X65632323Y-114598382D01*
X65632323Y-114401617D01*
X65601544Y-114207294D01*
X65540741Y-114020164D01*
X65451419Y-113844858D01*
X65426001Y-113809873D01*
X65426000Y-113809873D01*
X64865285Y-114370589D01*
X64848248Y-114307007D01*
X64782422Y-114192993D01*
X64689330Y-114099901D01*
X64575316Y-114034075D01*
X64511732Y-114017037D01*
X65072448Y-113456320D01*
X65072448Y-113456319D01*
X65037468Y-113430905D01*
X64862158Y-113341581D01*
X64675028Y-113280778D01*
X64480705Y-113250000D01*
X64283941Y-113250000D01*
X64089617Y-113280778D01*
X63902484Y-113341582D01*
X63727186Y-113430899D01*
X63727182Y-113430902D01*
X63692196Y-113456320D01*
X63692195Y-113456320D01*
X64252913Y-114017037D01*
X64189330Y-114034075D01*
X64075316Y-114099901D01*
X63982224Y-114192993D01*
X63916398Y-114307007D01*
X63899360Y-114370590D01*
X63338643Y-113809872D01*
X63338643Y-113809873D01*
X63313225Y-113844859D01*
X63313222Y-113844863D01*
X63223905Y-114020161D01*
X63163101Y-114207294D01*
X63132323Y-114401617D01*
X62005500Y-114401617D01*
X62005500Y-112140232D01*
X68099500Y-112140232D01*
X68099500Y-112734769D01*
X68102313Y-112764770D01*
X68102315Y-112764782D01*
X68146544Y-112891179D01*
X68146545Y-112891181D01*
X68226069Y-112998931D01*
X68333819Y-113078455D01*
X68333821Y-113078456D01*
X68460218Y-113122685D01*
X68460222Y-113122685D01*
X68460226Y-113122687D01*
X68475231Y-113124094D01*
X68490232Y-113125501D01*
X68490236Y-113125501D01*
X68575500Y-113125501D01*
X68642539Y-113145186D01*
X68688294Y-113197990D01*
X68699500Y-113249501D01*
X68699500Y-113500500D01*
X68679815Y-113567539D01*
X68627011Y-113613294D01*
X68575500Y-113624500D01*
X68495730Y-113624500D01*
X68465300Y-113627353D01*
X68465298Y-113627353D01*
X68337119Y-113672206D01*
X68337117Y-113672207D01*
X68227850Y-113752850D01*
X68147207Y-113862117D01*
X68147206Y-113862119D01*
X68102353Y-113990298D01*
X68102353Y-113990300D01*
X68099500Y-114020730D01*
X68099500Y-114654269D01*
X68102353Y-114684699D01*
X68102353Y-114684701D01*
X68145151Y-114807007D01*
X68147207Y-114812882D01*
X68227850Y-114922150D01*
X68337118Y-115002793D01*
X68379845Y-115017744D01*
X68465299Y-115047646D01*
X68495730Y-115050500D01*
X68495734Y-115050500D01*
X69504270Y-115050500D01*
X69534699Y-115047646D01*
X69534701Y-115047646D01*
X69598790Y-115025219D01*
X69662882Y-115002793D01*
X69772150Y-114922150D01*
X69852793Y-114812882D01*
X69894744Y-114692993D01*
X69897646Y-114684701D01*
X69897646Y-114684699D01*
X69900500Y-114654269D01*
X69900500Y-114020730D01*
X69897646Y-113990300D01*
X69897646Y-113990298D01*
X69852793Y-113862119D01*
X69852792Y-113862117D01*
X69840055Y-113844859D01*
X69772150Y-113752850D01*
X69662882Y-113672207D01*
X69662880Y-113672206D01*
X69534700Y-113627353D01*
X69504270Y-113624500D01*
X69504266Y-113624500D01*
X69424500Y-113624500D01*
X69357461Y-113604815D01*
X69311706Y-113552011D01*
X69300500Y-113500500D01*
X69300500Y-113249501D01*
X69320185Y-113182462D01*
X69372989Y-113136707D01*
X69424500Y-113125501D01*
X69509768Y-113125501D01*
X69523101Y-113124250D01*
X69539774Y-113122687D01*
X69539778Y-113122685D01*
X69539781Y-113122685D01*
X69610845Y-113097817D01*
X69666179Y-113078456D01*
X69773930Y-112998931D01*
X69853455Y-112891180D01*
X69897686Y-112764775D01*
X69900500Y-112734765D01*
X69900500Y-112140237D01*
X69897686Y-112110227D01*
X69897684Y-112110223D01*
X69897684Y-112110219D01*
X69853455Y-111983822D01*
X69853454Y-111983820D01*
X69773930Y-111876070D01*
X69666180Y-111796546D01*
X69666178Y-111796545D01*
X69539781Y-111752316D01*
X69539769Y-111752314D01*
X69509768Y-111749501D01*
X69509764Y-111749501D01*
X68490236Y-111749501D01*
X68490232Y-111749501D01*
X68460230Y-111752314D01*
X68460218Y-111752316D01*
X68333821Y-111796545D01*
X68333819Y-111796546D01*
X68226069Y-111876070D01*
X68146545Y-111983820D01*
X68146544Y-111983822D01*
X68102315Y-112110219D01*
X68102313Y-112110231D01*
X68099500Y-112140232D01*
X62005500Y-112140232D01*
X62005500Y-110265230D01*
X68099500Y-110265230D01*
X68099500Y-110859767D01*
X68102313Y-110889768D01*
X68102315Y-110889780D01*
X68146544Y-111016177D01*
X68146545Y-111016179D01*
X68226069Y-111123929D01*
X68333819Y-111203453D01*
X68333821Y-111203454D01*
X68460218Y-111247683D01*
X68460222Y-111247683D01*
X68460226Y-111247685D01*
X68475231Y-111249092D01*
X68490232Y-111250499D01*
X68490236Y-111250499D01*
X69509768Y-111250499D01*
X69523101Y-111249248D01*
X69539774Y-111247685D01*
X69539778Y-111247683D01*
X69539781Y-111247683D01*
X69610845Y-111222815D01*
X69666179Y-111203454D01*
X69773930Y-111123929D01*
X69853455Y-111016178D01*
X69897686Y-110889773D01*
X69900500Y-110859763D01*
X69900500Y-110265235D01*
X69897686Y-110235225D01*
X69897684Y-110235221D01*
X69897684Y-110235217D01*
X69853455Y-110108820D01*
X69853454Y-110108818D01*
X69773930Y-110001068D01*
X69666180Y-109921544D01*
X69666178Y-109921543D01*
X69539781Y-109877314D01*
X69539769Y-109877312D01*
X69509768Y-109874499D01*
X69509764Y-109874499D01*
X69424500Y-109874499D01*
X69357461Y-109854814D01*
X69311706Y-109802010D01*
X69300500Y-109750499D01*
X69300500Y-107925833D01*
X69320185Y-107858794D01*
X69336819Y-107838152D01*
X70112819Y-107062152D01*
X70174142Y-107028667D01*
X70243834Y-107033651D01*
X70299767Y-107075523D01*
X70324184Y-107140987D01*
X70324500Y-107149833D01*
X70324500Y-107154269D01*
X70327353Y-107184699D01*
X70327353Y-107184701D01*
X70372206Y-107312880D01*
X70372207Y-107312882D01*
X70452850Y-107422150D01*
X70562118Y-107502793D01*
X70581400Y-107509540D01*
X70690299Y-107547646D01*
X70720730Y-107550500D01*
X70720734Y-107550500D01*
X72279270Y-107550500D01*
X72309699Y-107547646D01*
X72309701Y-107547646D01*
X72373790Y-107525219D01*
X72437882Y-107502793D01*
X72547150Y-107422150D01*
X72627793Y-107312882D01*
X72650219Y-107248790D01*
X72672646Y-107184701D01*
X72672646Y-107184699D01*
X72675500Y-107154269D01*
X72675500Y-105845730D01*
X72672646Y-105815300D01*
X72672646Y-105815298D01*
X72627793Y-105687119D01*
X72627792Y-105687117D01*
X72547150Y-105577850D01*
X72437882Y-105497207D01*
X72437880Y-105497206D01*
X72309700Y-105452353D01*
X72279270Y-105449500D01*
X72279266Y-105449500D01*
X70720734Y-105449500D01*
X70720730Y-105449500D01*
X70690300Y-105452353D01*
X70690298Y-105452353D01*
X70562119Y-105497206D01*
X70562117Y-105497207D01*
X70452850Y-105577850D01*
X70372207Y-105687117D01*
X70372206Y-105687119D01*
X70327353Y-105815298D01*
X70327353Y-105815300D01*
X70324500Y-105845730D01*
X70324500Y-106075738D01*
X70304815Y-106142777D01*
X70252011Y-106188532D01*
X70216690Y-106198677D01*
X70210438Y-106199500D01*
X70134009Y-106219979D01*
X70134004Y-106219982D01*
X70065495Y-106259535D01*
X70065487Y-106259541D01*
X68759541Y-107565487D01*
X68759535Y-107565495D01*
X68719982Y-107634004D01*
X68719979Y-107634009D01*
X68699500Y-107710439D01*
X68699500Y-109750499D01*
X68679815Y-109817538D01*
X68627011Y-109863293D01*
X68575500Y-109874499D01*
X68490232Y-109874499D01*
X68460230Y-109877312D01*
X68460218Y-109877314D01*
X68333821Y-109921543D01*
X68333819Y-109921544D01*
X68226069Y-110001068D01*
X68146545Y-110108818D01*
X68146544Y-110108820D01*
X68102315Y-110235217D01*
X68102313Y-110235229D01*
X68099500Y-110265230D01*
X62005500Y-110265230D01*
X62005500Y-103151617D01*
X63132323Y-103151617D01*
X63132323Y-103348382D01*
X63163101Y-103542705D01*
X63223904Y-103729835D01*
X63313228Y-103905145D01*
X63338642Y-103940125D01*
X63338643Y-103940125D01*
X63899360Y-103379408D01*
X63916398Y-103442993D01*
X63982224Y-103557007D01*
X64075316Y-103650099D01*
X64189330Y-103715925D01*
X64252913Y-103732962D01*
X63692196Y-104293677D01*
X63692196Y-104293678D01*
X63727181Y-104319096D01*
X63902487Y-104408418D01*
X64089617Y-104469221D01*
X64283941Y-104500000D01*
X64480705Y-104500000D01*
X64675028Y-104469221D01*
X64862158Y-104408418D01*
X65037466Y-104319095D01*
X65072448Y-104293678D01*
X65072449Y-104293678D01*
X64511733Y-103732962D01*
X64575316Y-103715925D01*
X64689330Y-103650099D01*
X64782422Y-103557007D01*
X64848248Y-103442993D01*
X64865285Y-103379410D01*
X65426001Y-103940126D01*
X65426001Y-103940125D01*
X65451418Y-103905143D01*
X65540741Y-103729835D01*
X65601544Y-103542705D01*
X65632323Y-103348382D01*
X65632323Y-103151617D01*
X65601544Y-102957294D01*
X65540741Y-102770164D01*
X65451419Y-102594858D01*
X65426001Y-102559873D01*
X65426000Y-102559873D01*
X64865285Y-103120589D01*
X64848248Y-103057007D01*
X64782422Y-102942993D01*
X64689330Y-102849901D01*
X64575316Y-102784075D01*
X64511732Y-102767037D01*
X65072448Y-102206320D01*
X65072448Y-102206319D01*
X65037468Y-102180905D01*
X64862158Y-102091581D01*
X64675028Y-102030778D01*
X64480705Y-102000000D01*
X64283941Y-102000000D01*
X64089617Y-102030778D01*
X63902484Y-102091582D01*
X63727186Y-102180899D01*
X63727182Y-102180902D01*
X63692196Y-102206320D01*
X63692195Y-102206320D01*
X64252913Y-102767037D01*
X64189330Y-102784075D01*
X64075316Y-102849901D01*
X63982224Y-102942993D01*
X63916398Y-103057007D01*
X63899360Y-103120590D01*
X63338643Y-102559872D01*
X63338643Y-102559873D01*
X63313225Y-102594859D01*
X63313222Y-102594863D01*
X63223905Y-102770161D01*
X63163101Y-102957294D01*
X63132323Y-103151617D01*
X62005500Y-103151617D01*
X62005500Y-101396530D01*
X70324500Y-101396530D01*
X70324500Y-101603469D01*
X70364868Y-101806412D01*
X70364870Y-101806420D01*
X70444058Y-101997596D01*
X70559024Y-102169657D01*
X70705342Y-102315975D01*
X70705345Y-102315977D01*
X70877402Y-102430941D01*
X71068580Y-102510130D01*
X71271530Y-102550499D01*
X71271534Y-102550500D01*
X71271535Y-102550500D01*
X71728466Y-102550500D01*
X71728467Y-102550499D01*
X71931420Y-102510130D01*
X72122598Y-102430941D01*
X72294655Y-102315977D01*
X72440977Y-102169655D01*
X72459679Y-102141666D01*
X72550589Y-102005609D01*
X72604201Y-101960804D01*
X72653691Y-101950500D01*
X73542324Y-101950500D01*
X73609363Y-101970185D01*
X73655118Y-102022989D01*
X73665062Y-102092147D01*
X73646558Y-102141666D01*
X73639379Y-102152806D01*
X73599500Y-102192686D01*
X73533608Y-102306814D01*
X73528956Y-102324171D01*
X73518439Y-102340494D01*
X73509042Y-102348616D01*
X73501886Y-102361009D01*
X72574445Y-103288450D01*
X72513122Y-103321935D01*
X72443430Y-103316951D01*
X72399083Y-103288450D01*
X72294657Y-103184024D01*
X72208626Y-103126541D01*
X72122598Y-103069059D01*
X71931420Y-102989870D01*
X71931412Y-102989868D01*
X71728469Y-102949500D01*
X71728465Y-102949500D01*
X71271535Y-102949500D01*
X71271530Y-102949500D01*
X71068587Y-102989868D01*
X71068579Y-102989870D01*
X70877403Y-103069058D01*
X70705342Y-103184024D01*
X70559024Y-103330342D01*
X70444058Y-103502403D01*
X70364870Y-103693579D01*
X70364868Y-103693587D01*
X70324500Y-103896530D01*
X70324500Y-104103469D01*
X70364868Y-104306412D01*
X70364870Y-104306420D01*
X70444058Y-104497596D01*
X70559024Y-104669657D01*
X70705342Y-104815975D01*
X70705345Y-104815977D01*
X70877402Y-104930941D01*
X71068580Y-105010130D01*
X71271530Y-105050499D01*
X71271534Y-105050500D01*
X71271535Y-105050500D01*
X71728466Y-105050500D01*
X71728467Y-105050499D01*
X71931420Y-105010130D01*
X72122598Y-104930941D01*
X72294655Y-104815977D01*
X72440977Y-104669655D01*
X72555941Y-104497598D01*
X72555945Y-104497586D01*
X72557073Y-104495477D01*
X72557086Y-104495404D01*
X72557151Y-104495332D01*
X72558811Y-104492227D01*
X72559593Y-104492645D01*
X72578176Y-104472202D01*
X72597826Y-104447780D01*
X72602238Y-104445730D01*
X72604083Y-104443702D01*
X72636492Y-104429824D01*
X72636526Y-104429808D01*
X72649673Y-104426286D01*
X72649674Y-104426286D01*
X72649677Y-104426285D01*
X72649677Y-104426284D01*
X72673887Y-104419799D01*
X72776614Y-104360489D01*
X74138990Y-102998111D01*
X74186228Y-102970842D01*
X74185674Y-102969504D01*
X74193180Y-102966393D01*
X74193186Y-102966392D01*
X74307314Y-102900500D01*
X74400500Y-102807314D01*
X74466392Y-102693186D01*
X74500500Y-102565892D01*
X74500500Y-102434108D01*
X74466392Y-102306814D01*
X74400500Y-102192686D01*
X74307314Y-102099500D01*
X74250250Y-102066554D01*
X74193187Y-102033608D01*
X74088691Y-102005609D01*
X74065892Y-101999500D01*
X73936965Y-101999500D01*
X73869926Y-101979815D01*
X73824171Y-101927011D01*
X73814227Y-101857853D01*
X73843252Y-101794297D01*
X73849284Y-101787819D01*
X74607288Y-101029815D01*
X76888990Y-98748111D01*
X76936228Y-98720842D01*
X76935674Y-98719504D01*
X76943180Y-98716393D01*
X76943186Y-98716392D01*
X77057314Y-98650500D01*
X77150500Y-98557314D01*
X77216392Y-98443186D01*
X77250500Y-98315892D01*
X77250500Y-98184108D01*
X77216392Y-98056814D01*
X77150500Y-97942686D01*
X77057314Y-97849500D01*
X77000250Y-97816554D01*
X76943187Y-97783608D01*
X76879539Y-97766554D01*
X76815892Y-97749500D01*
X76684108Y-97749500D01*
X76556812Y-97783608D01*
X76442686Y-97849500D01*
X76442683Y-97849502D01*
X76349502Y-97942683D01*
X76349498Y-97942689D01*
X76283606Y-98056816D01*
X76280495Y-98064328D01*
X76279161Y-98063775D01*
X76251886Y-98111009D01*
X73349716Y-101013181D01*
X73288393Y-101046666D01*
X73262035Y-101049500D01*
X72653691Y-101049500D01*
X72586652Y-101029815D01*
X72550589Y-100994391D01*
X72440977Y-100830344D01*
X72294657Y-100684024D01*
X72208626Y-100626541D01*
X72122598Y-100569059D01*
X71931420Y-100489870D01*
X71931412Y-100489868D01*
X71728469Y-100449500D01*
X71728465Y-100449500D01*
X71271535Y-100449500D01*
X71271530Y-100449500D01*
X71068587Y-100489868D01*
X71068579Y-100489870D01*
X70877403Y-100569058D01*
X70705342Y-100684024D01*
X70559024Y-100830342D01*
X70444058Y-101002403D01*
X70364870Y-101193579D01*
X70364868Y-101193587D01*
X70324500Y-101396530D01*
X62005500Y-101396530D01*
X62005500Y-98896530D01*
X70324500Y-98896530D01*
X70324500Y-99103469D01*
X70364868Y-99306412D01*
X70364870Y-99306420D01*
X70444058Y-99497596D01*
X70559024Y-99669657D01*
X70705342Y-99815975D01*
X70705345Y-99815977D01*
X70877402Y-99930941D01*
X71068580Y-100010130D01*
X71271530Y-100050499D01*
X71271534Y-100050500D01*
X71271535Y-100050500D01*
X71728466Y-100050500D01*
X71728467Y-100050499D01*
X71931420Y-100010130D01*
X72122598Y-99930941D01*
X72294655Y-99815977D01*
X72440977Y-99669655D01*
X72550589Y-99505609D01*
X72604201Y-99460804D01*
X72653691Y-99450500D01*
X73559308Y-99450500D01*
X73559309Y-99450500D01*
X73649673Y-99426286D01*
X73673887Y-99419799D01*
X73776614Y-99360489D01*
X76935284Y-96201819D01*
X76996607Y-96168334D01*
X77022965Y-96165500D01*
X77496063Y-96165500D01*
X77548750Y-96179618D01*
X77549304Y-96178281D01*
X77556807Y-96181388D01*
X77556814Y-96181392D01*
X77684108Y-96215500D01*
X77684110Y-96215500D01*
X77815890Y-96215500D01*
X77815892Y-96215500D01*
X77943186Y-96181392D01*
X78057314Y-96115500D01*
X78150500Y-96022314D01*
X78216392Y-95908186D01*
X78250500Y-95780892D01*
X78250500Y-95761544D01*
X78270185Y-95694505D01*
X78286819Y-95673863D01*
X78834682Y-95126000D01*
X79480470Y-94480212D01*
X79526614Y-94400288D01*
X79532909Y-94376793D01*
X79550500Y-94311144D01*
X79550500Y-90828856D01*
X79526614Y-90739712D01*
X79492112Y-90679955D01*
X79475500Y-90617955D01*
X79475500Y-90216506D01*
X79459720Y-90116878D01*
X79459719Y-90116876D01*
X79459719Y-90116874D01*
X79398528Y-89996780D01*
X79398526Y-89996778D01*
X79398523Y-89996774D01*
X79303225Y-89901476D01*
X79303221Y-89901473D01*
X79303220Y-89901472D01*
X79183126Y-89840281D01*
X79183124Y-89840280D01*
X79183121Y-89840279D01*
X79083493Y-89824500D01*
X79083488Y-89824500D01*
X78516512Y-89824500D01*
X78516507Y-89824500D01*
X78416878Y-89840279D01*
X78296778Y-89901473D01*
X78296774Y-89901476D01*
X78201476Y-89996774D01*
X78201473Y-89996778D01*
X78140279Y-90116878D01*
X78124500Y-90216506D01*
X78124500Y-90733493D01*
X78140279Y-90833121D01*
X78140280Y-90833124D01*
X78140281Y-90833126D01*
X78167792Y-90887119D01*
X78201473Y-90953221D01*
X78201476Y-90953225D01*
X78296774Y-91048523D01*
X78296778Y-91048526D01*
X78296780Y-91048528D01*
X78416874Y-91109719D01*
X78416876Y-91109719D01*
X78416878Y-91109720D01*
X78516507Y-91125500D01*
X78516512Y-91125500D01*
X78725500Y-91125500D01*
X78792539Y-91145185D01*
X78838294Y-91197989D01*
X78849500Y-91249500D01*
X78849500Y-94068456D01*
X78829815Y-94135495D01*
X78813181Y-94156137D01*
X77791137Y-95178181D01*
X77732518Y-95211046D01*
X77718191Y-95214500D01*
X77684108Y-95214500D01*
X77556814Y-95248608D01*
X77542544Y-95256846D01*
X77525125Y-95261046D01*
X77511455Y-95260375D01*
X77496063Y-95264500D01*
X76725691Y-95264500D01*
X76656944Y-95282920D01*
X76611112Y-95295201D01*
X76611107Y-95295204D01*
X76508393Y-95354505D01*
X76508385Y-95354511D01*
X73349716Y-98513181D01*
X73288393Y-98546666D01*
X73262035Y-98549500D01*
X72653691Y-98549500D01*
X72586652Y-98529815D01*
X72550589Y-98494391D01*
X72440977Y-98330344D01*
X72294657Y-98184024D01*
X72185381Y-98111009D01*
X72122598Y-98069059D01*
X72111176Y-98064328D01*
X71931420Y-97989870D01*
X71931412Y-97989868D01*
X71728469Y-97949500D01*
X71728465Y-97949500D01*
X71271535Y-97949500D01*
X71271530Y-97949500D01*
X71068587Y-97989868D01*
X71068579Y-97989870D01*
X70877403Y-98069058D01*
X70705342Y-98184024D01*
X70559024Y-98330342D01*
X70444058Y-98502403D01*
X70364870Y-98693579D01*
X70364868Y-98693587D01*
X70324500Y-98896530D01*
X62005500Y-98896530D01*
X62005500Y-96249999D01*
X70300884Y-96249999D01*
X70300885Y-96250000D01*
X71095854Y-96250000D01*
X71057370Y-96316657D01*
X71025000Y-96437465D01*
X71025000Y-96562535D01*
X71057370Y-96683343D01*
X71095854Y-96750000D01*
X70300885Y-96750000D01*
X70302085Y-96757584D01*
X70355591Y-96922255D01*
X70434195Y-97076524D01*
X70535967Y-97216602D01*
X70658397Y-97339032D01*
X70798475Y-97440804D01*
X70952744Y-97519408D01*
X71117415Y-97572913D01*
X71250000Y-97593913D01*
X71250000Y-96904145D01*
X71316657Y-96942630D01*
X71437465Y-96975000D01*
X71562535Y-96975000D01*
X71683343Y-96942630D01*
X71750000Y-96904145D01*
X71750000Y-97593912D01*
X71882584Y-97572913D01*
X72047255Y-97519408D01*
X72201524Y-97440804D01*
X72341602Y-97339032D01*
X72464032Y-97216602D01*
X72565804Y-97076524D01*
X72644408Y-96922255D01*
X72697914Y-96757584D01*
X72699115Y-96750000D01*
X71904146Y-96750000D01*
X71942630Y-96683343D01*
X71975000Y-96562535D01*
X71975000Y-96437465D01*
X71942630Y-96316657D01*
X71904146Y-96250000D01*
X72699115Y-96250000D01*
X72699115Y-96249999D01*
X72697914Y-96242415D01*
X72644408Y-96077744D01*
X72565804Y-95923475D01*
X72464032Y-95783397D01*
X72341602Y-95660967D01*
X72201524Y-95559195D01*
X72047257Y-95480591D01*
X71882585Y-95427086D01*
X71750000Y-95406086D01*
X71750000Y-96095854D01*
X71683343Y-96057370D01*
X71562535Y-96025000D01*
X71437465Y-96025000D01*
X71316657Y-96057370D01*
X71250000Y-96095854D01*
X71250000Y-95406086D01*
X71117414Y-95427086D01*
X70952742Y-95480591D01*
X70798475Y-95559195D01*
X70658397Y-95660967D01*
X70535967Y-95783397D01*
X70434195Y-95923475D01*
X70355591Y-96077744D01*
X70302085Y-96242415D01*
X70300884Y-96249999D01*
X62005500Y-96249999D01*
X62005500Y-94684108D01*
X67999500Y-94684108D01*
X67999500Y-94815891D01*
X68033608Y-94943187D01*
X68066554Y-95000250D01*
X68099500Y-95057314D01*
X68192686Y-95150500D01*
X68306814Y-95216392D01*
X68434108Y-95250500D01*
X68434110Y-95250500D01*
X68565890Y-95250500D01*
X68565892Y-95250500D01*
X68693186Y-95216392D01*
X68807314Y-95150500D01*
X68900500Y-95057314D01*
X68966392Y-94943186D01*
X68966393Y-94943180D01*
X68969504Y-94935674D01*
X68970842Y-94936228D01*
X68998111Y-94888990D01*
X71000285Y-92886819D01*
X71061608Y-92853334D01*
X71087966Y-92850500D01*
X72554271Y-92850500D01*
X72584700Y-92847646D01*
X72584702Y-92847646D01*
X72648791Y-92825219D01*
X72712883Y-92802793D01*
X72822151Y-92722150D01*
X72902794Y-92612882D01*
X72925220Y-92548790D01*
X72947647Y-92484701D01*
X72947647Y-92484699D01*
X72950501Y-92454269D01*
X72950501Y-91045730D01*
X72947647Y-91015300D01*
X72947647Y-91015298D01*
X72902794Y-90887119D01*
X72902793Y-90887117D01*
X72862946Y-90833126D01*
X72822151Y-90777850D01*
X72712883Y-90697207D01*
X72712881Y-90697206D01*
X72584701Y-90652353D01*
X72554271Y-90649500D01*
X72554267Y-90649500D01*
X70445735Y-90649500D01*
X70445731Y-90649500D01*
X70415301Y-90652353D01*
X70415299Y-90652353D01*
X70287120Y-90697206D01*
X70287118Y-90697207D01*
X70177851Y-90777850D01*
X70097208Y-90887117D01*
X70097207Y-90887119D01*
X70052354Y-91015298D01*
X70052354Y-91015300D01*
X70049501Y-91045730D01*
X70049501Y-92454269D01*
X70053059Y-92492212D01*
X70050659Y-92492436D01*
X70046564Y-92550421D01*
X70018025Y-92594871D01*
X68361009Y-94251886D01*
X68313775Y-94279161D01*
X68314328Y-94280495D01*
X68306816Y-94283606D01*
X68192689Y-94349498D01*
X68192683Y-94349502D01*
X68099502Y-94442683D01*
X68099500Y-94442686D01*
X68033608Y-94556812D01*
X67999500Y-94684108D01*
X62005500Y-94684108D01*
X62005500Y-86851362D01*
X62004322Y-86829393D01*
X62001488Y-86803035D01*
X61977529Y-86726518D01*
X61944044Y-86665195D01*
X61925342Y-86640213D01*
X61909001Y-86618384D01*
X61908998Y-86618381D01*
X61908991Y-86618371D01*
X59441819Y-84151199D01*
X59408334Y-84089876D01*
X59405500Y-84063518D01*
X59405500Y-82448230D01*
X60722000Y-82448230D01*
X60722000Y-83056769D01*
X60724853Y-83087199D01*
X60724853Y-83087201D01*
X60769706Y-83215380D01*
X60769707Y-83215382D01*
X60850350Y-83324650D01*
X60959618Y-83405293D01*
X61002345Y-83420244D01*
X61087799Y-83450146D01*
X61118230Y-83453000D01*
X61118234Y-83453000D01*
X61578507Y-83453000D01*
X63727752Y-83453000D01*
X64375500Y-83453000D01*
X64442539Y-83472685D01*
X64488294Y-83525489D01*
X64499500Y-83577000D01*
X64499500Y-84731007D01*
X64499500Y-89381007D01*
X64499500Y-89518995D01*
X64499500Y-89518997D01*
X64499499Y-89518997D01*
X64526418Y-89654323D01*
X64526421Y-89654333D01*
X64579222Y-89781808D01*
X64655887Y-89896546D01*
X64655888Y-89896547D01*
X66013180Y-91253838D01*
X66046665Y-91315161D01*
X66049499Y-91341519D01*
X66049499Y-92454269D01*
X66052352Y-92484699D01*
X66052352Y-92484701D01*
X66097205Y-92612880D01*
X66097206Y-92612882D01*
X66177849Y-92722150D01*
X66287117Y-92802793D01*
X66329844Y-92817744D01*
X66415298Y-92847646D01*
X66445729Y-92850500D01*
X66445733Y-92850500D01*
X68554269Y-92850500D01*
X68584698Y-92847646D01*
X68584700Y-92847646D01*
X68648789Y-92825219D01*
X68712881Y-92802793D01*
X68822149Y-92722150D01*
X68902792Y-92612882D01*
X68925218Y-92548790D01*
X68947645Y-92484701D01*
X68947645Y-92484699D01*
X68950499Y-92454269D01*
X68950499Y-91045730D01*
X68947645Y-91015300D01*
X68947645Y-91015298D01*
X68902792Y-90887119D01*
X68902791Y-90887117D01*
X68862944Y-90833126D01*
X68822149Y-90777850D01*
X68712881Y-90697207D01*
X68712879Y-90697206D01*
X68584699Y-90652353D01*
X68554269Y-90649500D01*
X68554265Y-90649500D01*
X67441518Y-90649500D01*
X67374479Y-90629815D01*
X67353837Y-90613181D01*
X65936819Y-89196163D01*
X65903334Y-89134840D01*
X65900500Y-89108482D01*
X65900500Y-84493475D01*
X69224500Y-84493475D01*
X69224500Y-85106517D01*
X69231466Y-85150500D01*
X69239354Y-85200304D01*
X69296950Y-85313342D01*
X69386658Y-85403050D01*
X69386660Y-85403051D01*
X69406793Y-85413309D01*
X69457590Y-85461283D01*
X69474500Y-85523795D01*
X69474500Y-86471143D01*
X69498386Y-86560287D01*
X69498387Y-86560290D01*
X69544527Y-86640208D01*
X69544531Y-86640213D01*
X70863181Y-87958862D01*
X70896666Y-88020185D01*
X70899500Y-88046543D01*
X70899500Y-88065891D01*
X70933608Y-88193187D01*
X70966554Y-88250250D01*
X70999500Y-88307314D01*
X71092686Y-88400500D01*
X71206814Y-88466392D01*
X71334108Y-88500500D01*
X71334110Y-88500500D01*
X71465890Y-88500500D01*
X71465892Y-88500500D01*
X71593186Y-88466392D01*
X71707314Y-88400500D01*
X71800500Y-88307314D01*
X71866392Y-88193186D01*
X71900500Y-88065892D01*
X71900500Y-87934108D01*
X71866392Y-87806814D01*
X71800500Y-87692686D01*
X71719344Y-87611530D01*
X74009500Y-87611530D01*
X74009500Y-87818469D01*
X74049868Y-88021412D01*
X74049870Y-88021420D01*
X74129058Y-88212596D01*
X74244024Y-88384657D01*
X74390342Y-88530975D01*
X74390345Y-88530977D01*
X74562402Y-88645941D01*
X74753580Y-88725130D01*
X74956530Y-88765499D01*
X74956534Y-88765500D01*
X74956535Y-88765500D01*
X76463466Y-88765500D01*
X76463467Y-88765499D01*
X76666420Y-88725130D01*
X76857598Y-88645941D01*
X77029655Y-88530977D01*
X77175977Y-88384655D01*
X77290941Y-88212598D01*
X77370130Y-88021420D01*
X77410500Y-87818465D01*
X77410500Y-87611535D01*
X77370130Y-87408580D01*
X77290941Y-87217402D01*
X77175977Y-87045345D01*
X77175975Y-87045342D01*
X77029657Y-86899024D01*
X76943626Y-86841541D01*
X76857598Y-86784059D01*
X76666420Y-86704870D01*
X76666412Y-86704868D01*
X76463469Y-86664500D01*
X76463465Y-86664500D01*
X74956535Y-86664500D01*
X74956530Y-86664500D01*
X74753587Y-86704868D01*
X74753579Y-86704870D01*
X74562403Y-86784058D01*
X74390342Y-86899024D01*
X74244024Y-87045342D01*
X74129058Y-87217403D01*
X74049870Y-87408579D01*
X74049868Y-87408587D01*
X74009500Y-87611530D01*
X71719344Y-87611530D01*
X71707314Y-87599500D01*
X71650250Y-87566554D01*
X71593187Y-87533608D01*
X71529539Y-87516554D01*
X71465892Y-87499500D01*
X71465891Y-87499500D01*
X71446543Y-87499500D01*
X71379504Y-87479815D01*
X71358862Y-87463181D01*
X70211819Y-86316137D01*
X70178334Y-86254814D01*
X70175500Y-86228456D01*
X70175500Y-85523795D01*
X70195185Y-85456756D01*
X70243207Y-85413309D01*
X70263342Y-85403050D01*
X70353050Y-85313342D01*
X70410646Y-85200304D01*
X70410646Y-85200302D01*
X70410647Y-85200301D01*
X70425499Y-85106524D01*
X70425500Y-85106519D01*
X70425499Y-84493482D01*
X70425498Y-84493475D01*
X70874500Y-84493475D01*
X70874500Y-85106517D01*
X70881466Y-85150500D01*
X70889354Y-85200304D01*
X70946950Y-85313342D01*
X70946952Y-85313344D01*
X70946954Y-85313347D01*
X71036652Y-85403045D01*
X71036654Y-85403046D01*
X71036658Y-85403050D01*
X71149694Y-85460645D01*
X71149698Y-85460647D01*
X71243475Y-85475499D01*
X71243481Y-85475500D01*
X71706518Y-85475499D01*
X71800304Y-85460646D01*
X71913342Y-85403050D01*
X72003050Y-85313342D01*
X72034592Y-85251436D01*
X72051526Y-85218204D01*
X72099500Y-85167409D01*
X72162010Y-85150500D01*
X73885500Y-85150500D01*
X73952539Y-85170185D01*
X73998294Y-85222989D01*
X74009500Y-85274500D01*
X74009500Y-85278469D01*
X74049868Y-85481412D01*
X74049870Y-85481420D01*
X74129058Y-85672596D01*
X74244024Y-85844657D01*
X74390342Y-85990975D01*
X74390345Y-85990977D01*
X74562402Y-86105941D01*
X74753580Y-86185130D01*
X74956530Y-86225499D01*
X74956534Y-86225500D01*
X74956535Y-86225500D01*
X76463466Y-86225500D01*
X76463467Y-86225499D01*
X76666420Y-86185130D01*
X76857598Y-86105941D01*
X77029655Y-85990977D01*
X77175977Y-85844655D01*
X77290941Y-85672598D01*
X77370130Y-85481420D01*
X77410500Y-85278465D01*
X77410500Y-85071535D01*
X77370130Y-84868580D01*
X77290941Y-84677402D01*
X77175977Y-84505345D01*
X77175975Y-84505342D01*
X77029657Y-84359024D01*
X76921343Y-84286652D01*
X76857598Y-84244059D01*
X76666420Y-84164870D01*
X76666412Y-84164868D01*
X76463469Y-84124500D01*
X76463465Y-84124500D01*
X74956535Y-84124500D01*
X74956530Y-84124500D01*
X74753587Y-84164868D01*
X74753579Y-84164870D01*
X74562403Y-84244058D01*
X74390342Y-84359024D01*
X74390341Y-84359025D01*
X74336188Y-84413180D01*
X74274865Y-84446666D01*
X74248506Y-84449500D01*
X72162010Y-84449500D01*
X72094971Y-84429815D01*
X72051526Y-84381796D01*
X72026426Y-84332537D01*
X72003050Y-84286658D01*
X72003047Y-84286655D01*
X72003045Y-84286652D01*
X71913347Y-84196954D01*
X71913344Y-84196952D01*
X71913342Y-84196950D01*
X71823551Y-84151199D01*
X71800301Y-84139352D01*
X71706524Y-84124500D01*
X71243482Y-84124500D01*
X71162519Y-84137323D01*
X71149696Y-84139354D01*
X71036658Y-84196950D01*
X71036657Y-84196951D01*
X71036652Y-84196954D01*
X70946954Y-84286652D01*
X70946951Y-84286657D01*
X70946950Y-84286658D01*
X70927751Y-84324337D01*
X70889352Y-84399698D01*
X70874500Y-84493475D01*
X70425498Y-84493475D01*
X70410646Y-84399696D01*
X70353050Y-84286658D01*
X70353046Y-84286654D01*
X70353045Y-84286652D01*
X70263347Y-84196954D01*
X70263344Y-84196952D01*
X70263342Y-84196950D01*
X70173551Y-84151199D01*
X70150301Y-84139352D01*
X70056524Y-84124500D01*
X69593482Y-84124500D01*
X69512519Y-84137323D01*
X69499696Y-84139354D01*
X69386658Y-84196950D01*
X69386657Y-84196951D01*
X69386652Y-84196954D01*
X69296954Y-84286652D01*
X69296951Y-84286657D01*
X69296950Y-84286658D01*
X69277751Y-84324337D01*
X69239352Y-84399698D01*
X69224500Y-84493475D01*
X65900500Y-84493475D01*
X65900500Y-83577000D01*
X65920185Y-83509961D01*
X65972989Y-83464206D01*
X66024500Y-83453000D01*
X70676770Y-83453000D01*
X70707199Y-83450146D01*
X70707201Y-83450146D01*
X70771290Y-83427719D01*
X70835382Y-83405293D01*
X70944650Y-83324650D01*
X71025293Y-83215382D01*
X71054261Y-83132596D01*
X71070146Y-83087201D01*
X71070146Y-83087199D01*
X71073000Y-83056769D01*
X71073000Y-82531530D01*
X74009500Y-82531530D01*
X74009500Y-82738469D01*
X74049868Y-82941412D01*
X74049870Y-82941420D01*
X74129058Y-83132596D01*
X74244024Y-83304657D01*
X74390342Y-83450975D01*
X74390345Y-83450977D01*
X74562402Y-83565941D01*
X74753580Y-83645130D01*
X74956530Y-83685499D01*
X74956534Y-83685500D01*
X74956535Y-83685500D01*
X76463466Y-83685500D01*
X76463467Y-83685499D01*
X76666420Y-83645130D01*
X76857598Y-83565941D01*
X77029655Y-83450977D01*
X77175977Y-83304655D01*
X77290941Y-83132598D01*
X77370130Y-82941420D01*
X77410500Y-82738465D01*
X77410500Y-82531535D01*
X77370130Y-82328580D01*
X77290941Y-82137402D01*
X77175977Y-81965345D01*
X77175975Y-81965342D01*
X77029657Y-81819024D01*
X76863418Y-81707948D01*
X76857598Y-81704059D01*
X76666420Y-81624870D01*
X76666412Y-81624868D01*
X76463469Y-81584500D01*
X76463465Y-81584500D01*
X74956535Y-81584500D01*
X74956530Y-81584500D01*
X74753587Y-81624868D01*
X74753579Y-81624870D01*
X74562403Y-81704058D01*
X74390342Y-81819024D01*
X74244024Y-81965342D01*
X74129058Y-82137403D01*
X74049870Y-82328579D01*
X74049868Y-82328587D01*
X74009500Y-82531530D01*
X71073000Y-82531530D01*
X71073000Y-82448230D01*
X71070146Y-82417800D01*
X71070146Y-82417798D01*
X71025293Y-82289619D01*
X71025292Y-82289617D01*
X70944650Y-82180350D01*
X70835382Y-82099707D01*
X70835380Y-82099706D01*
X70707200Y-82054853D01*
X70676770Y-82052000D01*
X70676766Y-82052000D01*
X70216493Y-82052000D01*
X68272000Y-82052000D01*
X68204961Y-82032315D01*
X68159206Y-81979511D01*
X68148000Y-81928000D01*
X68148000Y-81832749D01*
X68147999Y-81832747D01*
X68136368Y-81774270D01*
X68136367Y-81774269D01*
X68092052Y-81707947D01*
X68025730Y-81663632D01*
X68025729Y-81663631D01*
X67967252Y-81652000D01*
X67967248Y-81652000D01*
X63727752Y-81652000D01*
X63727747Y-81652000D01*
X63669270Y-81663631D01*
X63669269Y-81663632D01*
X63602947Y-81707947D01*
X63558632Y-81774269D01*
X63558631Y-81774270D01*
X63547000Y-81832747D01*
X63547000Y-81928000D01*
X63527315Y-81995039D01*
X63474511Y-82040794D01*
X63423000Y-82052000D01*
X61118230Y-82052000D01*
X61087800Y-82054853D01*
X61087798Y-82054853D01*
X60959619Y-82099706D01*
X60959617Y-82099707D01*
X60850350Y-82180350D01*
X60769707Y-82289617D01*
X60769706Y-82289619D01*
X60724853Y-82417798D01*
X60724853Y-82417800D01*
X60722000Y-82448230D01*
X59405500Y-82448230D01*
X59405500Y-79991530D01*
X74009500Y-79991530D01*
X74009500Y-80198469D01*
X74049868Y-80401412D01*
X74049870Y-80401420D01*
X74129058Y-80592596D01*
X74244024Y-80764657D01*
X74390342Y-80910975D01*
X74390345Y-80910977D01*
X74562402Y-81025941D01*
X74753580Y-81105130D01*
X74956530Y-81145499D01*
X74956534Y-81145500D01*
X74956535Y-81145500D01*
X76463466Y-81145500D01*
X76463467Y-81145499D01*
X76666420Y-81105130D01*
X76857598Y-81025941D01*
X77029655Y-80910977D01*
X77175977Y-80764655D01*
X77290941Y-80592598D01*
X77370130Y-80401420D01*
X77410500Y-80198465D01*
X77410500Y-79991535D01*
X77370130Y-79788580D01*
X77290941Y-79597402D01*
X77175977Y-79425345D01*
X77175975Y-79425342D01*
X77029657Y-79279024D01*
X76943626Y-79221541D01*
X76857598Y-79164059D01*
X76666420Y-79084870D01*
X76666412Y-79084868D01*
X76463469Y-79044500D01*
X76463465Y-79044500D01*
X74956535Y-79044500D01*
X74956530Y-79044500D01*
X74753587Y-79084868D01*
X74753579Y-79084870D01*
X74562403Y-79164058D01*
X74390342Y-79279024D01*
X74244024Y-79425342D01*
X74129058Y-79597403D01*
X74049870Y-79788579D01*
X74049868Y-79788587D01*
X74009500Y-79991530D01*
X59405500Y-79991530D01*
X59405500Y-78567754D01*
X59405266Y-78564185D01*
X59405000Y-78556073D01*
X59405000Y-78443925D01*
X59405266Y-78435812D01*
X59405500Y-78432243D01*
X59405500Y-77536481D01*
X59425185Y-77469442D01*
X59441819Y-77448800D01*
X59648800Y-77241819D01*
X59710123Y-77208334D01*
X59736481Y-77205500D01*
X62348639Y-77205500D01*
X62351180Y-77205363D01*
X62370607Y-77204322D01*
X62370614Y-77204321D01*
X62370618Y-77204321D01*
X62396965Y-77201488D01*
X62473482Y-77177529D01*
X62534805Y-77144044D01*
X62581629Y-77108991D01*
X62632819Y-77057801D01*
X62694142Y-77024316D01*
X62763834Y-77029300D01*
X62819767Y-77071172D01*
X62844184Y-77136636D01*
X62844500Y-77145482D01*
X62844500Y-79476007D01*
X62849197Y-79519686D01*
X62860397Y-79571174D01*
X62862890Y-79581372D01*
X62862891Y-79581375D01*
X62905899Y-79662083D01*
X62905901Y-79662086D01*
X62951660Y-79714895D01*
X62969242Y-79732839D01*
X62969246Y-79732843D01*
X62969247Y-79732844D01*
X62969249Y-79732845D01*
X63049059Y-79777488D01*
X63049063Y-79777490D01*
X63116102Y-79797175D01*
X63174000Y-79805500D01*
X63174004Y-79805500D01*
X70975991Y-79805500D01*
X70976000Y-79805500D01*
X71019684Y-79800803D01*
X71048875Y-79794452D01*
X71071174Y-79789602D01*
X71071190Y-79789598D01*
X71071195Y-79789597D01*
X71081373Y-79787110D01*
X71162085Y-79744100D01*
X71214889Y-79698345D01*
X71232843Y-79680754D01*
X71277490Y-79600937D01*
X71297175Y-79533898D01*
X71305500Y-79476000D01*
X71305500Y-77674000D01*
X71300803Y-77630316D01*
X71296897Y-77612364D01*
X71289602Y-77578825D01*
X71289348Y-77577789D01*
X71287110Y-77568627D01*
X71244100Y-77487915D01*
X71198345Y-77435111D01*
X71198339Y-77435104D01*
X71180757Y-77417160D01*
X71180756Y-77417159D01*
X71180754Y-77417157D01*
X71180752Y-77417156D01*
X71180750Y-77417154D01*
X71100940Y-77372511D01*
X71100935Y-77372509D01*
X71033903Y-77352826D01*
X71033899Y-77352825D01*
X71033898Y-77352825D01*
X70976000Y-77344500D01*
X70975996Y-77344500D01*
X69436482Y-77344500D01*
X69369443Y-77324815D01*
X69348801Y-77308181D01*
X68781634Y-76741013D01*
X68781633Y-76741012D01*
X68765283Y-76726325D01*
X68765269Y-76726313D01*
X68744623Y-76709675D01*
X68744621Y-76709674D01*
X68744620Y-76709673D01*
X68699017Y-76685818D01*
X68648741Y-76637305D01*
X68632673Y-76569308D01*
X68649005Y-76521984D01*
X68646139Y-76520648D01*
X68653669Y-76504500D01*
X68701472Y-76401987D01*
X68708000Y-76352401D01*
X68707999Y-75992600D01*
X68701472Y-75943013D01*
X68650724Y-75834184D01*
X68565816Y-75749276D01*
X68456987Y-75698528D01*
X68456985Y-75698527D01*
X68456986Y-75698527D01*
X68407401Y-75692000D01*
X67987605Y-75692000D01*
X67971886Y-75694069D01*
X67938013Y-75698528D01*
X67938011Y-75698529D01*
X67938009Y-75698529D01*
X67829183Y-75749276D01*
X67744276Y-75834183D01*
X67722723Y-75880405D01*
X67676551Y-75932844D01*
X67610341Y-75952000D01*
X67144043Y-75952000D01*
X67077004Y-75932315D01*
X67056366Y-75915685D01*
X67003983Y-75863302D01*
X66898893Y-75811927D01*
X66898891Y-75811926D01*
X66830761Y-75802000D01*
X66830760Y-75802000D01*
X65739240Y-75802000D01*
X65739239Y-75802000D01*
X65671108Y-75811926D01*
X65566014Y-75863303D01*
X65483303Y-75946014D01*
X65431926Y-76051108D01*
X65422000Y-76119238D01*
X65422000Y-76485760D01*
X65431926Y-76553891D01*
X65483303Y-76658985D01*
X65507137Y-76682819D01*
X65517749Y-76702255D01*
X65532250Y-76718989D01*
X65534166Y-76732320D01*
X65540622Y-76744142D01*
X65539042Y-76766228D01*
X65542194Y-76788147D01*
X65536598Y-76800398D01*
X65535638Y-76813834D01*
X65522367Y-76831560D01*
X65513169Y-76851703D01*
X65501837Y-76858985D01*
X65493766Y-76869767D01*
X65473020Y-76877504D01*
X65454391Y-76889477D01*
X65432472Y-76892628D01*
X65428302Y-76894184D01*
X65419456Y-76894500D01*
X65286482Y-76894500D01*
X65219443Y-76874815D01*
X65198801Y-76858181D01*
X65091819Y-76751199D01*
X65058334Y-76689876D01*
X65055500Y-76663518D01*
X65055500Y-76024008D01*
X65055499Y-76023992D01*
X65052124Y-75992605D01*
X65050803Y-75980316D01*
X65044643Y-75952000D01*
X65039602Y-75928825D01*
X65039348Y-75927789D01*
X65037110Y-75918627D01*
X64994100Y-75837915D01*
X64985449Y-75827931D01*
X64956425Y-75764378D01*
X64966368Y-75695219D01*
X64969288Y-75689254D01*
X64977490Y-75673575D01*
X64997175Y-75606536D01*
X65005500Y-75548638D01*
X65005500Y-75051362D01*
X65004322Y-75029393D01*
X65001488Y-75003035D01*
X64977529Y-74926518D01*
X64944044Y-74865195D01*
X64926454Y-74841698D01*
X64909001Y-74818384D01*
X64908998Y-74818381D01*
X64908991Y-74818371D01*
X64886747Y-74796127D01*
X64853262Y-74734804D01*
X64858246Y-74665112D01*
X64863032Y-74653977D01*
X64863036Y-74653967D01*
X64863073Y-74653893D01*
X64873000Y-74585760D01*
X64873000Y-74219240D01*
X64863073Y-74151107D01*
X64811698Y-74046017D01*
X64811696Y-74046015D01*
X64811696Y-74046014D01*
X64728985Y-73963303D01*
X64623891Y-73911926D01*
X64555761Y-73902000D01*
X64555760Y-73902000D01*
X63464240Y-73902000D01*
X63460074Y-73902606D01*
X63445266Y-73904764D01*
X63376089Y-73894948D01*
X63339711Y-73869740D01*
X63134319Y-73664348D01*
X63100834Y-73603025D01*
X63098000Y-73576667D01*
X63098000Y-73068755D01*
X63117685Y-73001716D01*
X63170489Y-72955961D01*
X63239647Y-72946017D01*
X63303203Y-72975042D01*
X63309681Y-72981074D01*
X63384152Y-73055545D01*
X63384154Y-73055546D01*
X63384158Y-73055550D01*
X63497194Y-73113145D01*
X63497198Y-73113147D01*
X63590975Y-73127999D01*
X63590981Y-73128000D01*
X64054018Y-73127999D01*
X64147804Y-73113146D01*
X64260842Y-73055550D01*
X64350550Y-72965842D01*
X64408146Y-72852804D01*
X64408146Y-72852802D01*
X64408147Y-72852801D01*
X64422999Y-72759024D01*
X64423000Y-72759019D01*
X64422999Y-72399042D01*
X64442683Y-72332004D01*
X64459313Y-72311367D01*
X64660321Y-72110359D01*
X64721642Y-72076876D01*
X64791334Y-72081860D01*
X64847267Y-72123732D01*
X64871684Y-72189196D01*
X64872000Y-72198042D01*
X64872000Y-72759017D01*
X64877174Y-72791684D01*
X64886854Y-72852804D01*
X64944450Y-72965842D01*
X64944452Y-72965844D01*
X64944454Y-72965847D01*
X65034152Y-73055545D01*
X65034154Y-73055546D01*
X65034158Y-73055550D01*
X65147194Y-73113145D01*
X65147198Y-73113147D01*
X65240975Y-73127999D01*
X65240981Y-73128000D01*
X65704018Y-73127999D01*
X65704022Y-73127999D01*
X65757208Y-73119575D01*
X65791103Y-73114207D01*
X65860396Y-73123162D01*
X65913848Y-73168158D01*
X65934487Y-73234909D01*
X65934500Y-73236680D01*
X65934500Y-73778000D01*
X65914815Y-73845039D01*
X65862011Y-73890794D01*
X65810500Y-73902000D01*
X65739239Y-73902000D01*
X65671108Y-73911926D01*
X65566014Y-73963303D01*
X65483303Y-74046014D01*
X65431926Y-74151108D01*
X65422000Y-74219239D01*
X65422000Y-74585760D01*
X65431926Y-74653891D01*
X65483303Y-74758985D01*
X65566014Y-74841696D01*
X65566015Y-74841696D01*
X65566017Y-74841698D01*
X65671107Y-74893073D01*
X65705173Y-74898036D01*
X65739239Y-74903000D01*
X65739240Y-74903000D01*
X66830761Y-74903000D01*
X66853471Y-74899691D01*
X66898893Y-74893073D01*
X67003983Y-74841698D01*
X67086698Y-74758983D01*
X67138073Y-74653893D01*
X67148000Y-74585760D01*
X67148000Y-74219240D01*
X67138073Y-74151107D01*
X67086698Y-74046017D01*
X67086696Y-74046015D01*
X67086696Y-74046014D01*
X67003985Y-73963303D01*
X66898891Y-73911926D01*
X66830761Y-73902000D01*
X66830760Y-73902000D01*
X66759500Y-73902000D01*
X66692461Y-73882315D01*
X66646706Y-73829511D01*
X66635500Y-73778000D01*
X66635500Y-73240640D01*
X66655185Y-73173601D01*
X66707989Y-73127846D01*
X66777147Y-73117902D01*
X66778866Y-73118162D01*
X66840981Y-73128000D01*
X67304018Y-73127999D01*
X67397804Y-73113146D01*
X67510842Y-73055550D01*
X67600550Y-72965842D01*
X67658146Y-72852804D01*
X67658146Y-72852802D01*
X67658147Y-72852801D01*
X67672999Y-72759024D01*
X67673000Y-72759019D01*
X67672999Y-72145982D01*
X67658146Y-72052196D01*
X67600550Y-71939158D01*
X67600546Y-71939154D01*
X67600545Y-71939152D01*
X67510847Y-71849454D01*
X67510844Y-71849452D01*
X67510842Y-71849450D01*
X67427214Y-71806839D01*
X67397801Y-71791852D01*
X67304024Y-71777000D01*
X66840982Y-71777000D01*
X66760019Y-71789823D01*
X66747196Y-71791854D01*
X66634158Y-71849450D01*
X66634157Y-71849451D01*
X66634152Y-71849454D01*
X66544454Y-71939152D01*
X66544449Y-71939159D01*
X66495974Y-72034296D01*
X66485525Y-72045359D01*
X66479203Y-72059203D01*
X66462022Y-72070244D01*
X66448000Y-72085091D01*
X66432320Y-72089332D01*
X66420425Y-72096977D01*
X66385490Y-72102000D01*
X66159510Y-72102000D01*
X66092471Y-72082315D01*
X66049026Y-72034296D01*
X66020036Y-71977402D01*
X66000550Y-71939158D01*
X66000547Y-71939155D01*
X66000545Y-71939152D01*
X65910847Y-71849454D01*
X65910844Y-71849452D01*
X65910842Y-71849450D01*
X65827214Y-71806839D01*
X65797801Y-71791852D01*
X65704024Y-71777000D01*
X65293042Y-71777000D01*
X65226003Y-71757315D01*
X65180248Y-71704511D01*
X65170304Y-71635353D01*
X65199329Y-71571797D01*
X65205347Y-71565333D01*
X65458867Y-71311814D01*
X65485794Y-71297110D01*
X65511613Y-71280518D01*
X65517813Y-71279626D01*
X65520190Y-71278329D01*
X65546548Y-71275495D01*
X65666319Y-71275495D01*
X65733358Y-71295180D01*
X65754000Y-71311814D01*
X65767681Y-71325495D01*
X65881809Y-71391387D01*
X66009103Y-71425495D01*
X66009105Y-71425495D01*
X66140885Y-71425495D01*
X66140887Y-71425495D01*
X66268181Y-71391387D01*
X66382309Y-71325495D01*
X66475495Y-71232309D01*
X66541387Y-71118181D01*
X66575495Y-70990887D01*
X66575495Y-70929500D01*
X66595180Y-70862461D01*
X66647984Y-70816706D01*
X66699495Y-70805500D01*
X78125991Y-70805500D01*
X78126000Y-70805500D01*
X78169684Y-70800803D01*
X78198875Y-70794452D01*
X78221174Y-70789602D01*
X78221190Y-70789598D01*
X78221195Y-70789597D01*
X78231373Y-70787110D01*
X78312085Y-70744100D01*
X78364889Y-70698345D01*
X78382843Y-70680754D01*
X78427490Y-70600937D01*
X78447175Y-70533898D01*
X78455500Y-70476000D01*
X78455500Y-51124000D01*
X78450803Y-51080316D01*
X78446897Y-51062364D01*
X78439602Y-51028825D01*
X78439348Y-51027789D01*
X78437110Y-51018627D01*
X78394100Y-50937915D01*
X78348345Y-50885111D01*
X78348339Y-50885104D01*
X78330757Y-50867160D01*
X78330756Y-50867159D01*
X78330754Y-50867157D01*
X78330752Y-50867156D01*
X78330750Y-50867154D01*
X78250940Y-50822511D01*
X78250935Y-50822509D01*
X78183903Y-50802826D01*
X78183899Y-50802825D01*
X78183898Y-50802825D01*
X78126000Y-50794500D01*
X76880914Y-50794500D01*
X76813875Y-50774815D01*
X76768120Y-50722011D01*
X76758176Y-50652853D01*
X76787201Y-50589297D01*
X76833461Y-50555939D01*
X76837326Y-50554338D01*
X76857598Y-50545941D01*
X77029655Y-50430977D01*
X77175977Y-50284655D01*
X77290941Y-50112598D01*
X77370130Y-49921420D01*
X77410500Y-49718465D01*
X77410500Y-49511535D01*
X77370130Y-49308580D01*
X77290941Y-49117402D01*
X77175977Y-48945345D01*
X77175975Y-48945342D01*
X77029657Y-48799024D01*
X76921881Y-48727011D01*
X76857598Y-48684059D01*
X76666420Y-48604870D01*
X76666412Y-48604868D01*
X76463469Y-48564500D01*
X76463465Y-48564500D01*
X74956535Y-48564500D01*
X74956530Y-48564500D01*
X74753587Y-48604868D01*
X74753579Y-48604870D01*
X74562403Y-48684058D01*
X74390342Y-48799024D01*
X74244024Y-48945342D01*
X74129058Y-49117403D01*
X74049870Y-49308579D01*
X74049868Y-49308587D01*
X74009500Y-49511530D01*
X74009500Y-49718469D01*
X74049868Y-49921412D01*
X74049870Y-49921420D01*
X74129058Y-50112596D01*
X74244024Y-50284657D01*
X74390342Y-50430975D01*
X74390345Y-50430977D01*
X74562402Y-50545941D01*
X74582674Y-50554338D01*
X74586539Y-50555939D01*
X74640942Y-50599780D01*
X74663007Y-50666074D01*
X74645728Y-50733773D01*
X74594591Y-50781384D01*
X74539086Y-50794500D01*
X71723992Y-50794500D01*
X71680313Y-50799197D01*
X71628825Y-50810397D01*
X71618627Y-50812890D01*
X71618624Y-50812891D01*
X71537916Y-50855899D01*
X71537913Y-50855901D01*
X71485104Y-50901660D01*
X71467160Y-50919242D01*
X71467154Y-50919249D01*
X71422511Y-50999059D01*
X71422509Y-50999064D01*
X71402826Y-51066096D01*
X71402825Y-51066101D01*
X71402825Y-51066102D01*
X71394502Y-51123992D01*
X71394500Y-51124003D01*
X71394500Y-54670500D01*
X71374815Y-54737539D01*
X71322011Y-54783294D01*
X71270500Y-54794500D01*
X67123992Y-54794500D01*
X67080313Y-54799197D01*
X67028825Y-54810397D01*
X67018627Y-54812890D01*
X67018624Y-54812891D01*
X66937916Y-54855899D01*
X66937913Y-54855901D01*
X66885104Y-54901660D01*
X66867160Y-54919242D01*
X66867154Y-54919249D01*
X66822511Y-54999059D01*
X66822509Y-54999064D01*
X66802826Y-55066096D01*
X66794500Y-55124003D01*
X66794500Y-57270500D01*
X66774815Y-57337539D01*
X66722011Y-57383294D01*
X66670500Y-57394500D01*
X58329500Y-57394500D01*
X58262461Y-57374815D01*
X58216706Y-57322011D01*
X58205500Y-57270500D01*
X58205500Y-55324008D01*
X58205499Y-55323992D01*
X58200803Y-55280316D01*
X58196897Y-55262364D01*
X58189602Y-55228825D01*
X58189348Y-55227789D01*
X58187110Y-55218627D01*
X58144100Y-55137915D01*
X58098345Y-55085111D01*
X58098339Y-55085104D01*
X58080757Y-55067160D01*
X58080756Y-55067159D01*
X58080754Y-55067157D01*
X58080752Y-55067156D01*
X58080750Y-55067154D01*
X58000940Y-55022511D01*
X58000935Y-55022509D01*
X57933903Y-55002826D01*
X57933899Y-55002825D01*
X57933898Y-55002825D01*
X57876000Y-54994500D01*
X57875996Y-54994500D01*
X53329500Y-54994500D01*
X53262461Y-54974815D01*
X53216706Y-54922011D01*
X53205500Y-54870500D01*
X53205500Y-50924987D01*
X53200629Y-50880511D01*
X53200629Y-50880510D01*
X53198340Y-50870185D01*
X53189011Y-50828103D01*
X53186264Y-50817147D01*
X53159715Y-50768265D01*
X53142615Y-50736779D01*
X53142614Y-50736777D01*
X53096449Y-50684347D01*
X53096446Y-50684344D01*
X53096131Y-50684028D01*
X53078710Y-50666528D01*
X52998541Y-50622515D01*
X52998536Y-50622513D01*
X52931354Y-50603363D01*
X52906509Y-50599991D01*
X52873388Y-50595497D01*
X52873384Y-50595497D01*
X50748615Y-50612359D01*
X50681421Y-50593207D01*
X50635249Y-50540768D01*
X50624757Y-50471691D01*
X50653277Y-50407906D01*
X50659937Y-50400694D01*
X50775977Y-50284655D01*
X50890941Y-50112598D01*
X50970130Y-49921420D01*
X51010500Y-49718465D01*
X51010500Y-49511535D01*
X50970130Y-49308580D01*
X50890941Y-49117402D01*
X50775977Y-48945345D01*
X50775975Y-48945342D01*
X50629657Y-48799024D01*
X50521881Y-48727011D01*
X50457598Y-48684059D01*
X50266420Y-48604870D01*
X50266412Y-48604868D01*
X50063469Y-48564500D01*
X50063465Y-48564500D01*
X48556535Y-48564500D01*
X48556530Y-48564500D01*
X48353587Y-48604868D01*
X48353579Y-48604870D01*
X48162403Y-48684058D01*
X47990342Y-48799024D01*
X47844024Y-48945342D01*
X47729058Y-49117403D01*
X47649870Y-49308579D01*
X47649868Y-49308587D01*
X47609500Y-49511530D01*
X47609500Y-49718469D01*
X47649868Y-49921412D01*
X47649870Y-49921420D01*
X47729058Y-50112596D01*
X47844024Y-50284657D01*
X47982690Y-50423323D01*
X48016175Y-50484646D01*
X48011191Y-50554338D01*
X47969319Y-50610271D01*
X47903855Y-50634688D01*
X47895993Y-50635000D01*
X46821379Y-50643529D01*
X46792813Y-50646773D01*
X46778529Y-50648395D01*
X46778526Y-50648395D01*
X46778511Y-50648398D01*
X46728009Y-50659595D01*
X46711159Y-50663750D01*
X46710843Y-50662470D01*
X46649187Y-50667415D01*
X46587578Y-50634460D01*
X46553565Y-50573427D01*
X46550500Y-50546026D01*
X46550500Y-46971530D01*
X47609500Y-46971530D01*
X47609500Y-47178469D01*
X47649868Y-47381412D01*
X47649870Y-47381420D01*
X47729058Y-47572596D01*
X47844024Y-47744657D01*
X47990342Y-47890975D01*
X47990345Y-47890977D01*
X48162402Y-48005941D01*
X48353580Y-48085130D01*
X48556530Y-48125499D01*
X48556534Y-48125500D01*
X48556535Y-48125500D01*
X50063466Y-48125500D01*
X50063467Y-48125499D01*
X50266420Y-48085130D01*
X50457598Y-48005941D01*
X50629655Y-47890977D01*
X50775977Y-47744655D01*
X50890941Y-47572598D01*
X50970130Y-47381420D01*
X51010500Y-47178465D01*
X51010500Y-46971535D01*
X50970130Y-46768580D01*
X50890941Y-46577402D01*
X50775977Y-46405345D01*
X50775975Y-46405342D01*
X50629657Y-46259024D01*
X50543626Y-46201541D01*
X50457598Y-46144059D01*
X50266420Y-46064870D01*
X50266412Y-46064868D01*
X50063469Y-46024500D01*
X50063465Y-46024500D01*
X48556535Y-46024500D01*
X48556530Y-46024500D01*
X48353587Y-46064868D01*
X48353579Y-46064870D01*
X48162403Y-46144058D01*
X47990342Y-46259024D01*
X47844024Y-46405342D01*
X47729058Y-46577403D01*
X47649870Y-46768579D01*
X47649868Y-46768587D01*
X47609500Y-46971530D01*
X46550500Y-46971530D01*
X46550500Y-37554999D01*
X47225884Y-37554999D01*
X47225885Y-37555000D01*
X47866988Y-37555000D01*
X47834075Y-37612007D01*
X47800000Y-37739174D01*
X47800000Y-37870826D01*
X47834075Y-37997993D01*
X47866988Y-38055000D01*
X47225885Y-38055000D01*
X47227085Y-38062584D01*
X47280591Y-38227255D01*
X47359195Y-38381524D01*
X47460967Y-38521602D01*
X47583397Y-38644032D01*
X47723475Y-38745804D01*
X47877744Y-38824408D01*
X48042415Y-38877914D01*
X48042414Y-38877914D01*
X48049999Y-38879115D01*
X48050000Y-38879114D01*
X48050000Y-38238012D01*
X48107007Y-38270925D01*
X48234174Y-38305000D01*
X48365826Y-38305000D01*
X48492993Y-38270925D01*
X48550000Y-38238012D01*
X48550000Y-38879115D01*
X48557584Y-38877914D01*
X48722255Y-38824408D01*
X48876524Y-38745804D01*
X49016602Y-38644032D01*
X49139032Y-38521602D01*
X49240804Y-38381524D01*
X49319408Y-38227255D01*
X49372914Y-38062584D01*
X49374115Y-38055000D01*
X48733012Y-38055000D01*
X48765925Y-37997993D01*
X48800000Y-37870826D01*
X48800000Y-37739174D01*
X48789913Y-37701530D01*
X49789500Y-37701530D01*
X49789500Y-37908469D01*
X49829868Y-38111412D01*
X49829870Y-38111420D01*
X49909058Y-38302596D01*
X50024024Y-38474657D01*
X50170342Y-38620975D01*
X50170345Y-38620977D01*
X50342402Y-38735941D01*
X50533580Y-38815130D01*
X50736530Y-38855499D01*
X50736534Y-38855500D01*
X50736535Y-38855500D01*
X50943466Y-38855500D01*
X50943467Y-38855499D01*
X51146420Y-38815130D01*
X51337598Y-38735941D01*
X51509655Y-38620977D01*
X51655977Y-38474655D01*
X51770941Y-38302598D01*
X51850130Y-38111420D01*
X51890500Y-37908465D01*
X51890500Y-37701535D01*
X51850130Y-37498580D01*
X51770941Y-37307402D01*
X51655977Y-37135345D01*
X51655975Y-37135342D01*
X51509657Y-36989024D01*
X51423626Y-36931541D01*
X51337598Y-36874059D01*
X51313784Y-36864195D01*
X51146420Y-36794870D01*
X51146412Y-36794868D01*
X50943469Y-36754500D01*
X50943465Y-36754500D01*
X50736535Y-36754500D01*
X50736530Y-36754500D01*
X50533587Y-36794868D01*
X50533579Y-36794870D01*
X50342403Y-36874058D01*
X50170342Y-36989024D01*
X50024024Y-37135342D01*
X49909058Y-37307403D01*
X49829870Y-37498579D01*
X49829868Y-37498587D01*
X49789500Y-37701530D01*
X48789913Y-37701530D01*
X48765925Y-37612007D01*
X48733012Y-37555000D01*
X49374115Y-37555000D01*
X49374115Y-37554999D01*
X49372914Y-37547415D01*
X49319408Y-37382744D01*
X49240804Y-37228475D01*
X49139032Y-37088397D01*
X49016602Y-36965967D01*
X48876524Y-36864195D01*
X48722257Y-36785591D01*
X48557589Y-36732087D01*
X48557581Y-36732085D01*
X48550000Y-36730884D01*
X48550000Y-37371988D01*
X48492993Y-37339075D01*
X48365826Y-37305000D01*
X48234174Y-37305000D01*
X48107007Y-37339075D01*
X48050000Y-37371988D01*
X48050000Y-36730884D01*
X48049999Y-36730884D01*
X48042418Y-36732085D01*
X48042410Y-36732087D01*
X47877742Y-36785591D01*
X47723475Y-36864195D01*
X47583397Y-36965967D01*
X47460967Y-37088397D01*
X47359195Y-37228475D01*
X47280591Y-37382744D01*
X47227085Y-37547415D01*
X47225884Y-37554999D01*
X46550500Y-37554999D01*
X46550500Y-36396544D01*
X46570185Y-36329505D01*
X46586819Y-36308863D01*
X46830973Y-36064709D01*
X47168721Y-35726960D01*
X47230042Y-35693477D01*
X47299733Y-35698461D01*
X47355667Y-35740332D01*
X47365495Y-35757593D01*
X47366186Y-35757224D01*
X47369055Y-35762592D01*
X47484024Y-35934657D01*
X47630342Y-36080975D01*
X47630345Y-36080977D01*
X47802402Y-36195941D01*
X47993580Y-36275130D01*
X48196530Y-36315499D01*
X48196534Y-36315500D01*
X48196535Y-36315500D01*
X48403466Y-36315500D01*
X48403467Y-36315499D01*
X48606420Y-36275130D01*
X48797598Y-36195941D01*
X48969655Y-36080977D01*
X49115977Y-35934655D01*
X49230941Y-35762598D01*
X49310130Y-35571420D01*
X49350500Y-35368465D01*
X49350500Y-35161535D01*
X49350499Y-35161530D01*
X49789500Y-35161530D01*
X49789500Y-35368469D01*
X49829868Y-35571412D01*
X49829870Y-35571420D01*
X49909056Y-35762592D01*
X49909059Y-35762598D01*
X49909249Y-35762882D01*
X50024024Y-35934657D01*
X50170342Y-36080975D01*
X50170345Y-36080977D01*
X50342402Y-36195941D01*
X50533580Y-36275130D01*
X50736530Y-36315499D01*
X50736534Y-36315500D01*
X50736535Y-36315500D01*
X50943466Y-36315500D01*
X50943467Y-36315499D01*
X51146420Y-36275130D01*
X51337598Y-36195941D01*
X51509655Y-36080977D01*
X51655977Y-35934655D01*
X51770941Y-35762598D01*
X51850130Y-35571420D01*
X51890500Y-35368465D01*
X51890500Y-35161535D01*
X51850130Y-34958580D01*
X51770941Y-34767402D01*
X51655977Y-34595345D01*
X51655975Y-34595342D01*
X51509657Y-34449024D01*
X51423626Y-34391541D01*
X51337598Y-34334059D01*
X51322608Y-34327850D01*
X51146420Y-34254870D01*
X51146412Y-34254868D01*
X50943469Y-34214500D01*
X50943465Y-34214500D01*
X50736535Y-34214500D01*
X50736530Y-34214500D01*
X50533587Y-34254868D01*
X50533579Y-34254870D01*
X50342403Y-34334058D01*
X50170342Y-34449024D01*
X50024024Y-34595342D01*
X49909058Y-34767403D01*
X49829870Y-34958579D01*
X49829868Y-34958587D01*
X49789500Y-35161530D01*
X49350499Y-35161530D01*
X49310130Y-34958580D01*
X49230941Y-34767402D01*
X49115977Y-34595345D01*
X49115975Y-34595342D01*
X48969657Y-34449024D01*
X48883626Y-34391541D01*
X48797598Y-34334059D01*
X48782608Y-34327850D01*
X48606420Y-34254870D01*
X48606412Y-34254868D01*
X48403469Y-34214500D01*
X48403465Y-34214500D01*
X48196535Y-34214500D01*
X48196530Y-34214500D01*
X47993587Y-34254868D01*
X47993579Y-34254870D01*
X47802403Y-34334058D01*
X47630342Y-34449024D01*
X47484024Y-34595342D01*
X47369056Y-34767405D01*
X47339836Y-34837952D01*
X47295995Y-34892356D01*
X47229701Y-34914421D01*
X47225275Y-34914500D01*
X47088856Y-34914500D01*
X46999712Y-34938386D01*
X46999709Y-34938387D01*
X46919791Y-34984527D01*
X46919786Y-34984531D01*
X45919531Y-35984786D01*
X45919527Y-35984791D01*
X45873387Y-36064709D01*
X45873386Y-36064712D01*
X45849500Y-36153856D01*
X45849500Y-76046143D01*
X45869085Y-76119238D01*
X45873385Y-76135285D01*
X45873387Y-76135290D01*
X45919527Y-76215208D01*
X45919529Y-76215211D01*
X45919530Y-76215212D01*
X47539788Y-77835470D01*
X47539789Y-77835471D01*
X47539791Y-77835472D01*
X47626751Y-77885678D01*
X47625970Y-77887029D01*
X47673167Y-77925067D01*
X47685868Y-77948328D01*
X47729057Y-78052595D01*
X47844024Y-78224657D01*
X47990342Y-78370975D01*
X47990345Y-78370977D01*
X48162402Y-78485941D01*
X48353580Y-78565130D01*
X48556530Y-78605499D01*
X48556534Y-78605500D01*
X48556535Y-78605500D01*
X50063466Y-78605500D01*
X50063467Y-78605499D01*
X50266420Y-78565130D01*
X50457598Y-78485941D01*
X50629655Y-78370977D01*
X50775977Y-78224655D01*
X50890941Y-78052598D01*
X50970130Y-77861420D01*
X51010500Y-77658465D01*
X51010500Y-77451535D01*
X50970130Y-77248580D01*
X50890941Y-77057402D01*
X50775977Y-76885345D01*
X50775975Y-76885342D01*
X50629657Y-76739024D01*
X50543626Y-76681541D01*
X50457598Y-76624059D01*
X50288198Y-76553891D01*
X50266420Y-76544870D01*
X50266412Y-76544868D01*
X50063469Y-76504500D01*
X50063465Y-76504500D01*
X48556535Y-76504500D01*
X48556530Y-76504500D01*
X48353587Y-76544868D01*
X48353579Y-76544870D01*
X48162403Y-76624058D01*
X47990342Y-76739024D01*
X47844025Y-76885341D01*
X47844020Y-76885348D01*
X47822623Y-76917370D01*
X47769010Y-76962175D01*
X47699685Y-76970881D01*
X47636658Y-76940725D01*
X47631841Y-76936159D01*
X46586819Y-75891137D01*
X46553334Y-75829814D01*
X46550500Y-75803456D01*
X46550500Y-74911530D01*
X47609500Y-74911530D01*
X47609500Y-75118469D01*
X47649868Y-75321412D01*
X47649870Y-75321420D01*
X47729059Y-75512598D01*
X47753140Y-75548638D01*
X47844024Y-75684657D01*
X47990342Y-75830975D01*
X47990345Y-75830977D01*
X48162402Y-75945941D01*
X48353580Y-76025130D01*
X48556530Y-76065499D01*
X48556534Y-76065500D01*
X48556535Y-76065500D01*
X50063466Y-76065500D01*
X50063467Y-76065499D01*
X50266420Y-76025130D01*
X50457598Y-75945941D01*
X50629655Y-75830977D01*
X50775977Y-75684655D01*
X50890941Y-75512598D01*
X50970130Y-75321420D01*
X51010500Y-75118465D01*
X51010500Y-74911535D01*
X50970130Y-74708580D01*
X50890941Y-74517402D01*
X50775977Y-74345345D01*
X50775975Y-74345342D01*
X50629657Y-74199024D01*
X50543626Y-74141541D01*
X50457598Y-74084059D01*
X50266420Y-74004870D01*
X50266412Y-74004868D01*
X50063469Y-73964500D01*
X50063465Y-73964500D01*
X48556535Y-73964500D01*
X48556530Y-73964500D01*
X48353587Y-74004868D01*
X48353579Y-74004870D01*
X48162403Y-74084058D01*
X47990342Y-74199024D01*
X47844024Y-74345342D01*
X47729058Y-74517403D01*
X47649870Y-74708579D01*
X47649868Y-74708587D01*
X47609500Y-74911530D01*
X46550500Y-74911530D01*
X46550500Y-72371530D01*
X47609500Y-72371530D01*
X47609500Y-72578469D01*
X47649868Y-72781412D01*
X47649870Y-72781420D01*
X47726262Y-72965847D01*
X47729059Y-72972598D01*
X47748515Y-73001716D01*
X47844024Y-73144657D01*
X47990342Y-73290975D01*
X47990345Y-73290977D01*
X48162402Y-73405941D01*
X48353580Y-73485130D01*
X48556530Y-73525499D01*
X48556534Y-73525500D01*
X48556535Y-73525500D01*
X50063466Y-73525500D01*
X50063467Y-73525499D01*
X50266420Y-73485130D01*
X50457598Y-73405941D01*
X50629655Y-73290977D01*
X50775977Y-73144655D01*
X50890941Y-72972598D01*
X50970130Y-72781420D01*
X51010500Y-72578465D01*
X51010500Y-72371535D01*
X50970130Y-72168580D01*
X50890941Y-71977402D01*
X50775977Y-71805345D01*
X50775975Y-71805342D01*
X50629657Y-71659024D01*
X50489416Y-71565319D01*
X50457598Y-71544059D01*
X50266420Y-71464870D01*
X50266412Y-71464868D01*
X50063469Y-71424500D01*
X50063465Y-71424500D01*
X48556535Y-71424500D01*
X48556530Y-71424500D01*
X48353587Y-71464868D01*
X48353579Y-71464870D01*
X48162403Y-71544058D01*
X47990342Y-71659024D01*
X47844024Y-71805342D01*
X47729058Y-71977403D01*
X47649870Y-72168579D01*
X47649868Y-72168587D01*
X47609500Y-72371530D01*
X46550500Y-72371530D01*
X46550500Y-69831530D01*
X47609500Y-69831530D01*
X47609500Y-70038469D01*
X47649868Y-70241412D01*
X47649870Y-70241420D01*
X47729059Y-70432598D01*
X47758059Y-70476000D01*
X47844024Y-70604657D01*
X47990342Y-70750975D01*
X47990345Y-70750977D01*
X48162402Y-70865941D01*
X48353580Y-70945130D01*
X48556530Y-70985499D01*
X48556534Y-70985500D01*
X48556535Y-70985500D01*
X50063466Y-70985500D01*
X50063467Y-70985499D01*
X50266420Y-70945130D01*
X50457598Y-70865941D01*
X50629655Y-70750977D01*
X50775977Y-70604655D01*
X50890941Y-70432598D01*
X50970130Y-70241420D01*
X51010500Y-70038465D01*
X51010500Y-69831535D01*
X50970130Y-69628580D01*
X50890941Y-69437402D01*
X50775977Y-69265345D01*
X50775975Y-69265342D01*
X50629657Y-69119024D01*
X50543626Y-69061541D01*
X50457598Y-69004059D01*
X50266420Y-68924870D01*
X50266412Y-68924868D01*
X50063469Y-68884500D01*
X50063465Y-68884500D01*
X48556535Y-68884500D01*
X48556530Y-68884500D01*
X48353587Y-68924868D01*
X48353579Y-68924870D01*
X48162403Y-69004058D01*
X47990342Y-69119024D01*
X47844024Y-69265342D01*
X47729058Y-69437403D01*
X47649870Y-69628579D01*
X47649868Y-69628587D01*
X47609500Y-69831530D01*
X46550500Y-69831530D01*
X46550500Y-64847933D01*
X46570185Y-64780894D01*
X46622989Y-64735139D01*
X46692147Y-64725195D01*
X46755703Y-64754220D01*
X46780829Y-64784136D01*
X46937658Y-65045519D01*
X46966347Y-65082852D01*
X46966350Y-65082856D01*
X47005651Y-65123385D01*
X47015448Y-65132839D01*
X47015451Y-65132841D01*
X47015453Y-65132843D01*
X47095270Y-65177490D01*
X47162309Y-65197175D01*
X47220207Y-65205500D01*
X51670500Y-65205500D01*
X51737539Y-65225185D01*
X51783294Y-65277989D01*
X51794500Y-65329500D01*
X51794500Y-89270500D01*
X51774815Y-89337539D01*
X51722011Y-89383294D01*
X51670500Y-89394500D01*
X45723992Y-89394500D01*
X45680313Y-89399197D01*
X45628825Y-89410397D01*
X45618627Y-89412890D01*
X45618624Y-89412891D01*
X45537916Y-89455899D01*
X45537913Y-89455901D01*
X45485104Y-89501660D01*
X45467160Y-89519242D01*
X45467154Y-89519249D01*
X45422511Y-89599059D01*
X45422509Y-89599064D01*
X45402826Y-89666096D01*
X45402825Y-89666101D01*
X45402825Y-89666102D01*
X45397237Y-89704963D01*
X45368212Y-89768517D01*
X45309433Y-89806291D01*
X45239564Y-89806290D01*
X45180786Y-89768514D01*
X45151762Y-89704958D01*
X45150500Y-89687313D01*
X45150500Y-85071530D01*
X47609500Y-85071530D01*
X47609500Y-85278469D01*
X47649868Y-85481412D01*
X47649870Y-85481420D01*
X47729058Y-85672596D01*
X47844024Y-85844657D01*
X47990342Y-85990975D01*
X47990345Y-85990977D01*
X48162402Y-86105941D01*
X48353580Y-86185130D01*
X48556530Y-86225499D01*
X48556534Y-86225500D01*
X48556535Y-86225500D01*
X50063466Y-86225500D01*
X50063467Y-86225499D01*
X50266420Y-86185130D01*
X50457598Y-86105941D01*
X50629655Y-85990977D01*
X50775977Y-85844655D01*
X50890941Y-85672598D01*
X50970130Y-85481420D01*
X51010500Y-85278465D01*
X51010500Y-85071535D01*
X50970130Y-84868580D01*
X50890941Y-84677402D01*
X50775977Y-84505345D01*
X50775975Y-84505342D01*
X50629657Y-84359024D01*
X50521343Y-84286652D01*
X50457598Y-84244059D01*
X50266420Y-84164870D01*
X50266412Y-84164868D01*
X50063469Y-84124500D01*
X50063465Y-84124500D01*
X48556535Y-84124500D01*
X48556530Y-84124500D01*
X48353587Y-84164868D01*
X48353579Y-84164870D01*
X48162403Y-84244058D01*
X47990342Y-84359024D01*
X47844024Y-84505342D01*
X47729058Y-84677403D01*
X47649870Y-84868579D01*
X47649868Y-84868587D01*
X47609500Y-85071530D01*
X45150500Y-85071530D01*
X45150500Y-82531530D01*
X47609500Y-82531530D01*
X47609500Y-82738469D01*
X47649868Y-82941412D01*
X47649870Y-82941420D01*
X47729058Y-83132596D01*
X47844024Y-83304657D01*
X47990342Y-83450975D01*
X47990345Y-83450977D01*
X48162402Y-83565941D01*
X48353580Y-83645130D01*
X48556530Y-83685499D01*
X48556534Y-83685500D01*
X48556535Y-83685500D01*
X50063466Y-83685500D01*
X50063467Y-83685499D01*
X50266420Y-83645130D01*
X50457598Y-83565941D01*
X50629655Y-83450977D01*
X50775977Y-83304655D01*
X50890941Y-83132598D01*
X50970130Y-82941420D01*
X51010500Y-82738465D01*
X51010500Y-82531535D01*
X50970130Y-82328580D01*
X50890941Y-82137402D01*
X50775977Y-81965345D01*
X50775975Y-81965342D01*
X50629657Y-81819024D01*
X50463418Y-81707948D01*
X50457598Y-81704059D01*
X50266420Y-81624870D01*
X50266412Y-81624868D01*
X50063469Y-81584500D01*
X50063465Y-81584500D01*
X48556535Y-81584500D01*
X48556530Y-81584500D01*
X48353587Y-81624868D01*
X48353579Y-81624870D01*
X48162403Y-81704058D01*
X47990342Y-81819024D01*
X47844024Y-81965342D01*
X47729058Y-82137403D01*
X47649870Y-82328579D01*
X47649868Y-82328587D01*
X47609500Y-82531530D01*
X45150500Y-82531530D01*
X45150500Y-79991530D01*
X47609500Y-79991530D01*
X47609500Y-80198469D01*
X47649868Y-80401412D01*
X47649870Y-80401420D01*
X47729058Y-80592596D01*
X47844024Y-80764657D01*
X47990342Y-80910975D01*
X47990345Y-80910977D01*
X48162402Y-81025941D01*
X48353580Y-81105130D01*
X48556530Y-81145499D01*
X48556534Y-81145500D01*
X48556535Y-81145500D01*
X50063466Y-81145500D01*
X50063467Y-81145499D01*
X50266420Y-81105130D01*
X50457598Y-81025941D01*
X50629655Y-80910977D01*
X50775977Y-80764655D01*
X50890941Y-80592598D01*
X50970130Y-80401420D01*
X51010500Y-80198465D01*
X51010500Y-79991535D01*
X50970130Y-79788580D01*
X50890941Y-79597402D01*
X50775977Y-79425345D01*
X50775975Y-79425342D01*
X50629657Y-79279024D01*
X50543626Y-79221541D01*
X50457598Y-79164059D01*
X50266420Y-79084870D01*
X50266412Y-79084868D01*
X50063469Y-79044500D01*
X50063465Y-79044500D01*
X48556535Y-79044500D01*
X48556530Y-79044500D01*
X48353587Y-79084868D01*
X48353579Y-79084870D01*
X48162403Y-79164058D01*
X47990342Y-79279024D01*
X47844024Y-79425342D01*
X47729058Y-79597403D01*
X47649870Y-79788579D01*
X47649868Y-79788587D01*
X47609500Y-79991530D01*
X45150500Y-79991530D01*
X45150500Y-31855247D01*
X47249500Y-31855247D01*
X47249500Y-33594752D01*
X47261131Y-33653229D01*
X47261132Y-33653230D01*
X47305447Y-33719552D01*
X47371769Y-33763867D01*
X47371770Y-33763868D01*
X47430247Y-33775499D01*
X47430250Y-33775500D01*
X47430252Y-33775500D01*
X49169750Y-33775500D01*
X49169751Y-33775499D01*
X49184568Y-33772552D01*
X49228229Y-33763868D01*
X49228229Y-33763867D01*
X49228231Y-33763867D01*
X49294552Y-33719552D01*
X49338867Y-33653231D01*
X49338867Y-33653229D01*
X49338868Y-33653229D01*
X49350499Y-33594752D01*
X49350500Y-33594750D01*
X49350500Y-32621530D01*
X49789500Y-32621530D01*
X49789500Y-32828469D01*
X49829868Y-33031412D01*
X49829870Y-33031420D01*
X49909059Y-33222598D01*
X49960485Y-33299563D01*
X50024024Y-33394657D01*
X50170342Y-33540975D01*
X50170345Y-33540977D01*
X50342402Y-33655941D01*
X50533580Y-33735130D01*
X50678052Y-33763867D01*
X50736530Y-33775499D01*
X50736534Y-33775500D01*
X50736535Y-33775500D01*
X50943466Y-33775500D01*
X50943467Y-33775499D01*
X51146420Y-33735130D01*
X51337598Y-33655941D01*
X51509655Y-33540977D01*
X51655977Y-33394655D01*
X51770941Y-33222598D01*
X51850130Y-33031420D01*
X51890500Y-32828465D01*
X51890500Y-32621535D01*
X51850130Y-32418580D01*
X51770941Y-32227402D01*
X51655977Y-32055345D01*
X51655975Y-32055342D01*
X51509657Y-31909024D01*
X51393187Y-31831202D01*
X51337598Y-31794059D01*
X51306184Y-31781047D01*
X51146420Y-31714870D01*
X51146412Y-31714868D01*
X50943469Y-31674500D01*
X50943465Y-31674500D01*
X50736535Y-31674500D01*
X50736530Y-31674500D01*
X50533587Y-31714868D01*
X50533579Y-31714870D01*
X50342403Y-31794058D01*
X50170342Y-31909024D01*
X50024024Y-32055342D01*
X49909058Y-32227403D01*
X49829870Y-32418579D01*
X49829868Y-32418587D01*
X49789500Y-32621530D01*
X49350500Y-32621530D01*
X49350500Y-31855249D01*
X49350499Y-31855247D01*
X49338868Y-31796770D01*
X49338867Y-31796769D01*
X49294552Y-31730447D01*
X49228230Y-31686132D01*
X49228229Y-31686131D01*
X49169752Y-31674500D01*
X49169748Y-31674500D01*
X47430252Y-31674500D01*
X47430247Y-31674500D01*
X47371770Y-31686131D01*
X47371769Y-31686132D01*
X47305447Y-31730447D01*
X47261132Y-31796769D01*
X47261131Y-31796770D01*
X47249500Y-31855247D01*
X45150500Y-31855247D01*
X45150500Y-25002706D01*
X45150618Y-24997297D01*
X45159801Y-24786974D01*
X45168718Y-24582721D01*
X45169658Y-24571990D01*
X45223468Y-24163255D01*
X45225345Y-24152614D01*
X45272007Y-23942135D01*
X45314574Y-23750128D01*
X45317368Y-23739702D01*
X45441338Y-23346518D01*
X45445024Y-23336390D01*
X45602795Y-22955496D01*
X45607353Y-22945722D01*
X45797713Y-22580045D01*
X45803108Y-22570700D01*
X46024622Y-22222992D01*
X46030812Y-22214152D01*
X46281780Y-21887084D01*
X46288718Y-21878815D01*
X46567238Y-21574866D01*
X46574866Y-21567238D01*
X46878815Y-21288718D01*
X46887084Y-21281780D01*
X47214152Y-21030812D01*
X47222992Y-21024622D01*
X47570700Y-20803108D01*
X47580045Y-20797713D01*
X47945722Y-20607353D01*
X47955496Y-20602795D01*
X48336390Y-20445024D01*
X48346518Y-20441338D01*
X48739702Y-20317368D01*
X48750128Y-20314574D01*
X49152621Y-20225343D01*
X49163255Y-20223468D01*
X49571990Y-20169658D01*
X49582721Y-20168718D01*
X49997297Y-20150617D01*
X50002706Y-20150500D01*
X50034351Y-20150500D01*
X54215650Y-20150500D01*
X54241874Y-20150500D01*
X54258059Y-20151561D01*
G37*
G04 #@! TD.AperFunction*
G04 #@! TA.AperFunction,Conductor*
G36*
X50933039Y-92679685D02*
G01*
X50978794Y-92732489D01*
X50990000Y-92784000D01*
X50990000Y-95126000D01*
X50970315Y-95193039D01*
X50917511Y-95238794D01*
X50866000Y-95250000D01*
X48524000Y-95250000D01*
X48456961Y-95230315D01*
X48411206Y-95177511D01*
X48400000Y-95126000D01*
X48400000Y-92784000D01*
X48419685Y-92716961D01*
X48472489Y-92671206D01*
X48524000Y-92660000D01*
X50866000Y-92660000D01*
X50933039Y-92679685D01*
G37*
G04 #@! TD.AperFunction*
G04 #@! TA.AperFunction,Conductor*
G36*
X64741496Y-70825185D02*
G01*
X64787251Y-70877989D01*
X64797195Y-70947147D01*
X64768170Y-71010703D01*
X64762138Y-71017181D01*
X64038636Y-71740681D01*
X63977313Y-71774166D01*
X63950955Y-71777000D01*
X63590982Y-71777000D01*
X63510019Y-71789823D01*
X63497196Y-71791854D01*
X63384158Y-71849450D01*
X63384157Y-71849451D01*
X63384152Y-71849454D01*
X63294454Y-71939152D01*
X63294451Y-71939157D01*
X63294450Y-71939158D01*
X63275251Y-71976837D01*
X63236852Y-72052198D01*
X63225060Y-72126653D01*
X63195130Y-72189787D01*
X63135818Y-72226718D01*
X63065956Y-72225720D01*
X63014906Y-72194935D01*
X62722010Y-71902039D01*
X62713376Y-71897054D01*
X62713372Y-71897052D01*
X62704706Y-71892049D01*
X62653489Y-71862479D01*
X62577062Y-71842000D01*
X62568211Y-71842000D01*
X62550017Y-71835100D01*
X62533193Y-71822361D01*
X62513898Y-71813823D01*
X62506308Y-71806839D01*
X62427904Y-71728435D01*
X62376599Y-71704511D01*
X62320673Y-71678432D01*
X62320671Y-71678431D01*
X62320672Y-71678431D01*
X62271817Y-71672000D01*
X62271816Y-71672000D01*
X61823184Y-71672000D01*
X61823183Y-71672000D01*
X61774328Y-71678431D01*
X61667095Y-71728435D01*
X61583435Y-71812095D01*
X61533431Y-71919328D01*
X61527000Y-71968183D01*
X61527000Y-72316816D01*
X61533431Y-72365671D01*
X61583435Y-72472904D01*
X61674767Y-72564236D01*
X61671943Y-72567059D01*
X61672888Y-72568242D01*
X61690065Y-72582201D01*
X61694269Y-72595008D01*
X61702683Y-72605542D01*
X61704954Y-72627559D01*
X61711856Y-72648585D01*
X61708468Y-72661631D01*
X61709852Y-72675042D01*
X61699859Y-72694790D01*
X61694298Y-72716213D01*
X61682737Y-72728632D01*
X61678308Y-72737386D01*
X61672039Y-72743603D01*
X61668790Y-72746603D01*
X61663627Y-72749160D01*
X61659076Y-72754050D01*
X61658244Y-72754633D01*
X61656784Y-72752550D01*
X61639594Y-72761066D01*
X61611027Y-72776666D01*
X61607298Y-72777066D01*
X61606182Y-72777620D01*
X61604206Y-72777399D01*
X61584669Y-72779500D01*
X61342402Y-72779500D01*
X61275363Y-72759815D01*
X61254721Y-72743181D01*
X61218316Y-72706776D01*
X61140522Y-72670500D01*
X61109487Y-72656028D01*
X61109485Y-72656027D01*
X61109486Y-72656027D01*
X61059901Y-72649500D01*
X60640105Y-72649500D01*
X60624386Y-72651569D01*
X60590513Y-72656028D01*
X60590511Y-72656029D01*
X60590509Y-72656029D01*
X60481683Y-72706776D01*
X60430279Y-72758181D01*
X60403351Y-72772884D01*
X60377533Y-72789477D01*
X60371332Y-72790368D01*
X60368956Y-72791666D01*
X60342598Y-72794500D01*
X60129500Y-72794500D01*
X60062461Y-72774815D01*
X60016706Y-72722011D01*
X60005500Y-72670500D01*
X60005500Y-71136481D01*
X60025185Y-71069442D01*
X60041819Y-71048800D01*
X60248800Y-70841819D01*
X60310123Y-70808334D01*
X60336481Y-70805500D01*
X64674457Y-70805500D01*
X64741496Y-70825185D01*
G37*
G04 #@! TD.AperFunction*
G04 #@! TA.AperFunction,Conductor*
G36*
X59111512Y-65761957D02*
G01*
X59148134Y-65774772D01*
X59149133Y-65775300D01*
X59149717Y-65775338D01*
X59180808Y-65792041D01*
X59210155Y-65813700D01*
X59210157Y-65813701D01*
X59236296Y-65839839D01*
X59257957Y-65869189D01*
X59275227Y-65901866D01*
X59286591Y-65934343D01*
X59289893Y-65943127D01*
X59294157Y-65953723D01*
X59303561Y-65969121D01*
X59329495Y-66011584D01*
X59375256Y-66064395D01*
X59389946Y-66079387D01*
X59392842Y-66082343D01*
X59392843Y-66082344D01*
X59392845Y-66082345D01*
X59452670Y-66115809D01*
X59472659Y-66126990D01*
X59539698Y-66146675D01*
X59597596Y-66155000D01*
X59597600Y-66155000D01*
X59875815Y-66155000D01*
X59876785Y-66154988D01*
X59986558Y-66154988D01*
X60010748Y-66157370D01*
X60082415Y-66171625D01*
X60105677Y-66178682D01*
X60173203Y-66206652D01*
X60194641Y-66218111D01*
X60255405Y-66258712D01*
X60274196Y-66274133D01*
X60325863Y-66325800D01*
X60341282Y-66344587D01*
X60381892Y-66405366D01*
X60393348Y-66426798D01*
X60421314Y-66494315D01*
X60428370Y-66517572D01*
X60435069Y-66551247D01*
X60442629Y-66589256D01*
X60445012Y-66613444D01*
X60445012Y-66686528D01*
X60442629Y-66710720D01*
X60428372Y-66782392D01*
X60421316Y-66805654D01*
X60393348Y-66873173D01*
X60381892Y-66894605D01*
X60361328Y-66925384D01*
X60361324Y-66925391D01*
X60341287Y-66955377D01*
X60325868Y-66974164D01*
X60274177Y-67025856D01*
X60255385Y-67041279D01*
X60194623Y-67081878D01*
X60173185Y-67093336D01*
X60105666Y-67121303D01*
X60082408Y-67128359D01*
X60040438Y-67136708D01*
X60010733Y-67142617D01*
X59986544Y-67145000D01*
X59597596Y-67145000D01*
X59589025Y-67145196D01*
X59588166Y-67145216D01*
X59576800Y-67145738D01*
X59510505Y-67159982D01*
X59445542Y-67185733D01*
X59422795Y-67196403D01*
X59422794Y-67196404D01*
X59354290Y-67256995D01*
X59313568Y-67313770D01*
X59313565Y-67313775D01*
X59307912Y-67324649D01*
X59286590Y-67365663D01*
X59276862Y-67393460D01*
X59276858Y-67393472D01*
X59276857Y-67393476D01*
X59276850Y-67393494D01*
X59275218Y-67398155D01*
X59257958Y-67430807D01*
X59236299Y-67460156D01*
X59210157Y-67486298D01*
X59180807Y-67507958D01*
X59148130Y-67525228D01*
X59131803Y-67530941D01*
X59131783Y-67530948D01*
X59111513Y-67538041D01*
X59070557Y-67545000D01*
X58379441Y-67545000D01*
X58375351Y-67544305D01*
X58373117Y-67544839D01*
X58338486Y-67538041D01*
X58301861Y-67525225D01*
X58269188Y-67507956D01*
X58239841Y-67486298D01*
X58239839Y-67486296D01*
X58213704Y-67460162D01*
X58192036Y-67430802D01*
X58174770Y-67398132D01*
X58161958Y-67361516D01*
X58155000Y-67320563D01*
X58155000Y-65979437D01*
X58155694Y-65975348D01*
X58155161Y-65973116D01*
X58161956Y-65938488D01*
X58174775Y-65901858D01*
X58192039Y-65869193D01*
X58213705Y-65839836D01*
X58239834Y-65813706D01*
X58269194Y-65792037D01*
X58301868Y-65774770D01*
X58329850Y-65764978D01*
X58338483Y-65761958D01*
X58379435Y-65755000D01*
X59070561Y-65755000D01*
X59111512Y-65761957D01*
G37*
G04 #@! TD.AperFunction*
G04 #@! TA.AperFunction,Conductor*
G36*
X66661513Y-65761957D02*
G01*
X66698130Y-65774771D01*
X66699128Y-65775298D01*
X66699714Y-65775336D01*
X66730804Y-65792037D01*
X66760164Y-65813706D01*
X66786298Y-65839841D01*
X66802512Y-65861810D01*
X66807957Y-65869189D01*
X66825223Y-65901858D01*
X66838039Y-65938478D01*
X66845000Y-65979439D01*
X66845000Y-67320559D01*
X66844304Y-67324649D01*
X66844839Y-67326884D01*
X66838040Y-67361518D01*
X66832553Y-67377197D01*
X66832550Y-67377205D01*
X66825226Y-67398134D01*
X66807958Y-67430807D01*
X66786298Y-67460157D01*
X66760157Y-67486298D01*
X66730807Y-67507958D01*
X66729806Y-67508486D01*
X66729447Y-67508947D01*
X66698130Y-67525228D01*
X66681803Y-67530941D01*
X66681783Y-67530948D01*
X66661513Y-67538041D01*
X66620557Y-67545000D01*
X65929441Y-67545000D01*
X65888486Y-67538041D01*
X65851861Y-67525225D01*
X65850863Y-67524697D01*
X65850280Y-67524660D01*
X65819190Y-67507958D01*
X65789839Y-67486296D01*
X65763704Y-67460162D01*
X65742039Y-67430806D01*
X65724770Y-67398129D01*
X65723136Y-67393460D01*
X65713413Y-67365671D01*
X65710091Y-67356834D01*
X65705844Y-67346279D01*
X65670504Y-67288415D01*
X65624749Y-67235611D01*
X65624743Y-67235604D01*
X65607161Y-67217660D01*
X65607160Y-67217659D01*
X65607158Y-67217657D01*
X65607156Y-67217656D01*
X65607154Y-67217654D01*
X65527344Y-67173011D01*
X65527339Y-67173009D01*
X65460307Y-67153326D01*
X65460303Y-67153325D01*
X65460302Y-67153325D01*
X65402404Y-67145000D01*
X65402400Y-67145000D01*
X65213457Y-67145000D01*
X65189266Y-67142617D01*
X65135989Y-67132019D01*
X65117590Y-67128359D01*
X65094331Y-67121303D01*
X65026814Y-67093337D01*
X65005376Y-67081878D01*
X64944603Y-67041271D01*
X64925812Y-67025850D01*
X64824147Y-66924185D01*
X64808726Y-66905394D01*
X64768119Y-66844621D01*
X64756660Y-66823183D01*
X64728692Y-66755661D01*
X64721638Y-66732405D01*
X64707383Y-66660739D01*
X64705000Y-66636548D01*
X64705000Y-66563461D01*
X64707382Y-66539272D01*
X64714080Y-66505597D01*
X64721640Y-66467583D01*
X64728693Y-66444332D01*
X64756663Y-66376808D01*
X64768116Y-66355379D01*
X64808728Y-66294598D01*
X64824142Y-66275817D01*
X64875817Y-66224142D01*
X64894603Y-66208726D01*
X64955376Y-66168119D01*
X64976808Y-66156663D01*
X65044338Y-66128691D01*
X65067581Y-66121640D01*
X65139269Y-66107381D01*
X65163453Y-66105000D01*
X65236549Y-66105000D01*
X65260740Y-66107383D01*
X65346583Y-66124458D01*
X65346587Y-66124459D01*
X65346589Y-66124459D01*
X65346593Y-66124460D01*
X65375943Y-66128128D01*
X65411500Y-66129989D01*
X65497968Y-66115809D01*
X65562921Y-66090062D01*
X65585677Y-66079387D01*
X65654182Y-66018795D01*
X65694904Y-65962020D01*
X65721884Y-65910120D01*
X65724770Y-65901871D01*
X65725300Y-65900866D01*
X65725339Y-65900276D01*
X65742041Y-65869189D01*
X65763706Y-65839833D01*
X65789838Y-65813703D01*
X65819193Y-65792038D01*
X65851864Y-65774771D01*
X65888482Y-65761957D01*
X65929435Y-65755000D01*
X66620561Y-65755000D01*
X66661513Y-65761957D01*
G37*
G04 #@! TD.AperFunction*
G04 #@! TA.AperFunction,Conductor*
G36*
X59111512Y-63261957D02*
G01*
X59148134Y-63274772D01*
X59149133Y-63275300D01*
X59149717Y-63275338D01*
X59180808Y-63292041D01*
X59210157Y-63313701D01*
X59236296Y-63339839D01*
X59257957Y-63369189D01*
X59275227Y-63401866D01*
X59286591Y-63434343D01*
X59289893Y-63443127D01*
X59289909Y-63443166D01*
X59294156Y-63453721D01*
X59329495Y-63511584D01*
X59375256Y-63564395D01*
X59392838Y-63582339D01*
X59392842Y-63582343D01*
X59392843Y-63582344D01*
X59392845Y-63582345D01*
X59449919Y-63614270D01*
X59472659Y-63626990D01*
X59539698Y-63646675D01*
X59597596Y-63655000D01*
X59986537Y-63655000D01*
X60010726Y-63657382D01*
X60033235Y-63661858D01*
X60082411Y-63671640D01*
X60105668Y-63678694D01*
X60173185Y-63706661D01*
X60194622Y-63718119D01*
X60255394Y-63758725D01*
X60274185Y-63774147D01*
X60375850Y-63875812D01*
X60391271Y-63894603D01*
X60431878Y-63955376D01*
X60443337Y-63976814D01*
X60471303Y-64044331D01*
X60478359Y-64067589D01*
X60492617Y-64139261D01*
X60495000Y-64163455D01*
X60495000Y-64236542D01*
X60492617Y-64260735D01*
X60478359Y-64332409D01*
X60471303Y-64355669D01*
X60443335Y-64423190D01*
X60431876Y-64444628D01*
X60391276Y-64505390D01*
X60375855Y-64524180D01*
X60324180Y-64575855D01*
X60305396Y-64591271D01*
X60305390Y-64591276D01*
X60244628Y-64631876D01*
X60223190Y-64643335D01*
X60155669Y-64671303D01*
X60132409Y-64678359D01*
X60060736Y-64692617D01*
X60036543Y-64695000D01*
X59963457Y-64695000D01*
X59939265Y-64692617D01*
X59867595Y-64678360D01*
X59844332Y-64671303D01*
X59841384Y-64670082D01*
X59802827Y-64658386D01*
X59787153Y-64655268D01*
X59755372Y-64648947D01*
X59723095Y-64645769D01*
X59715287Y-64645000D01*
X59597596Y-64645000D01*
X59597177Y-64645009D01*
X59592224Y-64645122D01*
X59592165Y-64645124D01*
X59588168Y-64645216D01*
X59576802Y-64645738D01*
X59576682Y-64645763D01*
X59576553Y-64645769D01*
X59575199Y-64645945D01*
X59570640Y-64646761D01*
X59533415Y-64652113D01*
X59523238Y-64655909D01*
X59514784Y-64659061D01*
X59510516Y-64659979D01*
X59506113Y-64661724D01*
X59506309Y-64662221D01*
X59480490Y-64671851D01*
X59480471Y-64671859D01*
X59451567Y-64682640D01*
X59445637Y-64685608D01*
X59445571Y-64685477D01*
X59442588Y-64687119D01*
X59422803Y-64696399D01*
X59410364Y-64707399D01*
X59395282Y-64718810D01*
X59392793Y-64720409D01*
X59392773Y-64720424D01*
X59372510Y-64735274D01*
X59372509Y-64735275D01*
X59372508Y-64735276D01*
X59366583Y-64743023D01*
X59366582Y-64743022D01*
X59359262Y-64752593D01*
X59354297Y-64756986D01*
X59347178Y-64766910D01*
X59347912Y-64767436D01*
X59328770Y-64792469D01*
X59328749Y-64792499D01*
X59316958Y-64807919D01*
X59314351Y-64812259D01*
X59286591Y-64865662D01*
X59286583Y-64865679D01*
X59275227Y-64898133D01*
X59274698Y-64899132D01*
X59274661Y-64899717D01*
X59257958Y-64930808D01*
X59236297Y-64960158D01*
X59210159Y-64986296D01*
X59180809Y-65007957D01*
X59148130Y-65025228D01*
X59131803Y-65030941D01*
X59131783Y-65030948D01*
X59111513Y-65038041D01*
X59070557Y-65045000D01*
X58379441Y-65045000D01*
X58375351Y-65044305D01*
X58373117Y-65044839D01*
X58338486Y-65038041D01*
X58301861Y-65025225D01*
X58269188Y-65007956D01*
X58239841Y-64986298D01*
X58239839Y-64986296D01*
X58213704Y-64960162D01*
X58192036Y-64930802D01*
X58174770Y-64898131D01*
X58161958Y-64861516D01*
X58155000Y-64820563D01*
X58155000Y-63479437D01*
X58155694Y-63475348D01*
X58155161Y-63473116D01*
X58161956Y-63438488D01*
X58174775Y-63401858D01*
X58192039Y-63369193D01*
X58213705Y-63339836D01*
X58239834Y-63313706D01*
X58269194Y-63292037D01*
X58301868Y-63274770D01*
X58329850Y-63264978D01*
X58338483Y-63261958D01*
X58379435Y-63255000D01*
X59070561Y-63255000D01*
X59111512Y-63261957D01*
G37*
G04 #@! TD.AperFunction*
G04 #@! TA.AperFunction,Conductor*
G36*
X66661513Y-63261957D02*
G01*
X66698130Y-63274771D01*
X66699128Y-63275298D01*
X66699714Y-63275336D01*
X66730804Y-63292037D01*
X66760164Y-63313706D01*
X66786298Y-63339841D01*
X66802512Y-63361810D01*
X66807957Y-63369189D01*
X66825223Y-63401858D01*
X66838039Y-63438478D01*
X66845000Y-63479439D01*
X66845000Y-64820559D01*
X66844304Y-64824649D01*
X66844839Y-64826884D01*
X66838040Y-64861516D01*
X66837615Y-64862733D01*
X66832553Y-64877197D01*
X66832550Y-64877205D01*
X66825226Y-64898134D01*
X66807958Y-64930807D01*
X66786298Y-64960157D01*
X66760157Y-64986298D01*
X66730807Y-65007958D01*
X66729806Y-65008486D01*
X66729447Y-65008947D01*
X66698130Y-65025228D01*
X66681803Y-65030941D01*
X66681783Y-65030948D01*
X66661513Y-65038041D01*
X66620557Y-65045000D01*
X65929441Y-65045000D01*
X65888486Y-65038041D01*
X65851861Y-65025225D01*
X65850863Y-65024697D01*
X65850280Y-65024660D01*
X65819188Y-65007956D01*
X65789841Y-64986298D01*
X65789839Y-64986296D01*
X65763701Y-64960158D01*
X65742040Y-64930807D01*
X65724772Y-64898133D01*
X65721884Y-64889879D01*
X65710129Y-64862733D01*
X65710127Y-64862730D01*
X65710124Y-64862722D01*
X65710122Y-64862719D01*
X65693668Y-64831166D01*
X65693666Y-64831164D01*
X65693665Y-64831161D01*
X65637521Y-64763893D01*
X65582344Y-64721030D01*
X65582335Y-64721024D01*
X65582336Y-64721024D01*
X65561585Y-64706851D01*
X65474590Y-64678635D01*
X65474592Y-64678635D01*
X65454706Y-64676855D01*
X65404998Y-64672408D01*
X65404994Y-64672408D01*
X65404993Y-64672408D01*
X65346595Y-64675538D01*
X65346588Y-64675539D01*
X65260736Y-64692617D01*
X65236544Y-64695000D01*
X65163457Y-64695000D01*
X65139266Y-64692617D01*
X65067600Y-64678361D01*
X65067590Y-64678359D01*
X65044331Y-64671303D01*
X64976814Y-64643337D01*
X64955376Y-64631878D01*
X64894603Y-64591271D01*
X64875812Y-64575850D01*
X64824147Y-64524185D01*
X64808726Y-64505394D01*
X64768119Y-64444621D01*
X64756660Y-64423183D01*
X64728692Y-64355661D01*
X64721638Y-64332405D01*
X64707383Y-64260739D01*
X64705000Y-64236548D01*
X64705000Y-64163461D01*
X64707382Y-64139272D01*
X64710669Y-64122744D01*
X64721640Y-64067583D01*
X64728694Y-64044331D01*
X64756663Y-63976808D01*
X64768116Y-63955379D01*
X64808728Y-63894598D01*
X64824142Y-63875817D01*
X64925817Y-63774142D01*
X64944603Y-63758726D01*
X65005376Y-63718119D01*
X65026808Y-63706663D01*
X65094338Y-63678691D01*
X65117581Y-63671640D01*
X65189269Y-63657381D01*
X65213453Y-63655000D01*
X65402384Y-63655000D01*
X65402404Y-63655000D01*
X65411832Y-63654784D01*
X65423198Y-63654262D01*
X65489497Y-63640017D01*
X65554450Y-63614270D01*
X65577206Y-63603595D01*
X65645711Y-63543003D01*
X65686433Y-63486228D01*
X65713413Y-63434329D01*
X65724772Y-63401864D01*
X65725301Y-63400864D01*
X65725339Y-63400281D01*
X65742042Y-63369189D01*
X65763701Y-63339841D01*
X65763704Y-63339836D01*
X65789838Y-63313703D01*
X65819193Y-63292038D01*
X65851864Y-63274771D01*
X65888482Y-63261957D01*
X65929435Y-63255000D01*
X66620561Y-63255000D01*
X66661513Y-63261957D01*
G37*
G04 #@! TD.AperFunction*
G04 #@! TA.AperFunction,Conductor*
G36*
X59111512Y-60761957D02*
G01*
X59148134Y-60774772D01*
X59149133Y-60775300D01*
X59149717Y-60775338D01*
X59180808Y-60792041D01*
X59210157Y-60813701D01*
X59236296Y-60839839D01*
X59257957Y-60869189D01*
X59275227Y-60901866D01*
X59286591Y-60934343D01*
X59289893Y-60943127D01*
X59289909Y-60943166D01*
X59294156Y-60953721D01*
X59329495Y-61011584D01*
X59375256Y-61064395D01*
X59392838Y-61082339D01*
X59392842Y-61082343D01*
X59392843Y-61082344D01*
X59392845Y-61082345D01*
X59449919Y-61114270D01*
X59472659Y-61126990D01*
X59539698Y-61146675D01*
X59597596Y-61155000D01*
X59597600Y-61155000D01*
X59875815Y-61155000D01*
X59876785Y-61154988D01*
X59986558Y-61154988D01*
X60010748Y-61157370D01*
X60082415Y-61171625D01*
X60105677Y-61178682D01*
X60173203Y-61206652D01*
X60194641Y-61218111D01*
X60255405Y-61258712D01*
X60274196Y-61274133D01*
X60325863Y-61325800D01*
X60341282Y-61344587D01*
X60381892Y-61405366D01*
X60393349Y-61426799D01*
X60421315Y-61494317D01*
X60428370Y-61517575D01*
X60442629Y-61589253D01*
X60445012Y-61613446D01*
X60445012Y-61686524D01*
X60442630Y-61710713D01*
X60434569Y-61751243D01*
X60434568Y-61751249D01*
X60428371Y-61782398D01*
X60421315Y-61805656D01*
X60393349Y-61873171D01*
X60381893Y-61894605D01*
X60361328Y-61925384D01*
X60361325Y-61925389D01*
X60361324Y-61925391D01*
X60341287Y-61955377D01*
X60325868Y-61974164D01*
X60274174Y-62025859D01*
X60255383Y-62041281D01*
X60194630Y-62081875D01*
X60173192Y-62093334D01*
X60143659Y-62105567D01*
X60143657Y-62105567D01*
X60143656Y-62105568D01*
X60105661Y-62121305D01*
X60082405Y-62128360D01*
X60055303Y-62133751D01*
X60010733Y-62142617D01*
X59986544Y-62145000D01*
X59597596Y-62145000D01*
X59589025Y-62145196D01*
X59588166Y-62145216D01*
X59576800Y-62145738D01*
X59510505Y-62159982D01*
X59445542Y-62185733D01*
X59422795Y-62196403D01*
X59422794Y-62196404D01*
X59354290Y-62256995D01*
X59313568Y-62313770D01*
X59313565Y-62313775D01*
X59307912Y-62324649D01*
X59286590Y-62365663D01*
X59276862Y-62393460D01*
X59276858Y-62393472D01*
X59276857Y-62393476D01*
X59276850Y-62393494D01*
X59275218Y-62398155D01*
X59257958Y-62430807D01*
X59236299Y-62460156D01*
X59210157Y-62486298D01*
X59180807Y-62507958D01*
X59148130Y-62525228D01*
X59131803Y-62530941D01*
X59131783Y-62530948D01*
X59111513Y-62538041D01*
X59070557Y-62545000D01*
X58379441Y-62545000D01*
X58375351Y-62544305D01*
X58373117Y-62544839D01*
X58338486Y-62538041D01*
X58301861Y-62525225D01*
X58269188Y-62507956D01*
X58239841Y-62486298D01*
X58239839Y-62486296D01*
X58213704Y-62460162D01*
X58192036Y-62430802D01*
X58174770Y-62398132D01*
X58163409Y-62365663D01*
X58161958Y-62361516D01*
X58155000Y-62320563D01*
X58155000Y-60979437D01*
X58155694Y-60975348D01*
X58155161Y-60973116D01*
X58161956Y-60938488D01*
X58174775Y-60901858D01*
X58192039Y-60869193D01*
X58213705Y-60839836D01*
X58239834Y-60813706D01*
X58269194Y-60792037D01*
X58301868Y-60774770D01*
X58329850Y-60764978D01*
X58338483Y-60761958D01*
X58379435Y-60755000D01*
X59070561Y-60755000D01*
X59111512Y-60761957D01*
G37*
G04 #@! TD.AperFunction*
G04 #@! TA.AperFunction,Conductor*
G36*
X66661513Y-60761957D02*
G01*
X66698130Y-60774771D01*
X66699128Y-60775298D01*
X66699714Y-60775336D01*
X66730804Y-60792037D01*
X66760164Y-60813706D01*
X66786298Y-60839841D01*
X66802512Y-60861810D01*
X66807957Y-60869189D01*
X66825223Y-60901858D01*
X66838039Y-60938478D01*
X66845000Y-60979439D01*
X66845000Y-62320559D01*
X66844304Y-62324649D01*
X66844839Y-62326884D01*
X66838040Y-62361516D01*
X66838029Y-62361549D01*
X66832553Y-62377197D01*
X66832550Y-62377205D01*
X66825226Y-62398134D01*
X66807958Y-62430807D01*
X66786298Y-62460157D01*
X66760157Y-62486298D01*
X66730807Y-62507958D01*
X66729806Y-62508486D01*
X66729447Y-62508947D01*
X66698130Y-62525228D01*
X66681803Y-62530941D01*
X66681783Y-62530948D01*
X66661513Y-62538041D01*
X66620557Y-62545000D01*
X65929441Y-62545000D01*
X65888486Y-62538041D01*
X65851861Y-62525225D01*
X65850863Y-62524697D01*
X65850280Y-62524660D01*
X65819190Y-62507958D01*
X65789839Y-62486296D01*
X65763702Y-62460159D01*
X65714498Y-62393488D01*
X65714485Y-62393472D01*
X65702473Y-62378683D01*
X65687183Y-62361548D01*
X65661146Y-62341627D01*
X65625816Y-62314596D01*
X65625812Y-62314593D01*
X65625809Y-62314591D01*
X65586656Y-62295000D01*
X65563334Y-62283330D01*
X65551665Y-62278359D01*
X65540196Y-62273473D01*
X65540194Y-62273472D01*
X65540190Y-62273471D01*
X65449367Y-62262784D01*
X65408890Y-62267143D01*
X65408889Y-62267142D01*
X65359588Y-62272452D01*
X65357352Y-62272692D01*
X65346640Y-62275529D01*
X65260736Y-62292617D01*
X65236544Y-62295000D01*
X65163457Y-62295000D01*
X65139266Y-62292617D01*
X65085989Y-62282019D01*
X65067590Y-62278359D01*
X65044331Y-62271303D01*
X64976814Y-62243337D01*
X64955376Y-62231878D01*
X64894603Y-62191271D01*
X64875812Y-62175850D01*
X64824147Y-62124185D01*
X64808726Y-62105394D01*
X64768119Y-62044621D01*
X64756660Y-62023183D01*
X64736356Y-61974164D01*
X64728692Y-61955661D01*
X64721638Y-61932405D01*
X64720242Y-61925389D01*
X64707383Y-61860739D01*
X64705000Y-61836548D01*
X64705000Y-61763461D01*
X64707382Y-61739272D01*
X64717873Y-61686524D01*
X64721640Y-61667583D01*
X64728693Y-61644332D01*
X64756663Y-61576808D01*
X64768116Y-61555379D01*
X64808728Y-61494598D01*
X64824142Y-61475817D01*
X65025817Y-61274142D01*
X65044603Y-61258726D01*
X65105376Y-61218119D01*
X65126808Y-61206663D01*
X65194338Y-61178691D01*
X65217581Y-61171640D01*
X65289269Y-61157381D01*
X65313453Y-61155000D01*
X65402384Y-61155000D01*
X65402404Y-61155000D01*
X65411832Y-61154784D01*
X65423198Y-61154262D01*
X65489497Y-61140017D01*
X65554450Y-61114270D01*
X65577206Y-61103595D01*
X65645711Y-61043003D01*
X65686433Y-60986228D01*
X65713413Y-60934329D01*
X65724772Y-60901864D01*
X65725301Y-60900864D01*
X65725339Y-60900281D01*
X65742042Y-60869189D01*
X65763701Y-60839841D01*
X65763704Y-60839836D01*
X65789838Y-60813703D01*
X65819193Y-60792038D01*
X65851864Y-60774771D01*
X65888482Y-60761957D01*
X65929435Y-60755000D01*
X66620561Y-60755000D01*
X66661513Y-60761957D01*
G37*
G04 #@! TD.AperFunction*
G04 #@! TA.AperFunction,Conductor*
G36*
X59111513Y-58261957D02*
G01*
X59148135Y-58274772D01*
X59149134Y-58275300D01*
X59149718Y-58275338D01*
X59180809Y-58292041D01*
X59210158Y-58313701D01*
X59236297Y-58339839D01*
X59257958Y-58369189D01*
X59275228Y-58401866D01*
X59286592Y-58434343D01*
X59289894Y-58443127D01*
X59289910Y-58443166D01*
X59294157Y-58453721D01*
X59329496Y-58511584D01*
X59375257Y-58564395D01*
X59392839Y-58582339D01*
X59392843Y-58582343D01*
X59392844Y-58582344D01*
X59392846Y-58582345D01*
X59449920Y-58614270D01*
X59472660Y-58626990D01*
X59539699Y-58646675D01*
X59597597Y-58655000D01*
X59597601Y-58655000D01*
X59876332Y-58655000D01*
X59876489Y-58654998D01*
X59986535Y-58654998D01*
X60010725Y-58657380D01*
X60022433Y-58659708D01*
X60082409Y-58671638D01*
X60105664Y-58678692D01*
X60173181Y-58706659D01*
X60194618Y-58718117D01*
X60255394Y-58758726D01*
X60255396Y-58758727D01*
X60274187Y-58774149D01*
X60325851Y-58825813D01*
X60341270Y-58844600D01*
X60381876Y-58905372D01*
X60393331Y-58926803D01*
X60409372Y-58965529D01*
X60421301Y-58994327D01*
X60428357Y-59017587D01*
X60442615Y-59089260D01*
X60444998Y-59113453D01*
X60444998Y-59186534D01*
X60442616Y-59210723D01*
X60439000Y-59228901D01*
X60439000Y-59228904D01*
X60437810Y-59234887D01*
X60437809Y-59234890D01*
X60428357Y-59282405D01*
X60421301Y-59305664D01*
X60393334Y-59373183D01*
X60381876Y-59394621D01*
X60341272Y-59455390D01*
X60325850Y-59474181D01*
X60274176Y-59525855D01*
X60255386Y-59541276D01*
X60194626Y-59581875D01*
X60173185Y-59593335D01*
X60143658Y-59605564D01*
X60143652Y-59605568D01*
X60105657Y-59621305D01*
X60082401Y-59628360D01*
X60064717Y-59631878D01*
X60010729Y-59642617D01*
X59986540Y-59645000D01*
X59597597Y-59645000D01*
X59589026Y-59645196D01*
X59588167Y-59645216D01*
X59576801Y-59645738D01*
X59510506Y-59659982D01*
X59445543Y-59685733D01*
X59422796Y-59696403D01*
X59422795Y-59696404D01*
X59354290Y-59756995D01*
X59313568Y-59813771D01*
X59313562Y-59813781D01*
X59286589Y-59865667D01*
X59286586Y-59865675D01*
X59275228Y-59898133D01*
X59274699Y-59899132D01*
X59274662Y-59899717D01*
X59257959Y-59930808D01*
X59236298Y-59960158D01*
X59210160Y-59986296D01*
X59180810Y-60007957D01*
X59148131Y-60025228D01*
X59131804Y-60030941D01*
X59131784Y-60030948D01*
X59111514Y-60038041D01*
X59070558Y-60045000D01*
X58379442Y-60045000D01*
X58375352Y-60044305D01*
X58373118Y-60044839D01*
X58338487Y-60038041D01*
X58301862Y-60025225D01*
X58269189Y-60007956D01*
X58239842Y-59986298D01*
X58239840Y-59986296D01*
X58213705Y-59960162D01*
X58192037Y-59930802D01*
X58174771Y-59898131D01*
X58161959Y-59861516D01*
X58155001Y-59820563D01*
X58155001Y-58479437D01*
X58155695Y-58475348D01*
X58155162Y-58473116D01*
X58161957Y-58438488D01*
X58174776Y-58401858D01*
X58192040Y-58369193D01*
X58213706Y-58339836D01*
X58239835Y-58313706D01*
X58269195Y-58292037D01*
X58301869Y-58274770D01*
X58329851Y-58264978D01*
X58338484Y-58261958D01*
X58379436Y-58255000D01*
X59070562Y-58255000D01*
X59111513Y-58261957D01*
G37*
G04 #@! TD.AperFunction*
G04 #@! TA.AperFunction,Conductor*
G36*
X66661513Y-58261957D02*
G01*
X66698130Y-58274771D01*
X66699128Y-58275298D01*
X66699714Y-58275336D01*
X66730804Y-58292037D01*
X66760164Y-58313706D01*
X66786298Y-58339841D01*
X66802512Y-58361810D01*
X66807957Y-58369189D01*
X66825223Y-58401858D01*
X66838039Y-58438478D01*
X66845000Y-58479439D01*
X66845000Y-59820559D01*
X66844304Y-59824649D01*
X66844839Y-59826884D01*
X66838040Y-59861516D01*
X66837615Y-59862733D01*
X66832553Y-59877197D01*
X66832550Y-59877205D01*
X66825226Y-59898134D01*
X66807958Y-59930807D01*
X66786298Y-59960157D01*
X66760157Y-59986298D01*
X66730807Y-60007958D01*
X66729806Y-60008486D01*
X66729447Y-60008947D01*
X66698130Y-60025228D01*
X66681803Y-60030941D01*
X66681783Y-60030948D01*
X66661513Y-60038041D01*
X66620557Y-60045000D01*
X65929441Y-60045000D01*
X65888486Y-60038041D01*
X65851861Y-60025225D01*
X65850863Y-60024697D01*
X65850280Y-60024660D01*
X65819188Y-60007956D01*
X65789841Y-59986298D01*
X65789839Y-59986296D01*
X65763701Y-59960158D01*
X65742040Y-59930807D01*
X65724772Y-59898133D01*
X65721884Y-59889879D01*
X65710129Y-59862733D01*
X65710127Y-59862730D01*
X65710124Y-59862722D01*
X65710122Y-59862719D01*
X65693668Y-59831166D01*
X65693666Y-59831164D01*
X65693665Y-59831161D01*
X65637521Y-59763893D01*
X65582344Y-59721030D01*
X65582335Y-59721024D01*
X65582336Y-59721024D01*
X65561585Y-59706851D01*
X65474590Y-59678635D01*
X65474592Y-59678635D01*
X65454706Y-59676855D01*
X65404998Y-59672408D01*
X65404994Y-59672408D01*
X65404993Y-59672408D01*
X65346595Y-59675538D01*
X65346588Y-59675539D01*
X65260736Y-59692617D01*
X65236544Y-59695000D01*
X65163457Y-59695000D01*
X65139266Y-59692617D01*
X65068977Y-59678635D01*
X65067590Y-59678359D01*
X65044331Y-59671303D01*
X64976814Y-59643337D01*
X64955376Y-59631878D01*
X64894603Y-59591271D01*
X64875812Y-59575850D01*
X64824147Y-59524185D01*
X64808726Y-59505394D01*
X64768119Y-59444621D01*
X64756660Y-59423183D01*
X64728692Y-59355661D01*
X64721638Y-59332405D01*
X64707383Y-59260739D01*
X64705000Y-59236548D01*
X64705000Y-59163461D01*
X64707382Y-59139272D01*
X64717329Y-59089260D01*
X64721640Y-59067583D01*
X64728693Y-59044332D01*
X64756663Y-58976808D01*
X64768116Y-58955379D01*
X64808728Y-58894598D01*
X64824142Y-58875817D01*
X64925817Y-58774142D01*
X64944603Y-58758726D01*
X65005376Y-58718119D01*
X65026808Y-58706663D01*
X65094338Y-58678691D01*
X65117581Y-58671640D01*
X65189269Y-58657381D01*
X65213453Y-58655000D01*
X65402384Y-58655000D01*
X65402404Y-58655000D01*
X65411832Y-58654784D01*
X65423198Y-58654262D01*
X65489497Y-58640017D01*
X65554450Y-58614270D01*
X65577206Y-58603595D01*
X65645711Y-58543003D01*
X65686433Y-58486228D01*
X65713413Y-58434329D01*
X65724772Y-58401864D01*
X65725301Y-58400864D01*
X65725339Y-58400281D01*
X65742042Y-58369189D01*
X65763701Y-58339841D01*
X65763704Y-58339836D01*
X65789838Y-58313703D01*
X65819193Y-58292038D01*
X65851864Y-58274771D01*
X65888482Y-58261957D01*
X65929435Y-58255000D01*
X66620561Y-58255000D01*
X66661513Y-58261957D01*
G37*
G04 #@! TD.AperFunction*
G04 #@! TA.AperFunction,Conductor*
G36*
X58758058Y-20151561D02*
G01*
X58824273Y-20160278D01*
X58855539Y-20168656D01*
X58909666Y-20191076D01*
X58937698Y-20207259D01*
X58984184Y-20242929D01*
X59007070Y-20265815D01*
X59020866Y-20283794D01*
X59042739Y-20312300D01*
X59058923Y-20340333D01*
X59081343Y-20394460D01*
X59089721Y-20425725D01*
X59098439Y-20491938D01*
X59099500Y-20508125D01*
X59099500Y-25323297D01*
X59132117Y-25466205D01*
X59195717Y-25598272D01*
X59195719Y-25598275D01*
X59195720Y-25598276D01*
X59287116Y-25712883D01*
X59401723Y-25804279D01*
X59533794Y-25867881D01*
X59676706Y-25900500D01*
X59920074Y-25900500D01*
X59987113Y-25920185D01*
X60032868Y-25972989D01*
X60044074Y-26024500D01*
X60044074Y-31894143D01*
X60036495Y-31936831D01*
X58394074Y-36416162D01*
X58394074Y-46444228D01*
X58374389Y-46511267D01*
X58321585Y-46557022D01*
X58272158Y-46568210D01*
X52570158Y-46664041D01*
X52502797Y-46645486D01*
X52456161Y-46593459D01*
X52444074Y-46540059D01*
X52444074Y-31847376D01*
X52458854Y-31788665D01*
X55052708Y-26963333D01*
X55101785Y-26913608D01*
X55169959Y-26898309D01*
X55175464Y-26898797D01*
X55175534Y-26898797D01*
X55322122Y-26898797D01*
X55465033Y-26866178D01*
X55597104Y-26802577D01*
X55711710Y-26711181D01*
X55803106Y-26596575D01*
X55866708Y-26464505D01*
X55899327Y-26321593D01*
X55899327Y-26296337D01*
X55900498Y-26284450D01*
X55900498Y-25095630D01*
X55900499Y-20508110D01*
X55901558Y-20491958D01*
X55910279Y-20425720D01*
X55918655Y-20394463D01*
X55941077Y-20340330D01*
X55957257Y-20312304D01*
X55992932Y-20265811D01*
X56015811Y-20242932D01*
X56062304Y-20207257D01*
X56090330Y-20191077D01*
X56144463Y-20168655D01*
X56175724Y-20160278D01*
X56241942Y-20151561D01*
X56258127Y-20150500D01*
X56284351Y-20150500D01*
X58715649Y-20150500D01*
X58741873Y-20150500D01*
X58758058Y-20151561D01*
G37*
G04 #@! TD.AperFunction*
M02*
