M48
; DRILL file {KiCad 9.0.7+1} date 2026-07-20T18:29:34+0000
; FORMAT={-:-/ absolute / metric / decimal}
; #@! TF.CreationDate,2026-07-20T18:29:34+00:00
; #@! TF.GenerationSoftware,Kicad,Pcbnew,9.0.7+1
; #@! TF.FileFunction,Plated,1,4,PTH
FMAT,2
METRIC
; #@! TA.AperFunction,Plated,PTH,ViaDrill
T1C0.300
; #@! TA.AperFunction,Plated,PTH,ComponentDrill
T2C0.600
; #@! TA.AperFunction,Plated,PTH,ComponentDrill
T3C0.950
; #@! TA.AperFunction,Plated,PTH,ComponentDrill
T4C1.000
; #@! TA.AperFunction,Plated,PTH,ComponentDrill
T5C1.300
; #@! TA.AperFunction,Plated,PTH,ComponentDrill
T6C2.700
; #@! TA.AperFunction,Plated,PTH,ComponentDrill
T7C4.300
%
G90
G05
T1
X48.65Y-39.4
X54.2Y-59.05
X54.2Y-61.75
X54.2Y-64.2
X54.2Y-66.65
X54.4Y-53.4
X56.5Y-20.5
X56.5Y-21.5
X56.5Y-22.5
X56.5Y-23.5
X56.5Y-24.5
X57.5Y-20.5
X57.5Y-21.5
X57.5Y-22.5
X57.5Y-23.5
X57.5Y-24.5
X57.6Y-53.4
X58.5Y-20.5
X58.5Y-21.5
X58.5Y-22.5
X58.5Y-23.5
X58.5Y-24.5
X59.7Y-78.5
X59.95Y-59.15
X59.95Y-61.65
X59.95Y-66.65
X60.0Y-64.2
X60.2Y-81.3
X60.6Y-65.6
X60.8Y-60.4
X60.8Y-63.0
X60.9Y-71.3
X61.0Y-58.0
X61.0Y-68.6
X61.5Y-20.5
X61.5Y-21.5
X61.5Y-22.5
X61.5Y-23.5
X61.5Y-24.5
X62.2Y-69.8
X62.5Y-20.5
X62.5Y-21.5
X62.5Y-22.5
X62.5Y-23.5
X62.5Y-24.5
X62.65Y-90.8
X62.65Y-91.8
X62.65Y-92.75
X62.65Y-97.1
X63.4Y-58.0
X63.4Y-60.4
X63.4Y-63.0
X63.4Y-65.6
X63.5Y-20.5
X63.5Y-21.5
X63.5Y-22.5
X63.5Y-23.5
X63.5Y-24.5
X65.2Y-59.2
X65.2Y-61.8
X65.2Y-64.2
X65.2Y-66.6
X65.2Y-84.8
X66.075Y-70.925
X66.2Y-68.8
X66.5Y-20.5
X66.5Y-21.5
X66.5Y-22.5
X66.5Y-23.5
X66.5Y-24.5
X67.2Y-53.4
X67.5Y-20.5
X67.5Y-21.5
X67.5Y-22.5
X67.5Y-23.5
X67.5Y-24.5
X68.0Y-69.6
X68.2Y-74.95
X68.5Y-20.5
X68.5Y-21.5
X68.5Y-22.5
X68.5Y-23.5
X68.5Y-24.5
X68.5Y-94.75
X69.9Y-72.4
X70.6Y-53.4
X70.799Y-59.089
X70.799Y-61.789
X70.799Y-64.239
X70.799Y-66.689
X71.4Y-88.0
X71.6Y-80.8
X71.7Y-75.7
X74.0Y-102.5
X76.75Y-98.25
X77.75Y-95.715
X78.8Y-87.8
T2
X46.775Y-25.0
X46.775Y-115.5
X47.72Y-22.72
X47.72Y-27.28
X47.72Y-113.22
X47.72Y-117.78
X50.0Y-21.775
X50.0Y-28.225
X50.0Y-112.275
X50.0Y-118.725
X52.28Y-22.72
X52.28Y-27.28
X52.28Y-113.22
X52.28Y-117.78
X53.225Y-25.0
X53.225Y-115.5
X71.775Y-25.0
X71.775Y-115.5
X72.72Y-22.72
X72.72Y-27.28
X72.72Y-113.22
X72.72Y-117.78
X75.0Y-21.775
X75.0Y-28.225
X75.0Y-112.275
X75.0Y-118.725
X77.28Y-22.72
X77.28Y-27.28
X77.28Y-113.22
X77.28Y-117.78
X78.225Y-25.0
X78.225Y-115.5
T3
X71.5Y-96.5
X71.5Y-99.0
X71.5Y-101.5
X71.5Y-104.0
X71.5Y-106.5
T4
X48.3Y-32.725
X48.3Y-35.265
X48.3Y-37.805
X49.81Y-41.995
X49.81Y-44.535
X49.81Y-47.075
X49.81Y-49.615
X49.81Y-52.155
X49.81Y-54.695
X49.81Y-67.395
X49.81Y-69.935
X49.81Y-72.475
X49.81Y-75.015
X49.81Y-77.555
X49.81Y-80.095
X49.81Y-82.635
X49.81Y-85.175
X49.81Y-87.715
X50.84Y-32.725
X50.84Y-35.265
X50.84Y-37.805
X53.62Y-41.995
X53.62Y-44.535
X56.16Y-41.995
X56.16Y-44.535
X59.382Y-103.25
X59.382Y-114.5
X61.24Y-41.995
X61.24Y-44.535
X63.78Y-41.995
X63.78Y-44.535
X64.382Y-103.25
X64.382Y-114.5
X68.86Y-41.995
X68.86Y-44.535
X71.4Y-41.995
X71.4Y-44.535
X75.21Y-41.995
X75.21Y-44.535
X75.21Y-47.075
X75.21Y-49.615
X75.21Y-52.155
X75.21Y-54.695
X75.21Y-77.555
X75.21Y-80.095
X75.21Y-82.635
X75.21Y-85.175
X75.21Y-87.715
T5
X49.695Y-93.955
X49.695Y-99.035
X57.34Y-33.0
X62.42Y-33.0
X67.5Y-33.0
T6
X47.9Y-105.75
X52.9Y-105.75
T7
X50.0Y-25.0
X50.0Y-115.5
X75.0Y-25.0
X75.0Y-115.5
M30
