G04 #@! TF.GenerationSoftware,KiCad,Pcbnew,9.0.7+1*
G04 #@! TF.CreationDate,2026-07-20T18:29:34+00:00*
G04 #@! TF.ProjectId,hw-module-xesc,68772d6d-6f64-4756-9c65-2d786573632e,rev?*
G04 #@! TF.SameCoordinates,Original*
G04 #@! TF.FileFunction,Copper,L2,Inr*
G04 #@! TF.FilePolarity,Positive*
%FSLAX46Y46*%
G04 Gerber Fmt 4.6, Leading zero omitted, Abs format (unit mm)*
G04 Created by KiCad (PCBNEW 9.0.7+1) date 2026-07-20 18:29:34*
%MOMM*%
%LPD*%
G01*
G04 APERTURE LIST*
G04 #@! TA.AperFunction,ComponentPad*
%ADD10O,1.950000X1.700000*%
G04 #@! TD*
G04 #@! TA.AperFunction,ComponentPad*
%ADD11R,3.800000X3.800000*%
G04 #@! TD*
G04 #@! TA.AperFunction,ComponentPad*
%ADD12C,3.800000*%
G04 #@! TD*
G04 #@! TA.AperFunction,ComponentPad*
%ADD13C,0.900000*%
G04 #@! TD*
G04 #@! TA.AperFunction,ComponentPad*
%ADD14C,8.600000*%
G04 #@! TD*
G04 #@! TA.AperFunction,ComponentPad*
%ADD15R,2.000000X2.000000*%
G04 #@! TD*
G04 #@! TA.AperFunction,ComponentPad*
%ADD16C,2.000000*%
G04 #@! TD*
G04 #@! TA.AperFunction,ComponentPad*
%ADD17R,2.600000X2.600000*%
G04 #@! TD*
G04 #@! TA.AperFunction,ComponentPad*
%ADD18C,2.600000*%
G04 #@! TD*
G04 #@! TA.AperFunction,ComponentPad*
%ADD19O,3.000000X1.700000*%
G04 #@! TD*
G04 #@! TA.AperFunction,ComponentPad*
%ADD20O,1.700000X3.000000*%
G04 #@! TD*
G04 #@! TA.AperFunction,ComponentPad*
%ADD21R,1.700000X1.700000*%
G04 #@! TD*
G04 #@! TA.AperFunction,ComponentPad*
%ADD22O,1.700000X1.700000*%
G04 #@! TD*
G04 #@! TA.AperFunction,ViaPad*
%ADD23C,0.600000*%
G04 #@! TD*
G04 APERTURE END LIST*
G04 #@! TA.AperFunction,ComponentPad*
G36*
G01*
X72225000Y-107350000D02*
X70775000Y-107350000D01*
G75*
G02*
X70525000Y-107100000I0J250000D01*
G01*
X70525000Y-105900000D01*
G75*
G02*
X70775000Y-105650000I250000J0D01*
G01*
X72225000Y-105650000D01*
G75*
G02*
X72475000Y-105900000I0J-250000D01*
G01*
X72475000Y-107100000D01*
G75*
G02*
X72225000Y-107350000I-250000J0D01*
G01*
G37*
G04 #@! TD.AperFunction*
D10*
X71500000Y-104000000D03*
X71500000Y-101500000D03*
X71500000Y-99000000D03*
X71500000Y-96500000D03*
D11*
X47900000Y-105750000D03*
D12*
X52900000Y-105750000D03*
D13*
X46775000Y-25000000D03*
X47719581Y-22719581D03*
X47719581Y-27280419D03*
X50000000Y-21775000D03*
D14*
X50000000Y-25000000D03*
D13*
X50000000Y-28225000D03*
X52280419Y-22719581D03*
X52280419Y-27280419D03*
X53225000Y-25000000D03*
D15*
X59382323Y-103250000D03*
D16*
X64382323Y-103250000D03*
D15*
X59382323Y-114500000D03*
D16*
X64382323Y-114500000D03*
D17*
X49695000Y-93955000D03*
D18*
X49695000Y-99035000D03*
D19*
X49310000Y-85175000D03*
X49310000Y-82635000D03*
X49310000Y-77555000D03*
X49310000Y-75015000D03*
X49310000Y-72475000D03*
X49310000Y-80095000D03*
X49310000Y-49615000D03*
X75710000Y-49615000D03*
X49310000Y-47075000D03*
X75710000Y-47075000D03*
X49310000Y-69935000D03*
X75710000Y-87715000D03*
X75710000Y-85175000D03*
X75710000Y-82635000D03*
X75710000Y-80095000D03*
X49310000Y-87715000D03*
X75710000Y-77555000D03*
X49310000Y-67395000D03*
X49310000Y-44535000D03*
X75710000Y-44535000D03*
X49310000Y-41995000D03*
X75710000Y-41995000D03*
D20*
X68860000Y-45035000D03*
X71400000Y-45035000D03*
X68860000Y-41495000D03*
X71400000Y-41495000D03*
X61240000Y-45035000D03*
X63780000Y-45035000D03*
X61240000Y-41495000D03*
X63780000Y-41495000D03*
D19*
X49310000Y-54695000D03*
X75710000Y-54695000D03*
X49310000Y-52155000D03*
X75710000Y-52155000D03*
D20*
X53620000Y-45035000D03*
X56160000Y-45035000D03*
X53620000Y-41495000D03*
X56160000Y-41495000D03*
D13*
X46775000Y-115500000D03*
X47719581Y-113219581D03*
X47719581Y-117780419D03*
X50000000Y-112275000D03*
D14*
X50000000Y-115500000D03*
D13*
X50000000Y-118725000D03*
X52280419Y-113219581D03*
X52280419Y-117780419D03*
X53225000Y-115500000D03*
X71775000Y-115500000D03*
X72719581Y-113219581D03*
X72719581Y-117780419D03*
X75000000Y-112275000D03*
D14*
X75000000Y-115500000D03*
D13*
X75000000Y-118725000D03*
X77280419Y-113219581D03*
X77280419Y-117780419D03*
X78225000Y-115500000D03*
X71775000Y-25000000D03*
X72719581Y-22719581D03*
X72719581Y-27280419D03*
X75000000Y-21775000D03*
D14*
X75000000Y-25000000D03*
D13*
X75000000Y-28225000D03*
X77280419Y-22719581D03*
X77280419Y-27280419D03*
X78225000Y-25000000D03*
D21*
X48300000Y-32725000D03*
D22*
X50840000Y-32725000D03*
X48300000Y-35265000D03*
X50840000Y-35265000D03*
X48300000Y-37805000D03*
X50840000Y-37805000D03*
D17*
X67500000Y-33000000D03*
D18*
X62420000Y-33000000D03*
X57340000Y-33000000D03*
D23*
X61000000Y-68600000D03*
X70799425Y-66688764D03*
X63400000Y-60400000D03*
X54200000Y-64200000D03*
X60600000Y-65600000D03*
X60800000Y-60400000D03*
X66200000Y-68800000D03*
X70799425Y-61788764D03*
X70799425Y-59088764D03*
X54200000Y-61750000D03*
X63400000Y-65600000D03*
X54200000Y-66650000D03*
X63400000Y-63000000D03*
X63400000Y-58000000D03*
X61000000Y-58000000D03*
X54200000Y-59050000D03*
X60800000Y-63000000D03*
X62200000Y-69800000D03*
X68000000Y-69600000D03*
X70799425Y-64238764D03*
X77750000Y-95715000D03*
X68500000Y-94750000D03*
X78800000Y-87800000D03*
X54400000Y-53400000D03*
X65200000Y-66600000D03*
X62650000Y-92750000D03*
X60900000Y-71300000D03*
X65200000Y-64200000D03*
X71600000Y-80800000D03*
X70600000Y-53400000D03*
X71700000Y-75700000D03*
X60200000Y-81300000D03*
X59950013Y-66649987D03*
X59700000Y-78500000D03*
X48650000Y-39400000D03*
X67200000Y-53400000D03*
X60000000Y-64200000D03*
X59949998Y-59149998D03*
X65200000Y-61800000D03*
X62650000Y-90800000D03*
X57600000Y-53400000D03*
X68200000Y-74950000D03*
X62650000Y-91800000D03*
X65200000Y-59200000D03*
X62650000Y-97100000D03*
X69900000Y-72400000D03*
X59950013Y-61649987D03*
X65200000Y-84800000D03*
X66074995Y-70924995D03*
X66500000Y-24500000D03*
X67500000Y-24500000D03*
X67500000Y-21500000D03*
X68500000Y-24500000D03*
X68500000Y-21500000D03*
X67500000Y-22500000D03*
X66500000Y-23500000D03*
X67500000Y-20500000D03*
X68500000Y-20500000D03*
X67500000Y-23500000D03*
X68500000Y-22500000D03*
X66500000Y-22500000D03*
X68500000Y-23500000D03*
X66500000Y-20500000D03*
X66500000Y-21500000D03*
X62500000Y-23500000D03*
X63500000Y-22500000D03*
X61500000Y-20500000D03*
X61500000Y-23500000D03*
X63500000Y-21500000D03*
X62500000Y-20500000D03*
X61500000Y-21500000D03*
X63500000Y-23500000D03*
X61500000Y-22500000D03*
X61500000Y-24500000D03*
X62500000Y-24500000D03*
X62500000Y-22500000D03*
X63500000Y-24500000D03*
X63500000Y-20500000D03*
X62500000Y-21500000D03*
X56500000Y-21500000D03*
X58500000Y-24500000D03*
X56500000Y-23500000D03*
X58500000Y-22500000D03*
X58500000Y-20500000D03*
X57500000Y-24500000D03*
X57500000Y-20500000D03*
X57500000Y-23500000D03*
X57500000Y-21500000D03*
X56500000Y-24500000D03*
X57500000Y-22500000D03*
X56500000Y-20500000D03*
X58500000Y-21500000D03*
X56500000Y-22500000D03*
X58500000Y-23500000D03*
X71400000Y-88000000D03*
X74000000Y-102500000D03*
X76750000Y-98250000D03*
G04 #@! TA.AperFunction,Conductor*
G36*
X63758059Y-20151560D02*
G01*
X63824273Y-20160277D01*
X63855539Y-20168655D01*
X63909666Y-20191075D01*
X63937698Y-20207258D01*
X63984184Y-20242928D01*
X64007070Y-20265814D01*
X64042737Y-20312296D01*
X64058922Y-20340329D01*
X64081345Y-20394462D01*
X64089723Y-20425729D01*
X64098439Y-20491931D01*
X64099500Y-20508117D01*
X64099500Y-25323298D01*
X64132117Y-25466206D01*
X64195717Y-25598273D01*
X64195719Y-25598276D01*
X64195720Y-25598277D01*
X64287116Y-25712884D01*
X64401722Y-25804279D01*
X64401726Y-25804282D01*
X64509909Y-25856380D01*
X64561769Y-25903202D01*
X64580107Y-25967691D01*
X64599999Y-31999997D01*
X64599999Y-31999998D01*
X64600000Y-32000000D01*
X66192687Y-36429660D01*
X66200000Y-36471615D01*
X66200000Y-46426000D01*
X66180315Y-46493039D01*
X66127511Y-46538794D01*
X66076000Y-46550000D01*
X58824000Y-46550000D01*
X58756961Y-46530315D01*
X58711206Y-46477511D01*
X58700000Y-46426000D01*
X58700000Y-36621564D01*
X58707282Y-36579698D01*
X60349999Y-32000004D01*
X60350000Y-31999998D01*
X60354610Y-25992144D01*
X60374346Y-25925120D01*
X60427185Y-25879405D01*
X60451019Y-25871347D01*
X60466205Y-25867882D01*
X60598276Y-25804280D01*
X60712883Y-25712884D01*
X60804279Y-25598277D01*
X60867881Y-25466206D01*
X60900500Y-25323294D01*
X60900500Y-25250000D01*
X60900500Y-25215649D01*
X60900500Y-25215648D01*
X60900500Y-20508108D01*
X60901559Y-20491957D01*
X60910279Y-20425722D01*
X60918656Y-20394462D01*
X60941080Y-20340325D01*
X60957260Y-20312302D01*
X60992934Y-20265810D01*
X61015813Y-20242931D01*
X61062306Y-20207256D01*
X61090332Y-20191076D01*
X61144465Y-20168654D01*
X61175726Y-20160277D01*
X61241943Y-20151560D01*
X61258128Y-20150499D01*
X61284353Y-20150499D01*
X63715649Y-20150499D01*
X63741874Y-20150499D01*
X63758059Y-20151560D01*
G37*
G04 #@! TD.AperFunction*
G04 #@! TA.AperFunction,Conductor*
G36*
X68758059Y-20151560D02*
G01*
X68824273Y-20160277D01*
X68855539Y-20168655D01*
X68909666Y-20191075D01*
X68937698Y-20207258D01*
X68984184Y-20242928D01*
X69007072Y-20265816D01*
X69042737Y-20312296D01*
X69058922Y-20340329D01*
X69081345Y-20394462D01*
X69089723Y-20425729D01*
X69089852Y-20426706D01*
X69095569Y-20470136D01*
X69098436Y-20491908D01*
X69099497Y-20508155D01*
X69096830Y-25957462D01*
X69096704Y-26214515D01*
X69096688Y-26214551D01*
X69096688Y-26248845D01*
X69096688Y-26248962D01*
X69096667Y-26291989D01*
X69096688Y-26292201D01*
X69096688Y-26322202D01*
X69129305Y-26465108D01*
X69192905Y-26597175D01*
X69192907Y-26597178D01*
X69192908Y-26597179D01*
X69284304Y-26711786D01*
X69398911Y-26803182D01*
X69530981Y-26866785D01*
X69640124Y-26891696D01*
X69673889Y-26899403D01*
X69673894Y-26899404D01*
X69791564Y-26899404D01*
X69858603Y-26919089D01*
X69900782Y-26964690D01*
X72485220Y-31772504D01*
X72500000Y-31831215D01*
X72500000Y-46523898D01*
X72480315Y-46590937D01*
X72427511Y-46636692D01*
X72373916Y-46647880D01*
X66671916Y-46552049D01*
X66605217Y-46531241D01*
X66560356Y-46477676D01*
X66550000Y-46428067D01*
X66550000Y-36400001D01*
X64907579Y-31920670D01*
X64900000Y-31877982D01*
X64900000Y-26024501D01*
X64919685Y-25957462D01*
X64972489Y-25911707D01*
X65024000Y-25900501D01*
X65323291Y-25900501D01*
X65323292Y-25900501D01*
X65323294Y-25900500D01*
X65323297Y-25900500D01*
X65466205Y-25867883D01*
X65598272Y-25804283D01*
X65598272Y-25804282D01*
X65598276Y-25804281D01*
X65712883Y-25712885D01*
X65804279Y-25598278D01*
X65867881Y-25466207D01*
X65900500Y-25323295D01*
X65900500Y-25250001D01*
X65900500Y-25215650D01*
X65900500Y-25215649D01*
X65900500Y-20508108D01*
X65901559Y-20491957D01*
X65910279Y-20425722D01*
X65918656Y-20394462D01*
X65941080Y-20340325D01*
X65957260Y-20312302D01*
X65992934Y-20265810D01*
X66015813Y-20242931D01*
X66062306Y-20207256D01*
X66090332Y-20191076D01*
X66144465Y-20168654D01*
X66175726Y-20160277D01*
X66241943Y-20151560D01*
X66258128Y-20150499D01*
X66284353Y-20150499D01*
X68715649Y-20150499D01*
X68741874Y-20150499D01*
X68758059Y-20151560D01*
G37*
G04 #@! TD.AperFunction*
G04 #@! TA.AperFunction,Conductor*
G36*
X54258059Y-20151561D02*
G01*
X54324273Y-20160278D01*
X54355539Y-20168656D01*
X54409666Y-20191076D01*
X54437698Y-20207259D01*
X54484184Y-20242929D01*
X54507070Y-20265815D01*
X54520865Y-20283793D01*
X54542739Y-20312300D01*
X54558923Y-20340333D01*
X54581343Y-20394460D01*
X54589721Y-20425725D01*
X54598439Y-20491939D01*
X54599500Y-20508126D01*
X54599500Y-26194848D01*
X54598329Y-26205244D01*
X54598329Y-26321596D01*
X54630948Y-26464506D01*
X54694547Y-26596571D01*
X54694551Y-26596577D01*
X54733602Y-26645544D01*
X54785946Y-26711181D01*
X54822675Y-26740471D01*
X54823335Y-26740998D01*
X54863475Y-26798186D01*
X54866324Y-26867998D01*
X54855241Y-26896655D01*
X52277850Y-31691360D01*
X52277845Y-31691370D01*
X52259572Y-31738494D01*
X52244791Y-31797205D01*
X52238575Y-31847363D01*
X52238574Y-31847380D01*
X52238574Y-46540060D01*
X52243643Y-46585422D01*
X52255736Y-46638848D01*
X52258777Y-46650644D01*
X52258778Y-46650646D01*
X52258779Y-46650648D01*
X52303139Y-46730625D01*
X52349775Y-46782652D01*
X52367666Y-46800308D01*
X52448223Y-46843607D01*
X52483597Y-46853351D01*
X52515572Y-46862159D01*
X52515576Y-46862159D01*
X52515584Y-46862162D01*
X52515589Y-46862162D01*
X52515591Y-46862163D01*
X52520402Y-46862772D01*
X52573611Y-46869512D01*
X58275611Y-46773681D01*
X58317526Y-46768640D01*
X58366953Y-46757452D01*
X58367999Y-46757191D01*
X58375436Y-46755341D01*
X58375439Y-46755339D01*
X58375447Y-46755338D01*
X58456159Y-46712328D01*
X58475038Y-46695968D01*
X58538592Y-46666943D01*
X58607750Y-46676886D01*
X58616775Y-46681461D01*
X58619246Y-46682843D01*
X58699063Y-46727490D01*
X58766102Y-46747175D01*
X58824000Y-46755500D01*
X58824004Y-46755500D01*
X66075991Y-46755500D01*
X66076000Y-46755500D01*
X66119684Y-46750803D01*
X66148875Y-46744452D01*
X66171174Y-46739602D01*
X66171190Y-46739598D01*
X66171195Y-46739597D01*
X66181373Y-46737110D01*
X66262085Y-46694100D01*
X66290445Y-46669525D01*
X66354000Y-46640500D01*
X66423158Y-46650443D01*
X66461666Y-46677958D01*
X66464960Y-46681435D01*
X66544012Y-46727414D01*
X66544013Y-46727414D01*
X66544016Y-46727416D01*
X66610715Y-46748224D01*
X66668463Y-46757520D01*
X72370463Y-46853351D01*
X72415909Y-46849044D01*
X72428427Y-46846430D01*
X72439781Y-46844061D01*
X72439786Y-46844060D01*
X72450678Y-46841785D01*
X72469504Y-46837856D01*
X72481373Y-46835008D01*
X72562085Y-46791998D01*
X72614889Y-46746243D01*
X72614900Y-46746232D01*
X72614901Y-46746232D01*
X72624211Y-46737109D01*
X72632843Y-46728652D01*
X72677490Y-46648835D01*
X72697175Y-46581796D01*
X72705500Y-46523898D01*
X72705500Y-31831215D01*
X72699282Y-31781047D01*
X72699282Y-31781044D01*
X72684504Y-31722344D01*
X72684502Y-31722336D01*
X72666226Y-31675204D01*
X70110727Y-26921225D01*
X70096324Y-26852856D01*
X70121170Y-26787554D01*
X70142635Y-26765567D01*
X70210072Y-26711788D01*
X70301468Y-26597181D01*
X70365071Y-26465111D01*
X70397690Y-26322198D01*
X70397690Y-26248904D01*
X70397690Y-26246200D01*
X70400479Y-20541215D01*
X70400483Y-20534382D01*
X70400500Y-20534350D01*
X70400500Y-20508049D01*
X70400506Y-20508027D01*
X70401561Y-20491940D01*
X70404432Y-20470136D01*
X70410278Y-20425724D01*
X70418655Y-20394463D01*
X70441077Y-20340330D01*
X70457257Y-20312304D01*
X70492932Y-20265811D01*
X70515811Y-20242932D01*
X70562304Y-20207257D01*
X70590330Y-20191077D01*
X70644463Y-20168655D01*
X70675724Y-20160278D01*
X70741942Y-20151561D01*
X70758127Y-20150500D01*
X70784351Y-20150500D01*
X74965649Y-20150500D01*
X74997294Y-20150500D01*
X75002702Y-20150617D01*
X75417276Y-20168718D01*
X75428011Y-20169658D01*
X75836740Y-20223468D01*
X75847382Y-20225344D01*
X76249865Y-20314572D01*
X76260302Y-20317369D01*
X76653473Y-20441336D01*
X76663616Y-20445027D01*
X77044494Y-20602792D01*
X77054285Y-20607358D01*
X77419942Y-20797707D01*
X77429310Y-20803115D01*
X77776996Y-21024615D01*
X77785857Y-21030820D01*
X78112906Y-21281773D01*
X78121193Y-21288727D01*
X78425122Y-21567228D01*
X78432771Y-21574877D01*
X78711272Y-21878806D01*
X78718226Y-21887093D01*
X78969179Y-22214142D01*
X78975384Y-22223003D01*
X79196884Y-22570689D01*
X79202292Y-22580057D01*
X79392638Y-22945707D01*
X79397210Y-22955511D01*
X79554966Y-23336368D01*
X79558666Y-23346534D01*
X79682628Y-23739692D01*
X79685428Y-23750141D01*
X79774654Y-24152614D01*
X79776532Y-24163267D01*
X79830339Y-24571968D01*
X79831282Y-24582744D01*
X79849382Y-24997297D01*
X79849500Y-25002706D01*
X79849500Y-115497293D01*
X79849382Y-115502702D01*
X79831282Y-115917255D01*
X79830339Y-115928031D01*
X79776532Y-116336732D01*
X79774654Y-116347385D01*
X79685428Y-116749858D01*
X79682628Y-116760307D01*
X79558666Y-117153465D01*
X79554966Y-117163631D01*
X79397210Y-117544488D01*
X79392638Y-117554292D01*
X79202292Y-117919942D01*
X79196884Y-117929310D01*
X78975384Y-118276996D01*
X78969179Y-118285857D01*
X78718226Y-118612906D01*
X78711272Y-118621193D01*
X78432771Y-118925122D01*
X78425122Y-118932771D01*
X78121193Y-119211272D01*
X78112906Y-119218226D01*
X77785857Y-119469179D01*
X77776996Y-119475384D01*
X77429310Y-119696884D01*
X77419942Y-119702292D01*
X77054292Y-119892638D01*
X77044488Y-119897210D01*
X76663631Y-120054966D01*
X76653465Y-120058666D01*
X76260307Y-120182628D01*
X76249858Y-120185428D01*
X75847385Y-120274654D01*
X75836732Y-120276532D01*
X75428031Y-120330339D01*
X75417255Y-120331282D01*
X75002703Y-120349382D01*
X74997294Y-120349500D01*
X50002706Y-120349500D01*
X49997297Y-120349382D01*
X49582744Y-120331282D01*
X49571968Y-120330339D01*
X49163267Y-120276532D01*
X49152614Y-120274654D01*
X48750141Y-120185428D01*
X48739692Y-120182628D01*
X48346534Y-120058666D01*
X48336368Y-120054966D01*
X47955511Y-119897210D01*
X47945707Y-119892638D01*
X47580057Y-119702292D01*
X47570689Y-119696884D01*
X47223003Y-119475384D01*
X47214142Y-119469179D01*
X46887093Y-119218226D01*
X46878806Y-119211272D01*
X46574877Y-118932771D01*
X46567228Y-118925122D01*
X46288727Y-118621193D01*
X46281773Y-118612906D01*
X46030820Y-118285857D01*
X46024615Y-118276996D01*
X45803115Y-117929310D01*
X45797707Y-117919942D01*
X45607361Y-117554292D01*
X45602789Y-117544488D01*
X45445027Y-117163616D01*
X45441333Y-117153465D01*
X45317371Y-116760307D01*
X45314571Y-116749858D01*
X45225345Y-116347385D01*
X45223467Y-116336732D01*
X45197254Y-116137624D01*
X45169658Y-115928011D01*
X45168718Y-115917276D01*
X45150618Y-115502702D01*
X45150500Y-115497293D01*
X45150500Y-113480247D01*
X58181823Y-113480247D01*
X58181823Y-115519752D01*
X58193454Y-115578229D01*
X58193455Y-115578230D01*
X58237770Y-115644552D01*
X58304092Y-115688867D01*
X58304093Y-115688868D01*
X58362570Y-115700499D01*
X58362573Y-115700500D01*
X58362575Y-115700500D01*
X60402073Y-115700500D01*
X60402074Y-115700499D01*
X60416891Y-115697552D01*
X60460552Y-115688868D01*
X60460552Y-115688867D01*
X60460554Y-115688867D01*
X60526875Y-115644552D01*
X60571190Y-115578231D01*
X60571190Y-115578229D01*
X60571191Y-115578229D01*
X60582822Y-115519752D01*
X60582823Y-115519750D01*
X60582823Y-114401617D01*
X63132323Y-114401617D01*
X63132323Y-114598382D01*
X63163101Y-114792705D01*
X63223904Y-114979835D01*
X63313228Y-115155145D01*
X63338642Y-115190125D01*
X63338643Y-115190125D01*
X63899360Y-114629408D01*
X63916398Y-114692993D01*
X63982224Y-114807007D01*
X64075316Y-114900099D01*
X64189330Y-114965925D01*
X64252913Y-114982962D01*
X63692196Y-115543677D01*
X63692196Y-115543678D01*
X63727181Y-115569096D01*
X63902487Y-115658418D01*
X64089617Y-115719221D01*
X64283941Y-115750000D01*
X64480705Y-115750000D01*
X64675028Y-115719221D01*
X64862158Y-115658418D01*
X65037466Y-115569095D01*
X65072448Y-115543678D01*
X65072449Y-115543678D01*
X64511733Y-114982962D01*
X64575316Y-114965925D01*
X64689330Y-114900099D01*
X64782422Y-114807007D01*
X64848248Y-114692993D01*
X64865285Y-114629410D01*
X65426001Y-115190126D01*
X65426001Y-115190125D01*
X65451418Y-115155143D01*
X65540741Y-114979835D01*
X65601544Y-114792705D01*
X65632323Y-114598382D01*
X65632323Y-114401617D01*
X65601544Y-114207294D01*
X65540741Y-114020164D01*
X65451419Y-113844858D01*
X65426001Y-113809873D01*
X65426000Y-113809873D01*
X64865285Y-114370589D01*
X64848248Y-114307007D01*
X64782422Y-114192993D01*
X64689330Y-114099901D01*
X64575316Y-114034075D01*
X64511732Y-114017037D01*
X65072448Y-113456320D01*
X65072448Y-113456319D01*
X65037468Y-113430905D01*
X64862158Y-113341581D01*
X64675028Y-113280778D01*
X64480705Y-113250000D01*
X64283941Y-113250000D01*
X64089617Y-113280778D01*
X63902484Y-113341582D01*
X63727186Y-113430899D01*
X63727182Y-113430902D01*
X63692196Y-113456320D01*
X63692195Y-113456320D01*
X64252913Y-114017037D01*
X64189330Y-114034075D01*
X64075316Y-114099901D01*
X63982224Y-114192993D01*
X63916398Y-114307007D01*
X63899360Y-114370590D01*
X63338643Y-113809872D01*
X63338643Y-113809873D01*
X63313225Y-113844859D01*
X63313222Y-113844863D01*
X63223905Y-114020161D01*
X63163101Y-114207294D01*
X63132323Y-114401617D01*
X60582823Y-114401617D01*
X60582823Y-113480249D01*
X60582822Y-113480247D01*
X60571191Y-113421770D01*
X60571190Y-113421769D01*
X60526875Y-113355447D01*
X60460553Y-113311132D01*
X60460552Y-113311131D01*
X60402075Y-113299500D01*
X60402071Y-113299500D01*
X58362575Y-113299500D01*
X58362570Y-113299500D01*
X58304093Y-113311131D01*
X58304092Y-113311132D01*
X58237770Y-113355447D01*
X58193455Y-113421769D01*
X58193454Y-113421770D01*
X58181823Y-113480247D01*
X45150500Y-113480247D01*
X45150500Y-105612332D01*
X50799500Y-105612332D01*
X50799500Y-105887667D01*
X50799501Y-105887684D01*
X50835438Y-106160655D01*
X50835439Y-106160660D01*
X50835440Y-106160666D01*
X50835441Y-106160668D01*
X50906704Y-106426630D01*
X51012075Y-106681017D01*
X51012080Y-106681028D01*
X51094861Y-106824407D01*
X51149751Y-106919479D01*
X51149753Y-106919482D01*
X51149754Y-106919483D01*
X51317370Y-107137926D01*
X51317376Y-107137933D01*
X51512066Y-107332623D01*
X51512072Y-107332628D01*
X51730521Y-107500249D01*
X51883778Y-107588732D01*
X51968971Y-107637919D01*
X51968976Y-107637921D01*
X51968979Y-107637923D01*
X52223368Y-107743295D01*
X52489334Y-107814560D01*
X52762326Y-107850500D01*
X52762333Y-107850500D01*
X53037667Y-107850500D01*
X53037674Y-107850500D01*
X53310666Y-107814560D01*
X53576632Y-107743295D01*
X53831021Y-107637923D01*
X54069479Y-107500249D01*
X54287928Y-107332628D01*
X54482628Y-107137928D01*
X54650249Y-106919479D01*
X54787923Y-106681021D01*
X54893295Y-106426632D01*
X54964560Y-106160666D01*
X55000500Y-105887674D01*
X55000500Y-105845730D01*
X70324500Y-105845730D01*
X70324500Y-107154269D01*
X70327353Y-107184699D01*
X70327353Y-107184701D01*
X70372206Y-107312880D01*
X70372207Y-107312882D01*
X70452850Y-107422150D01*
X70562118Y-107502793D01*
X70604845Y-107517744D01*
X70690299Y-107547646D01*
X70720730Y-107550500D01*
X70720734Y-107550500D01*
X72279270Y-107550500D01*
X72309699Y-107547646D01*
X72309701Y-107547646D01*
X72373790Y-107525219D01*
X72437882Y-107502793D01*
X72547150Y-107422150D01*
X72627793Y-107312882D01*
X72650219Y-107248790D01*
X72672646Y-107184701D01*
X72672646Y-107184699D01*
X72675500Y-107154269D01*
X72675500Y-105845730D01*
X72672646Y-105815300D01*
X72672646Y-105815298D01*
X72627793Y-105687119D01*
X72627792Y-105687117D01*
X72547150Y-105577850D01*
X72437882Y-105497207D01*
X72437880Y-105497206D01*
X72309700Y-105452353D01*
X72279270Y-105449500D01*
X72279266Y-105449500D01*
X70720734Y-105449500D01*
X70720730Y-105449500D01*
X70690300Y-105452353D01*
X70690298Y-105452353D01*
X70562119Y-105497206D01*
X70562117Y-105497207D01*
X70452850Y-105577850D01*
X70372207Y-105687117D01*
X70372206Y-105687119D01*
X70327353Y-105815298D01*
X70327353Y-105815300D01*
X70324500Y-105845730D01*
X55000500Y-105845730D01*
X55000500Y-105612326D01*
X54964560Y-105339334D01*
X54893295Y-105073368D01*
X54787923Y-104818979D01*
X54787921Y-104818976D01*
X54787919Y-104818971D01*
X54738732Y-104733778D01*
X54650249Y-104580521D01*
X54541555Y-104438867D01*
X54482629Y-104362073D01*
X54482623Y-104362066D01*
X54287933Y-104167376D01*
X54287926Y-104167370D01*
X54069483Y-103999754D01*
X54069482Y-103999753D01*
X54069479Y-103999751D01*
X53966204Y-103940125D01*
X53831028Y-103862080D01*
X53831017Y-103862075D01*
X53576630Y-103756704D01*
X53424438Y-103715925D01*
X53310666Y-103685440D01*
X53310660Y-103685439D01*
X53310655Y-103685438D01*
X53037684Y-103649501D01*
X53037679Y-103649500D01*
X53037674Y-103649500D01*
X52762326Y-103649500D01*
X52762320Y-103649500D01*
X52762315Y-103649501D01*
X52489344Y-103685438D01*
X52489337Y-103685439D01*
X52489334Y-103685440D01*
X52458959Y-103693579D01*
X52223369Y-103756704D01*
X51968982Y-103862075D01*
X51968971Y-103862080D01*
X51730516Y-103999754D01*
X51512073Y-104167370D01*
X51512066Y-104167376D01*
X51317376Y-104362066D01*
X51317370Y-104362073D01*
X51149754Y-104580516D01*
X51012080Y-104818971D01*
X51012075Y-104818982D01*
X50906704Y-105073369D01*
X50835441Y-105339331D01*
X50835438Y-105339344D01*
X50799501Y-105612315D01*
X50799500Y-105612332D01*
X45150500Y-105612332D01*
X45150500Y-102230247D01*
X58181823Y-102230247D01*
X58181823Y-104269752D01*
X58193454Y-104328229D01*
X58193455Y-104328230D01*
X58237770Y-104394552D01*
X58304092Y-104438867D01*
X58304093Y-104438868D01*
X58362570Y-104450499D01*
X58362573Y-104450500D01*
X58362575Y-104450500D01*
X60402073Y-104450500D01*
X60402074Y-104450499D01*
X60416891Y-104447552D01*
X60460552Y-104438868D01*
X60460552Y-104438867D01*
X60460554Y-104438867D01*
X60526875Y-104394552D01*
X60571190Y-104328231D01*
X60571190Y-104328229D01*
X60571191Y-104328229D01*
X60582822Y-104269752D01*
X60582823Y-104269750D01*
X60582823Y-103151617D01*
X63132323Y-103151617D01*
X63132323Y-103348382D01*
X63163101Y-103542705D01*
X63223904Y-103729835D01*
X63313228Y-103905145D01*
X63338642Y-103940125D01*
X63338643Y-103940125D01*
X63899360Y-103379408D01*
X63916398Y-103442993D01*
X63982224Y-103557007D01*
X64075316Y-103650099D01*
X64189330Y-103715925D01*
X64252913Y-103732962D01*
X63692196Y-104293677D01*
X63692196Y-104293678D01*
X63727181Y-104319096D01*
X63902487Y-104408418D01*
X64089617Y-104469221D01*
X64283941Y-104500000D01*
X64480705Y-104500000D01*
X64675028Y-104469221D01*
X64862158Y-104408418D01*
X65037466Y-104319095D01*
X65072448Y-104293678D01*
X65072449Y-104293678D01*
X64511733Y-103732962D01*
X64575316Y-103715925D01*
X64689330Y-103650099D01*
X64782422Y-103557007D01*
X64848248Y-103442993D01*
X64865285Y-103379410D01*
X65426001Y-103940126D01*
X65426001Y-103940125D01*
X65451420Y-103905141D01*
X65455807Y-103896530D01*
X70324500Y-103896530D01*
X70324500Y-104103469D01*
X70364868Y-104306412D01*
X70364870Y-104306420D01*
X70444058Y-104497596D01*
X70559024Y-104669657D01*
X70705342Y-104815975D01*
X70705345Y-104815977D01*
X70877402Y-104930941D01*
X71068580Y-105010130D01*
X71271530Y-105050499D01*
X71271534Y-105050500D01*
X71271535Y-105050500D01*
X71728466Y-105050500D01*
X71728467Y-105050499D01*
X71931420Y-105010130D01*
X72122598Y-104930941D01*
X72294655Y-104815977D01*
X72440977Y-104669655D01*
X72555941Y-104497598D01*
X72635130Y-104306420D01*
X72675500Y-104103465D01*
X72675500Y-103896535D01*
X72635130Y-103693580D01*
X72555941Y-103502402D01*
X72440977Y-103330345D01*
X72440975Y-103330342D01*
X72294657Y-103184024D01*
X72208626Y-103126541D01*
X72122598Y-103069059D01*
X71931420Y-102989870D01*
X71931412Y-102989868D01*
X71728469Y-102949500D01*
X71728465Y-102949500D01*
X71271535Y-102949500D01*
X71271530Y-102949500D01*
X71068587Y-102989868D01*
X71068579Y-102989870D01*
X70877403Y-103069058D01*
X70705342Y-103184024D01*
X70559024Y-103330342D01*
X70444058Y-103502403D01*
X70364870Y-103693579D01*
X70364868Y-103693587D01*
X70324500Y-103896530D01*
X65455807Y-103896530D01*
X65487592Y-103834149D01*
X65487592Y-103834148D01*
X65540741Y-103729835D01*
X65601544Y-103542705D01*
X65632323Y-103348382D01*
X65632323Y-103151617D01*
X65601544Y-102957294D01*
X65540741Y-102770164D01*
X65451419Y-102594858D01*
X65426001Y-102559873D01*
X65426000Y-102559873D01*
X64865285Y-103120589D01*
X64848248Y-103057007D01*
X64782422Y-102942993D01*
X64689330Y-102849901D01*
X64575316Y-102784075D01*
X64511732Y-102767037D01*
X65072448Y-102206320D01*
X65072448Y-102206319D01*
X65037468Y-102180905D01*
X64862158Y-102091581D01*
X64675028Y-102030778D01*
X64480705Y-102000000D01*
X64283941Y-102000000D01*
X64089617Y-102030778D01*
X63902484Y-102091582D01*
X63727186Y-102180899D01*
X63727182Y-102180902D01*
X63692196Y-102206320D01*
X63692195Y-102206320D01*
X64252913Y-102767037D01*
X64189330Y-102784075D01*
X64075316Y-102849901D01*
X63982224Y-102942993D01*
X63916398Y-103057007D01*
X63899360Y-103120590D01*
X63338643Y-102559872D01*
X63338643Y-102559873D01*
X63313225Y-102594859D01*
X63313222Y-102594863D01*
X63223905Y-102770161D01*
X63163101Y-102957294D01*
X63132323Y-103151617D01*
X60582823Y-103151617D01*
X60582823Y-102230249D01*
X60582822Y-102230247D01*
X60571191Y-102171770D01*
X60571190Y-102171769D01*
X60526875Y-102105447D01*
X60460553Y-102061132D01*
X60460552Y-102061131D01*
X60402075Y-102049500D01*
X60402071Y-102049500D01*
X58362575Y-102049500D01*
X58362570Y-102049500D01*
X58304093Y-102061131D01*
X58304092Y-102061132D01*
X58237770Y-102105447D01*
X58193455Y-102171769D01*
X58193454Y-102171770D01*
X58181823Y-102230247D01*
X45150500Y-102230247D01*
X45150500Y-101396530D01*
X70324500Y-101396530D01*
X70324500Y-101603469D01*
X70364868Y-101806412D01*
X70364870Y-101806420D01*
X70444059Y-101997598D01*
X70501541Y-102083626D01*
X70559024Y-102169657D01*
X70705342Y-102315975D01*
X70705345Y-102315977D01*
X70877402Y-102430941D01*
X71068580Y-102510130D01*
X71271530Y-102550499D01*
X71271534Y-102550500D01*
X71271535Y-102550500D01*
X71728466Y-102550500D01*
X71728467Y-102550499D01*
X71931420Y-102510130D01*
X72114952Y-102434108D01*
X73499500Y-102434108D01*
X73499500Y-102565891D01*
X73533608Y-102693187D01*
X73566410Y-102750000D01*
X73599500Y-102807314D01*
X73692686Y-102900500D01*
X73806814Y-102966392D01*
X73934108Y-103000500D01*
X73934110Y-103000500D01*
X74065890Y-103000500D01*
X74065892Y-103000500D01*
X74193186Y-102966392D01*
X74307314Y-102900500D01*
X74400500Y-102807314D01*
X74466392Y-102693186D01*
X74500500Y-102565892D01*
X74500500Y-102434108D01*
X74466392Y-102306814D01*
X74400500Y-102192686D01*
X74307314Y-102099500D01*
X74220712Y-102049500D01*
X74193187Y-102033608D01*
X74129539Y-102016554D01*
X74065892Y-101999500D01*
X73934108Y-101999500D01*
X73806812Y-102033608D01*
X73692686Y-102099500D01*
X73692683Y-102099502D01*
X73599502Y-102192683D01*
X73599500Y-102192686D01*
X73533608Y-102306812D01*
X73499500Y-102434108D01*
X72114952Y-102434108D01*
X72122598Y-102430941D01*
X72294655Y-102315977D01*
X72440977Y-102169655D01*
X72555941Y-101997598D01*
X72635130Y-101806420D01*
X72675500Y-101603465D01*
X72675500Y-101396535D01*
X72635130Y-101193580D01*
X72555941Y-101002402D01*
X72440977Y-100830345D01*
X72440975Y-100830342D01*
X72294657Y-100684024D01*
X72208626Y-100626541D01*
X72122598Y-100569059D01*
X71952382Y-100498553D01*
X71931420Y-100489870D01*
X71931412Y-100489868D01*
X71728469Y-100449500D01*
X71728465Y-100449500D01*
X71271535Y-100449500D01*
X71271530Y-100449500D01*
X71068587Y-100489868D01*
X71068579Y-100489870D01*
X70877403Y-100569058D01*
X70705342Y-100684024D01*
X70559024Y-100830342D01*
X70444058Y-101002403D01*
X70364870Y-101193579D01*
X70364868Y-101193587D01*
X70324500Y-101396530D01*
X45150500Y-101396530D01*
X45150500Y-98916902D01*
X48194500Y-98916902D01*
X48194500Y-99153097D01*
X48231446Y-99386368D01*
X48304433Y-99610996D01*
X48334322Y-99669655D01*
X48411657Y-99821433D01*
X48550483Y-100012510D01*
X48717490Y-100179517D01*
X48908567Y-100318343D01*
X49007991Y-100369002D01*
X49119003Y-100425566D01*
X49119005Y-100425566D01*
X49119008Y-100425568D01*
X49192663Y-100449500D01*
X49343631Y-100498553D01*
X49576903Y-100535500D01*
X49576908Y-100535500D01*
X49813097Y-100535500D01*
X50046368Y-100498553D01*
X50073091Y-100489870D01*
X50270992Y-100425568D01*
X50481433Y-100318343D01*
X50672510Y-100179517D01*
X50839517Y-100012510D01*
X50978343Y-99821433D01*
X51085568Y-99610992D01*
X51158553Y-99386368D01*
X51195500Y-99153097D01*
X51195500Y-98916902D01*
X51194381Y-98909836D01*
X51194381Y-98909835D01*
X51192274Y-98896530D01*
X70324500Y-98896530D01*
X70324500Y-99103469D01*
X70364868Y-99306412D01*
X70364870Y-99306420D01*
X70444058Y-99497596D01*
X70559024Y-99669657D01*
X70705342Y-99815975D01*
X70705345Y-99815977D01*
X70877402Y-99930941D01*
X71068580Y-100010130D01*
X71271530Y-100050499D01*
X71271534Y-100050500D01*
X71271535Y-100050500D01*
X71728466Y-100050500D01*
X71728467Y-100050499D01*
X71931420Y-100010130D01*
X72122598Y-99930941D01*
X72294655Y-99815977D01*
X72440977Y-99669655D01*
X72555941Y-99497598D01*
X72635130Y-99306420D01*
X72675500Y-99103465D01*
X72675500Y-98896535D01*
X72635130Y-98693580D01*
X72555941Y-98502402D01*
X72440977Y-98330345D01*
X72440975Y-98330342D01*
X72294741Y-98184108D01*
X76249500Y-98184108D01*
X76249500Y-98315891D01*
X76283608Y-98443187D01*
X76316554Y-98500250D01*
X76349500Y-98557314D01*
X76442686Y-98650500D01*
X76556814Y-98716392D01*
X76684108Y-98750500D01*
X76684110Y-98750500D01*
X76815890Y-98750500D01*
X76815892Y-98750500D01*
X76943186Y-98716392D01*
X77057314Y-98650500D01*
X77150500Y-98557314D01*
X77216392Y-98443186D01*
X77250500Y-98315892D01*
X77250500Y-98184108D01*
X77216392Y-98056814D01*
X77150500Y-97942686D01*
X77057314Y-97849500D01*
X77000250Y-97816554D01*
X76943187Y-97783608D01*
X76879539Y-97766554D01*
X76815892Y-97749500D01*
X76684108Y-97749500D01*
X76556812Y-97783608D01*
X76442686Y-97849500D01*
X76442683Y-97849502D01*
X76349502Y-97942683D01*
X76349500Y-97942686D01*
X76283608Y-98056812D01*
X76249500Y-98184108D01*
X72294741Y-98184108D01*
X72294657Y-98184024D01*
X72208626Y-98126541D01*
X72122598Y-98069059D01*
X72094663Y-98057488D01*
X71931420Y-97989870D01*
X71931412Y-97989868D01*
X71728469Y-97949500D01*
X71728465Y-97949500D01*
X71271535Y-97949500D01*
X71271530Y-97949500D01*
X71068587Y-97989868D01*
X71068579Y-97989870D01*
X70877403Y-98069058D01*
X70705342Y-98184024D01*
X70559024Y-98330342D01*
X70444058Y-98502403D01*
X70364870Y-98693579D01*
X70364868Y-98693587D01*
X70324500Y-98896530D01*
X51192274Y-98896530D01*
X51158553Y-98683631D01*
X51099668Y-98502403D01*
X51085568Y-98459008D01*
X51085566Y-98459005D01*
X51085566Y-98459003D01*
X50978342Y-98248566D01*
X50839517Y-98057490D01*
X50672510Y-97890483D01*
X50481433Y-97751657D01*
X50477200Y-97749500D01*
X50270996Y-97644433D01*
X50046368Y-97571446D01*
X49813097Y-97534500D01*
X49813092Y-97534500D01*
X49576908Y-97534500D01*
X49576903Y-97534500D01*
X49343631Y-97571446D01*
X49119003Y-97644433D01*
X48908566Y-97751657D01*
X48864590Y-97783608D01*
X48717490Y-97890483D01*
X48717488Y-97890485D01*
X48717487Y-97890485D01*
X48550485Y-98057487D01*
X48550485Y-98057488D01*
X48550483Y-98057490D01*
X48542078Y-98069059D01*
X48411657Y-98248566D01*
X48304433Y-98459003D01*
X48231446Y-98683631D01*
X48194500Y-98916902D01*
X45150500Y-98916902D01*
X45150500Y-96249999D01*
X70300884Y-96249999D01*
X70300885Y-96250000D01*
X71095854Y-96250000D01*
X71057370Y-96316657D01*
X71025000Y-96437465D01*
X71025000Y-96562535D01*
X71057370Y-96683343D01*
X71095854Y-96750000D01*
X70300885Y-96750000D01*
X70302085Y-96757584D01*
X70355591Y-96922255D01*
X70434195Y-97076524D01*
X70535967Y-97216602D01*
X70658397Y-97339032D01*
X70798475Y-97440804D01*
X70952744Y-97519408D01*
X71117415Y-97572913D01*
X71250000Y-97593913D01*
X71250000Y-96904145D01*
X71316657Y-96942630D01*
X71437465Y-96975000D01*
X71562535Y-96975000D01*
X71683343Y-96942630D01*
X71750000Y-96904145D01*
X71750000Y-97593912D01*
X71882584Y-97572913D01*
X72047255Y-97519408D01*
X72201524Y-97440804D01*
X72341602Y-97339032D01*
X72464032Y-97216602D01*
X72565804Y-97076524D01*
X72644408Y-96922255D01*
X72697914Y-96757584D01*
X72699115Y-96750000D01*
X71904146Y-96750000D01*
X71942630Y-96683343D01*
X71975000Y-96562535D01*
X71975000Y-96437465D01*
X71942630Y-96316657D01*
X71904146Y-96250000D01*
X72699115Y-96250000D01*
X72699115Y-96249999D01*
X72697914Y-96242415D01*
X72644408Y-96077744D01*
X72565804Y-95923475D01*
X72464032Y-95783397D01*
X72341602Y-95660967D01*
X72325279Y-95649108D01*
X77249500Y-95649108D01*
X77249500Y-95780891D01*
X77283608Y-95908187D01*
X77292435Y-95923475D01*
X77349500Y-96022314D01*
X77442686Y-96115500D01*
X77556814Y-96181392D01*
X77684108Y-96215500D01*
X77684110Y-96215500D01*
X77815890Y-96215500D01*
X77815892Y-96215500D01*
X77943186Y-96181392D01*
X78057314Y-96115500D01*
X78150500Y-96022314D01*
X78216392Y-95908186D01*
X78250500Y-95780892D01*
X78250500Y-95649108D01*
X78216392Y-95521814D01*
X78150500Y-95407686D01*
X78057314Y-95314500D01*
X78000250Y-95281554D01*
X77943187Y-95248608D01*
X77879539Y-95231554D01*
X77815892Y-95214500D01*
X77684108Y-95214500D01*
X77556812Y-95248608D01*
X77442686Y-95314500D01*
X77442683Y-95314502D01*
X77349502Y-95407683D01*
X77349500Y-95407686D01*
X77283608Y-95521812D01*
X77249500Y-95649108D01*
X72325279Y-95649108D01*
X72201524Y-95559195D01*
X72047257Y-95480591D01*
X71882585Y-95427086D01*
X71750000Y-95406086D01*
X71750000Y-96095854D01*
X71683343Y-96057370D01*
X71562535Y-96025000D01*
X71437465Y-96025000D01*
X71316657Y-96057370D01*
X71250000Y-96095854D01*
X71250000Y-95406086D01*
X71117414Y-95427086D01*
X70952742Y-95480591D01*
X70798475Y-95559195D01*
X70658397Y-95660967D01*
X70535967Y-95783397D01*
X70434195Y-95923475D01*
X70355591Y-96077744D01*
X70302085Y-96242415D01*
X70300884Y-96249999D01*
X45150500Y-96249999D01*
X45150500Y-94684108D01*
X67999500Y-94684108D01*
X67999500Y-94815891D01*
X68033608Y-94943187D01*
X68066554Y-95000250D01*
X68099500Y-95057314D01*
X68192686Y-95150500D01*
X68306814Y-95216392D01*
X68434108Y-95250500D01*
X68434110Y-95250500D01*
X68565890Y-95250500D01*
X68565892Y-95250500D01*
X68693186Y-95216392D01*
X68807314Y-95150500D01*
X68900500Y-95057314D01*
X68966392Y-94943186D01*
X69000500Y-94815892D01*
X69000500Y-94684108D01*
X68966392Y-94556814D01*
X68900500Y-94442686D01*
X68807314Y-94349500D01*
X68750250Y-94316554D01*
X68693187Y-94283608D01*
X68629539Y-94266554D01*
X68565892Y-94249500D01*
X68434108Y-94249500D01*
X68306812Y-94283608D01*
X68192686Y-94349500D01*
X68192683Y-94349502D01*
X68099502Y-94442683D01*
X68099500Y-94442686D01*
X68033608Y-94556812D01*
X67999500Y-94684108D01*
X45150500Y-94684108D01*
X45150500Y-87934108D01*
X70899500Y-87934108D01*
X70899500Y-88065891D01*
X70933608Y-88193187D01*
X70966554Y-88250250D01*
X70999500Y-88307314D01*
X71092686Y-88400500D01*
X71206814Y-88466392D01*
X71334108Y-88500500D01*
X71334110Y-88500500D01*
X71465890Y-88500500D01*
X71465892Y-88500500D01*
X71593186Y-88466392D01*
X71707314Y-88400500D01*
X71800500Y-88307314D01*
X71866392Y-88193186D01*
X71900500Y-88065892D01*
X71900500Y-87934108D01*
X71866392Y-87806814D01*
X71800500Y-87692686D01*
X71719344Y-87611530D01*
X74009500Y-87611530D01*
X74009500Y-87818469D01*
X74049868Y-88021412D01*
X74049870Y-88021420D01*
X74129058Y-88212596D01*
X74244024Y-88384657D01*
X74390342Y-88530975D01*
X74390345Y-88530977D01*
X74562402Y-88645941D01*
X74753580Y-88725130D01*
X74956530Y-88765499D01*
X74956534Y-88765500D01*
X74956535Y-88765500D01*
X76463466Y-88765500D01*
X76463467Y-88765499D01*
X76666420Y-88725130D01*
X76857598Y-88645941D01*
X77029655Y-88530977D01*
X77175977Y-88384655D01*
X77290941Y-88212598D01*
X77370130Y-88021420D01*
X77410500Y-87818465D01*
X77410500Y-87611535D01*
X77370130Y-87408580D01*
X77290941Y-87217402D01*
X77175977Y-87045345D01*
X77175975Y-87045342D01*
X77029657Y-86899024D01*
X76943626Y-86841541D01*
X76857598Y-86784059D01*
X76666420Y-86704870D01*
X76666412Y-86704868D01*
X76463469Y-86664500D01*
X76463465Y-86664500D01*
X74956535Y-86664500D01*
X74956530Y-86664500D01*
X74753587Y-86704868D01*
X74753579Y-86704870D01*
X74562403Y-86784058D01*
X74390342Y-86899024D01*
X74244024Y-87045342D01*
X74129058Y-87217403D01*
X74049870Y-87408579D01*
X74049868Y-87408587D01*
X74009500Y-87611530D01*
X71719344Y-87611530D01*
X71707314Y-87599500D01*
X71650250Y-87566554D01*
X71593187Y-87533608D01*
X71529539Y-87516554D01*
X71465892Y-87499500D01*
X71334108Y-87499500D01*
X71206812Y-87533608D01*
X71092686Y-87599500D01*
X71092683Y-87599502D01*
X70999502Y-87692683D01*
X70999500Y-87692686D01*
X70933608Y-87806812D01*
X70899500Y-87934108D01*
X45150500Y-87934108D01*
X45150500Y-85071530D01*
X47609500Y-85071530D01*
X47609500Y-85278469D01*
X47649868Y-85481412D01*
X47649870Y-85481420D01*
X47729058Y-85672596D01*
X47844024Y-85844657D01*
X47990342Y-85990975D01*
X47990345Y-85990977D01*
X48162402Y-86105941D01*
X48353580Y-86185130D01*
X48556530Y-86225499D01*
X48556534Y-86225500D01*
X48556535Y-86225500D01*
X50063466Y-86225500D01*
X50063467Y-86225499D01*
X50266420Y-86185130D01*
X50457598Y-86105941D01*
X50629655Y-85990977D01*
X50775977Y-85844655D01*
X50890941Y-85672598D01*
X50970130Y-85481420D01*
X51010500Y-85278465D01*
X51010500Y-85071535D01*
X50970130Y-84868580D01*
X50914430Y-84734108D01*
X64699500Y-84734108D01*
X64699500Y-84865891D01*
X64733608Y-84993187D01*
X64739529Y-85003442D01*
X64799500Y-85107314D01*
X64892686Y-85200500D01*
X65006814Y-85266392D01*
X65134108Y-85300500D01*
X65134110Y-85300500D01*
X65265890Y-85300500D01*
X65265892Y-85300500D01*
X65393186Y-85266392D01*
X65507314Y-85200500D01*
X65600500Y-85107314D01*
X65621160Y-85071530D01*
X74009500Y-85071530D01*
X74009500Y-85278469D01*
X74049868Y-85481412D01*
X74049870Y-85481420D01*
X74129058Y-85672596D01*
X74244024Y-85844657D01*
X74390342Y-85990975D01*
X74390345Y-85990977D01*
X74562402Y-86105941D01*
X74753580Y-86185130D01*
X74956530Y-86225499D01*
X74956534Y-86225500D01*
X74956535Y-86225500D01*
X76463466Y-86225500D01*
X76463467Y-86225499D01*
X76666420Y-86185130D01*
X76857598Y-86105941D01*
X77029655Y-85990977D01*
X77175977Y-85844655D01*
X77290941Y-85672598D01*
X77370130Y-85481420D01*
X77410500Y-85278465D01*
X77410500Y-85071535D01*
X77370130Y-84868580D01*
X77290941Y-84677402D01*
X77175977Y-84505345D01*
X77175975Y-84505342D01*
X77029657Y-84359024D01*
X76940572Y-84299500D01*
X76857598Y-84244059D01*
X76666420Y-84164870D01*
X76666412Y-84164868D01*
X76463469Y-84124500D01*
X76463465Y-84124500D01*
X74956535Y-84124500D01*
X74956530Y-84124500D01*
X74753587Y-84164868D01*
X74753579Y-84164870D01*
X74562403Y-84244058D01*
X74390342Y-84359024D01*
X74244024Y-84505342D01*
X74129058Y-84677403D01*
X74049870Y-84868579D01*
X74049868Y-84868587D01*
X74009500Y-85071530D01*
X65621160Y-85071530D01*
X65666392Y-84993186D01*
X65700500Y-84865892D01*
X65700500Y-84734108D01*
X65666392Y-84606814D01*
X65600500Y-84492686D01*
X65507314Y-84399500D01*
X65437206Y-84359023D01*
X65393187Y-84333608D01*
X65329539Y-84316554D01*
X65265892Y-84299500D01*
X65134108Y-84299500D01*
X65006812Y-84333608D01*
X64892686Y-84399500D01*
X64892683Y-84399502D01*
X64799502Y-84492683D01*
X64799500Y-84492686D01*
X64733608Y-84606812D01*
X64699500Y-84734108D01*
X50914430Y-84734108D01*
X50890941Y-84677402D01*
X50775977Y-84505345D01*
X50775975Y-84505342D01*
X50629657Y-84359024D01*
X50540572Y-84299500D01*
X50457598Y-84244059D01*
X50266420Y-84164870D01*
X50266412Y-84164868D01*
X50063469Y-84124500D01*
X50063465Y-84124500D01*
X48556535Y-84124500D01*
X48556530Y-84124500D01*
X48353587Y-84164868D01*
X48353579Y-84164870D01*
X48162403Y-84244058D01*
X47990342Y-84359024D01*
X47844024Y-84505342D01*
X47729058Y-84677403D01*
X47649870Y-84868579D01*
X47649868Y-84868587D01*
X47609500Y-85071530D01*
X45150500Y-85071530D01*
X45150500Y-82531530D01*
X47609500Y-82531530D01*
X47609500Y-82738469D01*
X47649868Y-82941412D01*
X47649870Y-82941420D01*
X47729058Y-83132596D01*
X47844024Y-83304657D01*
X47990342Y-83450975D01*
X47990345Y-83450977D01*
X48162402Y-83565941D01*
X48353580Y-83645130D01*
X48556530Y-83685499D01*
X48556534Y-83685500D01*
X48556535Y-83685500D01*
X50063466Y-83685500D01*
X50063467Y-83685499D01*
X50266420Y-83645130D01*
X50457598Y-83565941D01*
X50629655Y-83450977D01*
X50775977Y-83304655D01*
X50890941Y-83132598D01*
X50970130Y-82941420D01*
X51010500Y-82738465D01*
X51010500Y-82531535D01*
X51010499Y-82531530D01*
X74009500Y-82531530D01*
X74009500Y-82738469D01*
X74049868Y-82941412D01*
X74049870Y-82941420D01*
X74129058Y-83132596D01*
X74244024Y-83304657D01*
X74390342Y-83450975D01*
X74390345Y-83450977D01*
X74562402Y-83565941D01*
X74753580Y-83645130D01*
X74956530Y-83685499D01*
X74956534Y-83685500D01*
X74956535Y-83685500D01*
X76463466Y-83685500D01*
X76463467Y-83685499D01*
X76666420Y-83645130D01*
X76857598Y-83565941D01*
X77029655Y-83450977D01*
X77175977Y-83304655D01*
X77290941Y-83132598D01*
X77370130Y-82941420D01*
X77410500Y-82738465D01*
X77410500Y-82531535D01*
X77370130Y-82328580D01*
X77290941Y-82137402D01*
X77175977Y-81965345D01*
X77175975Y-81965342D01*
X77029657Y-81819024D01*
X76943626Y-81761541D01*
X76857598Y-81704059D01*
X76666420Y-81624870D01*
X76666412Y-81624868D01*
X76463469Y-81584500D01*
X76463465Y-81584500D01*
X74956535Y-81584500D01*
X74956530Y-81584500D01*
X74753587Y-81624868D01*
X74753579Y-81624870D01*
X74562403Y-81704058D01*
X74390342Y-81819024D01*
X74244024Y-81965342D01*
X74129058Y-82137403D01*
X74049870Y-82328579D01*
X74049868Y-82328587D01*
X74009500Y-82531530D01*
X51010499Y-82531530D01*
X50970130Y-82328580D01*
X50890941Y-82137402D01*
X50775977Y-81965345D01*
X50775975Y-81965342D01*
X50629657Y-81819024D01*
X50543626Y-81761541D01*
X50457598Y-81704059D01*
X50266420Y-81624870D01*
X50266412Y-81624868D01*
X50063469Y-81584500D01*
X50063465Y-81584500D01*
X48556535Y-81584500D01*
X48556530Y-81584500D01*
X48353587Y-81624868D01*
X48353579Y-81624870D01*
X48162403Y-81704058D01*
X47990342Y-81819024D01*
X47844024Y-81965342D01*
X47729058Y-82137403D01*
X47649870Y-82328579D01*
X47649868Y-82328587D01*
X47609500Y-82531530D01*
X45150500Y-82531530D01*
X45150500Y-79991530D01*
X47609500Y-79991530D01*
X47609500Y-80198469D01*
X47649868Y-80401412D01*
X47649870Y-80401420D01*
X47729058Y-80592596D01*
X47844024Y-80764657D01*
X47990342Y-80910975D01*
X47990345Y-80910977D01*
X48162402Y-81025941D01*
X48353580Y-81105130D01*
X48556530Y-81145499D01*
X48556534Y-81145500D01*
X48556535Y-81145500D01*
X50063466Y-81145500D01*
X50063467Y-81145499D01*
X50266420Y-81105130D01*
X50457598Y-81025941D01*
X50629655Y-80910977D01*
X50775977Y-80764655D01*
X50890941Y-80592598D01*
X50970130Y-80401420D01*
X51010500Y-80198465D01*
X51010500Y-79991535D01*
X51010499Y-79991530D01*
X74009500Y-79991530D01*
X74009500Y-80198469D01*
X74049868Y-80401412D01*
X74049870Y-80401420D01*
X74129058Y-80592596D01*
X74244024Y-80764657D01*
X74390342Y-80910975D01*
X74390345Y-80910977D01*
X74562402Y-81025941D01*
X74753580Y-81105130D01*
X74956530Y-81145499D01*
X74956534Y-81145500D01*
X74956535Y-81145500D01*
X76463466Y-81145500D01*
X76463467Y-81145499D01*
X76666420Y-81105130D01*
X76857598Y-81025941D01*
X77029655Y-80910977D01*
X77175977Y-80764655D01*
X77290941Y-80592598D01*
X77370130Y-80401420D01*
X77410500Y-80198465D01*
X77410500Y-79991535D01*
X77370130Y-79788580D01*
X77290941Y-79597402D01*
X77175977Y-79425345D01*
X77175975Y-79425342D01*
X77029657Y-79279024D01*
X76943626Y-79221541D01*
X76857598Y-79164059D01*
X76666420Y-79084870D01*
X76666412Y-79084868D01*
X76463469Y-79044500D01*
X76463465Y-79044500D01*
X74956535Y-79044500D01*
X74956530Y-79044500D01*
X74753587Y-79084868D01*
X74753579Y-79084870D01*
X74562403Y-79164058D01*
X74390342Y-79279024D01*
X74244024Y-79425342D01*
X74129058Y-79597403D01*
X74049870Y-79788579D01*
X74049868Y-79788587D01*
X74009500Y-79991530D01*
X51010499Y-79991530D01*
X50970130Y-79788580D01*
X50890941Y-79597402D01*
X50775977Y-79425345D01*
X50775975Y-79425342D01*
X50629657Y-79279024D01*
X50543626Y-79221541D01*
X50457598Y-79164059D01*
X50266420Y-79084870D01*
X50266412Y-79084868D01*
X50063469Y-79044500D01*
X50063465Y-79044500D01*
X48556535Y-79044500D01*
X48556530Y-79044500D01*
X48353587Y-79084868D01*
X48353579Y-79084870D01*
X48162403Y-79164058D01*
X47990342Y-79279024D01*
X47844024Y-79425342D01*
X47729058Y-79597403D01*
X47649870Y-79788579D01*
X47649868Y-79788587D01*
X47609500Y-79991530D01*
X45150500Y-79991530D01*
X45150500Y-77451530D01*
X47609500Y-77451530D01*
X47609500Y-77658469D01*
X47649868Y-77861412D01*
X47649870Y-77861420D01*
X47729058Y-78052596D01*
X47844024Y-78224657D01*
X47990342Y-78370975D01*
X47990345Y-78370977D01*
X48162402Y-78485941D01*
X48353580Y-78565130D01*
X48556530Y-78605499D01*
X48556534Y-78605500D01*
X48556535Y-78605500D01*
X50063466Y-78605500D01*
X50063467Y-78605499D01*
X50266420Y-78565130D01*
X50457598Y-78485941D01*
X50629655Y-78370977D01*
X50775977Y-78224655D01*
X50890941Y-78052598D01*
X50970130Y-77861420D01*
X51010500Y-77658465D01*
X51010500Y-77451535D01*
X50970130Y-77248580D01*
X50890941Y-77057402D01*
X50775977Y-76885345D01*
X50775975Y-76885342D01*
X50629657Y-76739024D01*
X50543626Y-76681541D01*
X50457598Y-76624059D01*
X50266420Y-76544870D01*
X50266412Y-76544868D01*
X50063469Y-76504500D01*
X50063465Y-76504500D01*
X48556535Y-76504500D01*
X48556530Y-76504500D01*
X48353587Y-76544868D01*
X48353579Y-76544870D01*
X48162403Y-76624058D01*
X47990342Y-76739024D01*
X47844024Y-76885342D01*
X47729058Y-77057403D01*
X47649870Y-77248579D01*
X47649868Y-77248587D01*
X47609500Y-77451530D01*
X45150500Y-77451530D01*
X45150500Y-74911530D01*
X47609500Y-74911530D01*
X47609500Y-75118469D01*
X47649868Y-75321412D01*
X47649870Y-75321420D01*
X47729058Y-75512596D01*
X47844024Y-75684657D01*
X47990342Y-75830975D01*
X47990345Y-75830977D01*
X48162402Y-75945941D01*
X48353580Y-76025130D01*
X48556530Y-76065499D01*
X48556534Y-76065500D01*
X48556535Y-76065500D01*
X50063466Y-76065500D01*
X50063467Y-76065499D01*
X50266420Y-76025130D01*
X50457598Y-75945941D01*
X50629655Y-75830977D01*
X50775977Y-75684655D01*
X50890941Y-75512598D01*
X50970130Y-75321420D01*
X51010500Y-75118465D01*
X51010500Y-74911535D01*
X50970130Y-74708580D01*
X50890941Y-74517402D01*
X50775977Y-74345345D01*
X50775975Y-74345342D01*
X50629657Y-74199024D01*
X50543626Y-74141541D01*
X50457598Y-74084059D01*
X50266420Y-74004870D01*
X50266412Y-74004868D01*
X50063469Y-73964500D01*
X50063465Y-73964500D01*
X48556535Y-73964500D01*
X48556530Y-73964500D01*
X48353587Y-74004868D01*
X48353579Y-74004870D01*
X48162403Y-74084058D01*
X47990342Y-74199024D01*
X47844024Y-74345342D01*
X47729058Y-74517403D01*
X47649870Y-74708579D01*
X47649868Y-74708587D01*
X47609500Y-74911530D01*
X45150500Y-74911530D01*
X45150500Y-72371530D01*
X47609500Y-72371530D01*
X47609500Y-72578469D01*
X47649868Y-72781412D01*
X47649870Y-72781420D01*
X47729058Y-72972596D01*
X47844024Y-73144657D01*
X47990342Y-73290975D01*
X47990345Y-73290977D01*
X48162402Y-73405941D01*
X48353580Y-73485130D01*
X48556530Y-73525499D01*
X48556534Y-73525500D01*
X48556535Y-73525500D01*
X50063466Y-73525500D01*
X50063467Y-73525499D01*
X50266420Y-73485130D01*
X50457598Y-73405941D01*
X50629655Y-73290977D01*
X50775977Y-73144655D01*
X50890941Y-72972598D01*
X50970130Y-72781420D01*
X51010500Y-72578465D01*
X51010500Y-72371535D01*
X50970130Y-72168580D01*
X50890941Y-71977402D01*
X50775977Y-71805345D01*
X50775975Y-71805342D01*
X50629657Y-71659024D01*
X50543626Y-71601541D01*
X50457598Y-71544059D01*
X50266420Y-71464870D01*
X50266412Y-71464868D01*
X50063469Y-71424500D01*
X50063465Y-71424500D01*
X48556535Y-71424500D01*
X48556530Y-71424500D01*
X48353587Y-71464868D01*
X48353579Y-71464870D01*
X48162403Y-71544058D01*
X47990342Y-71659024D01*
X47844024Y-71805342D01*
X47729058Y-71977403D01*
X47649870Y-72168579D01*
X47649868Y-72168587D01*
X47609500Y-72371530D01*
X45150500Y-72371530D01*
X45150500Y-69831530D01*
X47609500Y-69831530D01*
X47609500Y-70038469D01*
X47649868Y-70241412D01*
X47649870Y-70241420D01*
X47729058Y-70432596D01*
X47844024Y-70604657D01*
X47990342Y-70750975D01*
X47990345Y-70750977D01*
X48162402Y-70865941D01*
X48353580Y-70945130D01*
X48556530Y-70985499D01*
X48556534Y-70985500D01*
X48556535Y-70985500D01*
X50063466Y-70985500D01*
X50063467Y-70985499D01*
X50266420Y-70945130D01*
X50457598Y-70865941D01*
X50457599Y-70865940D01*
X50457600Y-70865940D01*
X50467832Y-70859103D01*
X65574495Y-70859103D01*
X65574495Y-70990886D01*
X65608603Y-71118182D01*
X65641549Y-71175245D01*
X65674495Y-71232309D01*
X65767681Y-71325495D01*
X65881809Y-71391387D01*
X66009103Y-71425495D01*
X66009105Y-71425495D01*
X66140885Y-71425495D01*
X66140887Y-71425495D01*
X66268181Y-71391387D01*
X66382309Y-71325495D01*
X66475495Y-71232309D01*
X66541387Y-71118181D01*
X66575495Y-70990887D01*
X66575495Y-70859103D01*
X66541387Y-70731809D01*
X66475495Y-70617681D01*
X66382309Y-70524495D01*
X66325245Y-70491549D01*
X66268182Y-70458603D01*
X66171128Y-70432598D01*
X66140887Y-70424495D01*
X66009103Y-70424495D01*
X65881807Y-70458603D01*
X65767681Y-70524495D01*
X65767678Y-70524497D01*
X65674497Y-70617678D01*
X65674495Y-70617681D01*
X65608603Y-70731807D01*
X65574495Y-70859103D01*
X50467832Y-70859103D01*
X50629652Y-70750979D01*
X50629651Y-70750979D01*
X50629655Y-70750977D01*
X50775977Y-70604655D01*
X50890941Y-70432598D01*
X50970130Y-70241420D01*
X51010500Y-70038465D01*
X51010500Y-69831535D01*
X50991121Y-69734108D01*
X61699500Y-69734108D01*
X61699500Y-69865892D01*
X61716554Y-69929539D01*
X61733608Y-69993187D01*
X61759750Y-70038465D01*
X61799500Y-70107314D01*
X61892686Y-70200500D01*
X62006814Y-70266392D01*
X62134108Y-70300500D01*
X62134110Y-70300500D01*
X62265890Y-70300500D01*
X62265892Y-70300500D01*
X62393186Y-70266392D01*
X62507314Y-70200500D01*
X62600500Y-70107314D01*
X62666392Y-69993186D01*
X62700500Y-69865892D01*
X62700500Y-69734108D01*
X62666392Y-69606814D01*
X62666389Y-69606808D01*
X62655520Y-69587982D01*
X62655519Y-69587981D01*
X62624415Y-69534108D01*
X67499500Y-69534108D01*
X67499500Y-69665891D01*
X67533608Y-69793187D01*
X67555746Y-69831530D01*
X67599500Y-69907314D01*
X67692686Y-70000500D01*
X67806814Y-70066392D01*
X67934108Y-70100500D01*
X67934110Y-70100500D01*
X68065890Y-70100500D01*
X68065892Y-70100500D01*
X68193186Y-70066392D01*
X68307314Y-70000500D01*
X68400500Y-69907314D01*
X68466392Y-69793186D01*
X68500500Y-69665892D01*
X68500500Y-69534108D01*
X68466392Y-69406814D01*
X68400500Y-69292686D01*
X68307314Y-69199500D01*
X68250250Y-69166554D01*
X68193187Y-69133608D01*
X68129539Y-69116554D01*
X68065892Y-69099500D01*
X67934108Y-69099500D01*
X67806812Y-69133608D01*
X67692686Y-69199500D01*
X67692683Y-69199502D01*
X67599502Y-69292683D01*
X67599500Y-69292686D01*
X67533608Y-69406812D01*
X67499500Y-69534108D01*
X62624415Y-69534108D01*
X62600500Y-69492686D01*
X62507314Y-69399500D01*
X62450250Y-69366554D01*
X62393187Y-69333608D01*
X62329539Y-69316554D01*
X62265892Y-69299500D01*
X62134108Y-69299500D01*
X62006812Y-69333608D01*
X61892686Y-69399500D01*
X61892683Y-69399502D01*
X61799502Y-69492683D01*
X61799500Y-69492686D01*
X61733608Y-69606812D01*
X61717778Y-69665892D01*
X61699500Y-69734108D01*
X50991121Y-69734108D01*
X50970130Y-69628580D01*
X50890941Y-69437402D01*
X50775977Y-69265345D01*
X50775975Y-69265342D01*
X50629657Y-69119024D01*
X50543626Y-69061541D01*
X50457598Y-69004059D01*
X50449003Y-69000499D01*
X50266420Y-68924870D01*
X50266412Y-68924868D01*
X50063469Y-68884500D01*
X50063465Y-68884500D01*
X48556535Y-68884500D01*
X48556530Y-68884500D01*
X48353587Y-68924868D01*
X48353579Y-68924870D01*
X48162403Y-69004058D01*
X47990342Y-69119024D01*
X47844024Y-69265342D01*
X47729058Y-69437403D01*
X47649870Y-69628579D01*
X47649868Y-69628587D01*
X47609500Y-69831530D01*
X45150500Y-69831530D01*
X45150500Y-68534108D01*
X60499500Y-68534108D01*
X60499500Y-68665892D01*
X60516554Y-68729539D01*
X60533608Y-68793187D01*
X60566554Y-68850250D01*
X60599500Y-68907314D01*
X60692686Y-69000500D01*
X60806814Y-69066392D01*
X60934108Y-69100500D01*
X60934110Y-69100500D01*
X61065890Y-69100500D01*
X61065892Y-69100500D01*
X61193186Y-69066392D01*
X61307314Y-69000500D01*
X61400500Y-68907314D01*
X61466392Y-68793186D01*
X61482222Y-68734108D01*
X65699500Y-68734108D01*
X65699500Y-68865892D01*
X65715302Y-68924868D01*
X65733608Y-68993187D01*
X65766554Y-69050250D01*
X65799500Y-69107314D01*
X65892686Y-69200500D01*
X65991521Y-69257563D01*
X66005000Y-69265345D01*
X66006814Y-69266392D01*
X66134108Y-69300500D01*
X66134110Y-69300500D01*
X66265890Y-69300500D01*
X66265892Y-69300500D01*
X66393186Y-69266392D01*
X66507314Y-69200500D01*
X66600500Y-69107314D01*
X66666392Y-68993186D01*
X66700500Y-68865892D01*
X66700500Y-68734108D01*
X66666392Y-68606814D01*
X66600500Y-68492686D01*
X66507314Y-68399500D01*
X66450250Y-68366554D01*
X66393187Y-68333608D01*
X66329539Y-68316554D01*
X66265892Y-68299500D01*
X66134108Y-68299500D01*
X66006812Y-68333608D01*
X65892686Y-68399500D01*
X65892683Y-68399502D01*
X65799502Y-68492683D01*
X65799500Y-68492686D01*
X65733608Y-68606812D01*
X65717778Y-68665892D01*
X65699500Y-68734108D01*
X61482222Y-68734108D01*
X61500500Y-68665892D01*
X61500500Y-68534108D01*
X61466392Y-68406814D01*
X61400500Y-68292686D01*
X61307314Y-68199500D01*
X61250250Y-68166554D01*
X61193187Y-68133608D01*
X61129539Y-68116554D01*
X61065892Y-68099500D01*
X60934108Y-68099500D01*
X60806812Y-68133608D01*
X60692686Y-68199500D01*
X60692683Y-68199502D01*
X60599502Y-68292683D01*
X60599500Y-68292686D01*
X60533608Y-68406812D01*
X60510600Y-68492683D01*
X60499500Y-68534108D01*
X45150500Y-68534108D01*
X45150500Y-66584108D01*
X53699500Y-66584108D01*
X53699500Y-66715892D01*
X53709887Y-66754656D01*
X53733608Y-66843187D01*
X53755988Y-66881950D01*
X53799500Y-66957314D01*
X53892686Y-67050500D01*
X54006814Y-67116392D01*
X54134108Y-67150500D01*
X54134110Y-67150500D01*
X54265890Y-67150500D01*
X54265892Y-67150500D01*
X54393186Y-67116392D01*
X54507314Y-67050500D01*
X54600500Y-66957314D01*
X54666392Y-66843186D01*
X54700500Y-66715892D01*
X54700500Y-66622872D01*
X70298925Y-66622872D01*
X70298925Y-66754655D01*
X70333033Y-66881951D01*
X70365979Y-66939014D01*
X70398925Y-66996078D01*
X70492111Y-67089264D01*
X70590946Y-67146327D01*
X70598174Y-67150500D01*
X70606239Y-67155156D01*
X70733533Y-67189264D01*
X70733535Y-67189264D01*
X70865315Y-67189264D01*
X70865317Y-67189264D01*
X70992611Y-67155156D01*
X71106739Y-67089264D01*
X71199925Y-66996078D01*
X71265817Y-66881950D01*
X71299925Y-66754656D01*
X71299925Y-66622872D01*
X71265817Y-66495578D01*
X71199925Y-66381450D01*
X71106739Y-66288264D01*
X71049675Y-66255318D01*
X70992612Y-66222372D01*
X70928964Y-66205318D01*
X70865317Y-66188264D01*
X70733533Y-66188264D01*
X70606237Y-66222372D01*
X70492111Y-66288264D01*
X70492108Y-66288266D01*
X70398927Y-66381447D01*
X70398925Y-66381450D01*
X70333033Y-66495576D01*
X70298925Y-66622872D01*
X54700500Y-66622872D01*
X54700500Y-66584108D01*
X54666392Y-66456814D01*
X54600500Y-66342686D01*
X54507314Y-66249500D01*
X54450250Y-66216554D01*
X54393187Y-66183608D01*
X54329539Y-66166554D01*
X54265892Y-66149500D01*
X54134108Y-66149500D01*
X54006812Y-66183608D01*
X53892686Y-66249500D01*
X53892683Y-66249502D01*
X53799502Y-66342683D01*
X53799500Y-66342686D01*
X53733608Y-66456812D01*
X53723221Y-66495578D01*
X53699500Y-66584108D01*
X45150500Y-66584108D01*
X45150500Y-65534108D01*
X60099500Y-65534108D01*
X60099500Y-65665891D01*
X60133608Y-65793187D01*
X60166554Y-65850250D01*
X60199500Y-65907314D01*
X60292686Y-66000500D01*
X60406814Y-66066392D01*
X60534108Y-66100500D01*
X60534110Y-66100500D01*
X60665890Y-66100500D01*
X60665892Y-66100500D01*
X60793186Y-66066392D01*
X60907314Y-66000500D01*
X61000500Y-65907314D01*
X61066392Y-65793186D01*
X61100500Y-65665892D01*
X61100500Y-65534108D01*
X62899500Y-65534108D01*
X62899500Y-65665891D01*
X62933608Y-65793187D01*
X62966554Y-65850250D01*
X62999500Y-65907314D01*
X63092686Y-66000500D01*
X63206814Y-66066392D01*
X63334108Y-66100500D01*
X63334110Y-66100500D01*
X63465890Y-66100500D01*
X63465892Y-66100500D01*
X63593186Y-66066392D01*
X63707314Y-66000500D01*
X63800500Y-65907314D01*
X63866392Y-65793186D01*
X63900500Y-65665892D01*
X63900500Y-65534108D01*
X63866392Y-65406814D01*
X63800500Y-65292686D01*
X63707314Y-65199500D01*
X63650250Y-65166554D01*
X63593187Y-65133608D01*
X63529539Y-65116554D01*
X63465892Y-65099500D01*
X63334108Y-65099500D01*
X63206812Y-65133608D01*
X63092686Y-65199500D01*
X63092683Y-65199502D01*
X62999502Y-65292683D01*
X62999500Y-65292686D01*
X62933608Y-65406812D01*
X62899500Y-65534108D01*
X61100500Y-65534108D01*
X61066392Y-65406814D01*
X61000500Y-65292686D01*
X60907314Y-65199500D01*
X60850250Y-65166554D01*
X60793187Y-65133608D01*
X60729539Y-65116554D01*
X60665892Y-65099500D01*
X60534108Y-65099500D01*
X60406812Y-65133608D01*
X60292686Y-65199500D01*
X60292683Y-65199502D01*
X60199502Y-65292683D01*
X60199500Y-65292686D01*
X60133608Y-65406812D01*
X60099500Y-65534108D01*
X45150500Y-65534108D01*
X45150500Y-64134108D01*
X53699500Y-64134108D01*
X53699500Y-64265892D01*
X53709887Y-64304656D01*
X53733608Y-64393187D01*
X53755988Y-64431950D01*
X53799500Y-64507314D01*
X53892686Y-64600500D01*
X54006814Y-64666392D01*
X54134108Y-64700500D01*
X54134110Y-64700500D01*
X54265890Y-64700500D01*
X54265892Y-64700500D01*
X54393186Y-64666392D01*
X54507314Y-64600500D01*
X54600500Y-64507314D01*
X54666392Y-64393186D01*
X54700500Y-64265892D01*
X54700500Y-64172872D01*
X70298925Y-64172872D01*
X70298925Y-64304655D01*
X70333033Y-64431951D01*
X70365979Y-64489014D01*
X70398925Y-64546078D01*
X70492111Y-64639264D01*
X70590946Y-64696327D01*
X70598174Y-64700500D01*
X70606239Y-64705156D01*
X70733533Y-64739264D01*
X70733535Y-64739264D01*
X70865315Y-64739264D01*
X70865317Y-64739264D01*
X70992611Y-64705156D01*
X71106739Y-64639264D01*
X71199925Y-64546078D01*
X71265817Y-64431950D01*
X71299925Y-64304656D01*
X71299925Y-64172872D01*
X71265817Y-64045578D01*
X71199925Y-63931450D01*
X71106739Y-63838264D01*
X71049675Y-63805318D01*
X70992612Y-63772372D01*
X70928964Y-63755318D01*
X70865317Y-63738264D01*
X70733533Y-63738264D01*
X70606237Y-63772372D01*
X70492111Y-63838264D01*
X70492108Y-63838266D01*
X70398927Y-63931447D01*
X70398925Y-63931450D01*
X70333033Y-64045576D01*
X70298925Y-64172872D01*
X54700500Y-64172872D01*
X54700500Y-64134108D01*
X54666392Y-64006814D01*
X54600500Y-63892686D01*
X54507314Y-63799500D01*
X54450250Y-63766554D01*
X54393187Y-63733608D01*
X54329539Y-63716554D01*
X54265892Y-63699500D01*
X54134108Y-63699500D01*
X54006812Y-63733608D01*
X53892686Y-63799500D01*
X53892683Y-63799502D01*
X53799502Y-63892683D01*
X53799500Y-63892686D01*
X53733608Y-64006812D01*
X53723221Y-64045578D01*
X53699500Y-64134108D01*
X45150500Y-64134108D01*
X45150500Y-62934108D01*
X60299500Y-62934108D01*
X60299500Y-63065891D01*
X60333608Y-63193187D01*
X60366554Y-63250250D01*
X60399500Y-63307314D01*
X60492686Y-63400500D01*
X60606814Y-63466392D01*
X60734108Y-63500500D01*
X60734110Y-63500500D01*
X60865890Y-63500500D01*
X60865892Y-63500500D01*
X60993186Y-63466392D01*
X61107314Y-63400500D01*
X61200500Y-63307314D01*
X61266392Y-63193186D01*
X61300500Y-63065892D01*
X61300500Y-62934108D01*
X62899500Y-62934108D01*
X62899500Y-63065891D01*
X62933608Y-63193187D01*
X62966554Y-63250250D01*
X62999500Y-63307314D01*
X63092686Y-63400500D01*
X63206814Y-63466392D01*
X63334108Y-63500500D01*
X63334110Y-63500500D01*
X63465890Y-63500500D01*
X63465892Y-63500500D01*
X63593186Y-63466392D01*
X63707314Y-63400500D01*
X63800500Y-63307314D01*
X63866392Y-63193186D01*
X63900500Y-63065892D01*
X63900500Y-62934108D01*
X63866392Y-62806814D01*
X63800500Y-62692686D01*
X63707314Y-62599500D01*
X63650250Y-62566554D01*
X63593187Y-62533608D01*
X63529539Y-62516554D01*
X63465892Y-62499500D01*
X63334108Y-62499500D01*
X63206812Y-62533608D01*
X63092686Y-62599500D01*
X63092683Y-62599502D01*
X62999502Y-62692683D01*
X62999500Y-62692686D01*
X62933608Y-62806812D01*
X62899500Y-62934108D01*
X61300500Y-62934108D01*
X61266392Y-62806814D01*
X61200500Y-62692686D01*
X61107314Y-62599500D01*
X61050250Y-62566554D01*
X60993187Y-62533608D01*
X60929539Y-62516554D01*
X60865892Y-62499500D01*
X60734108Y-62499500D01*
X60606812Y-62533608D01*
X60492686Y-62599500D01*
X60492683Y-62599502D01*
X60399502Y-62692683D01*
X60399500Y-62692686D01*
X60333608Y-62806812D01*
X60299500Y-62934108D01*
X45150500Y-62934108D01*
X45150500Y-61684108D01*
X53699500Y-61684108D01*
X53699500Y-61815892D01*
X53709887Y-61854656D01*
X53733608Y-61943187D01*
X53755988Y-61981950D01*
X53799500Y-62057314D01*
X53892686Y-62150500D01*
X54006814Y-62216392D01*
X54134108Y-62250500D01*
X54134110Y-62250500D01*
X54265890Y-62250500D01*
X54265892Y-62250500D01*
X54393186Y-62216392D01*
X54507314Y-62150500D01*
X54600500Y-62057314D01*
X54666392Y-61943186D01*
X54700500Y-61815892D01*
X54700500Y-61722872D01*
X70298925Y-61722872D01*
X70298925Y-61854655D01*
X70333033Y-61981951D01*
X70365979Y-62039014D01*
X70398925Y-62096078D01*
X70492111Y-62189264D01*
X70590946Y-62246327D01*
X70598174Y-62250500D01*
X70606239Y-62255156D01*
X70733533Y-62289264D01*
X70733535Y-62289264D01*
X70865315Y-62289264D01*
X70865317Y-62289264D01*
X70992611Y-62255156D01*
X71106739Y-62189264D01*
X71199925Y-62096078D01*
X71265817Y-61981950D01*
X71299925Y-61854656D01*
X71299925Y-61722872D01*
X71265817Y-61595578D01*
X71199925Y-61481450D01*
X71106739Y-61388264D01*
X71049675Y-61355318D01*
X70992612Y-61322372D01*
X70928964Y-61305318D01*
X70865317Y-61288264D01*
X70733533Y-61288264D01*
X70606237Y-61322372D01*
X70492111Y-61388264D01*
X70492108Y-61388266D01*
X70398927Y-61481447D01*
X70398925Y-61481450D01*
X70333033Y-61595576D01*
X70298925Y-61722872D01*
X54700500Y-61722872D01*
X54700500Y-61684108D01*
X54666392Y-61556814D01*
X54600500Y-61442686D01*
X54507314Y-61349500D01*
X54450250Y-61316554D01*
X54393187Y-61283608D01*
X54329539Y-61266554D01*
X54265892Y-61249500D01*
X54134108Y-61249500D01*
X54006812Y-61283608D01*
X53892686Y-61349500D01*
X53892683Y-61349502D01*
X53799502Y-61442683D01*
X53799500Y-61442686D01*
X53733608Y-61556812D01*
X53723221Y-61595578D01*
X53699500Y-61684108D01*
X45150500Y-61684108D01*
X45150500Y-60334108D01*
X60299500Y-60334108D01*
X60299500Y-60465891D01*
X60333608Y-60593187D01*
X60366554Y-60650250D01*
X60399500Y-60707314D01*
X60492686Y-60800500D01*
X60606814Y-60866392D01*
X60734108Y-60900500D01*
X60734110Y-60900500D01*
X60865890Y-60900500D01*
X60865892Y-60900500D01*
X60993186Y-60866392D01*
X61107314Y-60800500D01*
X61200500Y-60707314D01*
X61266392Y-60593186D01*
X61300500Y-60465892D01*
X61300500Y-60334108D01*
X62899500Y-60334108D01*
X62899500Y-60465891D01*
X62933608Y-60593187D01*
X62966554Y-60650250D01*
X62999500Y-60707314D01*
X63092686Y-60800500D01*
X63206814Y-60866392D01*
X63334108Y-60900500D01*
X63334110Y-60900500D01*
X63465890Y-60900500D01*
X63465892Y-60900500D01*
X63593186Y-60866392D01*
X63707314Y-60800500D01*
X63800500Y-60707314D01*
X63866392Y-60593186D01*
X63900500Y-60465892D01*
X63900500Y-60334108D01*
X63866392Y-60206814D01*
X63800500Y-60092686D01*
X63707314Y-59999500D01*
X63650250Y-59966554D01*
X63593187Y-59933608D01*
X63529539Y-59916554D01*
X63465892Y-59899500D01*
X63334108Y-59899500D01*
X63206812Y-59933608D01*
X63092686Y-59999500D01*
X63092683Y-59999502D01*
X62999502Y-60092683D01*
X62999500Y-60092686D01*
X62933608Y-60206812D01*
X62899500Y-60334108D01*
X61300500Y-60334108D01*
X61266392Y-60206814D01*
X61200500Y-60092686D01*
X61107314Y-59999500D01*
X61050250Y-59966554D01*
X60993187Y-59933608D01*
X60929539Y-59916554D01*
X60865892Y-59899500D01*
X60734108Y-59899500D01*
X60606812Y-59933608D01*
X60492686Y-59999500D01*
X60492683Y-59999502D01*
X60399502Y-60092683D01*
X60399500Y-60092686D01*
X60333608Y-60206812D01*
X60299500Y-60334108D01*
X45150500Y-60334108D01*
X45150500Y-58984108D01*
X53699500Y-58984108D01*
X53699500Y-59115892D01*
X53709887Y-59154656D01*
X53733608Y-59243187D01*
X53755988Y-59281950D01*
X53799500Y-59357314D01*
X53892686Y-59450500D01*
X54006814Y-59516392D01*
X54134108Y-59550500D01*
X54134110Y-59550500D01*
X54265890Y-59550500D01*
X54265892Y-59550500D01*
X54393186Y-59516392D01*
X54507314Y-59450500D01*
X54600500Y-59357314D01*
X54666392Y-59243186D01*
X54700500Y-59115892D01*
X54700500Y-59022872D01*
X70298925Y-59022872D01*
X70298925Y-59154655D01*
X70333033Y-59281951D01*
X70365979Y-59339014D01*
X70398925Y-59396078D01*
X70492111Y-59489264D01*
X70590946Y-59546327D01*
X70598174Y-59550500D01*
X70606239Y-59555156D01*
X70733533Y-59589264D01*
X70733535Y-59589264D01*
X70865315Y-59589264D01*
X70865317Y-59589264D01*
X70992611Y-59555156D01*
X71106739Y-59489264D01*
X71199925Y-59396078D01*
X71265817Y-59281950D01*
X71299925Y-59154656D01*
X71299925Y-59022872D01*
X71265817Y-58895578D01*
X71199925Y-58781450D01*
X71106739Y-58688264D01*
X71049675Y-58655318D01*
X70992612Y-58622372D01*
X70928964Y-58605318D01*
X70865317Y-58588264D01*
X70733533Y-58588264D01*
X70606237Y-58622372D01*
X70492111Y-58688264D01*
X70492108Y-58688266D01*
X70398927Y-58781447D01*
X70398925Y-58781450D01*
X70333033Y-58895576D01*
X70298925Y-59022872D01*
X54700500Y-59022872D01*
X54700500Y-58984108D01*
X54666392Y-58856814D01*
X54600500Y-58742686D01*
X54507314Y-58649500D01*
X54450250Y-58616554D01*
X54393187Y-58583608D01*
X54329539Y-58566554D01*
X54265892Y-58549500D01*
X54134108Y-58549500D01*
X54006812Y-58583608D01*
X53892686Y-58649500D01*
X53892683Y-58649502D01*
X53799502Y-58742683D01*
X53799500Y-58742686D01*
X53733608Y-58856812D01*
X53723221Y-58895578D01*
X53699500Y-58984108D01*
X45150500Y-58984108D01*
X45150500Y-57934108D01*
X60499500Y-57934108D01*
X60499500Y-58065891D01*
X60533608Y-58193187D01*
X60566554Y-58250250D01*
X60599500Y-58307314D01*
X60692686Y-58400500D01*
X60806814Y-58466392D01*
X60934108Y-58500500D01*
X60934110Y-58500500D01*
X61065890Y-58500500D01*
X61065892Y-58500500D01*
X61193186Y-58466392D01*
X61307314Y-58400500D01*
X61400500Y-58307314D01*
X61466392Y-58193186D01*
X61500500Y-58065892D01*
X61500500Y-57934108D01*
X62899500Y-57934108D01*
X62899500Y-58065891D01*
X62933608Y-58193187D01*
X62966554Y-58250250D01*
X62999500Y-58307314D01*
X63092686Y-58400500D01*
X63206814Y-58466392D01*
X63334108Y-58500500D01*
X63334110Y-58500500D01*
X63465890Y-58500500D01*
X63465892Y-58500500D01*
X63593186Y-58466392D01*
X63707314Y-58400500D01*
X63800500Y-58307314D01*
X63866392Y-58193186D01*
X63900500Y-58065892D01*
X63900500Y-57934108D01*
X63866392Y-57806814D01*
X63800500Y-57692686D01*
X63707314Y-57599500D01*
X63650250Y-57566554D01*
X63593187Y-57533608D01*
X63529539Y-57516554D01*
X63465892Y-57499500D01*
X63334108Y-57499500D01*
X63206812Y-57533608D01*
X63092686Y-57599500D01*
X63092683Y-57599502D01*
X62999502Y-57692683D01*
X62999500Y-57692686D01*
X62933608Y-57806812D01*
X62899500Y-57934108D01*
X61500500Y-57934108D01*
X61466392Y-57806814D01*
X61400500Y-57692686D01*
X61307314Y-57599500D01*
X61250250Y-57566554D01*
X61193187Y-57533608D01*
X61129539Y-57516554D01*
X61065892Y-57499500D01*
X60934108Y-57499500D01*
X60806812Y-57533608D01*
X60692686Y-57599500D01*
X60692683Y-57599502D01*
X60599502Y-57692683D01*
X60599500Y-57692686D01*
X60533608Y-57806812D01*
X60499500Y-57934108D01*
X45150500Y-57934108D01*
X45150500Y-54591530D01*
X47609500Y-54591530D01*
X47609500Y-54798469D01*
X47649868Y-55001412D01*
X47649870Y-55001420D01*
X47729058Y-55192596D01*
X47844024Y-55364657D01*
X47990342Y-55510975D01*
X47990345Y-55510977D01*
X48162402Y-55625941D01*
X48353580Y-55705130D01*
X48556530Y-55745499D01*
X48556534Y-55745500D01*
X48556535Y-55745500D01*
X50063466Y-55745500D01*
X50063467Y-55745499D01*
X50266420Y-55705130D01*
X50457598Y-55625941D01*
X50629655Y-55510977D01*
X50775977Y-55364655D01*
X50890941Y-55192598D01*
X50970130Y-55001420D01*
X51010500Y-54798465D01*
X51010500Y-54591535D01*
X51010499Y-54591530D01*
X74009500Y-54591530D01*
X74009500Y-54798469D01*
X74049868Y-55001412D01*
X74049870Y-55001420D01*
X74129058Y-55192596D01*
X74244024Y-55364657D01*
X74390342Y-55510975D01*
X74390345Y-55510977D01*
X74562402Y-55625941D01*
X74753580Y-55705130D01*
X74956530Y-55745499D01*
X74956534Y-55745500D01*
X74956535Y-55745500D01*
X76463466Y-55745500D01*
X76463467Y-55745499D01*
X76666420Y-55705130D01*
X76857598Y-55625941D01*
X77029655Y-55510977D01*
X77175977Y-55364655D01*
X77290941Y-55192598D01*
X77370130Y-55001420D01*
X77410500Y-54798465D01*
X77410500Y-54591535D01*
X77370130Y-54388580D01*
X77290941Y-54197402D01*
X77175977Y-54025345D01*
X77175975Y-54025342D01*
X77029657Y-53879024D01*
X76943626Y-53821541D01*
X76857598Y-53764059D01*
X76666420Y-53684870D01*
X76666412Y-53684868D01*
X76463469Y-53644500D01*
X76463465Y-53644500D01*
X74956535Y-53644500D01*
X74956530Y-53644500D01*
X74753587Y-53684868D01*
X74753579Y-53684870D01*
X74562403Y-53764058D01*
X74390342Y-53879024D01*
X74244024Y-54025342D01*
X74129058Y-54197403D01*
X74049870Y-54388579D01*
X74049868Y-54388587D01*
X74009500Y-54591530D01*
X51010499Y-54591530D01*
X50970130Y-54388580D01*
X50890941Y-54197402D01*
X50775977Y-54025345D01*
X50775975Y-54025342D01*
X50629657Y-53879024D01*
X50543626Y-53821541D01*
X50457598Y-53764059D01*
X50266420Y-53684870D01*
X50266412Y-53684868D01*
X50063469Y-53644500D01*
X50063465Y-53644500D01*
X48556535Y-53644500D01*
X48556530Y-53644500D01*
X48353587Y-53684868D01*
X48353579Y-53684870D01*
X48162403Y-53764058D01*
X47990342Y-53879024D01*
X47844024Y-54025342D01*
X47729058Y-54197403D01*
X47649870Y-54388579D01*
X47649868Y-54388587D01*
X47609500Y-54591530D01*
X45150500Y-54591530D01*
X45150500Y-52051530D01*
X47609500Y-52051530D01*
X47609500Y-52258469D01*
X47649868Y-52461412D01*
X47649870Y-52461420D01*
X47729058Y-52652596D01*
X47844024Y-52824657D01*
X47990342Y-52970975D01*
X47990345Y-52970977D01*
X48162402Y-53085941D01*
X48353580Y-53165130D01*
X48556530Y-53205499D01*
X48556534Y-53205500D01*
X48556535Y-53205500D01*
X50063466Y-53205500D01*
X50063467Y-53205499D01*
X50266420Y-53165130D01*
X50457598Y-53085941D01*
X50629655Y-52970977D01*
X50775977Y-52824655D01*
X50890941Y-52652598D01*
X50970130Y-52461420D01*
X51010500Y-52258465D01*
X51010500Y-52051535D01*
X51010499Y-52051530D01*
X74009500Y-52051530D01*
X74009500Y-52258469D01*
X74049868Y-52461412D01*
X74049870Y-52461420D01*
X74129058Y-52652596D01*
X74244024Y-52824657D01*
X74390342Y-52970975D01*
X74390345Y-52970977D01*
X74562402Y-53085941D01*
X74753580Y-53165130D01*
X74956530Y-53205499D01*
X74956534Y-53205500D01*
X74956535Y-53205500D01*
X76463466Y-53205500D01*
X76463467Y-53205499D01*
X76666420Y-53165130D01*
X76857598Y-53085941D01*
X77029655Y-52970977D01*
X77175977Y-52824655D01*
X77290941Y-52652598D01*
X77370130Y-52461420D01*
X77410500Y-52258465D01*
X77410500Y-52051535D01*
X77370130Y-51848580D01*
X77290941Y-51657402D01*
X77175977Y-51485345D01*
X77175975Y-51485342D01*
X77029657Y-51339024D01*
X76943626Y-51281541D01*
X76857598Y-51224059D01*
X76666420Y-51144870D01*
X76666412Y-51144868D01*
X76463469Y-51104500D01*
X76463465Y-51104500D01*
X74956535Y-51104500D01*
X74956530Y-51104500D01*
X74753587Y-51144868D01*
X74753579Y-51144870D01*
X74562403Y-51224058D01*
X74390342Y-51339024D01*
X74244024Y-51485342D01*
X74129058Y-51657403D01*
X74049870Y-51848579D01*
X74049868Y-51848587D01*
X74009500Y-52051530D01*
X51010499Y-52051530D01*
X50970130Y-51848580D01*
X50890941Y-51657402D01*
X50775977Y-51485345D01*
X50775975Y-51485342D01*
X50629657Y-51339024D01*
X50543626Y-51281541D01*
X50457598Y-51224059D01*
X50266420Y-51144870D01*
X50266412Y-51144868D01*
X50063469Y-51104500D01*
X50063465Y-51104500D01*
X48556535Y-51104500D01*
X48556530Y-51104500D01*
X48353587Y-51144868D01*
X48353579Y-51144870D01*
X48162403Y-51224058D01*
X47990342Y-51339024D01*
X47844024Y-51485342D01*
X47729058Y-51657403D01*
X47649870Y-51848579D01*
X47649868Y-51848587D01*
X47609500Y-52051530D01*
X45150500Y-52051530D01*
X45150500Y-49511530D01*
X47609500Y-49511530D01*
X47609500Y-49718469D01*
X47649868Y-49921412D01*
X47649870Y-49921420D01*
X47729058Y-50112596D01*
X47844024Y-50284657D01*
X47990342Y-50430975D01*
X47990345Y-50430977D01*
X48162402Y-50545941D01*
X48353580Y-50625130D01*
X48556530Y-50665499D01*
X48556534Y-50665500D01*
X48556535Y-50665500D01*
X50063466Y-50665500D01*
X50063467Y-50665499D01*
X50266420Y-50625130D01*
X50457598Y-50545941D01*
X50629655Y-50430977D01*
X50775977Y-50284655D01*
X50890941Y-50112598D01*
X50970130Y-49921420D01*
X51010500Y-49718465D01*
X51010500Y-49511535D01*
X51010499Y-49511530D01*
X74009500Y-49511530D01*
X74009500Y-49718469D01*
X74049868Y-49921412D01*
X74049870Y-49921420D01*
X74129058Y-50112596D01*
X74244024Y-50284657D01*
X74390342Y-50430975D01*
X74390345Y-50430977D01*
X74562402Y-50545941D01*
X74753580Y-50625130D01*
X74956530Y-50665499D01*
X74956534Y-50665500D01*
X74956535Y-50665500D01*
X76463466Y-50665500D01*
X76463467Y-50665499D01*
X76666420Y-50625130D01*
X76857598Y-50545941D01*
X77029655Y-50430977D01*
X77175977Y-50284655D01*
X77290941Y-50112598D01*
X77370130Y-49921420D01*
X77410500Y-49718465D01*
X77410500Y-49511535D01*
X77370130Y-49308580D01*
X77290941Y-49117402D01*
X77175977Y-48945345D01*
X77175975Y-48945342D01*
X77029657Y-48799024D01*
X76943626Y-48741541D01*
X76857598Y-48684059D01*
X76666420Y-48604870D01*
X76666412Y-48604868D01*
X76463469Y-48564500D01*
X76463465Y-48564500D01*
X74956535Y-48564500D01*
X74956530Y-48564500D01*
X74753587Y-48604868D01*
X74753579Y-48604870D01*
X74562403Y-48684058D01*
X74390342Y-48799024D01*
X74244024Y-48945342D01*
X74129058Y-49117403D01*
X74049870Y-49308579D01*
X74049868Y-49308587D01*
X74009500Y-49511530D01*
X51010499Y-49511530D01*
X50970130Y-49308580D01*
X50890941Y-49117402D01*
X50775977Y-48945345D01*
X50775975Y-48945342D01*
X50629657Y-48799024D01*
X50543626Y-48741541D01*
X50457598Y-48684059D01*
X50266420Y-48604870D01*
X50266412Y-48604868D01*
X50063469Y-48564500D01*
X50063465Y-48564500D01*
X48556535Y-48564500D01*
X48556530Y-48564500D01*
X48353587Y-48604868D01*
X48353579Y-48604870D01*
X48162403Y-48684058D01*
X47990342Y-48799024D01*
X47844024Y-48945342D01*
X47729058Y-49117403D01*
X47649870Y-49308579D01*
X47649868Y-49308587D01*
X47609500Y-49511530D01*
X45150500Y-49511530D01*
X45150500Y-46971530D01*
X47609500Y-46971530D01*
X47609500Y-47178469D01*
X47649868Y-47381412D01*
X47649870Y-47381420D01*
X47729058Y-47572596D01*
X47844024Y-47744657D01*
X47990342Y-47890975D01*
X47990345Y-47890977D01*
X48162402Y-48005941D01*
X48353580Y-48085130D01*
X48556530Y-48125499D01*
X48556534Y-48125500D01*
X48556535Y-48125500D01*
X50063466Y-48125500D01*
X50063467Y-48125499D01*
X50266420Y-48085130D01*
X50457598Y-48005941D01*
X50629655Y-47890977D01*
X50775977Y-47744655D01*
X50890941Y-47572598D01*
X50970130Y-47381420D01*
X51010500Y-47178465D01*
X51010500Y-46971535D01*
X51010499Y-46971530D01*
X74009500Y-46971530D01*
X74009500Y-47178469D01*
X74049868Y-47381412D01*
X74049870Y-47381420D01*
X74129058Y-47572596D01*
X74244024Y-47744657D01*
X74390342Y-47890975D01*
X74390345Y-47890977D01*
X74562402Y-48005941D01*
X74753580Y-48085130D01*
X74956530Y-48125499D01*
X74956534Y-48125500D01*
X74956535Y-48125500D01*
X76463466Y-48125500D01*
X76463467Y-48125499D01*
X76666420Y-48085130D01*
X76857598Y-48005941D01*
X77029655Y-47890977D01*
X77175977Y-47744655D01*
X77290941Y-47572598D01*
X77370130Y-47381420D01*
X77410500Y-47178465D01*
X77410500Y-46971535D01*
X77370130Y-46768580D01*
X77290941Y-46577402D01*
X77175977Y-46405345D01*
X77175975Y-46405342D01*
X77029657Y-46259024D01*
X76943626Y-46201541D01*
X76857598Y-46144059D01*
X76666420Y-46064870D01*
X76666412Y-46064868D01*
X76463469Y-46024500D01*
X76463465Y-46024500D01*
X74956535Y-46024500D01*
X74956530Y-46024500D01*
X74753587Y-46064868D01*
X74753579Y-46064870D01*
X74562403Y-46144058D01*
X74390342Y-46259024D01*
X74244024Y-46405342D01*
X74129058Y-46577403D01*
X74049870Y-46768579D01*
X74049868Y-46768587D01*
X74009500Y-46971530D01*
X51010499Y-46971530D01*
X50970130Y-46768580D01*
X50890941Y-46577402D01*
X50775977Y-46405345D01*
X50775975Y-46405342D01*
X50629657Y-46259024D01*
X50543626Y-46201541D01*
X50457598Y-46144059D01*
X50266420Y-46064870D01*
X50266412Y-46064868D01*
X50063469Y-46024500D01*
X50063465Y-46024500D01*
X48556535Y-46024500D01*
X48556530Y-46024500D01*
X48353587Y-46064868D01*
X48353579Y-46064870D01*
X48162403Y-46144058D01*
X47990342Y-46259024D01*
X47844024Y-46405342D01*
X47729058Y-46577403D01*
X47649870Y-46768579D01*
X47649868Y-46768587D01*
X47609500Y-46971530D01*
X45150500Y-46971530D01*
X45150500Y-37554999D01*
X47225884Y-37554999D01*
X47225885Y-37555000D01*
X47866988Y-37555000D01*
X47834075Y-37612007D01*
X47800000Y-37739174D01*
X47800000Y-37870826D01*
X47834075Y-37997993D01*
X47866988Y-38055000D01*
X47225885Y-38055000D01*
X47227085Y-38062584D01*
X47280591Y-38227255D01*
X47359195Y-38381524D01*
X47460967Y-38521602D01*
X47583397Y-38644032D01*
X47723475Y-38745804D01*
X47877744Y-38824408D01*
X48042415Y-38877914D01*
X48042414Y-38877914D01*
X48049999Y-38879115D01*
X48050000Y-38879114D01*
X48050000Y-38238012D01*
X48107007Y-38270925D01*
X48234174Y-38305000D01*
X48365826Y-38305000D01*
X48492993Y-38270925D01*
X48550000Y-38238012D01*
X48550000Y-38879115D01*
X48557584Y-38877914D01*
X48722255Y-38824408D01*
X48876524Y-38745804D01*
X49016602Y-38644032D01*
X49139032Y-38521602D01*
X49240804Y-38381524D01*
X49319408Y-38227255D01*
X49372914Y-38062584D01*
X49374115Y-38055000D01*
X48733012Y-38055000D01*
X48765925Y-37997993D01*
X48800000Y-37870826D01*
X48800000Y-37739174D01*
X48789913Y-37701530D01*
X49789500Y-37701530D01*
X49789500Y-37908469D01*
X49829868Y-38111412D01*
X49829870Y-38111420D01*
X49909058Y-38302596D01*
X50024024Y-38474657D01*
X50170342Y-38620975D01*
X50170345Y-38620977D01*
X50342402Y-38735941D01*
X50533580Y-38815130D01*
X50736530Y-38855499D01*
X50736534Y-38855500D01*
X50736535Y-38855500D01*
X50943466Y-38855500D01*
X50943467Y-38855499D01*
X51146420Y-38815130D01*
X51337598Y-38735941D01*
X51509655Y-38620977D01*
X51655977Y-38474655D01*
X51770941Y-38302598D01*
X51850130Y-38111420D01*
X51890500Y-37908465D01*
X51890500Y-37701535D01*
X51850130Y-37498580D01*
X51770941Y-37307402D01*
X51655977Y-37135345D01*
X51655975Y-37135342D01*
X51509657Y-36989024D01*
X51423626Y-36931541D01*
X51337598Y-36874059D01*
X51313784Y-36864195D01*
X51146420Y-36794870D01*
X51146412Y-36794868D01*
X50943469Y-36754500D01*
X50943465Y-36754500D01*
X50736535Y-36754500D01*
X50736530Y-36754500D01*
X50533587Y-36794868D01*
X50533579Y-36794870D01*
X50342403Y-36874058D01*
X50170342Y-36989024D01*
X50024024Y-37135342D01*
X49909058Y-37307403D01*
X49829870Y-37498579D01*
X49829868Y-37498587D01*
X49789500Y-37701530D01*
X48789913Y-37701530D01*
X48765925Y-37612007D01*
X48733012Y-37555000D01*
X49374115Y-37555000D01*
X49374115Y-37554999D01*
X49372914Y-37547415D01*
X49319408Y-37382744D01*
X49240804Y-37228475D01*
X49139032Y-37088397D01*
X49016602Y-36965967D01*
X48876524Y-36864195D01*
X48722257Y-36785591D01*
X48557589Y-36732087D01*
X48557581Y-36732085D01*
X48550000Y-36730884D01*
X48550000Y-37371988D01*
X48492993Y-37339075D01*
X48365826Y-37305000D01*
X48234174Y-37305000D01*
X48107007Y-37339075D01*
X48050000Y-37371988D01*
X48050000Y-36730884D01*
X48049999Y-36730884D01*
X48042418Y-36732085D01*
X48042410Y-36732087D01*
X47877742Y-36785591D01*
X47723475Y-36864195D01*
X47583397Y-36965967D01*
X47460967Y-37088397D01*
X47359195Y-37228475D01*
X47280591Y-37382744D01*
X47227085Y-37547415D01*
X47225884Y-37554999D01*
X45150500Y-37554999D01*
X45150500Y-35161530D01*
X47249500Y-35161530D01*
X47249500Y-35368469D01*
X47289868Y-35571412D01*
X47289870Y-35571420D01*
X47369058Y-35762596D01*
X47484024Y-35934657D01*
X47630342Y-36080975D01*
X47630345Y-36080977D01*
X47802402Y-36195941D01*
X47993580Y-36275130D01*
X48196530Y-36315499D01*
X48196534Y-36315500D01*
X48196535Y-36315500D01*
X48403466Y-36315500D01*
X48403467Y-36315499D01*
X48606420Y-36275130D01*
X48797598Y-36195941D01*
X48969655Y-36080977D01*
X49115977Y-35934655D01*
X49230941Y-35762598D01*
X49310130Y-35571420D01*
X49350500Y-35368465D01*
X49350500Y-35161535D01*
X49350499Y-35161530D01*
X49789500Y-35161530D01*
X49789500Y-35368469D01*
X49829868Y-35571412D01*
X49829870Y-35571420D01*
X49909058Y-35762596D01*
X50024024Y-35934657D01*
X50170342Y-36080975D01*
X50170345Y-36080977D01*
X50342402Y-36195941D01*
X50533580Y-36275130D01*
X50736530Y-36315499D01*
X50736534Y-36315500D01*
X50736535Y-36315500D01*
X50943466Y-36315500D01*
X50943467Y-36315499D01*
X51146420Y-36275130D01*
X51337598Y-36195941D01*
X51509655Y-36080977D01*
X51655977Y-35934655D01*
X51770941Y-35762598D01*
X51850130Y-35571420D01*
X51890500Y-35368465D01*
X51890500Y-35161535D01*
X51850130Y-34958580D01*
X51770941Y-34767402D01*
X51655977Y-34595345D01*
X51655975Y-34595342D01*
X51509657Y-34449024D01*
X51423626Y-34391541D01*
X51337598Y-34334059D01*
X51146420Y-34254870D01*
X51146412Y-34254868D01*
X50943469Y-34214500D01*
X50943465Y-34214500D01*
X50736535Y-34214500D01*
X50736530Y-34214500D01*
X50533587Y-34254868D01*
X50533579Y-34254870D01*
X50342403Y-34334058D01*
X50170342Y-34449024D01*
X50024024Y-34595342D01*
X49909058Y-34767403D01*
X49829870Y-34958579D01*
X49829868Y-34958587D01*
X49789500Y-35161530D01*
X49350499Y-35161530D01*
X49310130Y-34958580D01*
X49230941Y-34767402D01*
X49115977Y-34595345D01*
X49115975Y-34595342D01*
X48969657Y-34449024D01*
X48883626Y-34391541D01*
X48797598Y-34334059D01*
X48606420Y-34254870D01*
X48606412Y-34254868D01*
X48403469Y-34214500D01*
X48403465Y-34214500D01*
X48196535Y-34214500D01*
X48196530Y-34214500D01*
X47993587Y-34254868D01*
X47993579Y-34254870D01*
X47802403Y-34334058D01*
X47630342Y-34449024D01*
X47484024Y-34595342D01*
X47369058Y-34767403D01*
X47289870Y-34958579D01*
X47289868Y-34958587D01*
X47249500Y-35161530D01*
X45150500Y-35161530D01*
X45150500Y-31855247D01*
X47249500Y-31855247D01*
X47249500Y-33594752D01*
X47261131Y-33653229D01*
X47261132Y-33653230D01*
X47305447Y-33719552D01*
X47371769Y-33763867D01*
X47371770Y-33763868D01*
X47430247Y-33775499D01*
X47430250Y-33775500D01*
X47430252Y-33775500D01*
X49169750Y-33775500D01*
X49169751Y-33775499D01*
X49184568Y-33772552D01*
X49228229Y-33763868D01*
X49228229Y-33763867D01*
X49228231Y-33763867D01*
X49294552Y-33719552D01*
X49338867Y-33653231D01*
X49338867Y-33653229D01*
X49338868Y-33653229D01*
X49350499Y-33594752D01*
X49350500Y-33594750D01*
X49350500Y-32621530D01*
X49789500Y-32621530D01*
X49789500Y-32828469D01*
X49829868Y-33031412D01*
X49829870Y-33031420D01*
X49909058Y-33222596D01*
X50024024Y-33394657D01*
X50170342Y-33540975D01*
X50170345Y-33540977D01*
X50342402Y-33655941D01*
X50533580Y-33735130D01*
X50678052Y-33763867D01*
X50736530Y-33775499D01*
X50736534Y-33775500D01*
X50736535Y-33775500D01*
X50943466Y-33775500D01*
X50943467Y-33775499D01*
X51146420Y-33735130D01*
X51337598Y-33655941D01*
X51509655Y-33540977D01*
X51655977Y-33394655D01*
X51770941Y-33222598D01*
X51850130Y-33031420D01*
X51890500Y-32828465D01*
X51890500Y-32621535D01*
X51850130Y-32418580D01*
X51770941Y-32227402D01*
X51655977Y-32055345D01*
X51655975Y-32055342D01*
X51509657Y-31909024D01*
X51393187Y-31831202D01*
X51337598Y-31794059D01*
X51306184Y-31781047D01*
X51146420Y-31714870D01*
X51146412Y-31714868D01*
X50943469Y-31674500D01*
X50943465Y-31674500D01*
X50736535Y-31674500D01*
X50736530Y-31674500D01*
X50533587Y-31714868D01*
X50533579Y-31714870D01*
X50342403Y-31794058D01*
X50170342Y-31909024D01*
X50024024Y-32055342D01*
X49909058Y-32227403D01*
X49829870Y-32418579D01*
X49829868Y-32418587D01*
X49789500Y-32621530D01*
X49350500Y-32621530D01*
X49350500Y-31855249D01*
X49350499Y-31855247D01*
X49338868Y-31796770D01*
X49338867Y-31796769D01*
X49294552Y-31730447D01*
X49228230Y-31686132D01*
X49228229Y-31686131D01*
X49169752Y-31674500D01*
X49169748Y-31674500D01*
X47430252Y-31674500D01*
X47430247Y-31674500D01*
X47371770Y-31686131D01*
X47371769Y-31686132D01*
X47305447Y-31730447D01*
X47261132Y-31796769D01*
X47261131Y-31796770D01*
X47249500Y-31855247D01*
X45150500Y-31855247D01*
X45150500Y-25002706D01*
X45150618Y-24997297D01*
X45159801Y-24786974D01*
X45168718Y-24582721D01*
X45169658Y-24571990D01*
X45223468Y-24163255D01*
X45225345Y-24152614D01*
X45272007Y-23942135D01*
X45314574Y-23750128D01*
X45317368Y-23739702D01*
X45441338Y-23346518D01*
X45445024Y-23336390D01*
X45602795Y-22955496D01*
X45607353Y-22945722D01*
X45797713Y-22580045D01*
X45803108Y-22570700D01*
X46024622Y-22222992D01*
X46030812Y-22214152D01*
X46281780Y-21887084D01*
X46288718Y-21878815D01*
X46567238Y-21574866D01*
X46574866Y-21567238D01*
X46878815Y-21288718D01*
X46887084Y-21281780D01*
X47214152Y-21030812D01*
X47222992Y-21024622D01*
X47570700Y-20803108D01*
X47580045Y-20797713D01*
X47945722Y-20607353D01*
X47955496Y-20602795D01*
X48336390Y-20445024D01*
X48346518Y-20441338D01*
X48739702Y-20317368D01*
X48750128Y-20314574D01*
X49152621Y-20225343D01*
X49163255Y-20223468D01*
X49571990Y-20169658D01*
X49582721Y-20168718D01*
X49997297Y-20150617D01*
X50002706Y-20150500D01*
X50034351Y-20150500D01*
X54215650Y-20150500D01*
X54241874Y-20150500D01*
X54258059Y-20151561D01*
G37*
G04 #@! TD.AperFunction*
G04 #@! TA.AperFunction,Conductor*
G36*
X58758058Y-20151561D02*
G01*
X58824273Y-20160278D01*
X58855539Y-20168656D01*
X58909666Y-20191076D01*
X58937698Y-20207259D01*
X58984184Y-20242929D01*
X59007070Y-20265815D01*
X59020866Y-20283794D01*
X59042739Y-20312300D01*
X59058923Y-20340333D01*
X59081343Y-20394460D01*
X59089721Y-20425725D01*
X59098439Y-20491938D01*
X59099500Y-20508125D01*
X59099500Y-25323297D01*
X59132117Y-25466205D01*
X59195717Y-25598272D01*
X59195719Y-25598275D01*
X59195720Y-25598276D01*
X59287116Y-25712883D01*
X59401723Y-25804279D01*
X59533794Y-25867881D01*
X59676706Y-25900500D01*
X59920074Y-25900500D01*
X59987113Y-25920185D01*
X60032868Y-25972989D01*
X60044074Y-26024500D01*
X60044074Y-31894143D01*
X60036495Y-31936831D01*
X58394074Y-36416162D01*
X58394074Y-46444228D01*
X58374389Y-46511267D01*
X58321585Y-46557022D01*
X58272158Y-46568210D01*
X52570158Y-46664041D01*
X52502797Y-46645486D01*
X52456161Y-46593459D01*
X52444074Y-46540059D01*
X52444074Y-31847376D01*
X52458854Y-31788665D01*
X55052708Y-26963333D01*
X55101785Y-26913608D01*
X55169959Y-26898309D01*
X55175464Y-26898797D01*
X55175534Y-26898797D01*
X55322122Y-26898797D01*
X55465033Y-26866178D01*
X55597104Y-26802577D01*
X55711710Y-26711181D01*
X55803106Y-26596575D01*
X55866708Y-26464505D01*
X55899327Y-26321593D01*
X55899327Y-26296337D01*
X55900498Y-26284450D01*
X55900498Y-25095630D01*
X55900499Y-20508110D01*
X55901558Y-20491958D01*
X55910279Y-20425720D01*
X55918655Y-20394463D01*
X55941077Y-20340330D01*
X55957257Y-20312304D01*
X55992932Y-20265811D01*
X56015811Y-20242932D01*
X56062304Y-20207257D01*
X56090330Y-20191077D01*
X56144463Y-20168655D01*
X56175724Y-20160278D01*
X56241942Y-20151561D01*
X56258127Y-20150500D01*
X56284351Y-20150500D01*
X58715649Y-20150500D01*
X58741873Y-20150500D01*
X58758058Y-20151561D01*
G37*
G04 #@! TD.AperFunction*
M02*
