G04 #@! TF.GenerationSoftware,KiCad,Pcbnew,9.0.7+1*
G04 #@! TF.CreationDate,2026-06-05T09:52:22+00:00*
G04 #@! TF.ProjectId,hw-module-xesc,68772d6d-6f64-4756-9c65-2d786573632e,rev?*
G04 #@! TF.SameCoordinates,Original*
G04 #@! TF.FileFunction,Soldermask,Bot*
G04 #@! TF.FilePolarity,Negative*
%FSLAX46Y46*%
G04 Gerber Fmt 4.6, Leading zero omitted, Abs format (unit mm)*
G04 Created by KiCad (PCBNEW 9.0.7+1) date 2026-06-05 09:52:22*
%MOMM*%
%LPD*%
G01*
G04 APERTURE LIST*
%ADD10C,0.100000*%
%ADD11O,1.950000X1.700000*%
%ADD12R,3.800000X3.800000*%
%ADD13C,3.800000*%
%ADD14C,0.900000*%
%ADD15C,8.600000*%
%ADD16R,2.000000X2.000000*%
%ADD17C,2.000000*%
%ADD18R,2.600000X2.600000*%
%ADD19C,2.600000*%
%ADD20O,3.000000X1.700000*%
%ADD21O,1.700000X3.000000*%
%ADD22R,1.700000X1.700000*%
%ADD23O,1.700000X1.700000*%
G04 APERTURE END LIST*
D10*
X55750000Y-19250000D02*
X60000000Y-19250000D01*
X60000000Y-24500000D01*
X55750000Y-24500000D01*
X55750000Y-19250000D01*
G36*
X55750000Y-19250000D02*
G01*
X60000000Y-19250000D01*
X60000000Y-24500000D01*
X55750000Y-24500000D01*
X55750000Y-19250000D01*
G37*
X60500000Y-19250000D02*
X64500000Y-19250000D01*
X64500000Y-24500000D01*
X60500000Y-24500000D01*
X60500000Y-19250000D01*
G36*
X60500000Y-19250000D02*
G01*
X64500000Y-19250000D01*
X64500000Y-24500000D01*
X60500000Y-24500000D01*
X60500000Y-19250000D01*
G37*
X65000000Y-19250000D02*
X69250000Y-19250000D01*
X69250000Y-24500000D01*
X65000000Y-24500000D01*
X65000000Y-19250000D01*
G36*
X65000000Y-19250000D02*
G01*
X69250000Y-19250000D01*
X69250000Y-24500000D01*
X65000000Y-24500000D01*
X65000000Y-19250000D01*
G37*
G36*
G01*
X72225000Y-107350000D02*
X70775000Y-107350000D01*
G75*
G02*
X70525000Y-107100000I0J250000D01*
G01*
X70525000Y-105900000D01*
G75*
G02*
X70775000Y-105650000I250000J0D01*
G01*
X72225000Y-105650000D01*
G75*
G02*
X72475000Y-105900000I0J-250000D01*
G01*
X72475000Y-107100000D01*
G75*
G02*
X72225000Y-107350000I-250000J0D01*
G01*
G37*
D11*
X71500000Y-104000000D03*
X71500000Y-101500000D03*
X71500000Y-99000000D03*
X71500000Y-96500000D03*
D12*
X47900000Y-105750000D03*
D13*
X52900000Y-105750000D03*
D14*
X46775000Y-25000000D03*
X47719581Y-22719581D03*
X47719581Y-27280419D03*
X50000000Y-21775000D03*
D15*
X50000000Y-25000000D03*
D14*
X50000000Y-28225000D03*
X52280419Y-22719581D03*
X52280419Y-27280419D03*
X53225000Y-25000000D03*
D16*
X59382323Y-103250000D03*
D17*
X64382323Y-103250000D03*
D16*
X59382323Y-114500000D03*
D17*
X64382323Y-114500000D03*
D18*
X49695000Y-93955000D03*
D19*
X49695000Y-99035000D03*
D20*
X49310000Y-85175000D03*
X49310000Y-82635000D03*
X49310000Y-77555000D03*
X49310000Y-75015000D03*
X49310000Y-72475000D03*
X49310000Y-80095000D03*
X49310000Y-49615000D03*
X75710000Y-49615000D03*
X49310000Y-47075000D03*
X75710000Y-47075000D03*
X49310000Y-69935000D03*
X75710000Y-87715000D03*
X75710000Y-85175000D03*
X75710000Y-82635000D03*
X75710000Y-80095000D03*
X49310000Y-87715000D03*
X75710000Y-77555000D03*
X49310000Y-67395000D03*
X49310000Y-44535000D03*
X75710000Y-44535000D03*
X49310000Y-41995000D03*
X75710000Y-41995000D03*
D21*
X68860000Y-45035000D03*
X71400000Y-45035000D03*
X68860000Y-41495000D03*
X71400000Y-41495000D03*
X61240000Y-45035000D03*
X63780000Y-45035000D03*
X61240000Y-41495000D03*
X63780000Y-41495000D03*
D20*
X49310000Y-54695000D03*
X75710000Y-54695000D03*
X49310000Y-52155000D03*
X75710000Y-52155000D03*
D21*
X53620000Y-45035000D03*
X56160000Y-45035000D03*
X53620000Y-41495000D03*
X56160000Y-41495000D03*
D14*
X46775000Y-115500000D03*
X47719581Y-113219581D03*
X47719581Y-117780419D03*
X50000000Y-112275000D03*
D15*
X50000000Y-115500000D03*
D14*
X50000000Y-118725000D03*
X52280419Y-113219581D03*
X52280419Y-117780419D03*
X53225000Y-115500000D03*
X71775000Y-115500000D03*
X72719581Y-113219581D03*
X72719581Y-117780419D03*
X75000000Y-112275000D03*
D15*
X75000000Y-115500000D03*
D14*
X75000000Y-118725000D03*
X77280419Y-113219581D03*
X77280419Y-117780419D03*
X78225000Y-115500000D03*
X71775000Y-25000000D03*
X72719581Y-22719581D03*
X72719581Y-27280419D03*
X75000000Y-21775000D03*
D15*
X75000000Y-25000000D03*
D14*
X75000000Y-28225000D03*
X77280419Y-22719581D03*
X77280419Y-27280419D03*
X78225000Y-25000000D03*
D22*
X48300000Y-32725000D03*
D23*
X50840000Y-32725000D03*
X48300000Y-35265000D03*
X50840000Y-35265000D03*
X48300000Y-37805000D03*
X50840000Y-37805000D03*
D18*
X67500000Y-31750000D03*
D19*
X62420000Y-31750000D03*
X57340000Y-31750000D03*
M02*
